%TF.GenerationSoftware,KiCad,Pcbnew,7.0.8-7.0.8~ubuntu22.04.1*%
%TF.CreationDate,2025-01-17T11:03:05+01:00*%
%TF.ProjectId,supply_interface,73757070-6c79-45f6-996e-746572666163,rev?*%
%TF.SameCoordinates,Original*%
%TF.FileFunction,Copper,L1,Top*%
%TF.FilePolarity,Positive*%
%FSLAX46Y46*%
G04 Gerber Fmt 4.6, Leading zero omitted, Abs format (unit mm)*
G04 Created by KiCad (PCBNEW 7.0.8-7.0.8~ubuntu22.04.1) date 2025-01-17 11:03:05*
%MOMM*%
%LPD*%
G01*
G04 APERTURE LIST*
%TA.AperFunction,ComponentPad*%
%ADD10C,0.800000*%
%TD*%
%TA.AperFunction,ComponentPad*%
%ADD11C,6.000000*%
%TD*%
%TA.AperFunction,ComponentPad*%
%ADD12R,1.750000X1.750000*%
%TD*%
%TA.AperFunction,ComponentPad*%
%ADD13C,1.750000*%
%TD*%
%TA.AperFunction,ComponentPad*%
%ADD14C,2.006600*%
%TD*%
%TA.AperFunction,ComponentPad*%
%ADD15R,1.200000X1.200000*%
%TD*%
%TA.AperFunction,ComponentPad*%
%ADD16C,1.200000*%
%TD*%
%TA.AperFunction,ComponentPad*%
%ADD17C,1.800000*%
%TD*%
G04 APERTURE END LIST*
D10*
%TO.P,H4,1*%
%TO.N,N/C*%
X125250000Y-167500000D03*
X125909010Y-165909010D03*
X125909010Y-169090990D03*
X127500000Y-165250000D03*
D11*
X127500000Y-167500000D03*
D10*
X127500000Y-169750000D03*
X129090990Y-165909010D03*
X129090990Y-169090990D03*
X129750000Y-167500000D03*
%TD*%
D12*
%TO.P,J2,1,1*%
%TO.N,12V*%
X60500000Y-79300000D03*
D13*
%TO.P,J2,2,2*%
X60500000Y-83500000D03*
%TO.P,J2,3,3*%
%TO.N,GND*%
X55000000Y-79300000D03*
%TO.P,J2,4,4*%
X55000000Y-83500000D03*
%TD*%
D14*
%TO.P,J9,1,1*%
%TO.N,12V*%
X79000000Y-57820000D03*
%TO.P,J9,2,2*%
%TO.N,GND*%
X79000000Y-62900000D03*
%TD*%
D10*
%TO.P,H2,1*%
%TO.N,N/C*%
X125250000Y-30000000D03*
X125909010Y-28409010D03*
X125909010Y-31590990D03*
X127500000Y-27750000D03*
D11*
X127500000Y-30000000D03*
D10*
X127500000Y-32250000D03*
X129090990Y-28409010D03*
X129090990Y-31590990D03*
X129750000Y-30000000D03*
%TD*%
D15*
%TO.P,PS1,1,-VIN*%
%TO.N,GND*%
X70960000Y-145960000D03*
D16*
%TO.P,PS1,8,NC*%
%TO.N,unconnected-(PS1-NC-Pad8)*%
X88740000Y-145960000D03*
%TO.P,PS1,9,+VOUT*%
%TO.N,24 V*%
X88740000Y-135800000D03*
%TO.P,PS1,10,-VOUT*%
%TO.N,0 V*%
X86200000Y-135800000D03*
%TO.P,PS1,16,+VIN*%
%TO.N,12V*%
X70960000Y-135800000D03*
%TD*%
D14*
%TO.P,J6,1,1*%
%TO.N,12V*%
X115300000Y-125760000D03*
%TO.P,J6,2,2*%
%TO.N,GND*%
X115300000Y-130840000D03*
%TD*%
%TO.P,J11,1,1*%
%TO.N,12V*%
X115050000Y-59360000D03*
%TO.P,J11,2,2*%
%TO.N,GND*%
X115050000Y-64440000D03*
%TD*%
D10*
%TO.P,H3,1*%
%TO.N,N/C*%
X42750000Y-167500000D03*
X43409010Y-165909010D03*
X43409010Y-169090990D03*
X45000000Y-165250000D03*
D11*
X45000000Y-167500000D03*
D10*
X45000000Y-169750000D03*
X46590990Y-165909010D03*
X46590990Y-169090990D03*
X47250000Y-167500000D03*
%TD*%
D12*
%TO.P,J1,1,1*%
%TO.N,3.3V*%
X60590000Y-99710000D03*
D13*
%TO.P,J1,2,2*%
X60590000Y-103910000D03*
%TO.P,J1,3,3*%
%TO.N,GND*%
X60590000Y-108110000D03*
%TO.P,J1,4,4*%
%TO.N,5V*%
X60590000Y-112310000D03*
%TO.P,J1,5,5*%
%TO.N,GND*%
X60590000Y-116510000D03*
%TO.P,J1,6,6*%
%TO.N,5V*%
X60590000Y-120710000D03*
%TO.P,J1,7,7*%
%TO.N,GND*%
X60590000Y-124910000D03*
%TO.P,J1,8,8*%
%TO.N,unconnected-(J1-Pad8)*%
X60590000Y-129110000D03*
%TO.P,J1,9,9*%
%TO.N,unconnected-(J1-Pad9)*%
X60590000Y-133310000D03*
%TO.P,J1,10,10*%
%TO.N,12V*%
X60590000Y-137510000D03*
%TO.P,J1,11,11*%
X60590000Y-141710000D03*
%TO.P,J1,12,12*%
%TO.N,3.3V*%
X60590000Y-145910000D03*
%TO.P,J1,13,13*%
X55090000Y-99710000D03*
%TO.P,J1,14,14*%
%TO.N,-12V*%
X55090000Y-103910000D03*
%TO.P,J1,15,15*%
%TO.N,GND*%
X55090000Y-108110000D03*
%TO.P,J1,16,16*%
%TO.N,unconnected-(J1-Pad16)*%
X55090000Y-112310000D03*
%TO.P,J1,17,17*%
%TO.N,GND*%
X55090000Y-116510000D03*
%TO.P,J1,18,18*%
X55090000Y-120710000D03*
%TO.P,J1,19,19*%
X55090000Y-124910000D03*
%TO.P,J1,20,20*%
%TO.N,-5V*%
X55090000Y-129110000D03*
%TO.P,J1,21,21*%
%TO.N,5V*%
X55090000Y-133310000D03*
%TO.P,J1,22,22*%
X55090000Y-137510000D03*
%TO.P,J1,23,23*%
X55090000Y-141710000D03*
%TO.P,J1,24,24*%
%TO.N,GND*%
X55090000Y-145910000D03*
%TD*%
D12*
%TO.P,J7,1,1*%
%TO.N,12V*%
X60300000Y-58000000D03*
D13*
%TO.P,J7,2,2*%
X60300000Y-62200000D03*
%TO.P,J7,3,3*%
%TO.N,GND*%
X54800000Y-58000000D03*
%TO.P,J7,4,4*%
X54800000Y-62200000D03*
%TD*%
D17*
%TO.P,J5,1,1*%
%TO.N,-12V*%
X78450000Y-98130000D03*
%TO.P,J5,2,2*%
%TO.N,GND*%
X78450000Y-93050000D03*
%TO.P,J5,3,3*%
%TO.N,12V*%
X78450000Y-87970000D03*
%TD*%
D14*
%TO.P,J4,1,1*%
%TO.N,12V*%
X72330000Y-167100000D03*
%TO.P,J4,2,2*%
%TO.N,GND*%
X67250000Y-167100000D03*
%TD*%
%TO.P,J3,1,1*%
%TO.N,12V*%
X105980000Y-167310000D03*
%TO.P,J3,2,2*%
%TO.N,GND*%
X100900000Y-167310000D03*
%TD*%
%TO.P,J12,1,1*%
%TO.N,5V*%
X78150000Y-117664900D03*
%TO.P,J12,2,2*%
%TO.N,GND*%
X78150000Y-122744900D03*
%TD*%
D10*
%TO.P,H1,1*%
%TO.N,N/C*%
X42750000Y-30000000D03*
X43409010Y-28409010D03*
X43409010Y-31590990D03*
X45000000Y-27750000D03*
D11*
X45000000Y-30000000D03*
D10*
X45000000Y-32250000D03*
X46590990Y-28409010D03*
X46590990Y-31590990D03*
X47250000Y-30000000D03*
%TD*%
D14*
%TO.P,J10,1,1*%
%TO.N,24 V*%
X100440000Y-138860000D03*
%TO.P,J10,2,2*%
%TO.N,0 V*%
X100440000Y-143940000D03*
%TD*%
%TO.P,J8,1,1*%
%TO.N,12V*%
X115150000Y-102810000D03*
%TO.P,J8,2,2*%
%TO.N,GND*%
X115150000Y-107890000D03*
%TD*%
%TO.P,J13,1,1*%
%TO.N,12V*%
X114950000Y-78720000D03*
%TO.P,J13,2,2*%
%TO.N,GND*%
X114950000Y-83800000D03*
%TD*%
%TA.AperFunction,Conductor*%
%TO.N,-12V*%
G36*
X84076197Y-95099805D02*
G01*
X84143203Y-95119595D01*
X84188875Y-95172470D01*
X84200000Y-95223805D01*
X84200000Y-101376000D01*
X84180315Y-101443039D01*
X84127511Y-101488794D01*
X84076000Y-101500000D01*
X57900000Y-101500000D01*
X57900000Y-106526000D01*
X57880315Y-106593039D01*
X57827511Y-106638794D01*
X57776000Y-106650000D01*
X52424000Y-106650000D01*
X52356961Y-106630315D01*
X52311206Y-106577511D01*
X52300000Y-106526000D01*
X52300000Y-105172739D01*
X54534365Y-105172739D01*
X54535774Y-105173502D01*
X54535780Y-105173504D01*
X54751298Y-105247492D01*
X54976065Y-105285000D01*
X55203935Y-105285000D01*
X55428701Y-105247492D01*
X55644220Y-105173504D01*
X55644223Y-105173503D01*
X55645633Y-105172739D01*
X55086531Y-104613636D01*
X55073350Y-104622443D01*
X55070315Y-104632782D01*
X55053681Y-104653424D01*
X54534365Y-105172739D01*
X52300000Y-105172739D01*
X52300000Y-103910006D01*
X53710288Y-103910006D01*
X53729103Y-104137085D01*
X53729105Y-104137093D01*
X53785045Y-104357993D01*
X53830735Y-104462156D01*
X53830736Y-104462157D01*
X54297897Y-103994995D01*
X54390000Y-103994995D01*
X54430682Y-104160046D01*
X54509680Y-104310566D01*
X54622405Y-104437806D01*
X54762305Y-104534371D01*
X54921249Y-104594651D01*
X55047660Y-104610000D01*
X55132340Y-104610000D01*
X55258751Y-104594651D01*
X55417695Y-104534371D01*
X55557595Y-104437806D01*
X55670320Y-104310566D01*
X55749318Y-104160046D01*
X55790000Y-103994995D01*
X55790000Y-103906531D01*
X55793636Y-103906531D01*
X56349262Y-104462157D01*
X56349263Y-104462156D01*
X56394951Y-104358001D01*
X56394955Y-104357990D01*
X56450892Y-104137105D01*
X56450896Y-104137085D01*
X56469712Y-103910006D01*
X56469712Y-103909993D01*
X56450896Y-103682914D01*
X56450892Y-103682894D01*
X56394955Y-103462009D01*
X56394955Y-103462008D01*
X56349262Y-103357841D01*
X55833424Y-103873681D01*
X55805339Y-103889016D01*
X55793636Y-103906531D01*
X55790000Y-103906531D01*
X55790000Y-103825005D01*
X55749318Y-103659954D01*
X55670320Y-103509434D01*
X55557595Y-103382194D01*
X55417695Y-103285629D01*
X55258751Y-103225349D01*
X55132340Y-103210000D01*
X55047660Y-103210000D01*
X54921249Y-103225349D01*
X54762305Y-103285629D01*
X54622405Y-103382194D01*
X54509680Y-103509434D01*
X54430682Y-103659954D01*
X54390000Y-103825005D01*
X54390000Y-103994995D01*
X54297897Y-103994995D01*
X54382892Y-103910000D01*
X54382893Y-103909999D01*
X53830736Y-103357842D01*
X53785044Y-103462008D01*
X53729105Y-103682906D01*
X53729103Y-103682914D01*
X53710288Y-103909993D01*
X53710288Y-103910006D01*
X52300000Y-103910006D01*
X52300000Y-102647260D01*
X54534366Y-102647260D01*
X55089999Y-103202893D01*
X55090000Y-103202893D01*
X55090000Y-103202892D01*
X55645633Y-102647259D01*
X55644225Y-102646497D01*
X55428701Y-102572507D01*
X55203935Y-102535000D01*
X54976065Y-102535000D01*
X54751298Y-102572507D01*
X54535774Y-102646497D01*
X54535772Y-102646498D01*
X54534366Y-102647259D01*
X54534366Y-102647260D01*
X52300000Y-102647260D01*
X52300000Y-99710006D01*
X53709786Y-99710006D01*
X53728608Y-99937168D01*
X53728610Y-99937179D01*
X53784569Y-100158155D01*
X53876137Y-100366908D01*
X54000814Y-100557742D01*
X54155208Y-100725458D01*
X54155212Y-100725461D01*
X54335090Y-100865466D01*
X54335094Y-100865469D01*
X54335096Y-100865470D01*
X54335099Y-100865472D01*
X54451646Y-100928543D01*
X54535574Y-100973963D01*
X54647529Y-101012397D01*
X54751173Y-101047979D01*
X54751175Y-101047979D01*
X54751177Y-101047980D01*
X54976023Y-101085500D01*
X54976024Y-101085500D01*
X55203976Y-101085500D01*
X55203977Y-101085500D01*
X55428823Y-101047980D01*
X55644426Y-100973963D01*
X55844906Y-100865469D01*
X56024794Y-100725456D01*
X56110025Y-100632870D01*
X59214500Y-100632870D01*
X59214501Y-100632876D01*
X59220908Y-100692483D01*
X59271202Y-100827328D01*
X59271206Y-100827335D01*
X59357452Y-100942544D01*
X59357455Y-100942547D01*
X59472664Y-101028793D01*
X59472671Y-101028797D01*
X59607517Y-101079091D01*
X59607516Y-101079091D01*
X59614444Y-101079835D01*
X59667127Y-101085500D01*
X61512872Y-101085499D01*
X61572483Y-101079091D01*
X61707331Y-101028796D01*
X61822546Y-100942546D01*
X61908796Y-100827331D01*
X61959091Y-100692483D01*
X61965500Y-100632873D01*
X61965499Y-99411184D01*
X77875921Y-99411184D01*
X77885700Y-99416477D01*
X77885709Y-99416481D01*
X78105139Y-99491811D01*
X78333993Y-99530000D01*
X78566007Y-99530000D01*
X78794860Y-99491811D01*
X79014301Y-99416476D01*
X79024077Y-99411185D01*
X79024078Y-99411184D01*
X78450001Y-98837107D01*
X78450000Y-98837107D01*
X77875921Y-99411184D01*
X61965499Y-99411184D01*
X61965499Y-98787128D01*
X61959091Y-98727517D01*
X61949250Y-98701133D01*
X61908797Y-98592671D01*
X61908793Y-98592664D01*
X61822547Y-98477455D01*
X61822544Y-98477452D01*
X61707335Y-98391206D01*
X61707328Y-98391202D01*
X61572482Y-98340908D01*
X61572483Y-98340908D01*
X61512883Y-98334501D01*
X61512881Y-98334500D01*
X61512873Y-98334500D01*
X61512864Y-98334500D01*
X59667129Y-98334500D01*
X59667123Y-98334501D01*
X59607516Y-98340908D01*
X59472671Y-98391202D01*
X59472664Y-98391206D01*
X59357455Y-98477452D01*
X59357452Y-98477455D01*
X59271206Y-98592664D01*
X59271202Y-98592671D01*
X59220908Y-98727517D01*
X59214501Y-98787116D01*
X59214501Y-98787123D01*
X59214500Y-98787135D01*
X59214500Y-100632870D01*
X56110025Y-100632870D01*
X56179183Y-100557745D01*
X56303862Y-100366909D01*
X56395430Y-100158155D01*
X56451390Y-99937176D01*
X56470214Y-99710000D01*
X56470214Y-99709993D01*
X56451391Y-99482831D01*
X56451389Y-99482820D01*
X56395430Y-99261844D01*
X56303862Y-99053091D01*
X56179185Y-98862257D01*
X56110013Y-98787116D01*
X56024794Y-98694544D01*
X56024793Y-98694543D01*
X56024791Y-98694541D01*
X56024787Y-98694538D01*
X55844909Y-98554533D01*
X55844900Y-98554527D01*
X55644432Y-98446040D01*
X55644429Y-98446039D01*
X55644426Y-98446037D01*
X55644420Y-98446035D01*
X55644418Y-98446034D01*
X55428826Y-98372020D01*
X55242378Y-98340908D01*
X55203977Y-98334500D01*
X54976023Y-98334500D01*
X54937622Y-98340908D01*
X54751173Y-98372020D01*
X54535581Y-98446034D01*
X54535567Y-98446040D01*
X54335099Y-98554527D01*
X54335090Y-98554533D01*
X54155212Y-98694538D01*
X54155208Y-98694541D01*
X54000814Y-98862257D01*
X53876137Y-99053091D01*
X53784569Y-99261844D01*
X53728610Y-99482820D01*
X53728608Y-99482831D01*
X53709786Y-99709993D01*
X53709786Y-99710006D01*
X52300000Y-99710006D01*
X52300000Y-98130005D01*
X77045202Y-98130005D01*
X77064361Y-98361218D01*
X77121317Y-98586135D01*
X77171759Y-98701132D01*
X77742893Y-98130000D01*
X77844823Y-98130000D01*
X77865444Y-98286631D01*
X77925901Y-98432588D01*
X78022075Y-98557925D01*
X78147412Y-98654099D01*
X78293369Y-98714556D01*
X78410677Y-98730000D01*
X78489323Y-98730000D01*
X78606631Y-98714556D01*
X78752588Y-98654099D01*
X78877925Y-98557925D01*
X78974099Y-98432589D01*
X79034556Y-98286631D01*
X79055177Y-98130000D01*
X79157107Y-98130000D01*
X79728239Y-98701133D01*
X79728240Y-98701132D01*
X79778681Y-98586137D01*
X79835638Y-98361218D01*
X79854798Y-98130005D01*
X79854798Y-98129994D01*
X79835638Y-97898781D01*
X79778682Y-97673864D01*
X79728239Y-97558865D01*
X79157107Y-98129999D01*
X79157107Y-98130000D01*
X79055177Y-98130000D01*
X79034556Y-97973369D01*
X78974099Y-97827412D01*
X78877925Y-97702075D01*
X78752588Y-97605901D01*
X78606631Y-97545444D01*
X78489323Y-97530000D01*
X78410677Y-97530000D01*
X78293369Y-97545444D01*
X78147412Y-97605901D01*
X78022075Y-97702075D01*
X77925901Y-97827411D01*
X77865444Y-97973369D01*
X77844823Y-98130000D01*
X77742893Y-98130000D01*
X77171759Y-97558866D01*
X77171758Y-97558866D01*
X77121319Y-97673860D01*
X77121317Y-97673864D01*
X77064361Y-97898781D01*
X77045202Y-98129994D01*
X77045202Y-98130005D01*
X52300000Y-98130005D01*
X52300000Y-96848814D01*
X77875920Y-96848814D01*
X78450000Y-97422893D01*
X78450001Y-97422893D01*
X79024078Y-96848814D01*
X79024078Y-96848813D01*
X79014307Y-96843526D01*
X79014296Y-96843521D01*
X78794860Y-96768188D01*
X78566007Y-96730000D01*
X78333993Y-96730000D01*
X78105139Y-96768188D01*
X77885699Y-96843522D01*
X77875921Y-96848813D01*
X77875920Y-96848814D01*
X52300000Y-96848814D01*
X52300000Y-95174194D01*
X52319685Y-95107155D01*
X52372489Y-95061400D01*
X52424190Y-95050194D01*
X84076197Y-95099805D01*
G37*
%TD.AperFunction*%
%TD*%
%TA.AperFunction,Conductor*%
%TO.N,12V*%
G36*
X132693039Y-25269685D02*
G01*
X132738794Y-25322489D01*
X132750000Y-25374000D01*
X132750000Y-176126000D01*
X132730315Y-176193039D01*
X132677511Y-176238794D01*
X132626000Y-176250000D01*
X40874000Y-176250000D01*
X40806961Y-176230315D01*
X40761206Y-176177511D01*
X40750000Y-176126000D01*
X40750000Y-167500000D01*
X41494696Y-167500000D01*
X41513898Y-167866405D01*
X41532942Y-167986641D01*
X41571295Y-168228794D01*
X41595831Y-168320365D01*
X41666260Y-168583206D01*
X41797746Y-168925739D01*
X41964320Y-169252656D01*
X42164147Y-169560364D01*
X42164149Y-169560366D01*
X42395051Y-169845506D01*
X42654494Y-170104949D01*
X42654498Y-170104952D01*
X42939635Y-170335852D01*
X43247343Y-170535679D01*
X43247348Y-170535682D01*
X43574264Y-170702255D01*
X43916801Y-170833742D01*
X44271206Y-170928705D01*
X44633596Y-170986102D01*
X44979734Y-171004241D01*
X44999999Y-171005304D01*
X45000000Y-171005304D01*
X45000001Y-171005304D01*
X45019203Y-171004297D01*
X45366404Y-170986102D01*
X45728794Y-170928705D01*
X46083199Y-170833742D01*
X46425736Y-170702255D01*
X46752652Y-170535682D01*
X47060366Y-170335851D01*
X47345506Y-170104949D01*
X47604949Y-169845506D01*
X47835851Y-169560366D01*
X48035682Y-169252652D01*
X48202255Y-168925736D01*
X48333742Y-168583199D01*
X48428705Y-168228794D01*
X48486102Y-167866404D01*
X48505304Y-167500000D01*
X48486102Y-167133596D01*
X48480781Y-167100000D01*
X65741550Y-167100000D01*
X65760122Y-167335977D01*
X65815378Y-167566136D01*
X65905960Y-167784822D01*
X66029634Y-167986640D01*
X66029635Y-167986641D01*
X66029636Y-167986643D01*
X66029638Y-167986645D01*
X66183365Y-168166635D01*
X66363355Y-168320362D01*
X66363357Y-168320363D01*
X66363358Y-168320364D01*
X66363359Y-168320365D01*
X66565177Y-168444039D01*
X66773581Y-168530362D01*
X66783863Y-168534621D01*
X67014026Y-168589878D01*
X67250000Y-168608450D01*
X67485974Y-168589878D01*
X67716137Y-168534621D01*
X67934822Y-168444039D01*
X68136645Y-168320362D01*
X68316635Y-168166635D01*
X68470362Y-167986645D01*
X68594039Y-167784822D01*
X68684621Y-167566137D01*
X68739878Y-167335974D01*
X68741922Y-167310000D01*
X99391550Y-167310000D01*
X99410122Y-167545977D01*
X99465378Y-167776136D01*
X99555960Y-167994822D01*
X99679634Y-168196640D01*
X99679635Y-168196641D01*
X99679636Y-168196643D01*
X99679638Y-168196645D01*
X99833365Y-168376635D01*
X100013355Y-168530362D01*
X100013357Y-168530363D01*
X100013358Y-168530364D01*
X100013359Y-168530365D01*
X100215177Y-168654039D01*
X100433863Y-168744621D01*
X100664026Y-168799878D01*
X100900000Y-168818450D01*
X101135974Y-168799878D01*
X101366137Y-168744621D01*
X101584822Y-168654039D01*
X101786645Y-168530362D01*
X101966635Y-168376635D01*
X102120362Y-168196645D01*
X102244039Y-167994822D01*
X102334621Y-167776137D01*
X102389878Y-167545974D01*
X102393496Y-167500000D01*
X123994696Y-167500000D01*
X124013898Y-167866405D01*
X124032942Y-167986641D01*
X124071295Y-168228794D01*
X124095831Y-168320365D01*
X124166260Y-168583206D01*
X124297746Y-168925739D01*
X124464320Y-169252656D01*
X124664147Y-169560364D01*
X124664149Y-169560366D01*
X124895051Y-169845506D01*
X125154494Y-170104949D01*
X125154498Y-170104952D01*
X125439635Y-170335852D01*
X125747343Y-170535679D01*
X125747348Y-170535682D01*
X126074264Y-170702255D01*
X126416801Y-170833742D01*
X126771206Y-170928705D01*
X127133596Y-170986102D01*
X127479734Y-171004241D01*
X127499999Y-171005304D01*
X127500000Y-171005304D01*
X127500001Y-171005304D01*
X127519203Y-171004297D01*
X127866404Y-170986102D01*
X128228794Y-170928705D01*
X128583199Y-170833742D01*
X128925736Y-170702255D01*
X129252652Y-170535682D01*
X129560366Y-170335851D01*
X129845506Y-170104949D01*
X130104949Y-169845506D01*
X130335851Y-169560366D01*
X130535682Y-169252652D01*
X130702255Y-168925736D01*
X130833742Y-168583199D01*
X130928705Y-168228794D01*
X130986102Y-167866404D01*
X131005304Y-167500000D01*
X130986102Y-167133596D01*
X130928705Y-166771206D01*
X130833742Y-166416801D01*
X130702255Y-166074264D01*
X130535682Y-165747348D01*
X130482451Y-165665379D01*
X130335852Y-165439635D01*
X130104952Y-165154498D01*
X130104949Y-165154494D01*
X129845506Y-164895051D01*
X129560366Y-164664149D01*
X129560364Y-164664147D01*
X129252656Y-164464320D01*
X128925739Y-164297746D01*
X128583206Y-164166260D01*
X128583199Y-164166258D01*
X128228794Y-164071295D01*
X128228790Y-164071294D01*
X128228789Y-164071294D01*
X127866405Y-164013898D01*
X127500001Y-163994696D01*
X127499999Y-163994696D01*
X127133594Y-164013898D01*
X126771211Y-164071294D01*
X126771209Y-164071294D01*
X126416793Y-164166260D01*
X126074260Y-164297746D01*
X125747343Y-164464320D01*
X125439635Y-164664147D01*
X125154498Y-164895047D01*
X125154490Y-164895054D01*
X124895054Y-165154490D01*
X124895047Y-165154498D01*
X124664147Y-165439635D01*
X124464320Y-165747343D01*
X124297746Y-166074260D01*
X124166260Y-166416793D01*
X124071294Y-166771209D01*
X124071294Y-166771211D01*
X124013898Y-167133594D01*
X123994696Y-167499999D01*
X123994696Y-167500000D01*
X102393496Y-167500000D01*
X102408450Y-167310000D01*
X102389878Y-167074026D01*
X102334621Y-166843863D01*
X102304526Y-166771206D01*
X102244039Y-166625177D01*
X102120365Y-166423359D01*
X102120364Y-166423358D01*
X102120363Y-166423357D01*
X102120362Y-166423355D01*
X101966635Y-166243365D01*
X101786645Y-166089638D01*
X101786643Y-166089636D01*
X101786641Y-166089635D01*
X101786640Y-166089634D01*
X101584822Y-165965960D01*
X101366136Y-165875378D01*
X101135977Y-165820122D01*
X100900000Y-165801550D01*
X100664022Y-165820122D01*
X100433863Y-165875378D01*
X100215177Y-165965960D01*
X100013359Y-166089634D01*
X100013358Y-166089635D01*
X99833365Y-166243365D01*
X99679635Y-166423358D01*
X99679634Y-166423359D01*
X99555960Y-166625177D01*
X99465378Y-166843863D01*
X99410122Y-167074022D01*
X99391550Y-167310000D01*
X68741922Y-167310000D01*
X68758450Y-167100000D01*
X68739878Y-166864026D01*
X68684621Y-166633863D01*
X68597428Y-166423359D01*
X68594039Y-166415177D01*
X68470365Y-166213359D01*
X68470364Y-166213358D01*
X68470363Y-166213357D01*
X68470362Y-166213355D01*
X68316635Y-166033365D01*
X68136645Y-165879638D01*
X68136643Y-165879636D01*
X68136641Y-165879635D01*
X68136640Y-165879634D01*
X67934822Y-165755960D01*
X67716136Y-165665378D01*
X67485977Y-165610122D01*
X67250000Y-165591550D01*
X67014022Y-165610122D01*
X66783863Y-165665378D01*
X66565177Y-165755960D01*
X66363359Y-165879634D01*
X66363358Y-165879635D01*
X66183365Y-166033365D01*
X66029635Y-166213358D01*
X66029634Y-166213359D01*
X65905960Y-166415177D01*
X65815378Y-166633863D01*
X65760122Y-166864022D01*
X65741550Y-167100000D01*
X48480781Y-167100000D01*
X48428705Y-166771206D01*
X48333742Y-166416801D01*
X48202255Y-166074264D01*
X48035682Y-165747348D01*
X47982451Y-165665379D01*
X47835852Y-165439635D01*
X47604952Y-165154498D01*
X47604949Y-165154494D01*
X47345506Y-164895051D01*
X47060366Y-164664149D01*
X47060364Y-164664147D01*
X46752656Y-164464320D01*
X46425739Y-164297746D01*
X46083206Y-164166260D01*
X46083199Y-164166258D01*
X45728794Y-164071295D01*
X45728790Y-164071294D01*
X45728789Y-164071294D01*
X45366405Y-164013898D01*
X45000001Y-163994696D01*
X44999999Y-163994696D01*
X44633594Y-164013898D01*
X44271211Y-164071294D01*
X44271209Y-164071294D01*
X43916793Y-164166260D01*
X43574260Y-164297746D01*
X43247343Y-164464320D01*
X42939635Y-164664147D01*
X42654498Y-164895047D01*
X42654490Y-164895054D01*
X42395054Y-165154490D01*
X42395047Y-165154498D01*
X42164147Y-165439635D01*
X41964320Y-165747343D01*
X41797746Y-166074260D01*
X41666260Y-166416793D01*
X41571294Y-166771209D01*
X41571294Y-166771211D01*
X41513898Y-167133594D01*
X41494696Y-167499999D01*
X41494696Y-167500000D01*
X40750000Y-167500000D01*
X40750000Y-145910006D01*
X53709786Y-145910006D01*
X53728608Y-146137168D01*
X53728610Y-146137179D01*
X53784569Y-146358155D01*
X53876137Y-146566908D01*
X54000814Y-146757742D01*
X54041861Y-146802331D01*
X54147922Y-146917544D01*
X54155208Y-146925458D01*
X54155212Y-146925461D01*
X54328710Y-147060500D01*
X54335094Y-147065469D01*
X54335096Y-147065470D01*
X54335099Y-147065472D01*
X54451646Y-147128543D01*
X54535574Y-147173963D01*
X54647529Y-147212397D01*
X54751173Y-147247979D01*
X54751175Y-147247979D01*
X54751177Y-147247980D01*
X54976023Y-147285500D01*
X54976024Y-147285500D01*
X55203976Y-147285500D01*
X55203977Y-147285500D01*
X55428823Y-147247980D01*
X55644426Y-147173963D01*
X55844906Y-147065469D01*
X56024794Y-146925456D01*
X56179183Y-146757745D01*
X56303862Y-146566909D01*
X56395430Y-146358155D01*
X56451390Y-146137176D01*
X56466071Y-145960000D01*
X56470214Y-145910006D01*
X59209786Y-145910006D01*
X59228608Y-146137168D01*
X59228610Y-146137179D01*
X59284569Y-146358155D01*
X59376137Y-146566908D01*
X59500814Y-146757742D01*
X59541861Y-146802331D01*
X59647922Y-146917544D01*
X59655208Y-146925458D01*
X59655212Y-146925461D01*
X59828710Y-147060500D01*
X59835094Y-147065469D01*
X59835096Y-147065470D01*
X59835099Y-147065472D01*
X59951646Y-147128543D01*
X60035574Y-147173963D01*
X60147529Y-147212397D01*
X60251173Y-147247979D01*
X60251175Y-147247979D01*
X60251177Y-147247980D01*
X60476023Y-147285500D01*
X60476024Y-147285500D01*
X60703976Y-147285500D01*
X60703977Y-147285500D01*
X60928823Y-147247980D01*
X61144426Y-147173963D01*
X61344906Y-147065469D01*
X61524794Y-146925456D01*
X61679183Y-146757745D01*
X61777101Y-146607870D01*
X69859500Y-146607870D01*
X69859501Y-146607876D01*
X69865908Y-146667483D01*
X69916202Y-146802328D01*
X69916206Y-146802335D01*
X70002452Y-146917544D01*
X70002455Y-146917547D01*
X70117664Y-147003793D01*
X70117671Y-147003797D01*
X70252517Y-147054091D01*
X70252516Y-147054091D01*
X70259444Y-147054835D01*
X70312127Y-147060500D01*
X71607872Y-147060499D01*
X71667483Y-147054091D01*
X71802331Y-147003796D01*
X71917546Y-146917546D01*
X72003796Y-146802331D01*
X72054091Y-146667483D01*
X72060500Y-146607873D01*
X72060499Y-145960000D01*
X87634785Y-145960000D01*
X87653602Y-146163082D01*
X87709417Y-146359247D01*
X87709422Y-146359260D01*
X87800327Y-146541821D01*
X87923237Y-146704581D01*
X88073958Y-146841980D01*
X88073960Y-146841982D01*
X88173141Y-146903392D01*
X88247363Y-146949348D01*
X88437544Y-147023024D01*
X88638024Y-147060500D01*
X88638026Y-147060500D01*
X88841974Y-147060500D01*
X88841976Y-147060500D01*
X89042456Y-147023024D01*
X89232637Y-146949348D01*
X89406041Y-146841981D01*
X89556764Y-146704579D01*
X89679673Y-146541821D01*
X89770582Y-146359250D01*
X89826397Y-146163083D01*
X89845215Y-145960000D01*
X89840582Y-145910006D01*
X89826397Y-145756917D01*
X89805314Y-145682820D01*
X89770582Y-145560750D01*
X89679673Y-145378179D01*
X89556764Y-145215421D01*
X89556762Y-145215418D01*
X89406041Y-145078019D01*
X89406039Y-145078017D01*
X89232642Y-144970655D01*
X89232635Y-144970651D01*
X89137546Y-144933814D01*
X89042456Y-144896976D01*
X88841976Y-144859500D01*
X88638024Y-144859500D01*
X88437544Y-144896976D01*
X88437541Y-144896976D01*
X88437541Y-144896977D01*
X88247364Y-144970651D01*
X88247357Y-144970655D01*
X88073960Y-145078017D01*
X88073958Y-145078019D01*
X87923237Y-145215418D01*
X87800327Y-145378178D01*
X87709422Y-145560739D01*
X87709417Y-145560752D01*
X87653602Y-145756917D01*
X87634785Y-145959999D01*
X87634785Y-145960000D01*
X72060499Y-145960000D01*
X72060499Y-145312128D01*
X72054091Y-145252517D01*
X72019719Y-145160362D01*
X72003797Y-145117671D01*
X72003793Y-145117664D01*
X71917547Y-145002455D01*
X71917544Y-145002452D01*
X71802335Y-144916206D01*
X71802328Y-144916202D01*
X71667482Y-144865908D01*
X71667483Y-144865908D01*
X71607883Y-144859501D01*
X71607881Y-144859500D01*
X71607873Y-144859500D01*
X71607864Y-144859500D01*
X70312129Y-144859500D01*
X70312123Y-144859501D01*
X70252516Y-144865908D01*
X70117671Y-144916202D01*
X70117664Y-144916206D01*
X70002455Y-145002452D01*
X70002452Y-145002455D01*
X69916206Y-145117664D01*
X69916202Y-145117671D01*
X69865908Y-145252517D01*
X69859501Y-145312116D01*
X69859501Y-145312123D01*
X69859500Y-145312135D01*
X69859500Y-146607870D01*
X61777101Y-146607870D01*
X61803862Y-146566909D01*
X61895430Y-146358155D01*
X61951390Y-146137176D01*
X61966071Y-145960000D01*
X61970214Y-145910006D01*
X61970214Y-145909993D01*
X61951391Y-145682831D01*
X61951389Y-145682820D01*
X61895430Y-145461844D01*
X61803862Y-145253091D01*
X61679185Y-145062257D01*
X61544733Y-144916204D01*
X61524794Y-144894544D01*
X61524793Y-144894543D01*
X61524791Y-144894541D01*
X61524787Y-144894538D01*
X61344909Y-144754533D01*
X61344900Y-144754527D01*
X61144432Y-144646040D01*
X61144429Y-144646039D01*
X61144426Y-144646037D01*
X61144420Y-144646035D01*
X61144418Y-144646034D01*
X60928826Y-144572020D01*
X60760188Y-144543880D01*
X60703977Y-144534500D01*
X60476023Y-144534500D01*
X60431053Y-144542004D01*
X60251173Y-144572020D01*
X60035581Y-144646034D01*
X60035567Y-144646040D01*
X59835099Y-144754527D01*
X59835090Y-144754533D01*
X59655212Y-144894538D01*
X59655208Y-144894541D01*
X59500814Y-145062257D01*
X59376137Y-145253091D01*
X59284569Y-145461844D01*
X59228610Y-145682820D01*
X59228608Y-145682831D01*
X59209786Y-145909993D01*
X59209786Y-145910006D01*
X56470214Y-145910006D01*
X56470214Y-145909993D01*
X56451391Y-145682831D01*
X56451389Y-145682820D01*
X56395430Y-145461844D01*
X56303862Y-145253091D01*
X56179185Y-145062257D01*
X56044733Y-144916204D01*
X56024794Y-144894544D01*
X56024793Y-144894543D01*
X56024791Y-144894541D01*
X56024787Y-144894538D01*
X55844909Y-144754533D01*
X55844900Y-144754527D01*
X55644432Y-144646040D01*
X55644429Y-144646039D01*
X55644426Y-144646037D01*
X55644420Y-144646035D01*
X55644418Y-144646034D01*
X55428826Y-144572020D01*
X55260188Y-144543880D01*
X55203977Y-144534500D01*
X54976023Y-144534500D01*
X54931053Y-144542004D01*
X54751173Y-144572020D01*
X54535581Y-144646034D01*
X54535567Y-144646040D01*
X54335099Y-144754527D01*
X54335090Y-144754533D01*
X54155212Y-144894538D01*
X54155208Y-144894541D01*
X54000814Y-145062257D01*
X53876137Y-145253091D01*
X53784569Y-145461844D01*
X53728610Y-145682820D01*
X53728608Y-145682831D01*
X53709786Y-145909993D01*
X53709786Y-145910006D01*
X40750000Y-145910006D01*
X40750000Y-143940000D01*
X98931550Y-143940000D01*
X98950122Y-144175977D01*
X99005378Y-144406136D01*
X99095960Y-144624822D01*
X99219634Y-144826640D01*
X99219635Y-144826641D01*
X99219636Y-144826643D01*
X99219638Y-144826645D01*
X99373365Y-145006635D01*
X99553355Y-145160362D01*
X99553357Y-145160363D01*
X99553358Y-145160364D01*
X99553359Y-145160365D01*
X99755177Y-145284039D01*
X99973863Y-145374621D01*
X100204026Y-145429878D01*
X100440000Y-145448450D01*
X100675974Y-145429878D01*
X100906137Y-145374621D01*
X101124822Y-145284039D01*
X101326645Y-145160362D01*
X101506635Y-145006635D01*
X101660362Y-144826645D01*
X101784039Y-144624822D01*
X101874621Y-144406137D01*
X101929878Y-144175974D01*
X101948450Y-143940000D01*
X101929878Y-143704026D01*
X101874621Y-143473863D01*
X101784039Y-143255178D01*
X101784039Y-143255177D01*
X101660365Y-143053359D01*
X101660364Y-143053358D01*
X101660363Y-143053357D01*
X101660362Y-143053355D01*
X101506635Y-142873365D01*
X101326645Y-142719638D01*
X101326643Y-142719636D01*
X101326641Y-142719635D01*
X101326640Y-142719634D01*
X101124822Y-142595960D01*
X100906136Y-142505378D01*
X100675977Y-142450122D01*
X100440000Y-142431550D01*
X100204022Y-142450122D01*
X99973863Y-142505378D01*
X99755177Y-142595960D01*
X99553359Y-142719634D01*
X99553358Y-142719635D01*
X99373365Y-142873365D01*
X99219635Y-143053358D01*
X99219634Y-143053359D01*
X99095960Y-143255177D01*
X99005378Y-143473863D01*
X98950122Y-143704022D01*
X98931550Y-143940000D01*
X40750000Y-143940000D01*
X40750000Y-141710006D01*
X53709786Y-141710006D01*
X53728608Y-141937168D01*
X53728610Y-141937179D01*
X53784569Y-142158155D01*
X53876137Y-142366908D01*
X54000814Y-142557742D01*
X54000817Y-142557745D01*
X54149847Y-142719635D01*
X54155208Y-142725458D01*
X54155212Y-142725461D01*
X54335094Y-142865469D01*
X54335096Y-142865470D01*
X54335099Y-142865472D01*
X54451646Y-142928543D01*
X54535574Y-142973963D01*
X54647529Y-143012397D01*
X54751173Y-143047979D01*
X54751175Y-143047979D01*
X54751177Y-143047980D01*
X54976023Y-143085500D01*
X54976024Y-143085500D01*
X55203976Y-143085500D01*
X55203977Y-143085500D01*
X55428823Y-143047980D01*
X55644426Y-142973963D01*
X55844906Y-142865469D01*
X56024794Y-142725456D01*
X56179183Y-142557745D01*
X56303862Y-142366909D01*
X56395430Y-142158155D01*
X56451390Y-141937176D01*
X56470214Y-141710000D01*
X56470214Y-141709993D01*
X56451391Y-141482831D01*
X56451389Y-141482820D01*
X56395430Y-141261844D01*
X56303862Y-141053091D01*
X56179185Y-140862257D01*
X56024791Y-140694541D01*
X56024787Y-140694538D01*
X55844909Y-140554533D01*
X55844900Y-140554527D01*
X55644432Y-140446040D01*
X55644429Y-140446039D01*
X55644426Y-140446037D01*
X55644420Y-140446035D01*
X55644418Y-140446034D01*
X55428826Y-140372020D01*
X55260188Y-140343880D01*
X55203977Y-140334500D01*
X54976023Y-140334500D01*
X54931053Y-140342004D01*
X54751173Y-140372020D01*
X54535581Y-140446034D01*
X54535567Y-140446040D01*
X54335099Y-140554527D01*
X54335090Y-140554533D01*
X54155212Y-140694538D01*
X54155208Y-140694541D01*
X54000814Y-140862257D01*
X53876137Y-141053091D01*
X53784569Y-141261844D01*
X53728610Y-141482820D01*
X53728608Y-141482831D01*
X53709786Y-141709993D01*
X53709786Y-141710006D01*
X40750000Y-141710006D01*
X40750000Y-137510006D01*
X53709786Y-137510006D01*
X53728608Y-137737168D01*
X53728610Y-137737179D01*
X53784569Y-137958155D01*
X53876137Y-138166908D01*
X54000814Y-138357742D01*
X54155208Y-138525458D01*
X54155212Y-138525461D01*
X54335094Y-138665469D01*
X54335096Y-138665470D01*
X54335099Y-138665472D01*
X54451646Y-138728543D01*
X54535574Y-138773963D01*
X54647529Y-138812397D01*
X54751173Y-138847979D01*
X54751175Y-138847979D01*
X54751177Y-138847980D01*
X54976023Y-138885500D01*
X54976024Y-138885500D01*
X55203976Y-138885500D01*
X55203977Y-138885500D01*
X55356791Y-138860000D01*
X98931550Y-138860000D01*
X98950122Y-139095977D01*
X99005378Y-139326136D01*
X99095960Y-139544822D01*
X99219634Y-139746640D01*
X99219635Y-139746641D01*
X99219636Y-139746643D01*
X99219638Y-139746645D01*
X99373365Y-139926635D01*
X99553355Y-140080362D01*
X99553357Y-140080363D01*
X99553358Y-140080364D01*
X99553359Y-140080365D01*
X99755177Y-140204039D01*
X99973863Y-140294621D01*
X100204026Y-140349878D01*
X100440000Y-140368450D01*
X100675974Y-140349878D01*
X100906137Y-140294621D01*
X101124822Y-140204039D01*
X101326645Y-140080362D01*
X101506635Y-139926635D01*
X101660362Y-139746645D01*
X101784039Y-139544822D01*
X101874621Y-139326137D01*
X101929878Y-139095974D01*
X101948450Y-138860000D01*
X101929878Y-138624026D01*
X101874621Y-138393863D01*
X101784039Y-138175177D01*
X101660365Y-137973359D01*
X101660364Y-137973358D01*
X101660363Y-137973357D01*
X101660362Y-137973355D01*
X101506635Y-137793365D01*
X101326645Y-137639638D01*
X101326643Y-137639636D01*
X101326641Y-137639635D01*
X101326640Y-137639634D01*
X101124822Y-137515960D01*
X100906136Y-137425378D01*
X100675977Y-137370122D01*
X100440000Y-137351550D01*
X100204022Y-137370122D01*
X99973863Y-137425378D01*
X99755177Y-137515960D01*
X99553359Y-137639634D01*
X99553358Y-137639635D01*
X99373365Y-137793365D01*
X99219635Y-137973358D01*
X99219634Y-137973359D01*
X99095960Y-138175177D01*
X99005378Y-138393863D01*
X98950122Y-138624022D01*
X98931550Y-138860000D01*
X55356791Y-138860000D01*
X55428823Y-138847980D01*
X55644426Y-138773963D01*
X55844906Y-138665469D01*
X56024794Y-138525456D01*
X56179183Y-138357745D01*
X56303862Y-138166909D01*
X56395430Y-137958155D01*
X56451390Y-137737176D01*
X56459472Y-137639638D01*
X56470214Y-137510006D01*
X56470214Y-137509993D01*
X56451391Y-137282831D01*
X56451389Y-137282820D01*
X56395430Y-137061844D01*
X56303862Y-136853091D01*
X56179185Y-136662257D01*
X56070856Y-136544581D01*
X56024794Y-136494544D01*
X56024793Y-136494543D01*
X56024791Y-136494541D01*
X56024787Y-136494538D01*
X55844909Y-136354533D01*
X55844900Y-136354527D01*
X55644432Y-136246040D01*
X55644429Y-136246039D01*
X55644426Y-136246037D01*
X55644420Y-136246035D01*
X55644418Y-136246034D01*
X55428826Y-136172020D01*
X55260188Y-136143880D01*
X55203977Y-136134500D01*
X54976023Y-136134500D01*
X54931053Y-136142004D01*
X54751173Y-136172020D01*
X54535581Y-136246034D01*
X54535567Y-136246040D01*
X54335099Y-136354527D01*
X54335090Y-136354533D01*
X54155212Y-136494538D01*
X54155208Y-136494541D01*
X54000814Y-136662257D01*
X53876137Y-136853091D01*
X53784569Y-137061844D01*
X53728610Y-137282820D01*
X53728608Y-137282831D01*
X53709786Y-137509993D01*
X53709786Y-137510006D01*
X40750000Y-137510006D01*
X40750000Y-135800000D01*
X85094785Y-135800000D01*
X85113602Y-136003082D01*
X85169417Y-136199247D01*
X85169422Y-136199260D01*
X85260327Y-136381821D01*
X85383237Y-136544581D01*
X85533958Y-136681980D01*
X85533960Y-136681982D01*
X85633141Y-136743392D01*
X85707363Y-136789348D01*
X85897544Y-136863024D01*
X86098024Y-136900500D01*
X86098026Y-136900500D01*
X86301974Y-136900500D01*
X86301976Y-136900500D01*
X86502456Y-136863024D01*
X86692637Y-136789348D01*
X86866041Y-136681981D01*
X87016764Y-136544579D01*
X87139673Y-136381821D01*
X87230582Y-136199250D01*
X87286397Y-136003083D01*
X87305215Y-135800000D01*
X87634785Y-135800000D01*
X87653602Y-136003082D01*
X87709417Y-136199247D01*
X87709422Y-136199260D01*
X87800327Y-136381821D01*
X87923237Y-136544581D01*
X88073958Y-136681980D01*
X88073960Y-136681982D01*
X88173141Y-136743392D01*
X88247363Y-136789348D01*
X88437544Y-136863024D01*
X88638024Y-136900500D01*
X88638026Y-136900500D01*
X88841974Y-136900500D01*
X88841976Y-136900500D01*
X89042456Y-136863024D01*
X89232637Y-136789348D01*
X89406041Y-136681981D01*
X89556764Y-136544579D01*
X89679673Y-136381821D01*
X89770582Y-136199250D01*
X89826397Y-136003083D01*
X89845215Y-135800000D01*
X89826397Y-135596917D01*
X89770582Y-135400750D01*
X89679673Y-135218179D01*
X89556764Y-135055421D01*
X89556762Y-135055418D01*
X89406041Y-134918019D01*
X89406039Y-134918017D01*
X89232642Y-134810655D01*
X89232635Y-134810651D01*
X89137546Y-134773814D01*
X89042456Y-134736976D01*
X88841976Y-134699500D01*
X88638024Y-134699500D01*
X88437544Y-134736976D01*
X88437541Y-134736976D01*
X88437541Y-134736977D01*
X88247364Y-134810651D01*
X88247357Y-134810655D01*
X88073960Y-134918017D01*
X88073958Y-134918019D01*
X87923237Y-135055418D01*
X87800327Y-135218178D01*
X87709422Y-135400739D01*
X87709417Y-135400752D01*
X87653602Y-135596917D01*
X87634785Y-135799999D01*
X87634785Y-135800000D01*
X87305215Y-135800000D01*
X87286397Y-135596917D01*
X87230582Y-135400750D01*
X87139673Y-135218179D01*
X87016764Y-135055421D01*
X87016762Y-135055418D01*
X86866041Y-134918019D01*
X86866039Y-134918017D01*
X86692642Y-134810655D01*
X86692635Y-134810651D01*
X86597546Y-134773814D01*
X86502456Y-134736976D01*
X86301976Y-134699500D01*
X86098024Y-134699500D01*
X85897544Y-134736976D01*
X85897541Y-134736976D01*
X85897541Y-134736977D01*
X85707364Y-134810651D01*
X85707357Y-134810655D01*
X85533960Y-134918017D01*
X85533958Y-134918019D01*
X85383237Y-135055418D01*
X85260327Y-135218178D01*
X85169422Y-135400739D01*
X85169417Y-135400752D01*
X85113602Y-135596917D01*
X85094785Y-135799999D01*
X85094785Y-135800000D01*
X40750000Y-135800000D01*
X40750000Y-133310006D01*
X53709786Y-133310006D01*
X53728608Y-133537168D01*
X53728610Y-133537179D01*
X53784569Y-133758155D01*
X53876137Y-133966908D01*
X54000814Y-134157742D01*
X54155208Y-134325458D01*
X54155212Y-134325461D01*
X54335094Y-134465469D01*
X54335096Y-134465470D01*
X54335099Y-134465472D01*
X54451646Y-134528543D01*
X54535574Y-134573963D01*
X54647529Y-134612397D01*
X54751173Y-134647979D01*
X54751175Y-134647979D01*
X54751177Y-134647980D01*
X54976023Y-134685500D01*
X54976024Y-134685500D01*
X55203976Y-134685500D01*
X55203977Y-134685500D01*
X55428823Y-134647980D01*
X55644426Y-134573963D01*
X55844906Y-134465469D01*
X56024794Y-134325456D01*
X56179183Y-134157745D01*
X56303862Y-133966909D01*
X56395430Y-133758155D01*
X56451390Y-133537176D01*
X56470214Y-133310006D01*
X59209786Y-133310006D01*
X59228608Y-133537168D01*
X59228610Y-133537179D01*
X59284569Y-133758155D01*
X59376137Y-133966908D01*
X59500814Y-134157742D01*
X59655208Y-134325458D01*
X59655212Y-134325461D01*
X59835094Y-134465469D01*
X59835096Y-134465470D01*
X59835099Y-134465472D01*
X59951646Y-134528543D01*
X60035574Y-134573963D01*
X60147529Y-134612397D01*
X60251173Y-134647979D01*
X60251175Y-134647979D01*
X60251177Y-134647980D01*
X60476023Y-134685500D01*
X60476024Y-134685500D01*
X60703976Y-134685500D01*
X60703977Y-134685500D01*
X60928823Y-134647980D01*
X61144426Y-134573963D01*
X61344906Y-134465469D01*
X61524794Y-134325456D01*
X61679183Y-134157745D01*
X61803862Y-133966909D01*
X61895430Y-133758155D01*
X61951390Y-133537176D01*
X61970214Y-133310000D01*
X61970214Y-133309993D01*
X61951391Y-133082831D01*
X61951389Y-133082820D01*
X61895430Y-132861844D01*
X61803862Y-132653091D01*
X61679185Y-132462257D01*
X61524791Y-132294541D01*
X61524787Y-132294538D01*
X61344909Y-132154533D01*
X61344900Y-132154527D01*
X61144432Y-132046040D01*
X61144429Y-132046039D01*
X61144426Y-132046037D01*
X61144420Y-132046035D01*
X61144418Y-132046034D01*
X60928826Y-131972020D01*
X60760188Y-131943880D01*
X60703977Y-131934500D01*
X60476023Y-131934500D01*
X60431053Y-131942004D01*
X60251173Y-131972020D01*
X60035581Y-132046034D01*
X60035567Y-132046040D01*
X59835099Y-132154527D01*
X59835090Y-132154533D01*
X59655212Y-132294538D01*
X59655208Y-132294541D01*
X59500814Y-132462257D01*
X59376137Y-132653091D01*
X59284569Y-132861844D01*
X59228610Y-133082820D01*
X59228608Y-133082831D01*
X59209786Y-133309993D01*
X59209786Y-133310006D01*
X56470214Y-133310006D01*
X56470214Y-133310000D01*
X56470214Y-133309993D01*
X56451391Y-133082831D01*
X56451389Y-133082820D01*
X56395430Y-132861844D01*
X56303862Y-132653091D01*
X56179185Y-132462257D01*
X56024791Y-132294541D01*
X56024787Y-132294538D01*
X55844909Y-132154533D01*
X55844900Y-132154527D01*
X55644432Y-132046040D01*
X55644429Y-132046039D01*
X55644426Y-132046037D01*
X55644420Y-132046035D01*
X55644418Y-132046034D01*
X55428826Y-131972020D01*
X55260188Y-131943880D01*
X55203977Y-131934500D01*
X54976023Y-131934500D01*
X54931053Y-131942004D01*
X54751173Y-131972020D01*
X54535581Y-132046034D01*
X54535567Y-132046040D01*
X54335099Y-132154527D01*
X54335090Y-132154533D01*
X54155212Y-132294538D01*
X54155208Y-132294541D01*
X54000814Y-132462257D01*
X53876137Y-132653091D01*
X53784569Y-132861844D01*
X53728610Y-133082820D01*
X53728608Y-133082831D01*
X53709786Y-133309993D01*
X53709786Y-133310006D01*
X40750000Y-133310006D01*
X40750000Y-130840000D01*
X113791550Y-130840000D01*
X113810122Y-131075977D01*
X113865378Y-131306136D01*
X113955960Y-131524822D01*
X114079634Y-131726640D01*
X114079635Y-131726641D01*
X114079636Y-131726643D01*
X114079638Y-131726645D01*
X114233365Y-131906635D01*
X114413355Y-132060362D01*
X114413357Y-132060363D01*
X114413358Y-132060364D01*
X114413359Y-132060365D01*
X114615177Y-132184039D01*
X114833863Y-132274621D01*
X115064026Y-132329878D01*
X115300000Y-132348450D01*
X115535974Y-132329878D01*
X115766137Y-132274621D01*
X115984822Y-132184039D01*
X116186645Y-132060362D01*
X116366635Y-131906635D01*
X116520362Y-131726645D01*
X116644039Y-131524822D01*
X116734621Y-131306137D01*
X116789878Y-131075974D01*
X116808450Y-130840000D01*
X116789878Y-130604026D01*
X116734621Y-130373863D01*
X116644039Y-130155178D01*
X116644039Y-130155177D01*
X116520365Y-129953359D01*
X116520364Y-129953358D01*
X116520363Y-129953357D01*
X116520362Y-129953355D01*
X116366635Y-129773365D01*
X116186645Y-129619638D01*
X116186643Y-129619636D01*
X116186641Y-129619635D01*
X116186640Y-129619634D01*
X115984822Y-129495960D01*
X115766136Y-129405378D01*
X115535977Y-129350122D01*
X115300000Y-129331550D01*
X115064022Y-129350122D01*
X114833863Y-129405378D01*
X114615177Y-129495960D01*
X114413359Y-129619634D01*
X114413358Y-129619635D01*
X114233365Y-129773365D01*
X114079635Y-129953358D01*
X114079634Y-129953359D01*
X113955960Y-130155177D01*
X113865378Y-130373863D01*
X113810122Y-130604022D01*
X113791550Y-130840000D01*
X40750000Y-130840000D01*
X40750000Y-129110006D01*
X53709786Y-129110006D01*
X53728608Y-129337168D01*
X53728610Y-129337179D01*
X53784569Y-129558155D01*
X53876137Y-129766908D01*
X54000814Y-129957742D01*
X54155208Y-130125458D01*
X54155212Y-130125461D01*
X54335090Y-130265466D01*
X54335094Y-130265469D01*
X54335096Y-130265470D01*
X54335099Y-130265472D01*
X54451646Y-130328543D01*
X54535574Y-130373963D01*
X54647529Y-130412397D01*
X54751173Y-130447979D01*
X54751175Y-130447979D01*
X54751177Y-130447980D01*
X54976023Y-130485500D01*
X54976024Y-130485500D01*
X55203976Y-130485500D01*
X55203977Y-130485500D01*
X55428823Y-130447980D01*
X55644426Y-130373963D01*
X55844906Y-130265469D01*
X56024794Y-130125456D01*
X56179183Y-129957745D01*
X56303862Y-129766909D01*
X56395430Y-129558155D01*
X56451390Y-129337176D01*
X56451391Y-129337168D01*
X56470214Y-129110006D01*
X59209786Y-129110006D01*
X59228608Y-129337168D01*
X59228610Y-129337179D01*
X59284569Y-129558155D01*
X59376137Y-129766908D01*
X59500814Y-129957742D01*
X59655208Y-130125458D01*
X59655212Y-130125461D01*
X59835090Y-130265466D01*
X59835094Y-130265469D01*
X59835096Y-130265470D01*
X59835099Y-130265472D01*
X59951646Y-130328543D01*
X60035574Y-130373963D01*
X60147529Y-130412397D01*
X60251173Y-130447979D01*
X60251175Y-130447979D01*
X60251177Y-130447980D01*
X60476023Y-130485500D01*
X60476024Y-130485500D01*
X60703976Y-130485500D01*
X60703977Y-130485500D01*
X60928823Y-130447980D01*
X61144426Y-130373963D01*
X61344906Y-130265469D01*
X61524794Y-130125456D01*
X61679183Y-129957745D01*
X61803862Y-129766909D01*
X61895430Y-129558155D01*
X61951390Y-129337176D01*
X61951391Y-129337168D01*
X61970214Y-129110006D01*
X61970214Y-129109993D01*
X61951391Y-128882831D01*
X61951389Y-128882820D01*
X61895430Y-128661844D01*
X61803862Y-128453091D01*
X61679185Y-128262257D01*
X61524791Y-128094541D01*
X61524787Y-128094538D01*
X61344909Y-127954533D01*
X61344900Y-127954527D01*
X61144432Y-127846040D01*
X61144429Y-127846039D01*
X61144426Y-127846037D01*
X61144420Y-127846035D01*
X61144418Y-127846034D01*
X60928826Y-127772020D01*
X60760188Y-127743880D01*
X60703977Y-127734500D01*
X60476023Y-127734500D01*
X60431053Y-127742004D01*
X60251173Y-127772020D01*
X60035581Y-127846034D01*
X60035567Y-127846040D01*
X59835099Y-127954527D01*
X59835090Y-127954533D01*
X59655212Y-128094538D01*
X59655208Y-128094541D01*
X59500814Y-128262257D01*
X59376137Y-128453091D01*
X59284569Y-128661844D01*
X59228610Y-128882820D01*
X59228608Y-128882831D01*
X59209786Y-129109993D01*
X59209786Y-129110006D01*
X56470214Y-129110006D01*
X56470214Y-129109993D01*
X56451391Y-128882831D01*
X56451389Y-128882820D01*
X56395430Y-128661844D01*
X56303862Y-128453091D01*
X56179185Y-128262257D01*
X56024791Y-128094541D01*
X56024787Y-128094538D01*
X55844909Y-127954533D01*
X55844900Y-127954527D01*
X55644432Y-127846040D01*
X55644429Y-127846039D01*
X55644426Y-127846037D01*
X55644420Y-127846035D01*
X55644418Y-127846034D01*
X55428826Y-127772020D01*
X55260188Y-127743880D01*
X55203977Y-127734500D01*
X54976023Y-127734500D01*
X54931053Y-127742004D01*
X54751173Y-127772020D01*
X54535581Y-127846034D01*
X54535567Y-127846040D01*
X54335099Y-127954527D01*
X54335090Y-127954533D01*
X54155212Y-128094538D01*
X54155208Y-128094541D01*
X54000814Y-128262257D01*
X53876137Y-128453091D01*
X53784569Y-128661844D01*
X53728610Y-128882820D01*
X53728608Y-128882831D01*
X53709786Y-129109993D01*
X53709786Y-129110006D01*
X40750000Y-129110006D01*
X40750000Y-124910006D01*
X53709786Y-124910006D01*
X53728608Y-125137168D01*
X53728610Y-125137179D01*
X53784569Y-125358155D01*
X53876137Y-125566908D01*
X54000814Y-125757742D01*
X54155208Y-125925458D01*
X54155212Y-125925461D01*
X54335094Y-126065469D01*
X54335096Y-126065470D01*
X54335099Y-126065472D01*
X54451646Y-126128543D01*
X54535574Y-126173963D01*
X54647529Y-126212397D01*
X54751173Y-126247979D01*
X54751175Y-126247979D01*
X54751177Y-126247980D01*
X54976023Y-126285500D01*
X54976024Y-126285500D01*
X55203976Y-126285500D01*
X55203977Y-126285500D01*
X55428823Y-126247980D01*
X55644426Y-126173963D01*
X55844906Y-126065469D01*
X56024794Y-125925456D01*
X56179183Y-125757745D01*
X56303862Y-125566909D01*
X56395430Y-125358155D01*
X56451390Y-125137176D01*
X56470214Y-124910006D01*
X59209786Y-124910006D01*
X59228608Y-125137168D01*
X59228610Y-125137179D01*
X59284569Y-125358155D01*
X59376137Y-125566908D01*
X59500814Y-125757742D01*
X59655208Y-125925458D01*
X59655212Y-125925461D01*
X59835094Y-126065469D01*
X59835096Y-126065470D01*
X59835099Y-126065472D01*
X59951646Y-126128543D01*
X60035574Y-126173963D01*
X60147529Y-126212397D01*
X60251173Y-126247979D01*
X60251175Y-126247979D01*
X60251177Y-126247980D01*
X60476023Y-126285500D01*
X60476024Y-126285500D01*
X60703976Y-126285500D01*
X60703977Y-126285500D01*
X60928823Y-126247980D01*
X61144426Y-126173963D01*
X61344906Y-126065469D01*
X61524794Y-125925456D01*
X61679183Y-125757745D01*
X61803862Y-125566909D01*
X61895430Y-125358155D01*
X61951390Y-125137176D01*
X61970214Y-124910000D01*
X61970214Y-124909993D01*
X61951391Y-124682831D01*
X61951389Y-124682820D01*
X61895430Y-124461844D01*
X61803862Y-124253091D01*
X61679185Y-124062257D01*
X61589896Y-123965264D01*
X61524794Y-123894544D01*
X61524793Y-123894543D01*
X61524791Y-123894541D01*
X61524787Y-123894538D01*
X61344909Y-123754533D01*
X61344900Y-123754527D01*
X61144432Y-123646040D01*
X61144429Y-123646039D01*
X61144426Y-123646037D01*
X61144420Y-123646035D01*
X61144418Y-123646034D01*
X60928826Y-123572020D01*
X60760188Y-123543880D01*
X60703977Y-123534500D01*
X60476023Y-123534500D01*
X60431053Y-123542004D01*
X60251173Y-123572020D01*
X60035581Y-123646034D01*
X60035567Y-123646040D01*
X59835099Y-123754527D01*
X59835090Y-123754533D01*
X59655212Y-123894538D01*
X59655208Y-123894541D01*
X59500814Y-124062257D01*
X59376137Y-124253091D01*
X59284569Y-124461844D01*
X59228610Y-124682820D01*
X59228608Y-124682831D01*
X59209786Y-124909993D01*
X59209786Y-124910006D01*
X56470214Y-124910006D01*
X56470214Y-124910000D01*
X56470214Y-124909993D01*
X56451391Y-124682831D01*
X56451389Y-124682820D01*
X56395430Y-124461844D01*
X56303862Y-124253091D01*
X56179185Y-124062257D01*
X56089896Y-123965264D01*
X56024794Y-123894544D01*
X56024793Y-123894543D01*
X56024791Y-123894541D01*
X56024787Y-123894538D01*
X55844909Y-123754533D01*
X55844900Y-123754527D01*
X55644432Y-123646040D01*
X55644429Y-123646039D01*
X55644426Y-123646037D01*
X55644420Y-123646035D01*
X55644418Y-123646034D01*
X55428826Y-123572020D01*
X55260188Y-123543880D01*
X55203977Y-123534500D01*
X54976023Y-123534500D01*
X54931053Y-123542004D01*
X54751173Y-123572020D01*
X54535581Y-123646034D01*
X54535567Y-123646040D01*
X54335099Y-123754527D01*
X54335090Y-123754533D01*
X54155212Y-123894538D01*
X54155208Y-123894541D01*
X54000814Y-124062257D01*
X53876137Y-124253091D01*
X53784569Y-124461844D01*
X53728610Y-124682820D01*
X53728608Y-124682831D01*
X53709786Y-124909993D01*
X53709786Y-124910006D01*
X40750000Y-124910006D01*
X40750000Y-122744900D01*
X76641550Y-122744900D01*
X76660122Y-122980877D01*
X76715378Y-123211036D01*
X76805960Y-123429722D01*
X76929634Y-123631540D01*
X76929635Y-123631541D01*
X76929636Y-123631543D01*
X76929638Y-123631545D01*
X77083365Y-123811535D01*
X77263355Y-123965262D01*
X77263357Y-123965263D01*
X77263358Y-123965264D01*
X77263359Y-123965265D01*
X77465177Y-124088939D01*
X77683863Y-124179521D01*
X77914026Y-124234778D01*
X78150000Y-124253350D01*
X78385974Y-124234778D01*
X78616137Y-124179521D01*
X78834822Y-124088939D01*
X79036645Y-123965262D01*
X79216635Y-123811535D01*
X79370362Y-123631545D01*
X79494039Y-123429722D01*
X79584621Y-123211037D01*
X79639878Y-122980874D01*
X79658450Y-122744900D01*
X79639878Y-122508926D01*
X79584621Y-122278763D01*
X79567514Y-122237463D01*
X79494039Y-122060077D01*
X79370365Y-121858259D01*
X79370364Y-121858258D01*
X79370363Y-121858257D01*
X79370362Y-121858255D01*
X79216635Y-121678265D01*
X79036645Y-121524538D01*
X79036643Y-121524536D01*
X79036641Y-121524535D01*
X79036640Y-121524534D01*
X78834822Y-121400860D01*
X78616136Y-121310278D01*
X78385977Y-121255022D01*
X78150000Y-121236450D01*
X77914022Y-121255022D01*
X77683863Y-121310278D01*
X77465177Y-121400860D01*
X77263359Y-121524534D01*
X77263358Y-121524535D01*
X77083365Y-121678265D01*
X76929635Y-121858258D01*
X76929634Y-121858259D01*
X76805960Y-122060077D01*
X76715378Y-122278763D01*
X76660122Y-122508922D01*
X76641550Y-122744900D01*
X40750000Y-122744900D01*
X40750000Y-120710006D01*
X53709786Y-120710006D01*
X53728608Y-120937168D01*
X53728610Y-120937179D01*
X53784569Y-121158155D01*
X53876137Y-121366908D01*
X54000814Y-121557742D01*
X54155208Y-121725458D01*
X54155212Y-121725461D01*
X54335090Y-121865466D01*
X54335094Y-121865469D01*
X54335096Y-121865470D01*
X54335099Y-121865472D01*
X54451646Y-121928543D01*
X54535574Y-121973963D01*
X54647529Y-122012397D01*
X54751173Y-122047979D01*
X54751175Y-122047979D01*
X54751177Y-122047980D01*
X54976023Y-122085500D01*
X54976024Y-122085500D01*
X55203976Y-122085500D01*
X55203977Y-122085500D01*
X55428823Y-122047980D01*
X55492848Y-122026000D01*
X57444500Y-122026000D01*
X57444501Y-122026009D01*
X57456052Y-122133450D01*
X57456054Y-122133462D01*
X57467260Y-122184972D01*
X57501383Y-122287497D01*
X57501386Y-122287503D01*
X57579171Y-122408537D01*
X57579179Y-122408548D01*
X57624923Y-122461340D01*
X57624926Y-122461343D01*
X57624930Y-122461347D01*
X57733664Y-122555567D01*
X57733667Y-122555568D01*
X57733668Y-122555569D01*
X57863800Y-122615000D01*
X57864541Y-122615338D01*
X57909357Y-122628497D01*
X57931575Y-122635022D01*
X57931580Y-122635023D01*
X57931584Y-122635024D01*
X58074000Y-122655500D01*
X58074003Y-122655500D01*
X59917002Y-122655500D01*
X59917007Y-122655500D01*
X59917824Y-122655499D01*
X60060206Y-122634793D01*
X60127214Y-122615000D01*
X60127218Y-122614999D01*
X60257999Y-122555017D01*
X60366583Y-122460619D01*
X60412252Y-122407741D01*
X60485502Y-122293355D01*
X60538227Y-122247519D01*
X60607370Y-122237463D01*
X60670972Y-122266384D01*
X60694237Y-122293189D01*
X60768367Y-122408537D01*
X60768376Y-122408548D01*
X60814120Y-122461340D01*
X60814123Y-122461343D01*
X60814127Y-122461347D01*
X60922861Y-122555567D01*
X60922864Y-122555568D01*
X60922865Y-122555569D01*
X61052997Y-122615000D01*
X61053738Y-122615338D01*
X61098554Y-122628497D01*
X61120772Y-122635022D01*
X61120777Y-122635023D01*
X61120781Y-122635024D01*
X61263197Y-122655500D01*
X61263200Y-122655500D01*
X70875990Y-122655500D01*
X70876000Y-122655500D01*
X70983456Y-122643947D01*
X71034967Y-122632741D01*
X71069197Y-122621347D01*
X71137497Y-122598616D01*
X71137501Y-122598613D01*
X71137504Y-122598613D01*
X71258543Y-122520825D01*
X71311347Y-122475070D01*
X71405567Y-122366336D01*
X71465338Y-122235459D01*
X71485023Y-122168420D01*
X71485024Y-122168416D01*
X71505500Y-122026000D01*
X71505500Y-120879500D01*
X71525185Y-120812461D01*
X71577989Y-120766706D01*
X71629500Y-120755500D01*
X83875990Y-120755500D01*
X83876000Y-120755500D01*
X83983456Y-120743947D01*
X84034967Y-120732741D01*
X84069197Y-120721347D01*
X84137497Y-120698616D01*
X84137501Y-120698613D01*
X84137504Y-120698613D01*
X84258543Y-120620825D01*
X84311347Y-120575070D01*
X84405567Y-120466336D01*
X84465338Y-120335459D01*
X84485023Y-120268420D01*
X84485024Y-120268416D01*
X84505500Y-120126000D01*
X84505500Y-110474000D01*
X84493947Y-110366544D01*
X84482741Y-110315033D01*
X84482637Y-110314722D01*
X84448616Y-110212502D01*
X84448613Y-110212496D01*
X84370828Y-110091462D01*
X84370825Y-110091457D01*
X84370820Y-110091451D01*
X84325076Y-110038659D01*
X84325072Y-110038656D01*
X84325070Y-110038653D01*
X84216336Y-109944433D01*
X84216333Y-109944431D01*
X84216331Y-109944430D01*
X84085465Y-109884664D01*
X84085460Y-109884662D01*
X84085459Y-109884662D01*
X84062858Y-109878025D01*
X84018425Y-109864978D01*
X84018419Y-109864976D01*
X83932966Y-109852690D01*
X83876000Y-109844500D01*
X58074000Y-109844500D01*
X58073991Y-109844500D01*
X58073990Y-109844501D01*
X57966549Y-109856052D01*
X57966537Y-109856054D01*
X57915027Y-109867260D01*
X57812502Y-109901383D01*
X57812496Y-109901386D01*
X57691462Y-109979171D01*
X57691451Y-109979179D01*
X57638659Y-110024923D01*
X57544433Y-110133664D01*
X57544430Y-110133668D01*
X57484664Y-110264534D01*
X57464978Y-110331575D01*
X57464976Y-110331580D01*
X57448595Y-110445516D01*
X57444500Y-110474000D01*
X57444500Y-112333613D01*
X57444500Y-116510006D01*
X57444500Y-117669239D01*
X57444500Y-120733613D01*
X57444500Y-122026000D01*
X55492848Y-122026000D01*
X55644426Y-121973963D01*
X55844906Y-121865469D01*
X56024794Y-121725456D01*
X56179183Y-121557745D01*
X56303862Y-121366909D01*
X56395430Y-121158155D01*
X56451390Y-120937176D01*
X56461724Y-120812461D01*
X56470214Y-120710006D01*
X56470214Y-120709993D01*
X56451391Y-120482831D01*
X56451389Y-120482820D01*
X56395430Y-120261844D01*
X56303862Y-120053091D01*
X56179185Y-119862257D01*
X56024791Y-119694541D01*
X56024787Y-119694538D01*
X55844909Y-119554533D01*
X55844900Y-119554527D01*
X55644432Y-119446040D01*
X55644429Y-119446039D01*
X55644426Y-119446037D01*
X55644420Y-119446035D01*
X55644418Y-119446034D01*
X55428826Y-119372020D01*
X55260188Y-119343880D01*
X55203977Y-119334500D01*
X54976023Y-119334500D01*
X54931053Y-119342004D01*
X54751173Y-119372020D01*
X54535581Y-119446034D01*
X54535567Y-119446040D01*
X54335099Y-119554527D01*
X54335090Y-119554533D01*
X54155212Y-119694538D01*
X54155208Y-119694541D01*
X54000814Y-119862257D01*
X53876137Y-120053091D01*
X53784569Y-120261844D01*
X53728610Y-120482820D01*
X53728608Y-120482831D01*
X53709786Y-120709993D01*
X53709786Y-120710006D01*
X40750000Y-120710006D01*
X40750000Y-116510006D01*
X53709786Y-116510006D01*
X53728608Y-116737168D01*
X53728610Y-116737179D01*
X53784569Y-116958155D01*
X53876137Y-117166908D01*
X54000814Y-117357742D01*
X54155208Y-117525458D01*
X54155212Y-117525461D01*
X54335094Y-117665469D01*
X54335096Y-117665470D01*
X54335099Y-117665472D01*
X54342060Y-117669239D01*
X54535574Y-117773963D01*
X54647529Y-117812397D01*
X54751173Y-117847979D01*
X54751175Y-117847979D01*
X54751177Y-117847980D01*
X54976023Y-117885500D01*
X54976024Y-117885500D01*
X55203976Y-117885500D01*
X55203977Y-117885500D01*
X55428823Y-117847980D01*
X55644426Y-117773963D01*
X55844906Y-117665469D01*
X56024794Y-117525456D01*
X56179183Y-117357745D01*
X56303862Y-117166909D01*
X56395430Y-116958155D01*
X56451390Y-116737176D01*
X56470214Y-116510000D01*
X56470214Y-116509993D01*
X56451391Y-116282831D01*
X56451389Y-116282820D01*
X56395430Y-116061844D01*
X56303862Y-115853091D01*
X56179185Y-115662257D01*
X56024791Y-115494541D01*
X56024787Y-115494538D01*
X55844909Y-115354533D01*
X55844900Y-115354527D01*
X55644432Y-115246040D01*
X55644429Y-115246039D01*
X55644426Y-115246037D01*
X55644420Y-115246035D01*
X55644418Y-115246034D01*
X55428826Y-115172020D01*
X55260188Y-115143880D01*
X55203977Y-115134500D01*
X54976023Y-115134500D01*
X54931053Y-115142004D01*
X54751173Y-115172020D01*
X54535581Y-115246034D01*
X54535567Y-115246040D01*
X54335099Y-115354527D01*
X54335090Y-115354533D01*
X54155212Y-115494538D01*
X54155208Y-115494541D01*
X54000814Y-115662257D01*
X53876137Y-115853091D01*
X53784569Y-116061844D01*
X53728610Y-116282820D01*
X53728608Y-116282831D01*
X53709786Y-116509993D01*
X53709786Y-116510006D01*
X40750000Y-116510006D01*
X40750000Y-112310006D01*
X53709786Y-112310006D01*
X53728608Y-112537168D01*
X53728610Y-112537179D01*
X53784569Y-112758155D01*
X53876137Y-112966908D01*
X54000814Y-113157742D01*
X54155208Y-113325458D01*
X54155212Y-113325461D01*
X54335094Y-113465469D01*
X54335096Y-113465470D01*
X54335099Y-113465472D01*
X54451646Y-113528543D01*
X54535574Y-113573963D01*
X54647529Y-113612397D01*
X54751173Y-113647979D01*
X54751175Y-113647979D01*
X54751177Y-113647980D01*
X54976023Y-113685500D01*
X54976024Y-113685500D01*
X55203976Y-113685500D01*
X55203977Y-113685500D01*
X55428823Y-113647980D01*
X55644426Y-113573963D01*
X55844906Y-113465469D01*
X56024794Y-113325456D01*
X56179183Y-113157745D01*
X56303862Y-112966909D01*
X56395430Y-112758155D01*
X56451390Y-112537176D01*
X56451391Y-112537168D01*
X56470214Y-112310006D01*
X56470214Y-112309993D01*
X56451391Y-112082831D01*
X56451389Y-112082820D01*
X56395430Y-111861844D01*
X56303862Y-111653091D01*
X56179185Y-111462257D01*
X56024791Y-111294541D01*
X56024787Y-111294538D01*
X55844909Y-111154533D01*
X55844900Y-111154527D01*
X55644432Y-111046040D01*
X55644429Y-111046039D01*
X55644426Y-111046037D01*
X55644420Y-111046035D01*
X55644418Y-111046034D01*
X55428826Y-110972020D01*
X55260188Y-110943880D01*
X55203977Y-110934500D01*
X54976023Y-110934500D01*
X54931053Y-110942004D01*
X54751173Y-110972020D01*
X54535581Y-111046034D01*
X54535567Y-111046040D01*
X54335099Y-111154527D01*
X54335090Y-111154533D01*
X54155212Y-111294538D01*
X54155208Y-111294541D01*
X54000814Y-111462257D01*
X53876137Y-111653091D01*
X53784569Y-111861844D01*
X53728610Y-112082820D01*
X53728608Y-112082831D01*
X53709786Y-112309993D01*
X53709786Y-112310006D01*
X40750000Y-112310006D01*
X40750000Y-106526000D01*
X51794500Y-106526000D01*
X51794501Y-106526009D01*
X51806052Y-106633450D01*
X51806054Y-106633462D01*
X51817260Y-106684972D01*
X51851383Y-106787497D01*
X51851386Y-106787503D01*
X51929171Y-106908537D01*
X51929179Y-106908548D01*
X51974923Y-106961340D01*
X51974926Y-106961343D01*
X51974930Y-106961347D01*
X52083664Y-107055567D01*
X52083667Y-107055568D01*
X52083668Y-107055569D01*
X52177925Y-107098616D01*
X52214541Y-107115338D01*
X52259357Y-107128497D01*
X52281575Y-107135022D01*
X52281580Y-107135023D01*
X52281584Y-107135024D01*
X52424000Y-107155500D01*
X53841431Y-107155500D01*
X53908470Y-107175185D01*
X53954225Y-107227989D01*
X53964169Y-107297147D01*
X53945240Y-107347321D01*
X53876137Y-107453091D01*
X53784569Y-107661844D01*
X53728610Y-107882820D01*
X53728608Y-107882831D01*
X53709786Y-108109993D01*
X53709786Y-108110006D01*
X53728608Y-108337168D01*
X53728610Y-108337179D01*
X53784569Y-108558155D01*
X53876137Y-108766908D01*
X54000814Y-108957742D01*
X54155208Y-109125458D01*
X54155212Y-109125461D01*
X54335094Y-109265469D01*
X54335096Y-109265470D01*
X54335099Y-109265472D01*
X54444398Y-109324621D01*
X54535574Y-109373963D01*
X54606899Y-109398449D01*
X54751173Y-109447979D01*
X54751175Y-109447979D01*
X54751177Y-109447980D01*
X54976023Y-109485500D01*
X54976024Y-109485500D01*
X55203976Y-109485500D01*
X55203977Y-109485500D01*
X55428823Y-109447980D01*
X55644426Y-109373963D01*
X55844906Y-109265469D01*
X56024794Y-109125456D01*
X56179183Y-108957745D01*
X56303862Y-108766909D01*
X56395430Y-108558155D01*
X56451390Y-108337176D01*
X56451391Y-108337168D01*
X56470214Y-108110006D01*
X59209786Y-108110006D01*
X59228608Y-108337168D01*
X59228610Y-108337179D01*
X59284569Y-108558155D01*
X59376137Y-108766908D01*
X59500814Y-108957742D01*
X59655208Y-109125458D01*
X59655212Y-109125461D01*
X59835094Y-109265469D01*
X59835096Y-109265470D01*
X59835099Y-109265472D01*
X59944398Y-109324621D01*
X60035574Y-109373963D01*
X60106899Y-109398449D01*
X60251173Y-109447979D01*
X60251175Y-109447979D01*
X60251177Y-109447980D01*
X60476023Y-109485500D01*
X60476024Y-109485500D01*
X60703976Y-109485500D01*
X60703977Y-109485500D01*
X60928823Y-109447980D01*
X61144426Y-109373963D01*
X61344906Y-109265469D01*
X61524794Y-109125456D01*
X61679183Y-108957745D01*
X61803862Y-108766909D01*
X61895430Y-108558155D01*
X61951390Y-108337176D01*
X61951391Y-108337168D01*
X61970214Y-108110006D01*
X61970214Y-108109993D01*
X61951985Y-107890000D01*
X113641550Y-107890000D01*
X113660122Y-108125977D01*
X113715378Y-108356136D01*
X113805960Y-108574822D01*
X113929634Y-108776640D01*
X113929635Y-108776641D01*
X113929636Y-108776643D01*
X113929638Y-108776645D01*
X114083365Y-108956635D01*
X114263355Y-109110362D01*
X114263357Y-109110363D01*
X114263358Y-109110364D01*
X114263359Y-109110365D01*
X114465177Y-109234039D01*
X114541064Y-109265472D01*
X114683863Y-109324621D01*
X114914026Y-109379878D01*
X115150000Y-109398450D01*
X115385974Y-109379878D01*
X115616137Y-109324621D01*
X115834822Y-109234039D01*
X116036645Y-109110362D01*
X116216635Y-108956635D01*
X116370362Y-108776645D01*
X116494039Y-108574822D01*
X116584621Y-108356137D01*
X116639878Y-108125974D01*
X116658450Y-107890000D01*
X116639878Y-107654026D01*
X116584621Y-107423863D01*
X116494039Y-107205177D01*
X116370365Y-107003359D01*
X116370364Y-107003358D01*
X116370363Y-107003357D01*
X116370362Y-107003355D01*
X116216635Y-106823365D01*
X116036645Y-106669638D01*
X116036643Y-106669636D01*
X116036641Y-106669635D01*
X116036640Y-106669634D01*
X115834822Y-106545960D01*
X115616136Y-106455378D01*
X115385977Y-106400122D01*
X115150000Y-106381550D01*
X114914022Y-106400122D01*
X114683863Y-106455378D01*
X114465177Y-106545960D01*
X114263359Y-106669634D01*
X114263358Y-106669635D01*
X114083365Y-106823365D01*
X113929635Y-107003358D01*
X113929634Y-107003359D01*
X113805960Y-107205177D01*
X113715378Y-107423863D01*
X113660122Y-107654022D01*
X113641550Y-107890000D01*
X61951985Y-107890000D01*
X61951391Y-107882831D01*
X61951389Y-107882820D01*
X61895430Y-107661844D01*
X61803862Y-107453091D01*
X61679185Y-107262257D01*
X61570271Y-107143945D01*
X61524794Y-107094544D01*
X61524793Y-107094543D01*
X61524791Y-107094541D01*
X61524787Y-107094538D01*
X61344909Y-106954533D01*
X61344900Y-106954527D01*
X61144432Y-106846040D01*
X61144429Y-106846039D01*
X61144426Y-106846037D01*
X61144420Y-106846035D01*
X61144418Y-106846034D01*
X60928826Y-106772020D01*
X60760188Y-106743880D01*
X60703977Y-106734500D01*
X60476023Y-106734500D01*
X60431053Y-106742004D01*
X60251173Y-106772020D01*
X60035581Y-106846034D01*
X60035567Y-106846040D01*
X59835099Y-106954527D01*
X59835090Y-106954533D01*
X59655212Y-107094538D01*
X59655208Y-107094541D01*
X59500814Y-107262257D01*
X59376137Y-107453091D01*
X59284569Y-107661844D01*
X59228610Y-107882820D01*
X59228608Y-107882831D01*
X59209786Y-108109993D01*
X59209786Y-108110006D01*
X56470214Y-108110006D01*
X56470214Y-108109993D01*
X56451391Y-107882831D01*
X56451389Y-107882820D01*
X56395430Y-107661844D01*
X56303862Y-107453091D01*
X56234760Y-107347321D01*
X56214572Y-107280431D01*
X56233753Y-107213246D01*
X56286212Y-107167096D01*
X56338569Y-107155500D01*
X57775990Y-107155500D01*
X57776000Y-107155500D01*
X57883456Y-107143947D01*
X57934967Y-107132741D01*
X57969197Y-107121347D01*
X58037497Y-107098616D01*
X58037501Y-107098613D01*
X58037504Y-107098613D01*
X58158543Y-107020825D01*
X58211347Y-106975070D01*
X58305567Y-106866336D01*
X58365338Y-106735459D01*
X58380164Y-106684967D01*
X58385022Y-106668425D01*
X58385023Y-106668419D01*
X58385024Y-106668416D01*
X58405500Y-106526000D01*
X58405500Y-103910006D01*
X59209786Y-103910006D01*
X59228608Y-104137168D01*
X59228610Y-104137179D01*
X59284569Y-104358155D01*
X59376137Y-104566908D01*
X59500814Y-104757742D01*
X59655208Y-104925458D01*
X59655212Y-104925461D01*
X59835094Y-105065469D01*
X59835096Y-105065470D01*
X59835099Y-105065472D01*
X59951646Y-105128543D01*
X60035574Y-105173963D01*
X60147529Y-105212397D01*
X60251173Y-105247979D01*
X60251175Y-105247979D01*
X60251177Y-105247980D01*
X60476023Y-105285500D01*
X60476024Y-105285500D01*
X60703976Y-105285500D01*
X60703977Y-105285500D01*
X60928823Y-105247980D01*
X61144426Y-105173963D01*
X61344906Y-105065469D01*
X61524794Y-104925456D01*
X61679183Y-104757745D01*
X61803862Y-104566909D01*
X61895430Y-104358155D01*
X61951390Y-104137176D01*
X61951391Y-104137168D01*
X61970214Y-103910006D01*
X61970214Y-103909993D01*
X61951391Y-103682831D01*
X61951389Y-103682820D01*
X61895430Y-103461844D01*
X61803862Y-103253091D01*
X61679185Y-103062257D01*
X61524791Y-102894541D01*
X61524787Y-102894538D01*
X61344909Y-102754533D01*
X61344900Y-102754527D01*
X61144432Y-102646040D01*
X61144429Y-102646039D01*
X61144426Y-102646037D01*
X61144420Y-102646035D01*
X61144418Y-102646034D01*
X60928826Y-102572020D01*
X60760188Y-102543880D01*
X60703977Y-102534500D01*
X60476023Y-102534500D01*
X60431053Y-102542004D01*
X60251173Y-102572020D01*
X60035581Y-102646034D01*
X60035567Y-102646040D01*
X59835099Y-102754527D01*
X59835090Y-102754533D01*
X59655212Y-102894538D01*
X59655208Y-102894541D01*
X59500814Y-103062257D01*
X59376137Y-103253091D01*
X59284569Y-103461844D01*
X59228610Y-103682820D01*
X59228608Y-103682831D01*
X59209786Y-103909993D01*
X59209786Y-103910006D01*
X58405500Y-103910006D01*
X58405500Y-102129500D01*
X58425185Y-102062461D01*
X58477989Y-102016706D01*
X58529500Y-102005500D01*
X84075990Y-102005500D01*
X84076000Y-102005500D01*
X84183456Y-101993947D01*
X84234967Y-101982741D01*
X84269197Y-101971347D01*
X84337497Y-101948616D01*
X84337501Y-101948613D01*
X84337504Y-101948613D01*
X84458543Y-101870825D01*
X84511347Y-101825070D01*
X84605567Y-101716336D01*
X84665338Y-101585459D01*
X84685023Y-101518420D01*
X84685024Y-101518416D01*
X84705500Y-101376000D01*
X84705500Y-95223805D01*
X84694032Y-95116741D01*
X84682907Y-95065406D01*
X84649022Y-94963196D01*
X84571423Y-94842035D01*
X84571420Y-94842031D01*
X84571414Y-94842024D01*
X84525749Y-94789158D01*
X84417170Y-94694774D01*
X84383578Y-94679369D01*
X84286386Y-94634797D01*
X84219380Y-94615007D01*
X84219373Y-94615005D01*
X84219367Y-94615003D01*
X84076989Y-94594306D01*
X79030746Y-94586396D01*
X78963737Y-94566606D01*
X78918065Y-94513731D01*
X78908230Y-94444557D01*
X78937354Y-94381046D01*
X78990678Y-94345114D01*
X79014503Y-94336936D01*
X79218626Y-94226470D01*
X79401784Y-94083913D01*
X79558979Y-93913153D01*
X79685924Y-93718849D01*
X79779157Y-93506300D01*
X79836134Y-93281305D01*
X79855300Y-93050000D01*
X79855300Y-93049993D01*
X79836135Y-92818702D01*
X79836133Y-92818691D01*
X79779157Y-92593699D01*
X79685924Y-92381151D01*
X79558983Y-92186852D01*
X79558980Y-92186849D01*
X79558979Y-92186847D01*
X79401784Y-92016087D01*
X79401779Y-92016083D01*
X79401777Y-92016081D01*
X79218634Y-91873535D01*
X79218628Y-91873531D01*
X79014504Y-91763064D01*
X79014495Y-91763061D01*
X78794984Y-91687702D01*
X78623282Y-91659050D01*
X78566049Y-91649500D01*
X78333951Y-91649500D01*
X78288164Y-91657140D01*
X78105015Y-91687702D01*
X77885504Y-91763061D01*
X77885495Y-91763064D01*
X77681371Y-91873531D01*
X77681365Y-91873535D01*
X77498222Y-92016081D01*
X77498219Y-92016084D01*
X77341016Y-92186852D01*
X77214075Y-92381151D01*
X77120842Y-92593699D01*
X77063866Y-92818691D01*
X77063864Y-92818702D01*
X77044700Y-93049993D01*
X77044700Y-93050006D01*
X77063864Y-93281297D01*
X77063866Y-93281308D01*
X77120842Y-93506300D01*
X77214075Y-93718848D01*
X77341016Y-93913147D01*
X77341019Y-93913151D01*
X77341021Y-93913153D01*
X77498216Y-94083913D01*
X77498219Y-94083915D01*
X77498222Y-94083918D01*
X77681365Y-94226464D01*
X77681371Y-94226468D01*
X77681374Y-94226470D01*
X77885497Y-94336936D01*
X77895882Y-94340501D01*
X77903993Y-94343286D01*
X77961008Y-94383671D01*
X77987139Y-94448471D01*
X77974088Y-94517111D01*
X77925999Y-94567798D01*
X77863536Y-94584567D01*
X52424984Y-94544695D01*
X52424983Y-94544695D01*
X52424982Y-94544695D01*
X52394161Y-94547972D01*
X52317106Y-94556165D01*
X52317104Y-94556166D01*
X52265416Y-94567369D01*
X52265407Y-94567371D01*
X52162502Y-94601578D01*
X52162494Y-94601582D01*
X52041468Y-94679360D01*
X52041451Y-94679373D01*
X51988659Y-94725117D01*
X51894433Y-94833858D01*
X51894430Y-94833862D01*
X51834664Y-94964728D01*
X51814978Y-95031769D01*
X51814976Y-95031774D01*
X51802760Y-95116741D01*
X51794500Y-95174194D01*
X51794500Y-98130000D01*
X51794500Y-99710006D01*
X51794500Y-103933613D01*
X51794500Y-106526000D01*
X40750000Y-106526000D01*
X40750000Y-83500006D01*
X53619786Y-83500006D01*
X53638608Y-83727168D01*
X53638610Y-83727179D01*
X53694569Y-83948155D01*
X53786137Y-84156908D01*
X53910814Y-84347742D01*
X54065208Y-84515458D01*
X54065212Y-84515461D01*
X54245094Y-84655469D01*
X54245096Y-84655470D01*
X54245099Y-84655472D01*
X54302693Y-84686640D01*
X54445574Y-84763963D01*
X54557529Y-84802397D01*
X54661173Y-84837979D01*
X54661175Y-84837979D01*
X54661177Y-84837980D01*
X54886023Y-84875500D01*
X54886024Y-84875500D01*
X55113976Y-84875500D01*
X55113977Y-84875500D01*
X55338823Y-84837980D01*
X55554426Y-84763963D01*
X55754906Y-84655469D01*
X55934794Y-84515456D01*
X56089183Y-84347745D01*
X56213862Y-84156909D01*
X56305430Y-83948155D01*
X56342948Y-83800000D01*
X113441550Y-83800000D01*
X113460122Y-84035977D01*
X113515378Y-84266136D01*
X113605960Y-84484822D01*
X113729634Y-84686640D01*
X113729635Y-84686641D01*
X113729636Y-84686643D01*
X113729638Y-84686645D01*
X113883365Y-84866635D01*
X114063355Y-85020362D01*
X114063357Y-85020363D01*
X114063358Y-85020364D01*
X114063359Y-85020365D01*
X114265177Y-85144039D01*
X114483863Y-85234621D01*
X114714026Y-85289878D01*
X114950000Y-85308450D01*
X115185974Y-85289878D01*
X115416137Y-85234621D01*
X115634822Y-85144039D01*
X115836645Y-85020362D01*
X116016635Y-84866635D01*
X116170362Y-84686645D01*
X116294039Y-84484822D01*
X116384621Y-84266137D01*
X116439878Y-84035974D01*
X116458450Y-83800000D01*
X116439878Y-83564026D01*
X116384621Y-83333863D01*
X116294039Y-83115178D01*
X116294039Y-83115177D01*
X116170365Y-82913359D01*
X116170364Y-82913358D01*
X116170363Y-82913357D01*
X116170362Y-82913355D01*
X116016635Y-82733365D01*
X115836645Y-82579638D01*
X115836643Y-82579636D01*
X115836641Y-82579635D01*
X115836640Y-82579634D01*
X115634822Y-82455960D01*
X115416136Y-82365378D01*
X115185977Y-82310122D01*
X114950000Y-82291550D01*
X114714022Y-82310122D01*
X114483863Y-82365378D01*
X114265177Y-82455960D01*
X114063359Y-82579634D01*
X114063358Y-82579635D01*
X113883365Y-82733365D01*
X113729635Y-82913358D01*
X113729634Y-82913359D01*
X113605960Y-83115177D01*
X113515378Y-83333863D01*
X113460122Y-83564022D01*
X113441550Y-83800000D01*
X56342948Y-83800000D01*
X56361390Y-83727176D01*
X56374909Y-83564026D01*
X56380214Y-83500006D01*
X56380214Y-83499993D01*
X56361391Y-83272831D01*
X56361389Y-83272820D01*
X56305430Y-83051844D01*
X56213862Y-82843091D01*
X56089185Y-82652257D01*
X55934791Y-82484541D01*
X55934787Y-82484538D01*
X55754909Y-82344533D01*
X55754900Y-82344527D01*
X55554432Y-82236040D01*
X55554429Y-82236039D01*
X55554426Y-82236037D01*
X55554420Y-82236035D01*
X55554418Y-82236034D01*
X55338826Y-82162020D01*
X55170188Y-82133880D01*
X55113977Y-82124500D01*
X54886023Y-82124500D01*
X54841053Y-82132004D01*
X54661173Y-82162020D01*
X54445581Y-82236034D01*
X54445567Y-82236040D01*
X54245099Y-82344527D01*
X54245090Y-82344533D01*
X54065212Y-82484538D01*
X54065208Y-82484541D01*
X53910814Y-82652257D01*
X53786137Y-82843091D01*
X53694569Y-83051844D01*
X53638610Y-83272820D01*
X53638608Y-83272831D01*
X53619786Y-83499993D01*
X53619786Y-83500006D01*
X40750000Y-83500006D01*
X40750000Y-79300006D01*
X53619786Y-79300006D01*
X53638608Y-79527168D01*
X53638610Y-79527179D01*
X53694569Y-79748155D01*
X53786137Y-79956908D01*
X53910814Y-80147742D01*
X54065208Y-80315458D01*
X54065212Y-80315461D01*
X54245094Y-80455469D01*
X54245096Y-80455470D01*
X54245099Y-80455472D01*
X54361646Y-80518543D01*
X54445574Y-80563963D01*
X54557529Y-80602397D01*
X54661173Y-80637979D01*
X54661175Y-80637979D01*
X54661177Y-80637980D01*
X54886023Y-80675500D01*
X54886024Y-80675500D01*
X55113976Y-80675500D01*
X55113977Y-80675500D01*
X55338823Y-80637980D01*
X55554426Y-80563963D01*
X55754906Y-80455469D01*
X55934794Y-80315456D01*
X56089183Y-80147745D01*
X56213862Y-79956909D01*
X56305430Y-79748155D01*
X56361390Y-79527176D01*
X56380214Y-79300000D01*
X56380214Y-79299993D01*
X56361391Y-79072831D01*
X56361389Y-79072820D01*
X56305430Y-78851844D01*
X56213862Y-78643091D01*
X56089185Y-78452257D01*
X55934791Y-78284541D01*
X55934787Y-78284538D01*
X55754909Y-78144533D01*
X55754900Y-78144527D01*
X55554432Y-78036040D01*
X55554429Y-78036039D01*
X55554426Y-78036037D01*
X55554420Y-78036035D01*
X55554418Y-78036034D01*
X55338826Y-77962020D01*
X55170188Y-77933880D01*
X55113977Y-77924500D01*
X54886023Y-77924500D01*
X54841053Y-77932004D01*
X54661173Y-77962020D01*
X54445581Y-78036034D01*
X54445567Y-78036040D01*
X54245099Y-78144527D01*
X54245090Y-78144533D01*
X54065212Y-78284538D01*
X54065208Y-78284541D01*
X53910814Y-78452257D01*
X53786137Y-78643091D01*
X53694569Y-78851844D01*
X53638610Y-79072820D01*
X53638608Y-79072831D01*
X53619786Y-79299993D01*
X53619786Y-79300006D01*
X40750000Y-79300006D01*
X40750000Y-64440000D01*
X113541550Y-64440000D01*
X113560122Y-64675977D01*
X113615378Y-64906136D01*
X113705960Y-65124822D01*
X113829634Y-65326640D01*
X113829635Y-65326641D01*
X113829636Y-65326643D01*
X113829638Y-65326645D01*
X113983365Y-65506635D01*
X114163355Y-65660362D01*
X114163357Y-65660363D01*
X114163358Y-65660364D01*
X114163359Y-65660365D01*
X114365177Y-65784039D01*
X114583863Y-65874621D01*
X114814026Y-65929878D01*
X115050000Y-65948450D01*
X115285974Y-65929878D01*
X115516137Y-65874621D01*
X115734822Y-65784039D01*
X115936645Y-65660362D01*
X116116635Y-65506635D01*
X116270362Y-65326645D01*
X116394039Y-65124822D01*
X116484621Y-64906137D01*
X116539878Y-64675974D01*
X116558450Y-64440000D01*
X116539878Y-64204026D01*
X116484621Y-63973863D01*
X116407073Y-63786645D01*
X116394039Y-63755177D01*
X116270365Y-63553359D01*
X116270364Y-63553358D01*
X116270363Y-63553357D01*
X116270362Y-63553355D01*
X116116635Y-63373365D01*
X115936645Y-63219638D01*
X115936643Y-63219636D01*
X115936641Y-63219635D01*
X115936640Y-63219634D01*
X115734822Y-63095960D01*
X115516136Y-63005378D01*
X115285977Y-62950122D01*
X115050000Y-62931550D01*
X114814022Y-62950122D01*
X114583863Y-63005378D01*
X114365177Y-63095960D01*
X114163359Y-63219634D01*
X114163358Y-63219635D01*
X113983365Y-63373365D01*
X113829635Y-63553358D01*
X113829634Y-63553359D01*
X113705960Y-63755177D01*
X113615378Y-63973863D01*
X113560122Y-64204022D01*
X113541550Y-64440000D01*
X40750000Y-64440000D01*
X40750000Y-62200006D01*
X53419786Y-62200006D01*
X53438608Y-62427168D01*
X53438610Y-62427179D01*
X53494569Y-62648155D01*
X53586137Y-62856908D01*
X53710814Y-63047742D01*
X53865208Y-63215458D01*
X53865212Y-63215461D01*
X53870575Y-63219635D01*
X54045094Y-63355469D01*
X54045096Y-63355470D01*
X54045099Y-63355472D01*
X54078163Y-63373365D01*
X54245574Y-63463963D01*
X54357529Y-63502397D01*
X54461173Y-63537979D01*
X54461175Y-63537979D01*
X54461177Y-63537980D01*
X54686023Y-63575500D01*
X54686024Y-63575500D01*
X54913976Y-63575500D01*
X54913977Y-63575500D01*
X55138823Y-63537980D01*
X55354426Y-63463963D01*
X55554906Y-63355469D01*
X55734794Y-63215456D01*
X55889183Y-63047745D01*
X55985709Y-62900000D01*
X77491550Y-62900000D01*
X77510122Y-63135977D01*
X77565378Y-63366136D01*
X77655960Y-63584822D01*
X77779634Y-63786640D01*
X77779635Y-63786641D01*
X77779636Y-63786643D01*
X77779638Y-63786645D01*
X77933365Y-63966635D01*
X78113355Y-64120362D01*
X78113357Y-64120363D01*
X78113358Y-64120364D01*
X78113359Y-64120365D01*
X78315177Y-64244039D01*
X78533863Y-64334621D01*
X78764026Y-64389878D01*
X79000000Y-64408450D01*
X79235974Y-64389878D01*
X79466137Y-64334621D01*
X79684822Y-64244039D01*
X79886645Y-64120362D01*
X80066635Y-63966635D01*
X80220362Y-63786645D01*
X80344039Y-63584822D01*
X80434621Y-63366137D01*
X80489878Y-63135974D01*
X80508450Y-62900000D01*
X80489878Y-62664026D01*
X80434621Y-62433863D01*
X80344039Y-62215178D01*
X80344039Y-62215177D01*
X80220365Y-62013359D01*
X80220364Y-62013358D01*
X80220363Y-62013357D01*
X80220362Y-62013355D01*
X80066635Y-61833365D01*
X79886645Y-61679638D01*
X79886643Y-61679636D01*
X79886641Y-61679635D01*
X79886640Y-61679634D01*
X79684822Y-61555960D01*
X79466136Y-61465378D01*
X79235977Y-61410122D01*
X79000000Y-61391550D01*
X78764022Y-61410122D01*
X78533863Y-61465378D01*
X78315177Y-61555960D01*
X78113359Y-61679634D01*
X78113358Y-61679635D01*
X77933365Y-61833365D01*
X77779635Y-62013358D01*
X77779634Y-62013359D01*
X77655960Y-62215177D01*
X77565378Y-62433863D01*
X77510122Y-62664022D01*
X77491550Y-62900000D01*
X55985709Y-62900000D01*
X56013862Y-62856909D01*
X56105430Y-62648155D01*
X56161390Y-62427176D01*
X56161391Y-62427168D01*
X56180214Y-62200006D01*
X56180214Y-62199993D01*
X56161391Y-61972831D01*
X56161389Y-61972820D01*
X56105430Y-61751844D01*
X56013862Y-61543091D01*
X55889185Y-61352257D01*
X55734791Y-61184541D01*
X55734787Y-61184538D01*
X55554909Y-61044533D01*
X55554900Y-61044527D01*
X55354432Y-60936040D01*
X55354429Y-60936039D01*
X55354426Y-60936037D01*
X55354420Y-60936035D01*
X55354418Y-60936034D01*
X55138826Y-60862020D01*
X54970188Y-60833880D01*
X54913977Y-60824500D01*
X54686023Y-60824500D01*
X54641053Y-60832004D01*
X54461173Y-60862020D01*
X54245581Y-60936034D01*
X54245567Y-60936040D01*
X54045099Y-61044527D01*
X54045090Y-61044533D01*
X53865212Y-61184538D01*
X53865208Y-61184541D01*
X53710814Y-61352257D01*
X53586137Y-61543091D01*
X53494569Y-61751844D01*
X53438610Y-61972820D01*
X53438608Y-61972831D01*
X53419786Y-62199993D01*
X53419786Y-62200006D01*
X40750000Y-62200006D01*
X40750000Y-58000006D01*
X53419786Y-58000006D01*
X53438608Y-58227168D01*
X53438610Y-58227179D01*
X53494569Y-58448155D01*
X53586137Y-58656908D01*
X53710814Y-58847742D01*
X53865208Y-59015458D01*
X53865212Y-59015461D01*
X54045094Y-59155469D01*
X54045096Y-59155470D01*
X54045099Y-59155472D01*
X54161646Y-59218543D01*
X54245574Y-59263963D01*
X54357529Y-59302397D01*
X54461173Y-59337979D01*
X54461175Y-59337979D01*
X54461177Y-59337980D01*
X54686023Y-59375500D01*
X54686024Y-59375500D01*
X54913976Y-59375500D01*
X54913977Y-59375500D01*
X55138823Y-59337980D01*
X55354426Y-59263963D01*
X55554906Y-59155469D01*
X55734794Y-59015456D01*
X55889183Y-58847745D01*
X56013862Y-58656909D01*
X56105430Y-58448155D01*
X56161390Y-58227176D01*
X56180214Y-58000000D01*
X56180214Y-57999993D01*
X56161391Y-57772831D01*
X56161389Y-57772820D01*
X56105430Y-57551844D01*
X56013862Y-57343091D01*
X55889185Y-57152257D01*
X55734791Y-56984541D01*
X55734787Y-56984538D01*
X55554909Y-56844533D01*
X55554900Y-56844527D01*
X55354432Y-56736040D01*
X55354429Y-56736039D01*
X55354426Y-56736037D01*
X55354420Y-56736035D01*
X55354418Y-56736034D01*
X55138826Y-56662020D01*
X54970188Y-56633880D01*
X54913977Y-56624500D01*
X54686023Y-56624500D01*
X54641053Y-56632004D01*
X54461173Y-56662020D01*
X54245581Y-56736034D01*
X54245567Y-56736040D01*
X54045099Y-56844527D01*
X54045090Y-56844533D01*
X53865212Y-56984538D01*
X53865208Y-56984541D01*
X53710814Y-57152257D01*
X53586137Y-57343091D01*
X53494569Y-57551844D01*
X53438610Y-57772820D01*
X53438608Y-57772831D01*
X53419786Y-57999993D01*
X53419786Y-58000006D01*
X40750000Y-58000006D01*
X40750000Y-30000000D01*
X41494696Y-30000000D01*
X41513898Y-30366405D01*
X41571294Y-30728788D01*
X41571294Y-30728790D01*
X41666260Y-31083206D01*
X41797746Y-31425739D01*
X41964320Y-31752656D01*
X42164147Y-32060364D01*
X42164149Y-32060366D01*
X42395051Y-32345506D01*
X42654494Y-32604949D01*
X42654498Y-32604952D01*
X42939635Y-32835852D01*
X43247343Y-33035679D01*
X43247348Y-33035682D01*
X43574264Y-33202255D01*
X43916801Y-33333742D01*
X44271206Y-33428705D01*
X44633596Y-33486102D01*
X44979734Y-33504241D01*
X44999999Y-33505304D01*
X45000000Y-33505304D01*
X45000001Y-33505304D01*
X45019203Y-33504297D01*
X45366404Y-33486102D01*
X45728794Y-33428705D01*
X46083199Y-33333742D01*
X46425736Y-33202255D01*
X46752652Y-33035682D01*
X47060366Y-32835851D01*
X47345506Y-32604949D01*
X47604949Y-32345506D01*
X47835851Y-32060366D01*
X48035682Y-31752652D01*
X48202255Y-31425736D01*
X48333742Y-31083199D01*
X48428705Y-30728794D01*
X48486102Y-30366404D01*
X48505304Y-30000000D01*
X123994696Y-30000000D01*
X124013898Y-30366405D01*
X124071294Y-30728788D01*
X124071294Y-30728790D01*
X124166260Y-31083206D01*
X124297746Y-31425739D01*
X124464320Y-31752656D01*
X124664147Y-32060364D01*
X124664149Y-32060366D01*
X124895051Y-32345506D01*
X125154494Y-32604949D01*
X125154498Y-32604952D01*
X125439635Y-32835852D01*
X125747343Y-33035679D01*
X125747348Y-33035682D01*
X126074264Y-33202255D01*
X126416801Y-33333742D01*
X126771206Y-33428705D01*
X127133596Y-33486102D01*
X127479734Y-33504241D01*
X127499999Y-33505304D01*
X127500000Y-33505304D01*
X127500001Y-33505304D01*
X127519203Y-33504297D01*
X127866404Y-33486102D01*
X128228794Y-33428705D01*
X128583199Y-33333742D01*
X128925736Y-33202255D01*
X129252652Y-33035682D01*
X129560366Y-32835851D01*
X129845506Y-32604949D01*
X130104949Y-32345506D01*
X130335851Y-32060366D01*
X130535682Y-31752652D01*
X130702255Y-31425736D01*
X130833742Y-31083199D01*
X130928705Y-30728794D01*
X130986102Y-30366404D01*
X131005304Y-30000000D01*
X130986102Y-29633596D01*
X130928705Y-29271206D01*
X130833742Y-28916801D01*
X130702255Y-28574264D01*
X130535682Y-28247348D01*
X130335851Y-27939634D01*
X130104949Y-27654494D01*
X129845506Y-27395051D01*
X129560366Y-27164149D01*
X129560364Y-27164147D01*
X129252656Y-26964320D01*
X128925739Y-26797746D01*
X128583206Y-26666260D01*
X128583199Y-26666258D01*
X128228794Y-26571295D01*
X128228790Y-26571294D01*
X128228789Y-26571294D01*
X127866405Y-26513898D01*
X127500001Y-26494696D01*
X127499999Y-26494696D01*
X127133594Y-26513898D01*
X126771211Y-26571294D01*
X126771209Y-26571294D01*
X126416793Y-26666260D01*
X126074260Y-26797746D01*
X125747343Y-26964320D01*
X125439635Y-27164147D01*
X125154498Y-27395047D01*
X125154490Y-27395054D01*
X124895054Y-27654490D01*
X124895047Y-27654498D01*
X124664147Y-27939635D01*
X124464320Y-28247343D01*
X124297746Y-28574260D01*
X124166260Y-28916793D01*
X124071294Y-29271209D01*
X124071294Y-29271211D01*
X124013898Y-29633594D01*
X123994696Y-29999999D01*
X123994696Y-30000000D01*
X48505304Y-30000000D01*
X48486102Y-29633596D01*
X48428705Y-29271206D01*
X48333742Y-28916801D01*
X48202255Y-28574264D01*
X48035682Y-28247348D01*
X47835851Y-27939634D01*
X47604949Y-27654494D01*
X47345506Y-27395051D01*
X47060366Y-27164149D01*
X47060364Y-27164147D01*
X46752656Y-26964320D01*
X46425739Y-26797746D01*
X46083206Y-26666260D01*
X46083199Y-26666258D01*
X45728794Y-26571295D01*
X45728790Y-26571294D01*
X45728789Y-26571294D01*
X45366405Y-26513898D01*
X45000001Y-26494696D01*
X44999999Y-26494696D01*
X44633594Y-26513898D01*
X44271211Y-26571294D01*
X44271209Y-26571294D01*
X43916793Y-26666260D01*
X43574260Y-26797746D01*
X43247343Y-26964320D01*
X42939635Y-27164147D01*
X42654498Y-27395047D01*
X42654490Y-27395054D01*
X42395054Y-27654490D01*
X42395047Y-27654498D01*
X42164147Y-27939635D01*
X41964320Y-28247343D01*
X41797746Y-28574260D01*
X41666260Y-28916793D01*
X41571294Y-29271209D01*
X41571294Y-29271211D01*
X41513898Y-29633594D01*
X41494696Y-29999999D01*
X41494696Y-30000000D01*
X40750000Y-30000000D01*
X40750000Y-25374000D01*
X40769685Y-25306961D01*
X40822489Y-25261206D01*
X40874000Y-25250000D01*
X132626000Y-25250000D01*
X132693039Y-25269685D01*
G37*
%TD.AperFunction*%
%TD*%
%TA.AperFunction,Conductor*%
%TO.N,5V*%
G36*
X83943039Y-110369685D02*
G01*
X83988794Y-110422489D01*
X84000000Y-110474000D01*
X84000000Y-120126000D01*
X83980315Y-120193039D01*
X83927511Y-120238794D01*
X83876000Y-120250000D01*
X71000000Y-120250000D01*
X71000000Y-122026000D01*
X70980315Y-122093039D01*
X70927511Y-122138794D01*
X70876000Y-122150000D01*
X61263197Y-122150000D01*
X61196158Y-122130315D01*
X61150403Y-122077511D01*
X61140459Y-122008353D01*
X61140485Y-122008172D01*
X61145632Y-121972738D01*
X60586531Y-121413636D01*
X60573350Y-121422443D01*
X60570315Y-121432782D01*
X60553681Y-121453424D01*
X60034365Y-121972739D01*
X60039516Y-122008155D01*
X60029684Y-122077329D01*
X59984015Y-122130207D01*
X59917007Y-122150000D01*
X58074000Y-122150000D01*
X58006961Y-122130315D01*
X57961206Y-122077511D01*
X57950000Y-122026000D01*
X57950000Y-120710006D01*
X59210288Y-120710006D01*
X59229103Y-120937085D01*
X59229105Y-120937093D01*
X59285045Y-121157993D01*
X59330735Y-121262156D01*
X59330736Y-121262157D01*
X59797897Y-120794995D01*
X59890000Y-120794995D01*
X59930682Y-120960046D01*
X60009680Y-121110566D01*
X60122405Y-121237806D01*
X60262305Y-121334371D01*
X60421249Y-121394651D01*
X60547660Y-121410000D01*
X60632340Y-121410000D01*
X60758751Y-121394651D01*
X60917695Y-121334371D01*
X61057595Y-121237806D01*
X61170320Y-121110566D01*
X61249318Y-120960046D01*
X61290000Y-120794995D01*
X61290000Y-120706531D01*
X61293636Y-120706531D01*
X61849262Y-121262157D01*
X61849263Y-121262156D01*
X61894951Y-121158001D01*
X61894955Y-121157990D01*
X61950892Y-120937105D01*
X61950896Y-120937085D01*
X61969712Y-120710006D01*
X61969712Y-120709993D01*
X61950896Y-120482914D01*
X61950892Y-120482894D01*
X61894955Y-120262009D01*
X61894955Y-120262008D01*
X61849262Y-120157841D01*
X61333424Y-120673681D01*
X61305339Y-120689016D01*
X61293636Y-120706531D01*
X61290000Y-120706531D01*
X61290000Y-120625005D01*
X61249318Y-120459954D01*
X61170320Y-120309434D01*
X61057595Y-120182194D01*
X60917695Y-120085629D01*
X60758751Y-120025349D01*
X60632340Y-120010000D01*
X60547660Y-120010000D01*
X60421249Y-120025349D01*
X60262305Y-120085629D01*
X60122405Y-120182194D01*
X60009680Y-120309434D01*
X59930682Y-120459954D01*
X59890000Y-120625005D01*
X59890000Y-120794995D01*
X59797897Y-120794995D01*
X59882892Y-120710000D01*
X59882893Y-120709999D01*
X59330736Y-120157842D01*
X59285044Y-120262008D01*
X59229105Y-120482906D01*
X59229103Y-120482914D01*
X59210288Y-120709993D01*
X59210288Y-120710006D01*
X57950000Y-120710006D01*
X57950000Y-119447260D01*
X60034366Y-119447260D01*
X60589999Y-120002893D01*
X60590000Y-120002893D01*
X60590000Y-120002892D01*
X61145633Y-119447259D01*
X61144225Y-119446497D01*
X60928701Y-119372507D01*
X60703935Y-119335000D01*
X60476065Y-119335000D01*
X60251298Y-119372507D01*
X60035774Y-119446497D01*
X60035772Y-119446498D01*
X60034366Y-119447259D01*
X60034366Y-119447260D01*
X57950000Y-119447260D01*
X57950000Y-116510006D01*
X59209786Y-116510006D01*
X59228608Y-116737168D01*
X59228610Y-116737179D01*
X59284569Y-116958155D01*
X59376137Y-117166908D01*
X59500814Y-117357742D01*
X59655208Y-117525458D01*
X59655212Y-117525461D01*
X59778005Y-117621035D01*
X59835094Y-117665469D01*
X59835096Y-117665470D01*
X59835099Y-117665472D01*
X59915098Y-117708765D01*
X60035574Y-117773963D01*
X60099474Y-117795900D01*
X60251173Y-117847979D01*
X60251175Y-117847979D01*
X60251177Y-117847980D01*
X60476023Y-117885500D01*
X60476024Y-117885500D01*
X60703976Y-117885500D01*
X60703977Y-117885500D01*
X60928823Y-117847980D01*
X61144426Y-117773963D01*
X61344906Y-117665469D01*
X61345637Y-117664900D01*
X76642051Y-117664900D01*
X76660615Y-117900792D01*
X76715853Y-118130877D01*
X76792317Y-118315476D01*
X77397197Y-117710596D01*
X77427292Y-117881265D01*
X77496670Y-118042100D01*
X77601269Y-118182601D01*
X77735450Y-118295193D01*
X77891980Y-118373805D01*
X78062419Y-118414200D01*
X78107806Y-118414200D01*
X77499422Y-119022581D01*
X77684018Y-119099044D01*
X77684016Y-119099044D01*
X77914109Y-119154284D01*
X77914107Y-119154284D01*
X78150000Y-119172848D01*
X78385891Y-119154284D01*
X78615980Y-119099044D01*
X78800576Y-119022581D01*
X78192195Y-118414200D01*
X78193642Y-118414200D01*
X78323977Y-118398966D01*
X78488575Y-118339057D01*
X78634920Y-118242805D01*
X78755123Y-118115397D01*
X78842703Y-117963703D01*
X78892940Y-117795900D01*
X78898177Y-117705972D01*
X79507681Y-118315476D01*
X79584144Y-118130880D01*
X79639384Y-117900791D01*
X79657948Y-117664900D01*
X79639384Y-117429008D01*
X79584144Y-117198917D01*
X79507681Y-117014322D01*
X78902801Y-117619202D01*
X78872708Y-117448535D01*
X78803330Y-117287700D01*
X78698731Y-117147199D01*
X78564550Y-117034607D01*
X78408020Y-116955995D01*
X78237581Y-116915600D01*
X78192194Y-116915600D01*
X78800576Y-116307217D01*
X78615977Y-116230753D01*
X78385891Y-116175515D01*
X78385892Y-116175515D01*
X78150000Y-116156951D01*
X77914107Y-116175515D01*
X77684022Y-116230753D01*
X77499422Y-116307217D01*
X78107807Y-116915600D01*
X78106358Y-116915600D01*
X77976023Y-116930834D01*
X77811425Y-116990743D01*
X77665080Y-117086995D01*
X77544877Y-117214403D01*
X77457297Y-117366097D01*
X77407060Y-117533900D01*
X77401822Y-117623828D01*
X76792317Y-117014322D01*
X76715853Y-117198922D01*
X76660615Y-117429007D01*
X76642051Y-117664900D01*
X61345637Y-117664900D01*
X61524794Y-117525456D01*
X61679183Y-117357745D01*
X61803862Y-117166909D01*
X61895430Y-116958155D01*
X61951390Y-116737176D01*
X61970214Y-116510000D01*
X61970214Y-116509993D01*
X61951391Y-116282831D01*
X61951389Y-116282820D01*
X61895430Y-116061844D01*
X61803862Y-115853091D01*
X61679185Y-115662257D01*
X61524791Y-115494541D01*
X61524787Y-115494538D01*
X61344909Y-115354533D01*
X61344900Y-115354527D01*
X61144432Y-115246040D01*
X61144429Y-115246039D01*
X61144426Y-115246037D01*
X61144420Y-115246035D01*
X61144418Y-115246034D01*
X60928826Y-115172020D01*
X60760188Y-115143880D01*
X60703977Y-115134500D01*
X60476023Y-115134500D01*
X60431053Y-115142004D01*
X60251173Y-115172020D01*
X60035581Y-115246034D01*
X60035567Y-115246040D01*
X59835099Y-115354527D01*
X59835090Y-115354533D01*
X59655212Y-115494538D01*
X59655208Y-115494541D01*
X59500814Y-115662257D01*
X59376137Y-115853091D01*
X59284569Y-116061844D01*
X59228610Y-116282820D01*
X59228608Y-116282831D01*
X59209786Y-116509993D01*
X59209786Y-116510006D01*
X57950000Y-116510006D01*
X57950000Y-113572739D01*
X60034365Y-113572739D01*
X60035774Y-113573502D01*
X60035780Y-113573504D01*
X60251298Y-113647492D01*
X60476065Y-113685000D01*
X60703935Y-113685000D01*
X60928701Y-113647492D01*
X61144220Y-113573504D01*
X61144223Y-113573503D01*
X61145633Y-113572739D01*
X60586531Y-113013636D01*
X60573350Y-113022443D01*
X60570315Y-113032782D01*
X60553681Y-113053424D01*
X60034365Y-113572739D01*
X57950000Y-113572739D01*
X57950000Y-112310006D01*
X59210288Y-112310006D01*
X59229103Y-112537085D01*
X59229105Y-112537093D01*
X59285045Y-112757993D01*
X59330735Y-112862156D01*
X59330736Y-112862157D01*
X59797897Y-112394995D01*
X59890000Y-112394995D01*
X59930682Y-112560046D01*
X60009680Y-112710566D01*
X60122405Y-112837806D01*
X60262305Y-112934371D01*
X60421249Y-112994651D01*
X60547660Y-113010000D01*
X60632340Y-113010000D01*
X60758751Y-112994651D01*
X60917695Y-112934371D01*
X61057595Y-112837806D01*
X61170320Y-112710566D01*
X61249318Y-112560046D01*
X61290000Y-112394995D01*
X61290000Y-112306531D01*
X61293636Y-112306531D01*
X61849262Y-112862157D01*
X61849263Y-112862156D01*
X61894951Y-112758001D01*
X61894955Y-112757990D01*
X61950892Y-112537105D01*
X61950896Y-112537085D01*
X61969712Y-112310006D01*
X61969712Y-112309993D01*
X61950896Y-112082914D01*
X61950892Y-112082894D01*
X61894955Y-111862009D01*
X61894955Y-111862008D01*
X61849262Y-111757841D01*
X61333424Y-112273681D01*
X61305339Y-112289016D01*
X61293636Y-112306531D01*
X61290000Y-112306531D01*
X61290000Y-112225005D01*
X61249318Y-112059954D01*
X61170320Y-111909434D01*
X61057595Y-111782194D01*
X60917695Y-111685629D01*
X60758751Y-111625349D01*
X60632340Y-111610000D01*
X60547660Y-111610000D01*
X60421249Y-111625349D01*
X60262305Y-111685629D01*
X60122405Y-111782194D01*
X60009680Y-111909434D01*
X59930682Y-112059954D01*
X59890000Y-112225005D01*
X59890000Y-112394995D01*
X59797897Y-112394995D01*
X59882892Y-112310000D01*
X59882893Y-112309999D01*
X59330736Y-111757842D01*
X59285044Y-111862008D01*
X59229105Y-112082906D01*
X59229103Y-112082914D01*
X59210288Y-112309993D01*
X59210288Y-112310006D01*
X57950000Y-112310006D01*
X57950000Y-111047260D01*
X60034366Y-111047260D01*
X60589999Y-111602893D01*
X60590000Y-111602893D01*
X60590000Y-111602892D01*
X61145633Y-111047259D01*
X61144225Y-111046497D01*
X60928701Y-110972507D01*
X60703935Y-110935000D01*
X60476065Y-110935000D01*
X60251298Y-110972507D01*
X60035774Y-111046497D01*
X60035772Y-111046498D01*
X60034366Y-111047259D01*
X60034366Y-111047260D01*
X57950000Y-111047260D01*
X57950000Y-110474000D01*
X57969685Y-110406961D01*
X58022489Y-110361206D01*
X58074000Y-110350000D01*
X83876000Y-110350000D01*
X83943039Y-110369685D01*
G37*
%TD.AperFunction*%
%TD*%
M02*
