M48
INCH
T1C0.0197
T2C0.0276
T3C0.0472
T4C0.0551
T5C0.0590
T6C0.1181
%
G90
G05
T1
X1.6831Y-1.1811
X1.6831Y-6.5945
X1.709Y-1.1185
X1.709Y-1.2437
X1.709Y-6.5319
X1.709Y-6.6571
X1.7717Y-1.0925
X1.7717Y-1.2697
X1.7717Y-6.5059
X1.7717Y-6.6831
X1.8343Y-1.1185
X1.8343Y-1.2437
X1.8343Y-6.5319
X1.8343Y-6.6571
X1.8602Y-1.1811
X1.8602Y-6.5945
X4.9311Y-1.1811
X4.9311Y-6.5945
X4.957Y-1.1185
X4.957Y-1.2437
X4.957Y-6.5319
X4.957Y-6.6571
X5.0197Y-1.0925
X5.0197Y-1.2697
X5.0197Y-6.5059
X5.0197Y-6.6831
X5.0823Y-1.1185
X5.0823Y-1.2437
X5.0823Y-6.5319
X5.0823Y-6.6571
X5.1083Y-1.1811
X5.1083Y-6.5945
T2
X2.7937Y-5.3465
X2.7937Y-5.7465
X3.3937Y-5.3465
X3.4937Y-5.3465
X3.4937Y-5.7465
T3
X3.0886Y-3.4634
X3.0886Y-3.6634
X3.0886Y-3.8634
T4
X2.1575Y-2.2835
X2.1575Y-2.4488
X2.1654Y-3.122
X2.1654Y-3.2874
X2.1689Y-3.9256
X2.1689Y-4.0909
X2.1689Y-4.2563
X2.1689Y-4.4217
X2.1689Y-4.587
X2.1689Y-4.7524
X2.1689Y-4.9177
X2.1689Y-5.0831
X2.1689Y-5.2484
X2.1689Y-5.4138
X2.1689Y-5.5791
X2.1689Y-5.7445
X2.374Y-2.2835
X2.374Y-2.4488
X2.3819Y-3.122
X2.3819Y-3.2874
X2.3854Y-3.9256
X2.3854Y-4.0909
X2.3854Y-4.2563
X2.3854Y-4.4217
X2.3854Y-4.587
X2.3854Y-4.7524
X2.3854Y-4.9177
X2.3854Y-5.0831
X2.3854Y-5.2484
X2.3854Y-5.4138
X2.3854Y-5.5791
X2.3854Y-5.7445
T5
X2.6476Y-6.5787
X2.8476Y-6.5787
X3.0768Y-4.6325
X3.0768Y-4.8325
X3.1102Y-2.2764
X3.1102Y-2.4764
X3.9543Y-5.4669
X3.9543Y-5.6669
X3.9724Y-6.587
X4.1724Y-6.587
X4.5256Y-3.0992
X4.5256Y-3.2992
X4.5295Y-2.337
X4.5295Y-2.537
X4.5335Y-4.0476
X4.5335Y-4.2476
X4.5394Y-4.9512
X4.5394Y-5.1512
T6
X1.7717Y-1.1811
X1.7717Y-6.5945
X5.0197Y-1.1811
X5.0197Y-6.5945
T0
M30
