%TF.GenerationSoftware,KiCad,Pcbnew,7.0.8-7.0.8~ubuntu22.04.1*%
%TF.CreationDate,2025-01-17T11:03:05+01:00*%
%TF.ProjectId,supply_interface,73757070-6c79-45f6-996e-746572666163,rev?*%
%TF.SameCoordinates,Original*%
%TF.FileFunction,Copper,L2,Bot*%
%TF.FilePolarity,Positive*%
%FSLAX46Y46*%
G04 Gerber Fmt 4.6, Leading zero omitted, Abs format (unit mm)*
G04 Created by KiCad (PCBNEW 7.0.8-7.0.8~ubuntu22.04.1) date 2025-01-17 11:03:05*
%MOMM*%
%LPD*%
G01*
G04 APERTURE LIST*
%TA.AperFunction,ComponentPad*%
%ADD10C,0.800000*%
%TD*%
%TA.AperFunction,ComponentPad*%
%ADD11C,6.000000*%
%TD*%
%TA.AperFunction,ComponentPad*%
%ADD12R,1.750000X1.750000*%
%TD*%
%TA.AperFunction,ComponentPad*%
%ADD13C,1.750000*%
%TD*%
%TA.AperFunction,ComponentPad*%
%ADD14C,2.006600*%
%TD*%
%TA.AperFunction,ComponentPad*%
%ADD15R,1.200000X1.200000*%
%TD*%
%TA.AperFunction,ComponentPad*%
%ADD16C,1.200000*%
%TD*%
%TA.AperFunction,ComponentPad*%
%ADD17C,1.800000*%
%TD*%
%TA.AperFunction,SMDPad,CuDef*%
%ADD18R,1.470000X0.970000*%
%TD*%
%TA.AperFunction,SMDPad,CuDef*%
%ADD19R,2.500000X2.300000*%
%TD*%
G04 APERTURE END LIST*
D10*
%TO.P,H4,1*%
%TO.N,N/C*%
X125250000Y-167500000D03*
X125909010Y-165909010D03*
X125909010Y-169090990D03*
X127500000Y-165250000D03*
D11*
X127500000Y-167500000D03*
D10*
X127500000Y-169750000D03*
X129090990Y-165909010D03*
X129090990Y-169090990D03*
X129750000Y-167500000D03*
%TD*%
D12*
%TO.P,J2,1,1*%
%TO.N,12V*%
X60500000Y-79300000D03*
D13*
%TO.P,J2,2,2*%
X60500000Y-83500000D03*
%TO.P,J2,3,3*%
%TO.N,GND*%
X55000000Y-79300000D03*
%TO.P,J2,4,4*%
X55000000Y-83500000D03*
%TD*%
D14*
%TO.P,J9,1,1*%
%TO.N,12V*%
X79000000Y-57820000D03*
%TO.P,J9,2,2*%
%TO.N,GND*%
X79000000Y-62900000D03*
%TD*%
D10*
%TO.P,H2,1*%
%TO.N,N/C*%
X125250000Y-30000000D03*
X125909010Y-28409010D03*
X125909010Y-31590990D03*
X127500000Y-27750000D03*
D11*
X127500000Y-30000000D03*
D10*
X127500000Y-32250000D03*
X129090990Y-28409010D03*
X129090990Y-31590990D03*
X129750000Y-30000000D03*
%TD*%
D15*
%TO.P,PS1,1,-VIN*%
%TO.N,GND*%
X70960000Y-145960000D03*
D16*
%TO.P,PS1,8,NC*%
%TO.N,unconnected-(PS1-NC-Pad8)*%
X88740000Y-145960000D03*
%TO.P,PS1,9,+VOUT*%
%TO.N,24 V*%
X88740000Y-135800000D03*
%TO.P,PS1,10,-VOUT*%
%TO.N,0 V*%
X86200000Y-135800000D03*
%TO.P,PS1,16,+VIN*%
%TO.N,12V*%
X70960000Y-135800000D03*
%TD*%
D14*
%TO.P,J6,1,1*%
%TO.N,12V*%
X115300000Y-125760000D03*
%TO.P,J6,2,2*%
%TO.N,GND*%
X115300000Y-130840000D03*
%TD*%
%TO.P,J11,1,1*%
%TO.N,12V*%
X115050000Y-59360000D03*
%TO.P,J11,2,2*%
%TO.N,GND*%
X115050000Y-64440000D03*
%TD*%
D10*
%TO.P,H3,1*%
%TO.N,N/C*%
X42750000Y-167500000D03*
X43409010Y-165909010D03*
X43409010Y-169090990D03*
X45000000Y-165250000D03*
D11*
X45000000Y-167500000D03*
D10*
X45000000Y-169750000D03*
X46590990Y-165909010D03*
X46590990Y-169090990D03*
X47250000Y-167500000D03*
%TD*%
D12*
%TO.P,J1,1,1*%
%TO.N,3.3V*%
X60590000Y-99710000D03*
D13*
%TO.P,J1,2,2*%
X60590000Y-103910000D03*
%TO.P,J1,3,3*%
%TO.N,GND*%
X60590000Y-108110000D03*
%TO.P,J1,4,4*%
%TO.N,5V*%
X60590000Y-112310000D03*
%TO.P,J1,5,5*%
%TO.N,GND*%
X60590000Y-116510000D03*
%TO.P,J1,6,6*%
%TO.N,5V*%
X60590000Y-120710000D03*
%TO.P,J1,7,7*%
%TO.N,GND*%
X60590000Y-124910000D03*
%TO.P,J1,8,8*%
%TO.N,unconnected-(J1-Pad8)*%
X60590000Y-129110000D03*
%TO.P,J1,9,9*%
%TO.N,unconnected-(J1-Pad9)*%
X60590000Y-133310000D03*
%TO.P,J1,10,10*%
%TO.N,12V*%
X60590000Y-137510000D03*
%TO.P,J1,11,11*%
X60590000Y-141710000D03*
%TO.P,J1,12,12*%
%TO.N,3.3V*%
X60590000Y-145910000D03*
%TO.P,J1,13,13*%
X55090000Y-99710000D03*
%TO.P,J1,14,14*%
%TO.N,-12V*%
X55090000Y-103910000D03*
%TO.P,J1,15,15*%
%TO.N,GND*%
X55090000Y-108110000D03*
%TO.P,J1,16,16*%
%TO.N,unconnected-(J1-Pad16)*%
X55090000Y-112310000D03*
%TO.P,J1,17,17*%
%TO.N,GND*%
X55090000Y-116510000D03*
%TO.P,J1,18,18*%
X55090000Y-120710000D03*
%TO.P,J1,19,19*%
X55090000Y-124910000D03*
%TO.P,J1,20,20*%
%TO.N,-5V*%
X55090000Y-129110000D03*
%TO.P,J1,21,21*%
%TO.N,5V*%
X55090000Y-133310000D03*
%TO.P,J1,22,22*%
X55090000Y-137510000D03*
%TO.P,J1,23,23*%
X55090000Y-141710000D03*
%TO.P,J1,24,24*%
%TO.N,GND*%
X55090000Y-145910000D03*
%TD*%
D12*
%TO.P,J7,1,1*%
%TO.N,12V*%
X60300000Y-58000000D03*
D13*
%TO.P,J7,2,2*%
X60300000Y-62200000D03*
%TO.P,J7,3,3*%
%TO.N,GND*%
X54800000Y-58000000D03*
%TO.P,J7,4,4*%
X54800000Y-62200000D03*
%TD*%
D17*
%TO.P,J5,1,1*%
%TO.N,-12V*%
X78450000Y-98130000D03*
%TO.P,J5,2,2*%
%TO.N,GND*%
X78450000Y-93050000D03*
%TO.P,J5,3,3*%
%TO.N,12V*%
X78450000Y-87970000D03*
%TD*%
D14*
%TO.P,J4,1,1*%
%TO.N,12V*%
X72330000Y-167100000D03*
%TO.P,J4,2,2*%
%TO.N,GND*%
X67250000Y-167100000D03*
%TD*%
%TO.P,J3,1,1*%
%TO.N,12V*%
X105980000Y-167310000D03*
%TO.P,J3,2,2*%
%TO.N,GND*%
X100900000Y-167310000D03*
%TD*%
%TO.P,J12,1,1*%
%TO.N,5V*%
X78150000Y-117664900D03*
%TO.P,J12,2,2*%
%TO.N,GND*%
X78150000Y-122744900D03*
%TD*%
D10*
%TO.P,H1,1*%
%TO.N,N/C*%
X42750000Y-30000000D03*
X43409010Y-28409010D03*
X43409010Y-31590990D03*
X45000000Y-27750000D03*
D11*
X45000000Y-30000000D03*
D10*
X45000000Y-32250000D03*
X46590990Y-28409010D03*
X46590990Y-31590990D03*
X47250000Y-30000000D03*
%TD*%
D14*
%TO.P,J10,1,1*%
%TO.N,24 V*%
X100440000Y-138860000D03*
%TO.P,J10,2,2*%
%TO.N,0 V*%
X100440000Y-143940000D03*
%TD*%
%TO.P,J8,1,1*%
%TO.N,12V*%
X115150000Y-102810000D03*
%TO.P,J8,2,2*%
%TO.N,GND*%
X115150000Y-107890000D03*
%TD*%
%TO.P,J13,1,1*%
%TO.N,12V*%
X114950000Y-78720000D03*
%TO.P,J13,2,2*%
%TO.N,GND*%
X114950000Y-83800000D03*
%TD*%
D18*
%TO.P,C3,1*%
%TO.N,GND*%
X78090000Y-141190000D03*
%TO.P,C3,2*%
%TO.N,12V*%
X78090000Y-139530000D03*
%TD*%
%TO.P,C4,1*%
%TO.N,0 V*%
X88490000Y-141040000D03*
%TO.P,C4,2*%
%TO.N,24 V*%
X88490000Y-139380000D03*
%TD*%
D19*
%TO.P,C1,1*%
%TO.N,12V*%
X74440000Y-137510000D03*
%TO.P,C1,2*%
%TO.N,GND*%
X74440000Y-143710000D03*
%TD*%
%TO.P,C2,1*%
%TO.N,24 V*%
X92140000Y-137560000D03*
%TO.P,C2,2*%
%TO.N,0 V*%
X92140000Y-143760000D03*
%TD*%
%TA.AperFunction,Conductor*%
%TO.N,12V*%
G36*
X79443039Y-132419685D02*
G01*
X79488794Y-132472489D01*
X79500000Y-132524000D01*
X79500000Y-138741312D01*
X79480315Y-138808351D01*
X79427511Y-138854106D01*
X79358353Y-138864050D01*
X79294797Y-138835025D01*
X79274273Y-138809558D01*
X79273669Y-138810011D01*
X79182190Y-138687812D01*
X79182187Y-138687809D01*
X79067093Y-138601649D01*
X79067086Y-138601645D01*
X78932379Y-138551403D01*
X78932372Y-138551401D01*
X78872844Y-138545000D01*
X78575000Y-138545000D01*
X78575000Y-139891000D01*
X78555315Y-139958039D01*
X78502511Y-140003794D01*
X78451000Y-140015000D01*
X76855000Y-140015000D01*
X76855000Y-140062844D01*
X76861401Y-140122372D01*
X76861403Y-140122380D01*
X76865240Y-140132667D01*
X76870224Y-140202359D01*
X76836739Y-140263682D01*
X76775415Y-140297166D01*
X76749058Y-140300000D01*
X68374000Y-140300000D01*
X68306961Y-140280315D01*
X68261206Y-140227511D01*
X68250000Y-140176000D01*
X68250000Y-138010000D01*
X72690000Y-138010000D01*
X72690000Y-138707844D01*
X72696401Y-138767372D01*
X72696403Y-138767379D01*
X72746645Y-138902086D01*
X72746649Y-138902093D01*
X72832809Y-139017187D01*
X72832812Y-139017190D01*
X72947906Y-139103350D01*
X72947913Y-139103354D01*
X73082620Y-139153596D01*
X73082627Y-139153598D01*
X73142155Y-139159999D01*
X73142172Y-139160000D01*
X73940000Y-139160000D01*
X73940000Y-138010000D01*
X74940000Y-138010000D01*
X74940000Y-139160000D01*
X75737828Y-139160000D01*
X75737844Y-139159999D01*
X75797372Y-139153598D01*
X75797379Y-139153596D01*
X75932086Y-139103354D01*
X75932093Y-139103350D01*
X76010038Y-139045000D01*
X76855000Y-139045000D01*
X77605000Y-139045000D01*
X77605000Y-138545000D01*
X77307155Y-138545000D01*
X77247627Y-138551401D01*
X77247620Y-138551403D01*
X77112913Y-138601645D01*
X77112906Y-138601649D01*
X76997812Y-138687809D01*
X76997809Y-138687812D01*
X76911649Y-138802906D01*
X76911645Y-138802913D01*
X76861403Y-138937620D01*
X76861401Y-138937627D01*
X76855000Y-138997155D01*
X76855000Y-139045000D01*
X76010038Y-139045000D01*
X76047187Y-139017190D01*
X76047190Y-139017187D01*
X76133350Y-138902093D01*
X76133354Y-138902086D01*
X76183596Y-138767379D01*
X76183598Y-138767372D01*
X76189999Y-138707844D01*
X76190000Y-138707827D01*
X76190000Y-138010000D01*
X74940000Y-138010000D01*
X73940000Y-138010000D01*
X72690000Y-138010000D01*
X68250000Y-138010000D01*
X68250000Y-137010000D01*
X72690000Y-137010000D01*
X73940000Y-137010000D01*
X73940000Y-135860000D01*
X74940000Y-135860000D01*
X74940000Y-137010000D01*
X76190000Y-137010000D01*
X76190000Y-136312172D01*
X76189999Y-136312155D01*
X76183598Y-136252627D01*
X76183596Y-136252620D01*
X76133354Y-136117913D01*
X76133350Y-136117906D01*
X76047190Y-136002812D01*
X76047187Y-136002809D01*
X75932093Y-135916649D01*
X75932086Y-135916645D01*
X75797379Y-135866403D01*
X75797372Y-135866401D01*
X75737844Y-135860000D01*
X74940000Y-135860000D01*
X73940000Y-135860000D01*
X73142155Y-135860000D01*
X73082627Y-135866401D01*
X73082620Y-135866403D01*
X72947913Y-135916645D01*
X72947906Y-135916649D01*
X72832812Y-136002809D01*
X72832809Y-136002812D01*
X72746649Y-136117906D01*
X72746645Y-136117913D01*
X72696403Y-136252620D01*
X72696401Y-136252627D01*
X72690000Y-136312155D01*
X72690000Y-137010000D01*
X68250000Y-137010000D01*
X68250000Y-136847709D01*
X70619396Y-136847709D01*
X70657677Y-136862539D01*
X70858072Y-136900000D01*
X71061928Y-136900000D01*
X71262318Y-136862540D01*
X71300602Y-136847708D01*
X70960001Y-136507107D01*
X70960000Y-136507107D01*
X70619396Y-136847709D01*
X68250000Y-136847709D01*
X68250000Y-135800000D01*
X69855287Y-135800000D01*
X69874096Y-136002989D01*
X69874097Y-136002992D01*
X69913037Y-136139853D01*
X70223591Y-135829302D01*
X70606372Y-135829302D01*
X70635047Y-135942538D01*
X70698936Y-136040327D01*
X70791115Y-136112072D01*
X70901595Y-136150000D01*
X70989005Y-136150000D01*
X71075216Y-136135614D01*
X71177947Y-136080019D01*
X71257060Y-135994079D01*
X71303982Y-135887108D01*
X71311200Y-135800001D01*
X71667107Y-135800001D01*
X72006960Y-136139854D01*
X72006961Y-136139854D01*
X72045902Y-136002990D01*
X72064713Y-135800000D01*
X72064713Y-135799999D01*
X72045902Y-135597009D01*
X72006960Y-135460144D01*
X71667107Y-135799999D01*
X71667107Y-135800001D01*
X71311200Y-135800001D01*
X71313628Y-135770698D01*
X71284953Y-135657462D01*
X71221064Y-135559673D01*
X71128885Y-135487928D01*
X71018405Y-135450000D01*
X70930995Y-135450000D01*
X70844784Y-135464386D01*
X70742053Y-135519981D01*
X70662940Y-135605921D01*
X70616018Y-135712892D01*
X70606372Y-135829302D01*
X70223591Y-135829302D01*
X70252893Y-135800000D01*
X69913037Y-135460144D01*
X69874096Y-135597012D01*
X69855287Y-135799999D01*
X69855287Y-135800000D01*
X68250000Y-135800000D01*
X68250000Y-134752290D01*
X70619397Y-134752290D01*
X70960000Y-135092893D01*
X70960001Y-135092893D01*
X71300602Y-134752290D01*
X71262321Y-134737460D01*
X71262316Y-134737459D01*
X71061928Y-134700000D01*
X70858072Y-134700000D01*
X70657676Y-134737460D01*
X70619397Y-134752289D01*
X70619397Y-134752290D01*
X68250000Y-134752290D01*
X68250000Y-132524000D01*
X68269685Y-132456961D01*
X68322489Y-132411206D01*
X68374000Y-132400000D01*
X79376000Y-132400000D01*
X79443039Y-132419685D01*
G37*
%TD.AperFunction*%
%TD*%
%TA.AperFunction,Conductor*%
%TO.N,0 V*%
G36*
X87293039Y-130519685D02*
G01*
X87338794Y-130572489D01*
X87350000Y-130624000D01*
X87350000Y-135326587D01*
X87330315Y-135393626D01*
X87277511Y-135439381D01*
X87266080Y-135441024D01*
X86907107Y-135799999D01*
X86907107Y-135800001D01*
X87262634Y-136155528D01*
X87264661Y-136155592D01*
X87322222Y-136195197D01*
X87349232Y-136259635D01*
X87350000Y-136273411D01*
X87350000Y-138559572D01*
X87330315Y-138626611D01*
X87325267Y-138633882D01*
X87311206Y-138652665D01*
X87311202Y-138652671D01*
X87260908Y-138787517D01*
X87254501Y-138847116D01*
X87254500Y-138847135D01*
X87254500Y-139912870D01*
X87254501Y-139912876D01*
X87260908Y-139972483D01*
X87311203Y-140107329D01*
X87325266Y-140126115D01*
X87349684Y-140191579D01*
X87350000Y-140200427D01*
X87350000Y-140220406D01*
X87330315Y-140287445D01*
X87325268Y-140294715D01*
X87311646Y-140312911D01*
X87311645Y-140312913D01*
X87261403Y-140447620D01*
X87261401Y-140447627D01*
X87255000Y-140507155D01*
X87255000Y-140555000D01*
X89725000Y-140555000D01*
X89725000Y-140507172D01*
X89724999Y-140507155D01*
X89718598Y-140447627D01*
X89718596Y-140447619D01*
X89691135Y-140373994D01*
X89686150Y-140304302D01*
X89719634Y-140242979D01*
X89780957Y-140209493D01*
X89807640Y-140206660D01*
X99802573Y-140233746D01*
X99849684Y-140243184D01*
X99973863Y-140294621D01*
X100204026Y-140349878D01*
X100440000Y-140368450D01*
X100675974Y-140349878D01*
X100906137Y-140294621D01*
X101022027Y-140246617D01*
X101069804Y-140237181D01*
X105677147Y-140249667D01*
X105744133Y-140269534D01*
X105789745Y-140322461D01*
X105800808Y-140372851D01*
X105815212Y-142562172D01*
X105840192Y-146359260D01*
X105849179Y-147725184D01*
X105829936Y-147792352D01*
X105777434Y-147838453D01*
X105725182Y-147850000D01*
X83873643Y-147850000D01*
X83806604Y-147830315D01*
X83760849Y-147777511D01*
X83749644Y-147726357D01*
X83744553Y-145960000D01*
X87634785Y-145960000D01*
X87653602Y-146163082D01*
X87709417Y-146359247D01*
X87709422Y-146359260D01*
X87800327Y-146541821D01*
X87923237Y-146704581D01*
X88073958Y-146841980D01*
X88073960Y-146841982D01*
X88173141Y-146903392D01*
X88247363Y-146949348D01*
X88437544Y-147023024D01*
X88638024Y-147060500D01*
X88638026Y-147060500D01*
X88841974Y-147060500D01*
X88841976Y-147060500D01*
X89042456Y-147023024D01*
X89232637Y-146949348D01*
X89406041Y-146841981D01*
X89556764Y-146704579D01*
X89679673Y-146541821D01*
X89770582Y-146359250D01*
X89826397Y-146163083D01*
X89845215Y-145960000D01*
X89826397Y-145756917D01*
X89770582Y-145560750D01*
X89679673Y-145378179D01*
X89556764Y-145215421D01*
X89556762Y-145215418D01*
X89406041Y-145078019D01*
X89406039Y-145078017D01*
X89232642Y-144970655D01*
X89232635Y-144970651D01*
X89137546Y-144933814D01*
X89042456Y-144896976D01*
X88841976Y-144859500D01*
X88638024Y-144859500D01*
X88437544Y-144896976D01*
X88437541Y-144896976D01*
X88437541Y-144896977D01*
X88247364Y-144970651D01*
X88247357Y-144970655D01*
X88073960Y-145078017D01*
X88073958Y-145078019D01*
X87923237Y-145215418D01*
X87800327Y-145378178D01*
X87709422Y-145560739D01*
X87709417Y-145560752D01*
X87653602Y-145756917D01*
X87634785Y-145959999D01*
X87634785Y-145960000D01*
X83744553Y-145960000D01*
X83739654Y-144260000D01*
X90390000Y-144260000D01*
X90390000Y-144957844D01*
X90396401Y-145017372D01*
X90396403Y-145017379D01*
X90446645Y-145152086D01*
X90446649Y-145152093D01*
X90532809Y-145267187D01*
X90532812Y-145267190D01*
X90647906Y-145353350D01*
X90647913Y-145353354D01*
X90782620Y-145403596D01*
X90782627Y-145403598D01*
X90842155Y-145409999D01*
X90842172Y-145410000D01*
X91640000Y-145410000D01*
X91640000Y-144260000D01*
X92640000Y-144260000D01*
X92640000Y-145410000D01*
X93437828Y-145410000D01*
X93437844Y-145409999D01*
X93497372Y-145403598D01*
X93497379Y-145403596D01*
X93632086Y-145353354D01*
X93632093Y-145353350D01*
X93747187Y-145267190D01*
X93747190Y-145267187D01*
X93833350Y-145152093D01*
X93833354Y-145152086D01*
X93883596Y-145017379D01*
X93883598Y-145017372D01*
X93889999Y-144957844D01*
X93890000Y-144957827D01*
X93890000Y-144260000D01*
X92640000Y-144260000D01*
X91640000Y-144260000D01*
X90390000Y-144260000D01*
X83739654Y-144260000D01*
X83738732Y-143940000D01*
X98932051Y-143940000D01*
X98950615Y-144175892D01*
X99005853Y-144405977D01*
X99082317Y-144590576D01*
X99687197Y-143985696D01*
X99717292Y-144156365D01*
X99786670Y-144317200D01*
X99891269Y-144457701D01*
X100025450Y-144570293D01*
X100181980Y-144648905D01*
X100352419Y-144689300D01*
X100397806Y-144689300D01*
X99789422Y-145297681D01*
X99974018Y-145374144D01*
X99974016Y-145374144D01*
X100204109Y-145429384D01*
X100204107Y-145429384D01*
X100440000Y-145447948D01*
X100675891Y-145429384D01*
X100905980Y-145374144D01*
X101090576Y-145297681D01*
X100482195Y-144689300D01*
X100483642Y-144689300D01*
X100613977Y-144674066D01*
X100778575Y-144614157D01*
X100924920Y-144517905D01*
X101045123Y-144390497D01*
X101132703Y-144238803D01*
X101182940Y-144071000D01*
X101188177Y-143981072D01*
X101797681Y-144590576D01*
X101874144Y-144405980D01*
X101929384Y-144175891D01*
X101947948Y-143940000D01*
X101929384Y-143704108D01*
X101874144Y-143474017D01*
X101797681Y-143289422D01*
X101192801Y-143894302D01*
X101162708Y-143723635D01*
X101093330Y-143562800D01*
X100988731Y-143422299D01*
X100854550Y-143309707D01*
X100698020Y-143231095D01*
X100527581Y-143190700D01*
X100482194Y-143190700D01*
X101090576Y-142582317D01*
X100905977Y-142505853D01*
X100675891Y-142450615D01*
X100675892Y-142450615D01*
X100440000Y-142432051D01*
X100204107Y-142450615D01*
X99974022Y-142505853D01*
X99789422Y-142582317D01*
X100397807Y-143190700D01*
X100396358Y-143190700D01*
X100266023Y-143205934D01*
X100101425Y-143265843D01*
X99955080Y-143362095D01*
X99834877Y-143489503D01*
X99747297Y-143641197D01*
X99697060Y-143809000D01*
X99691822Y-143898928D01*
X99082317Y-143289422D01*
X99005853Y-143474022D01*
X98950615Y-143704107D01*
X98932051Y-143940000D01*
X83738732Y-143940000D01*
X83736772Y-143260000D01*
X90390000Y-143260000D01*
X91640000Y-143260000D01*
X91640000Y-142110000D01*
X92640000Y-142110000D01*
X92640000Y-143260000D01*
X93890000Y-143260000D01*
X93890000Y-142562172D01*
X93889999Y-142562155D01*
X93883598Y-142502627D01*
X93883596Y-142502620D01*
X93833354Y-142367913D01*
X93833350Y-142367906D01*
X93747190Y-142252812D01*
X93747187Y-142252809D01*
X93632093Y-142166649D01*
X93632086Y-142166645D01*
X93497379Y-142116403D01*
X93497372Y-142116401D01*
X93437844Y-142110000D01*
X92640000Y-142110000D01*
X91640000Y-142110000D01*
X90842155Y-142110000D01*
X90782627Y-142116401D01*
X90782620Y-142116403D01*
X90647913Y-142166645D01*
X90647906Y-142166649D01*
X90532812Y-142252809D01*
X90532809Y-142252812D01*
X90446649Y-142367906D01*
X90446645Y-142367913D01*
X90396403Y-142502620D01*
X90396401Y-142502627D01*
X90390000Y-142562155D01*
X90390000Y-143260000D01*
X83736772Y-143260000D01*
X83731772Y-141525000D01*
X87255000Y-141525000D01*
X87255000Y-141572844D01*
X87261401Y-141632372D01*
X87261403Y-141632379D01*
X87311645Y-141767086D01*
X87311649Y-141767093D01*
X87397809Y-141882187D01*
X87397812Y-141882190D01*
X87512906Y-141968350D01*
X87512913Y-141968354D01*
X87647620Y-142018596D01*
X87647627Y-142018598D01*
X87707155Y-142024999D01*
X87707172Y-142025000D01*
X88005000Y-142025000D01*
X88005000Y-141525000D01*
X88975000Y-141525000D01*
X88975000Y-142025000D01*
X89272828Y-142025000D01*
X89272844Y-142024999D01*
X89332372Y-142018598D01*
X89332379Y-142018596D01*
X89467086Y-141968354D01*
X89467093Y-141968350D01*
X89582187Y-141882190D01*
X89582190Y-141882187D01*
X89668350Y-141767093D01*
X89668354Y-141767086D01*
X89718596Y-141632379D01*
X89718598Y-141632372D01*
X89724999Y-141572844D01*
X89725000Y-141572827D01*
X89725000Y-141525000D01*
X88975000Y-141525000D01*
X88005000Y-141525000D01*
X87255000Y-141525000D01*
X83731772Y-141525000D01*
X83718293Y-136847709D01*
X85859396Y-136847709D01*
X85897677Y-136862539D01*
X86098072Y-136900000D01*
X86301928Y-136900000D01*
X86502318Y-136862540D01*
X86540602Y-136847708D01*
X86200001Y-136507107D01*
X86200000Y-136507107D01*
X85859396Y-136847709D01*
X83718293Y-136847709D01*
X83718293Y-136847708D01*
X83715274Y-135800000D01*
X85095287Y-135800000D01*
X85114096Y-136002989D01*
X85114097Y-136002992D01*
X85153037Y-136139853D01*
X85463591Y-135829302D01*
X85846372Y-135829302D01*
X85875047Y-135942538D01*
X85938936Y-136040327D01*
X86031115Y-136112072D01*
X86141595Y-136150000D01*
X86229005Y-136150000D01*
X86315216Y-136135614D01*
X86417947Y-136080019D01*
X86497060Y-135994079D01*
X86543982Y-135887108D01*
X86553628Y-135770698D01*
X86524953Y-135657462D01*
X86461064Y-135559673D01*
X86368885Y-135487928D01*
X86258405Y-135450000D01*
X86170995Y-135450000D01*
X86084784Y-135464386D01*
X85982053Y-135519981D01*
X85902940Y-135605921D01*
X85856018Y-135712892D01*
X85846372Y-135829302D01*
X85463591Y-135829302D01*
X85492893Y-135800000D01*
X85153037Y-135460144D01*
X85114096Y-135597012D01*
X85095287Y-135799999D01*
X85095287Y-135800000D01*
X83715274Y-135800000D01*
X83712255Y-134752290D01*
X85859397Y-134752290D01*
X86200000Y-135092893D01*
X86200001Y-135092893D01*
X86540602Y-134752290D01*
X86502321Y-134737460D01*
X86502316Y-134737459D01*
X86301928Y-134700000D01*
X86098072Y-134700000D01*
X85897676Y-134737460D01*
X85859397Y-134752289D01*
X85859397Y-134752290D01*
X83712255Y-134752290D01*
X83700358Y-130624355D01*
X83719849Y-130557261D01*
X83772521Y-130511355D01*
X83824357Y-130500000D01*
X87226000Y-130500000D01*
X87293039Y-130519685D01*
G37*
%TD.AperFunction*%
%TD*%
%TA.AperFunction,Conductor*%
%TO.N,GND*%
G36*
X132693039Y-25269685D02*
G01*
X132738794Y-25322489D01*
X132750000Y-25374000D01*
X132750000Y-176126000D01*
X132730315Y-176193039D01*
X132677511Y-176238794D01*
X132626000Y-176250000D01*
X40874000Y-176250000D01*
X40806961Y-176230315D01*
X40761206Y-176177511D01*
X40750000Y-176126000D01*
X40750000Y-167500000D01*
X41494696Y-167500000D01*
X41513898Y-167866405D01*
X41532942Y-167986641D01*
X41571295Y-168228794D01*
X41595831Y-168320365D01*
X41666260Y-168583206D01*
X41797746Y-168925739D01*
X41964320Y-169252656D01*
X42164147Y-169560364D01*
X42164149Y-169560366D01*
X42395051Y-169845506D01*
X42654494Y-170104949D01*
X42654498Y-170104952D01*
X42939635Y-170335852D01*
X43247343Y-170535679D01*
X43247348Y-170535682D01*
X43574264Y-170702255D01*
X43916801Y-170833742D01*
X44271206Y-170928705D01*
X44633596Y-170986102D01*
X44979734Y-171004241D01*
X44999999Y-171005304D01*
X45000000Y-171005304D01*
X45000001Y-171005304D01*
X45019203Y-171004297D01*
X45366404Y-170986102D01*
X45728794Y-170928705D01*
X46083199Y-170833742D01*
X46425736Y-170702255D01*
X46752652Y-170535682D01*
X47060366Y-170335851D01*
X47345506Y-170104949D01*
X47604949Y-169845506D01*
X47835851Y-169560366D01*
X48035682Y-169252652D01*
X48202255Y-168925736D01*
X48333742Y-168583199D01*
X48428705Y-168228794D01*
X48486102Y-167866404D01*
X48505304Y-167500000D01*
X48486102Y-167133596D01*
X48480781Y-167100000D01*
X70821550Y-167100000D01*
X70840122Y-167335977D01*
X70895378Y-167566136D01*
X70985960Y-167784822D01*
X71109634Y-167986640D01*
X71109635Y-167986641D01*
X71109636Y-167986643D01*
X71109638Y-167986645D01*
X71263365Y-168166635D01*
X71443355Y-168320362D01*
X71443357Y-168320363D01*
X71443358Y-168320364D01*
X71443359Y-168320365D01*
X71645177Y-168444039D01*
X71853581Y-168530362D01*
X71863863Y-168534621D01*
X72094026Y-168589878D01*
X72330000Y-168608450D01*
X72565974Y-168589878D01*
X72796137Y-168534621D01*
X73014822Y-168444039D01*
X73216645Y-168320362D01*
X73396635Y-168166635D01*
X73550362Y-167986645D01*
X73674039Y-167784822D01*
X73764621Y-167566137D01*
X73819878Y-167335974D01*
X73821922Y-167310000D01*
X104471550Y-167310000D01*
X104490122Y-167545977D01*
X104545378Y-167776136D01*
X104635960Y-167994822D01*
X104759634Y-168196640D01*
X104759635Y-168196641D01*
X104759636Y-168196643D01*
X104759638Y-168196645D01*
X104913365Y-168376635D01*
X105093355Y-168530362D01*
X105093357Y-168530363D01*
X105093358Y-168530364D01*
X105093359Y-168530365D01*
X105295177Y-168654039D01*
X105513863Y-168744621D01*
X105744026Y-168799878D01*
X105980000Y-168818450D01*
X106215974Y-168799878D01*
X106446137Y-168744621D01*
X106664822Y-168654039D01*
X106866645Y-168530362D01*
X107046635Y-168376635D01*
X107200362Y-168196645D01*
X107324039Y-167994822D01*
X107414621Y-167776137D01*
X107469878Y-167545974D01*
X107473496Y-167500000D01*
X123994696Y-167500000D01*
X124013898Y-167866405D01*
X124032942Y-167986641D01*
X124071295Y-168228794D01*
X124095831Y-168320365D01*
X124166260Y-168583206D01*
X124297746Y-168925739D01*
X124464320Y-169252656D01*
X124664147Y-169560364D01*
X124664149Y-169560366D01*
X124895051Y-169845506D01*
X125154494Y-170104949D01*
X125154498Y-170104952D01*
X125439635Y-170335852D01*
X125747343Y-170535679D01*
X125747348Y-170535682D01*
X126074264Y-170702255D01*
X126416801Y-170833742D01*
X126771206Y-170928705D01*
X127133596Y-170986102D01*
X127479734Y-171004241D01*
X127499999Y-171005304D01*
X127500000Y-171005304D01*
X127500001Y-171005304D01*
X127519203Y-171004297D01*
X127866404Y-170986102D01*
X128228794Y-170928705D01*
X128583199Y-170833742D01*
X128925736Y-170702255D01*
X129252652Y-170535682D01*
X129560366Y-170335851D01*
X129845506Y-170104949D01*
X130104949Y-169845506D01*
X130335851Y-169560366D01*
X130535682Y-169252652D01*
X130702255Y-168925736D01*
X130833742Y-168583199D01*
X130928705Y-168228794D01*
X130986102Y-167866404D01*
X131005304Y-167500000D01*
X130986102Y-167133596D01*
X130928705Y-166771206D01*
X130833742Y-166416801D01*
X130702255Y-166074264D01*
X130535682Y-165747348D01*
X130482451Y-165665379D01*
X130335852Y-165439635D01*
X130104952Y-165154498D01*
X130104949Y-165154494D01*
X129845506Y-164895051D01*
X129560366Y-164664149D01*
X129560364Y-164664147D01*
X129252656Y-164464320D01*
X128925739Y-164297746D01*
X128583206Y-164166260D01*
X128583199Y-164166258D01*
X128228794Y-164071295D01*
X128228790Y-164071294D01*
X128228789Y-164071294D01*
X127866405Y-164013898D01*
X127500001Y-163994696D01*
X127499999Y-163994696D01*
X127133594Y-164013898D01*
X126771211Y-164071294D01*
X126771209Y-164071294D01*
X126416793Y-164166260D01*
X126074260Y-164297746D01*
X125747343Y-164464320D01*
X125439635Y-164664147D01*
X125154498Y-164895047D01*
X125154490Y-164895054D01*
X124895054Y-165154490D01*
X124895047Y-165154498D01*
X124664147Y-165439635D01*
X124464320Y-165747343D01*
X124297746Y-166074260D01*
X124166260Y-166416793D01*
X124071294Y-166771209D01*
X124071294Y-166771211D01*
X124013898Y-167133594D01*
X123994696Y-167499999D01*
X123994696Y-167500000D01*
X107473496Y-167500000D01*
X107488450Y-167310000D01*
X107469878Y-167074026D01*
X107414621Y-166843863D01*
X107384526Y-166771206D01*
X107324039Y-166625177D01*
X107200365Y-166423359D01*
X107200364Y-166423358D01*
X107200363Y-166423357D01*
X107200362Y-166423355D01*
X107046635Y-166243365D01*
X106866645Y-166089638D01*
X106866643Y-166089636D01*
X106866641Y-166089635D01*
X106866640Y-166089634D01*
X106664822Y-165965960D01*
X106446136Y-165875378D01*
X106215977Y-165820122D01*
X105980000Y-165801550D01*
X105744022Y-165820122D01*
X105513863Y-165875378D01*
X105295177Y-165965960D01*
X105093359Y-166089634D01*
X105093358Y-166089635D01*
X104913365Y-166243365D01*
X104759635Y-166423358D01*
X104759634Y-166423359D01*
X104635960Y-166625177D01*
X104545378Y-166843863D01*
X104490122Y-167074022D01*
X104471550Y-167310000D01*
X73821922Y-167310000D01*
X73838450Y-167100000D01*
X73819878Y-166864026D01*
X73764621Y-166633863D01*
X73677428Y-166423359D01*
X73674039Y-166415177D01*
X73550365Y-166213359D01*
X73550364Y-166213358D01*
X73550363Y-166213357D01*
X73550362Y-166213355D01*
X73396635Y-166033365D01*
X73216645Y-165879638D01*
X73216643Y-165879636D01*
X73216641Y-165879635D01*
X73216640Y-165879634D01*
X73014822Y-165755960D01*
X72796136Y-165665378D01*
X72565977Y-165610122D01*
X72330000Y-165591550D01*
X72094022Y-165610122D01*
X71863863Y-165665378D01*
X71645177Y-165755960D01*
X71443359Y-165879634D01*
X71443358Y-165879635D01*
X71263365Y-166033365D01*
X71109635Y-166213358D01*
X71109634Y-166213359D01*
X70985960Y-166415177D01*
X70895378Y-166633863D01*
X70840122Y-166864022D01*
X70821550Y-167100000D01*
X48480781Y-167100000D01*
X48428705Y-166771206D01*
X48333742Y-166416801D01*
X48202255Y-166074264D01*
X48035682Y-165747348D01*
X47982451Y-165665379D01*
X47835852Y-165439635D01*
X47604952Y-165154498D01*
X47604949Y-165154494D01*
X47345506Y-164895051D01*
X47060366Y-164664149D01*
X47060364Y-164664147D01*
X46752656Y-164464320D01*
X46425739Y-164297746D01*
X46083206Y-164166260D01*
X46083199Y-164166258D01*
X45728794Y-164071295D01*
X45728790Y-164071294D01*
X45728789Y-164071294D01*
X45366405Y-164013898D01*
X45000001Y-163994696D01*
X44999999Y-163994696D01*
X44633594Y-164013898D01*
X44271211Y-164071294D01*
X44271209Y-164071294D01*
X43916793Y-164166260D01*
X43574260Y-164297746D01*
X43247343Y-164464320D01*
X42939635Y-164664147D01*
X42654498Y-164895047D01*
X42654490Y-164895054D01*
X42395054Y-165154490D01*
X42395047Y-165154498D01*
X42164147Y-165439635D01*
X41964320Y-165747343D01*
X41797746Y-166074260D01*
X41666260Y-166416793D01*
X41571294Y-166771209D01*
X41571294Y-166771211D01*
X41513898Y-167133594D01*
X41494696Y-167499999D01*
X41494696Y-167500000D01*
X40750000Y-167500000D01*
X40750000Y-145910006D01*
X59209786Y-145910006D01*
X59228608Y-146137168D01*
X59228610Y-146137179D01*
X59284569Y-146358155D01*
X59376137Y-146566908D01*
X59500814Y-146757742D01*
X59655208Y-146925458D01*
X59655212Y-146925461D01*
X59835094Y-147065469D01*
X59835096Y-147065470D01*
X59835099Y-147065472D01*
X59951646Y-147128543D01*
X60035574Y-147173963D01*
X60147529Y-147212397D01*
X60251173Y-147247979D01*
X60251175Y-147247979D01*
X60251177Y-147247980D01*
X60476023Y-147285500D01*
X60476024Y-147285500D01*
X60703976Y-147285500D01*
X60703977Y-147285500D01*
X60928823Y-147247980D01*
X61144426Y-147173963D01*
X61344906Y-147065469D01*
X61524794Y-146925456D01*
X61679183Y-146757745D01*
X61803862Y-146566909D01*
X61895430Y-146358155D01*
X61951390Y-146137176D01*
X61951391Y-146137168D01*
X61970214Y-145910006D01*
X61970214Y-145909993D01*
X61951391Y-145682831D01*
X61951389Y-145682820D01*
X61895430Y-145461844D01*
X61803862Y-145253091D01*
X61679185Y-145062257D01*
X61524791Y-144894541D01*
X61524787Y-144894538D01*
X61344909Y-144754533D01*
X61344900Y-144754527D01*
X61144432Y-144646040D01*
X61144429Y-144646039D01*
X61144426Y-144646037D01*
X61144420Y-144646035D01*
X61144418Y-144646034D01*
X60928826Y-144572020D01*
X60760188Y-144543880D01*
X60703977Y-144534500D01*
X60476023Y-144534500D01*
X60431053Y-144542004D01*
X60251173Y-144572020D01*
X60035581Y-144646034D01*
X60035567Y-144646040D01*
X59835099Y-144754527D01*
X59835090Y-144754533D01*
X59655212Y-144894538D01*
X59655208Y-144894541D01*
X59500814Y-145062257D01*
X59376137Y-145253091D01*
X59284569Y-145461844D01*
X59228610Y-145682820D01*
X59228608Y-145682831D01*
X59209786Y-145909993D01*
X59209786Y-145910006D01*
X40750000Y-145910006D01*
X40750000Y-141710006D01*
X53709786Y-141710006D01*
X53728608Y-141937168D01*
X53728610Y-141937179D01*
X53784569Y-142158155D01*
X53876137Y-142366908D01*
X54000814Y-142557742D01*
X54155208Y-142725458D01*
X54155212Y-142725461D01*
X54335094Y-142865469D01*
X54335096Y-142865470D01*
X54335099Y-142865472D01*
X54451646Y-142928543D01*
X54535574Y-142973963D01*
X54647529Y-143012397D01*
X54751173Y-143047979D01*
X54751175Y-143047979D01*
X54751177Y-143047980D01*
X54976023Y-143085500D01*
X54976024Y-143085500D01*
X55203976Y-143085500D01*
X55203977Y-143085500D01*
X55428823Y-143047980D01*
X55644426Y-142973963D01*
X55844906Y-142865469D01*
X56024794Y-142725456D01*
X56179183Y-142557745D01*
X56303862Y-142366909D01*
X56395430Y-142158155D01*
X56451390Y-141937176D01*
X56470214Y-141710006D01*
X59209786Y-141710006D01*
X59228608Y-141937168D01*
X59228610Y-141937179D01*
X59284569Y-142158155D01*
X59376137Y-142366908D01*
X59500814Y-142557742D01*
X59655208Y-142725458D01*
X59655212Y-142725461D01*
X59835094Y-142865469D01*
X59835096Y-142865470D01*
X59835099Y-142865472D01*
X59951646Y-142928543D01*
X60035574Y-142973963D01*
X60147529Y-143012397D01*
X60251173Y-143047979D01*
X60251175Y-143047979D01*
X60251177Y-143047980D01*
X60476023Y-143085500D01*
X60476024Y-143085500D01*
X60703976Y-143085500D01*
X60703977Y-143085500D01*
X60928823Y-143047980D01*
X61144426Y-142973963D01*
X61344906Y-142865469D01*
X61524794Y-142725456D01*
X61679183Y-142557745D01*
X61803862Y-142366909D01*
X61895430Y-142158155D01*
X61951390Y-141937176D01*
X61970214Y-141710000D01*
X61970214Y-141709993D01*
X61951391Y-141482831D01*
X61951389Y-141482820D01*
X61895430Y-141261844D01*
X61803862Y-141053091D01*
X61679185Y-140862257D01*
X61608085Y-140785022D01*
X61524794Y-140694544D01*
X61524793Y-140694543D01*
X61524791Y-140694541D01*
X61524787Y-140694538D01*
X61344909Y-140554533D01*
X61344900Y-140554527D01*
X61144432Y-140446040D01*
X61144429Y-140446039D01*
X61144426Y-140446037D01*
X61144420Y-140446035D01*
X61144418Y-140446034D01*
X60928826Y-140372020D01*
X60760188Y-140343880D01*
X60703977Y-140334500D01*
X60476023Y-140334500D01*
X60431053Y-140342004D01*
X60251173Y-140372020D01*
X60035581Y-140446034D01*
X60035567Y-140446040D01*
X59835099Y-140554527D01*
X59835090Y-140554533D01*
X59655212Y-140694538D01*
X59655208Y-140694541D01*
X59500814Y-140862257D01*
X59376137Y-141053091D01*
X59284569Y-141261844D01*
X59228610Y-141482820D01*
X59228608Y-141482831D01*
X59209786Y-141709993D01*
X59209786Y-141710006D01*
X56470214Y-141710006D01*
X56470214Y-141710000D01*
X56470214Y-141709993D01*
X56451391Y-141482831D01*
X56451389Y-141482820D01*
X56395430Y-141261844D01*
X56303862Y-141053091D01*
X56179185Y-140862257D01*
X56108085Y-140785022D01*
X56024794Y-140694544D01*
X56024793Y-140694543D01*
X56024791Y-140694541D01*
X56024787Y-140694538D01*
X55844909Y-140554533D01*
X55844900Y-140554527D01*
X55644432Y-140446040D01*
X55644429Y-140446039D01*
X55644426Y-140446037D01*
X55644420Y-140446035D01*
X55644418Y-140446034D01*
X55428826Y-140372020D01*
X55260188Y-140343880D01*
X55203977Y-140334500D01*
X54976023Y-140334500D01*
X54931053Y-140342004D01*
X54751173Y-140372020D01*
X54535581Y-140446034D01*
X54535567Y-140446040D01*
X54335099Y-140554527D01*
X54335090Y-140554533D01*
X54155212Y-140694538D01*
X54155208Y-140694541D01*
X54000814Y-140862257D01*
X53876137Y-141053091D01*
X53784569Y-141261844D01*
X53728610Y-141482820D01*
X53728608Y-141482831D01*
X53709786Y-141709993D01*
X53709786Y-141710006D01*
X40750000Y-141710006D01*
X40750000Y-140176000D01*
X67744500Y-140176000D01*
X67744501Y-140176009D01*
X67756052Y-140283450D01*
X67756054Y-140283462D01*
X67767260Y-140334972D01*
X67801383Y-140437497D01*
X67801386Y-140437503D01*
X67879171Y-140558537D01*
X67879179Y-140558548D01*
X67924923Y-140611340D01*
X67924926Y-140611343D01*
X67924930Y-140611347D01*
X68033664Y-140705567D01*
X68033667Y-140705568D01*
X68033668Y-140705569D01*
X68110894Y-140740838D01*
X68164541Y-140765338D01*
X68209357Y-140778497D01*
X68231575Y-140785022D01*
X68231580Y-140785023D01*
X68231584Y-140785024D01*
X68374000Y-140805500D01*
X68374003Y-140805500D01*
X76762596Y-140805500D01*
X76762598Y-140805500D01*
X76789638Y-140804050D01*
X76810504Y-140801806D01*
X76829460Y-140799769D01*
X76829460Y-140799768D01*
X76882858Y-140791116D01*
X77017667Y-140740837D01*
X77078991Y-140707353D01*
X77078999Y-140707349D01*
X77194181Y-140621125D01*
X77232311Y-140570189D01*
X77288243Y-140528318D01*
X77331577Y-140520500D01*
X78450991Y-140520500D01*
X78451000Y-140520500D01*
X78494201Y-140515854D01*
X78500834Y-140515499D01*
X78872871Y-140515499D01*
X78872872Y-140515499D01*
X78932483Y-140509091D01*
X79067331Y-140458796D01*
X79182546Y-140372546D01*
X79268796Y-140257331D01*
X79319091Y-140122483D01*
X79325500Y-140062873D01*
X79325499Y-139486917D01*
X79345183Y-139419879D01*
X79397987Y-139374124D01*
X79431847Y-139364181D01*
X79499455Y-139354460D01*
X79637504Y-139313925D01*
X79758543Y-139236137D01*
X79811347Y-139190382D01*
X79905567Y-139081648D01*
X79965338Y-138950771D01*
X79985023Y-138883732D01*
X79985024Y-138883728D01*
X80005500Y-138741312D01*
X80005500Y-132524000D01*
X79993947Y-132416544D01*
X79982741Y-132365033D01*
X79982637Y-132364722D01*
X79948616Y-132262502D01*
X79948613Y-132262496D01*
X79897950Y-132183664D01*
X79870825Y-132141457D01*
X79870820Y-132141451D01*
X79825076Y-132088659D01*
X79825072Y-132088656D01*
X79825070Y-132088653D01*
X79716336Y-131994433D01*
X79716333Y-131994431D01*
X79716331Y-131994430D01*
X79585465Y-131934664D01*
X79585460Y-131934662D01*
X79585459Y-131934662D01*
X79562858Y-131928025D01*
X79518425Y-131914978D01*
X79518419Y-131914976D01*
X79432966Y-131902690D01*
X79376000Y-131894500D01*
X68374000Y-131894500D01*
X68373991Y-131894500D01*
X68373990Y-131894501D01*
X68266549Y-131906052D01*
X68266537Y-131906054D01*
X68215027Y-131917260D01*
X68112502Y-131951383D01*
X68112496Y-131951386D01*
X67991462Y-132029171D01*
X67991451Y-132029179D01*
X67938659Y-132074923D01*
X67844433Y-132183664D01*
X67844430Y-132183668D01*
X67784664Y-132314534D01*
X67764978Y-132381575D01*
X67764976Y-132381580D01*
X67753377Y-132462255D01*
X67744500Y-132524000D01*
X67744500Y-136365500D01*
X67744500Y-138515500D01*
X67744500Y-140176000D01*
X40750000Y-140176000D01*
X40750000Y-137510006D01*
X53709786Y-137510006D01*
X53728608Y-137737168D01*
X53728610Y-137737179D01*
X53784569Y-137958155D01*
X53876137Y-138166908D01*
X54000814Y-138357742D01*
X54155208Y-138525458D01*
X54155212Y-138525461D01*
X54335094Y-138665469D01*
X54335096Y-138665470D01*
X54335099Y-138665472D01*
X54451646Y-138728543D01*
X54535574Y-138773963D01*
X54647529Y-138812397D01*
X54751173Y-138847979D01*
X54751175Y-138847979D01*
X54751177Y-138847980D01*
X54976023Y-138885500D01*
X54976024Y-138885500D01*
X55203976Y-138885500D01*
X55203977Y-138885500D01*
X55428823Y-138847980D01*
X55644426Y-138773963D01*
X55844906Y-138665469D01*
X56024794Y-138525456D01*
X56179183Y-138357745D01*
X56303862Y-138166909D01*
X56395430Y-137958155D01*
X56451390Y-137737176D01*
X56470214Y-137510006D01*
X59209786Y-137510006D01*
X59228608Y-137737168D01*
X59228610Y-137737179D01*
X59284569Y-137958155D01*
X59376137Y-138166908D01*
X59500814Y-138357742D01*
X59655208Y-138525458D01*
X59655212Y-138525461D01*
X59835094Y-138665469D01*
X59835096Y-138665470D01*
X59835099Y-138665472D01*
X59951646Y-138728543D01*
X60035574Y-138773963D01*
X60147529Y-138812397D01*
X60251173Y-138847979D01*
X60251175Y-138847979D01*
X60251177Y-138847980D01*
X60476023Y-138885500D01*
X60476024Y-138885500D01*
X60703976Y-138885500D01*
X60703977Y-138885500D01*
X60928823Y-138847980D01*
X61144426Y-138773963D01*
X61344906Y-138665469D01*
X61524794Y-138525456D01*
X61679183Y-138357745D01*
X61803862Y-138166909D01*
X61895430Y-137958155D01*
X61951390Y-137737176D01*
X61970214Y-137510000D01*
X61970214Y-137509993D01*
X61951391Y-137282831D01*
X61951389Y-137282820D01*
X61895430Y-137061844D01*
X61803862Y-136853091D01*
X61679185Y-136662257D01*
X61524791Y-136494541D01*
X61524787Y-136494538D01*
X61344909Y-136354533D01*
X61344900Y-136354527D01*
X61144432Y-136246040D01*
X61144429Y-136246039D01*
X61144426Y-136246037D01*
X61144420Y-136246035D01*
X61144418Y-136246034D01*
X60928826Y-136172020D01*
X60760188Y-136143880D01*
X60703977Y-136134500D01*
X60476023Y-136134500D01*
X60431053Y-136142004D01*
X60251173Y-136172020D01*
X60035581Y-136246034D01*
X60035567Y-136246040D01*
X59835099Y-136354527D01*
X59835090Y-136354533D01*
X59655212Y-136494538D01*
X59655208Y-136494541D01*
X59500814Y-136662257D01*
X59376137Y-136853091D01*
X59284569Y-137061844D01*
X59228610Y-137282820D01*
X59228608Y-137282831D01*
X59209786Y-137509993D01*
X59209786Y-137510006D01*
X56470214Y-137510006D01*
X56470214Y-137510000D01*
X56470214Y-137509993D01*
X56451391Y-137282831D01*
X56451389Y-137282820D01*
X56395430Y-137061844D01*
X56303862Y-136853091D01*
X56179185Y-136662257D01*
X56024791Y-136494541D01*
X56024787Y-136494538D01*
X55844909Y-136354533D01*
X55844900Y-136354527D01*
X55644432Y-136246040D01*
X55644429Y-136246039D01*
X55644426Y-136246037D01*
X55644420Y-136246035D01*
X55644418Y-136246034D01*
X55428826Y-136172020D01*
X55260188Y-136143880D01*
X55203977Y-136134500D01*
X54976023Y-136134500D01*
X54931053Y-136142004D01*
X54751173Y-136172020D01*
X54535581Y-136246034D01*
X54535567Y-136246040D01*
X54335099Y-136354527D01*
X54335090Y-136354533D01*
X54155212Y-136494538D01*
X54155208Y-136494541D01*
X54000814Y-136662257D01*
X53876137Y-136853091D01*
X53784569Y-137061844D01*
X53728610Y-137282820D01*
X53728608Y-137282831D01*
X53709786Y-137509993D01*
X53709786Y-137510006D01*
X40750000Y-137510006D01*
X40750000Y-133310006D01*
X53709786Y-133310006D01*
X53728608Y-133537168D01*
X53728610Y-133537179D01*
X53784569Y-133758155D01*
X53876137Y-133966908D01*
X54000814Y-134157742D01*
X54155208Y-134325458D01*
X54155212Y-134325461D01*
X54335094Y-134465469D01*
X54335096Y-134465470D01*
X54335099Y-134465472D01*
X54451646Y-134528543D01*
X54535574Y-134573963D01*
X54647529Y-134612397D01*
X54751173Y-134647979D01*
X54751175Y-134647979D01*
X54751177Y-134647980D01*
X54976023Y-134685500D01*
X54976024Y-134685500D01*
X55203976Y-134685500D01*
X55203977Y-134685500D01*
X55428823Y-134647980D01*
X55644426Y-134573963D01*
X55844906Y-134465469D01*
X56024794Y-134325456D01*
X56179183Y-134157745D01*
X56303862Y-133966909D01*
X56395430Y-133758155D01*
X56451390Y-133537176D01*
X56470214Y-133310006D01*
X59209786Y-133310006D01*
X59228608Y-133537168D01*
X59228610Y-133537179D01*
X59284569Y-133758155D01*
X59376137Y-133966908D01*
X59500814Y-134157742D01*
X59655208Y-134325458D01*
X59655212Y-134325461D01*
X59835094Y-134465469D01*
X59835096Y-134465470D01*
X59835099Y-134465472D01*
X59951646Y-134528543D01*
X60035574Y-134573963D01*
X60147529Y-134612397D01*
X60251173Y-134647979D01*
X60251175Y-134647979D01*
X60251177Y-134647980D01*
X60476023Y-134685500D01*
X60476024Y-134685500D01*
X60703976Y-134685500D01*
X60703977Y-134685500D01*
X60928823Y-134647980D01*
X61144426Y-134573963D01*
X61344906Y-134465469D01*
X61524794Y-134325456D01*
X61679183Y-134157745D01*
X61803862Y-133966909D01*
X61895430Y-133758155D01*
X61951390Y-133537176D01*
X61970214Y-133310000D01*
X61970214Y-133309993D01*
X61951391Y-133082831D01*
X61951389Y-133082820D01*
X61895430Y-132861844D01*
X61803862Y-132653091D01*
X61679185Y-132462257D01*
X61589678Y-132365027D01*
X61524794Y-132294544D01*
X61524793Y-132294543D01*
X61524791Y-132294541D01*
X61524787Y-132294538D01*
X61344909Y-132154533D01*
X61344900Y-132154527D01*
X61144432Y-132046040D01*
X61144429Y-132046039D01*
X61144426Y-132046037D01*
X61144420Y-132046035D01*
X61144418Y-132046034D01*
X60928826Y-131972020D01*
X60760188Y-131943880D01*
X60703977Y-131934500D01*
X60476023Y-131934500D01*
X60431053Y-131942004D01*
X60251173Y-131972020D01*
X60035581Y-132046034D01*
X60035567Y-132046040D01*
X59835099Y-132154527D01*
X59835090Y-132154533D01*
X59655212Y-132294538D01*
X59655208Y-132294541D01*
X59500814Y-132462257D01*
X59376137Y-132653091D01*
X59284569Y-132861844D01*
X59228610Y-133082820D01*
X59228608Y-133082831D01*
X59209786Y-133309993D01*
X59209786Y-133310006D01*
X56470214Y-133310006D01*
X56470214Y-133310000D01*
X56470214Y-133309993D01*
X56451391Y-133082831D01*
X56451389Y-133082820D01*
X56395430Y-132861844D01*
X56303862Y-132653091D01*
X56179185Y-132462257D01*
X56089678Y-132365027D01*
X56024794Y-132294544D01*
X56024793Y-132294543D01*
X56024791Y-132294541D01*
X56024787Y-132294538D01*
X55844909Y-132154533D01*
X55844900Y-132154527D01*
X55644432Y-132046040D01*
X55644429Y-132046039D01*
X55644426Y-132046037D01*
X55644420Y-132046035D01*
X55644418Y-132046034D01*
X55428826Y-131972020D01*
X55260188Y-131943880D01*
X55203977Y-131934500D01*
X54976023Y-131934500D01*
X54931053Y-131942004D01*
X54751173Y-131972020D01*
X54535581Y-132046034D01*
X54535567Y-132046040D01*
X54335099Y-132154527D01*
X54335090Y-132154533D01*
X54155212Y-132294538D01*
X54155208Y-132294541D01*
X54000814Y-132462257D01*
X53876137Y-132653091D01*
X53784569Y-132861844D01*
X53728610Y-133082820D01*
X53728608Y-133082831D01*
X53709786Y-133309993D01*
X53709786Y-133310006D01*
X40750000Y-133310006D01*
X40750000Y-130625811D01*
X83194859Y-130625811D01*
X83206757Y-134753747D01*
X83209776Y-135801457D01*
X83212795Y-136849165D01*
X83212795Y-136849166D01*
X83226274Y-141526457D01*
X83229412Y-142615500D01*
X83231274Y-143261457D01*
X83233234Y-143941457D01*
X83233242Y-143944339D01*
X83234156Y-144261456D01*
X83235609Y-144765500D01*
X83239051Y-145959999D01*
X83239055Y-145961457D01*
X83244145Y-147727798D01*
X83244145Y-147727807D01*
X83255851Y-147834523D01*
X83267056Y-147885674D01*
X83267057Y-147885677D01*
X83301029Y-147987501D01*
X83301032Y-147987508D01*
X83378813Y-148108537D01*
X83378822Y-148108548D01*
X83424566Y-148161340D01*
X83424569Y-148161343D01*
X83424573Y-148161347D01*
X83533307Y-148255567D01*
X83664184Y-148315338D01*
X83709000Y-148328497D01*
X83731218Y-148335022D01*
X83731223Y-148335023D01*
X83731227Y-148335024D01*
X83873643Y-148355500D01*
X83873646Y-148355500D01*
X105725174Y-148355500D01*
X105725182Y-148355500D01*
X105834259Y-148343591D01*
X105886511Y-148332044D01*
X105990445Y-148296882D01*
X106110970Y-148218300D01*
X106163472Y-148172199D01*
X106163475Y-148172196D01*
X106256979Y-148062841D01*
X106315887Y-147931572D01*
X106335130Y-147864404D01*
X106354668Y-147721858D01*
X106306297Y-140369525D01*
X106294549Y-140264451D01*
X106283486Y-140214061D01*
X106250129Y-140113710D01*
X106219675Y-140066041D01*
X106200171Y-139998951D01*
X106211376Y-139947775D01*
X106265338Y-139829620D01*
X106285023Y-139762581D01*
X106285024Y-139762577D01*
X106305500Y-139620161D01*
X106305500Y-130624000D01*
X106293947Y-130516544D01*
X106282741Y-130465033D01*
X106277065Y-130447979D01*
X106248616Y-130362502D01*
X106248613Y-130362496D01*
X106170828Y-130241462D01*
X106170825Y-130241457D01*
X106170820Y-130241451D01*
X106125076Y-130188659D01*
X106125072Y-130188656D01*
X106125070Y-130188653D01*
X106016336Y-130094433D01*
X106016333Y-130094431D01*
X106016331Y-130094430D01*
X105885465Y-130034664D01*
X105885460Y-130034662D01*
X105885459Y-130034662D01*
X105862858Y-130028025D01*
X105818425Y-130014978D01*
X105818419Y-130014976D01*
X105732966Y-130002690D01*
X105676000Y-129994500D01*
X87979500Y-129994500D01*
X87979491Y-129994500D01*
X87979490Y-129994501D01*
X87872049Y-130006052D01*
X87872037Y-130006054D01*
X87820527Y-130017260D01*
X87717999Y-130051385D01*
X87672797Y-130080434D01*
X87605757Y-130100117D01*
X87554247Y-130088911D01*
X87435465Y-130034664D01*
X87435460Y-130034662D01*
X87435459Y-130034662D01*
X87412858Y-130028025D01*
X87368425Y-130014978D01*
X87368419Y-130014976D01*
X87282966Y-130002690D01*
X87226000Y-129994500D01*
X83824357Y-129994500D01*
X83824355Y-129994500D01*
X83752245Y-130002306D01*
X83716189Y-130006209D01*
X83716188Y-130006209D01*
X83664362Y-130017561D01*
X83561206Y-130052142D01*
X83440400Y-130130270D01*
X83440388Y-130130280D01*
X83387719Y-130176183D01*
X83293811Y-130285190D01*
X83234417Y-130416242D01*
X83234413Y-130416250D01*
X83214926Y-130483333D01*
X83214325Y-130487559D01*
X83214319Y-130487647D01*
X83194859Y-130625811D01*
X40750000Y-130625811D01*
X40750000Y-129110006D01*
X53709786Y-129110006D01*
X53728608Y-129337168D01*
X53728610Y-129337179D01*
X53784569Y-129558155D01*
X53876137Y-129766908D01*
X54000814Y-129957742D01*
X54155208Y-130125458D01*
X54155212Y-130125461D01*
X54304250Y-130241462D01*
X54335094Y-130265469D01*
X54335096Y-130265470D01*
X54335099Y-130265472D01*
X54371535Y-130285190D01*
X54535574Y-130373963D01*
X54647529Y-130412397D01*
X54751173Y-130447979D01*
X54751175Y-130447979D01*
X54751177Y-130447980D01*
X54976023Y-130485500D01*
X54976024Y-130485500D01*
X55203976Y-130485500D01*
X55203977Y-130485500D01*
X55428823Y-130447980D01*
X55644426Y-130373963D01*
X55844906Y-130265469D01*
X56024794Y-130125456D01*
X56179183Y-129957745D01*
X56303862Y-129766909D01*
X56395430Y-129558155D01*
X56451390Y-129337176D01*
X56470214Y-129110006D01*
X59209786Y-129110006D01*
X59228608Y-129337168D01*
X59228610Y-129337179D01*
X59284569Y-129558155D01*
X59376137Y-129766908D01*
X59500814Y-129957742D01*
X59655208Y-130125458D01*
X59655212Y-130125461D01*
X59804250Y-130241462D01*
X59835094Y-130265469D01*
X59835096Y-130265470D01*
X59835099Y-130265472D01*
X59871535Y-130285190D01*
X60035574Y-130373963D01*
X60147529Y-130412397D01*
X60251173Y-130447979D01*
X60251175Y-130447979D01*
X60251177Y-130447980D01*
X60476023Y-130485500D01*
X60476024Y-130485500D01*
X60703976Y-130485500D01*
X60703977Y-130485500D01*
X60928823Y-130447980D01*
X61144426Y-130373963D01*
X61344906Y-130265469D01*
X61524794Y-130125456D01*
X61679183Y-129957745D01*
X61803862Y-129766909D01*
X61895430Y-129558155D01*
X61951390Y-129337176D01*
X61970214Y-129110000D01*
X61970214Y-129109993D01*
X61951391Y-128882831D01*
X61951389Y-128882820D01*
X61895430Y-128661844D01*
X61803862Y-128453091D01*
X61679185Y-128262257D01*
X61524791Y-128094541D01*
X61524787Y-128094538D01*
X61344909Y-127954533D01*
X61344900Y-127954527D01*
X61144432Y-127846040D01*
X61144429Y-127846039D01*
X61144426Y-127846037D01*
X61144420Y-127846035D01*
X61144418Y-127846034D01*
X60928826Y-127772020D01*
X60760188Y-127743880D01*
X60703977Y-127734500D01*
X60476023Y-127734500D01*
X60431053Y-127742004D01*
X60251173Y-127772020D01*
X60035581Y-127846034D01*
X60035567Y-127846040D01*
X59835099Y-127954527D01*
X59835090Y-127954533D01*
X59655212Y-128094538D01*
X59655208Y-128094541D01*
X59500814Y-128262257D01*
X59376137Y-128453091D01*
X59284569Y-128661844D01*
X59228610Y-128882820D01*
X59228608Y-128882831D01*
X59209786Y-129109993D01*
X59209786Y-129110006D01*
X56470214Y-129110006D01*
X56470214Y-129110000D01*
X56470214Y-129109993D01*
X56451391Y-128882831D01*
X56451389Y-128882820D01*
X56395430Y-128661844D01*
X56303862Y-128453091D01*
X56179185Y-128262257D01*
X56024791Y-128094541D01*
X56024787Y-128094538D01*
X55844909Y-127954533D01*
X55844900Y-127954527D01*
X55644432Y-127846040D01*
X55644429Y-127846039D01*
X55644426Y-127846037D01*
X55644420Y-127846035D01*
X55644418Y-127846034D01*
X55428826Y-127772020D01*
X55260188Y-127743880D01*
X55203977Y-127734500D01*
X54976023Y-127734500D01*
X54931053Y-127742004D01*
X54751173Y-127772020D01*
X54535581Y-127846034D01*
X54535567Y-127846040D01*
X54335099Y-127954527D01*
X54335090Y-127954533D01*
X54155212Y-128094538D01*
X54155208Y-128094541D01*
X54000814Y-128262257D01*
X53876137Y-128453091D01*
X53784569Y-128661844D01*
X53728610Y-128882820D01*
X53728608Y-128882831D01*
X53709786Y-129109993D01*
X53709786Y-129110006D01*
X40750000Y-129110006D01*
X40750000Y-125760000D01*
X113791550Y-125760000D01*
X113810122Y-125995977D01*
X113865378Y-126226136D01*
X113955960Y-126444822D01*
X114079634Y-126646640D01*
X114079635Y-126646641D01*
X114079636Y-126646643D01*
X114079638Y-126646645D01*
X114233365Y-126826635D01*
X114413355Y-126980362D01*
X114413357Y-126980363D01*
X114413358Y-126980364D01*
X114413359Y-126980365D01*
X114615177Y-127104039D01*
X114833863Y-127194621D01*
X115064026Y-127249878D01*
X115300000Y-127268450D01*
X115535974Y-127249878D01*
X115766137Y-127194621D01*
X115984822Y-127104039D01*
X116186645Y-126980362D01*
X116366635Y-126826635D01*
X116520362Y-126646645D01*
X116644039Y-126444822D01*
X116734621Y-126226137D01*
X116789878Y-125995974D01*
X116808450Y-125760000D01*
X116789878Y-125524026D01*
X116734621Y-125293863D01*
X116644039Y-125075178D01*
X116644039Y-125075177D01*
X116520365Y-124873359D01*
X116520364Y-124873358D01*
X116520363Y-124873357D01*
X116520362Y-124873355D01*
X116366635Y-124693365D01*
X116186645Y-124539638D01*
X116186643Y-124539636D01*
X116186641Y-124539635D01*
X116186640Y-124539634D01*
X115984822Y-124415960D01*
X115766136Y-124325378D01*
X115535977Y-124270122D01*
X115300000Y-124251550D01*
X115064022Y-124270122D01*
X114833863Y-124325378D01*
X114615177Y-124415960D01*
X114413359Y-124539634D01*
X114413358Y-124539635D01*
X114233365Y-124693365D01*
X114079635Y-124873358D01*
X114079634Y-124873359D01*
X113955960Y-125075177D01*
X113865378Y-125293863D01*
X113810122Y-125524022D01*
X113791550Y-125760000D01*
X40750000Y-125760000D01*
X40750000Y-120710006D01*
X59209786Y-120710006D01*
X59228608Y-120937168D01*
X59228610Y-120937179D01*
X59284569Y-121158155D01*
X59376137Y-121366908D01*
X59500814Y-121557742D01*
X59655208Y-121725458D01*
X59655212Y-121725461D01*
X59835094Y-121865469D01*
X59835096Y-121865470D01*
X59835099Y-121865472D01*
X59951646Y-121928543D01*
X60035574Y-121973963D01*
X60147529Y-122012397D01*
X60251173Y-122047979D01*
X60251175Y-122047979D01*
X60251177Y-122047980D01*
X60476023Y-122085500D01*
X60476024Y-122085500D01*
X60703976Y-122085500D01*
X60703977Y-122085500D01*
X60928823Y-122047980D01*
X61144426Y-121973963D01*
X61344906Y-121865469D01*
X61524794Y-121725456D01*
X61679183Y-121557745D01*
X61803862Y-121366909D01*
X61895430Y-121158155D01*
X61951390Y-120937176D01*
X61970214Y-120710000D01*
X61970214Y-120709993D01*
X61951391Y-120482831D01*
X61951389Y-120482820D01*
X61895430Y-120261844D01*
X61803862Y-120053091D01*
X61679185Y-119862257D01*
X61524791Y-119694541D01*
X61524787Y-119694538D01*
X61344909Y-119554533D01*
X61344900Y-119554527D01*
X61144432Y-119446040D01*
X61144429Y-119446039D01*
X61144426Y-119446037D01*
X61144420Y-119446035D01*
X61144418Y-119446034D01*
X60928826Y-119372020D01*
X60760188Y-119343880D01*
X60703977Y-119334500D01*
X60476023Y-119334500D01*
X60431053Y-119342004D01*
X60251173Y-119372020D01*
X60035581Y-119446034D01*
X60035567Y-119446040D01*
X59835099Y-119554527D01*
X59835090Y-119554533D01*
X59655212Y-119694538D01*
X59655208Y-119694541D01*
X59500814Y-119862257D01*
X59376137Y-120053091D01*
X59284569Y-120261844D01*
X59228610Y-120482820D01*
X59228608Y-120482831D01*
X59209786Y-120709993D01*
X59209786Y-120710006D01*
X40750000Y-120710006D01*
X40750000Y-117664900D01*
X76641550Y-117664900D01*
X76660122Y-117900877D01*
X76715378Y-118131036D01*
X76805960Y-118349722D01*
X76929634Y-118551540D01*
X76929635Y-118551541D01*
X76929636Y-118551543D01*
X76929638Y-118551545D01*
X77083365Y-118731535D01*
X77263355Y-118885262D01*
X77263357Y-118885263D01*
X77263358Y-118885264D01*
X77263359Y-118885265D01*
X77465177Y-119008939D01*
X77683863Y-119099521D01*
X77914026Y-119154778D01*
X78150000Y-119173350D01*
X78385974Y-119154778D01*
X78616137Y-119099521D01*
X78834822Y-119008939D01*
X79036645Y-118885262D01*
X79216635Y-118731535D01*
X79370362Y-118551545D01*
X79494039Y-118349722D01*
X79584621Y-118131037D01*
X79639878Y-117900874D01*
X79658450Y-117664900D01*
X79639878Y-117428926D01*
X79584621Y-117198763D01*
X79494039Y-116980078D01*
X79494039Y-116980077D01*
X79370365Y-116778259D01*
X79370364Y-116778258D01*
X79370363Y-116778257D01*
X79370362Y-116778255D01*
X79216635Y-116598265D01*
X79036645Y-116444538D01*
X79036643Y-116444536D01*
X79036641Y-116444535D01*
X79036640Y-116444534D01*
X78834822Y-116320860D01*
X78616136Y-116230278D01*
X78385977Y-116175022D01*
X78150000Y-116156450D01*
X77914022Y-116175022D01*
X77683863Y-116230278D01*
X77465177Y-116320860D01*
X77263359Y-116444534D01*
X77263358Y-116444535D01*
X77083365Y-116598265D01*
X76929635Y-116778258D01*
X76929634Y-116778259D01*
X76805960Y-116980077D01*
X76715378Y-117198763D01*
X76660122Y-117428922D01*
X76641550Y-117664900D01*
X40750000Y-117664900D01*
X40750000Y-112310006D01*
X53709786Y-112310006D01*
X53728608Y-112537168D01*
X53728610Y-112537179D01*
X53784569Y-112758155D01*
X53876137Y-112966908D01*
X54000814Y-113157742D01*
X54155208Y-113325458D01*
X54155212Y-113325461D01*
X54335094Y-113465469D01*
X54335096Y-113465470D01*
X54335099Y-113465472D01*
X54451646Y-113528543D01*
X54535574Y-113573963D01*
X54647529Y-113612397D01*
X54751173Y-113647979D01*
X54751175Y-113647979D01*
X54751177Y-113647980D01*
X54976023Y-113685500D01*
X54976024Y-113685500D01*
X55203976Y-113685500D01*
X55203977Y-113685500D01*
X55428823Y-113647980D01*
X55644426Y-113573963D01*
X55844906Y-113465469D01*
X56024794Y-113325456D01*
X56179183Y-113157745D01*
X56303862Y-112966909D01*
X56395430Y-112758155D01*
X56451390Y-112537176D01*
X56470214Y-112310006D01*
X59209786Y-112310006D01*
X59228608Y-112537168D01*
X59228610Y-112537179D01*
X59284569Y-112758155D01*
X59376137Y-112966908D01*
X59500814Y-113157742D01*
X59655208Y-113325458D01*
X59655212Y-113325461D01*
X59835094Y-113465469D01*
X59835096Y-113465470D01*
X59835099Y-113465472D01*
X59951646Y-113528543D01*
X60035574Y-113573963D01*
X60147529Y-113612397D01*
X60251173Y-113647979D01*
X60251175Y-113647979D01*
X60251177Y-113647980D01*
X60476023Y-113685500D01*
X60476024Y-113685500D01*
X60703976Y-113685500D01*
X60703977Y-113685500D01*
X60928823Y-113647980D01*
X61144426Y-113573963D01*
X61344906Y-113465469D01*
X61524794Y-113325456D01*
X61679183Y-113157745D01*
X61803862Y-112966909D01*
X61895430Y-112758155D01*
X61951390Y-112537176D01*
X61970214Y-112310000D01*
X61970214Y-112309993D01*
X61951391Y-112082831D01*
X61951389Y-112082820D01*
X61895430Y-111861844D01*
X61803862Y-111653091D01*
X61679185Y-111462257D01*
X61524791Y-111294541D01*
X61524787Y-111294538D01*
X61344909Y-111154533D01*
X61344900Y-111154527D01*
X61144432Y-111046040D01*
X61144429Y-111046039D01*
X61144426Y-111046037D01*
X61144420Y-111046035D01*
X61144418Y-111046034D01*
X60928826Y-110972020D01*
X60760188Y-110943880D01*
X60703977Y-110934500D01*
X60476023Y-110934500D01*
X60431053Y-110942004D01*
X60251173Y-110972020D01*
X60035581Y-111046034D01*
X60035567Y-111046040D01*
X59835099Y-111154527D01*
X59835090Y-111154533D01*
X59655212Y-111294538D01*
X59655208Y-111294541D01*
X59500814Y-111462257D01*
X59376137Y-111653091D01*
X59284569Y-111861844D01*
X59228610Y-112082820D01*
X59228608Y-112082831D01*
X59209786Y-112309993D01*
X59209786Y-112310006D01*
X56470214Y-112310006D01*
X56470214Y-112310000D01*
X56470214Y-112309993D01*
X56451391Y-112082831D01*
X56451389Y-112082820D01*
X56395430Y-111861844D01*
X56303862Y-111653091D01*
X56179185Y-111462257D01*
X56024791Y-111294541D01*
X56024787Y-111294538D01*
X55844909Y-111154533D01*
X55844900Y-111154527D01*
X55644432Y-111046040D01*
X55644429Y-111046039D01*
X55644426Y-111046037D01*
X55644420Y-111046035D01*
X55644418Y-111046034D01*
X55428826Y-110972020D01*
X55260188Y-110943880D01*
X55203977Y-110934500D01*
X54976023Y-110934500D01*
X54931053Y-110942004D01*
X54751173Y-110972020D01*
X54535581Y-111046034D01*
X54535567Y-111046040D01*
X54335099Y-111154527D01*
X54335090Y-111154533D01*
X54155212Y-111294538D01*
X54155208Y-111294541D01*
X54000814Y-111462257D01*
X53876137Y-111653091D01*
X53784569Y-111861844D01*
X53728610Y-112082820D01*
X53728608Y-112082831D01*
X53709786Y-112309993D01*
X53709786Y-112310006D01*
X40750000Y-112310006D01*
X40750000Y-103910006D01*
X53709786Y-103910006D01*
X53728608Y-104137168D01*
X53728610Y-104137179D01*
X53784569Y-104358155D01*
X53876137Y-104566908D01*
X54000814Y-104757742D01*
X54155208Y-104925458D01*
X54155212Y-104925461D01*
X54335094Y-105065469D01*
X54335096Y-105065470D01*
X54335099Y-105065472D01*
X54451646Y-105128543D01*
X54535574Y-105173963D01*
X54647529Y-105212397D01*
X54751173Y-105247979D01*
X54751175Y-105247979D01*
X54751177Y-105247980D01*
X54976023Y-105285500D01*
X54976024Y-105285500D01*
X55203976Y-105285500D01*
X55203977Y-105285500D01*
X55428823Y-105247980D01*
X55644426Y-105173963D01*
X55844906Y-105065469D01*
X56024794Y-104925456D01*
X56179183Y-104757745D01*
X56303862Y-104566909D01*
X56395430Y-104358155D01*
X56451390Y-104137176D01*
X56451391Y-104137168D01*
X56470214Y-103910006D01*
X59209786Y-103910006D01*
X59228608Y-104137168D01*
X59228610Y-104137179D01*
X59284569Y-104358155D01*
X59376137Y-104566908D01*
X59500814Y-104757742D01*
X59655208Y-104925458D01*
X59655212Y-104925461D01*
X59835094Y-105065469D01*
X59835096Y-105065470D01*
X59835099Y-105065472D01*
X59951646Y-105128543D01*
X60035574Y-105173963D01*
X60147529Y-105212397D01*
X60251173Y-105247979D01*
X60251175Y-105247979D01*
X60251177Y-105247980D01*
X60476023Y-105285500D01*
X60476024Y-105285500D01*
X60703976Y-105285500D01*
X60703977Y-105285500D01*
X60928823Y-105247980D01*
X61144426Y-105173963D01*
X61344906Y-105065469D01*
X61524794Y-104925456D01*
X61679183Y-104757745D01*
X61803862Y-104566909D01*
X61895430Y-104358155D01*
X61951390Y-104137176D01*
X61951391Y-104137168D01*
X61970214Y-103910006D01*
X61970214Y-103909993D01*
X61951391Y-103682831D01*
X61951389Y-103682820D01*
X61895430Y-103461844D01*
X61803862Y-103253091D01*
X61679185Y-103062257D01*
X61524791Y-102894541D01*
X61524787Y-102894538D01*
X61416173Y-102810000D01*
X113641550Y-102810000D01*
X113660122Y-103045977D01*
X113715378Y-103276136D01*
X113805960Y-103494822D01*
X113929634Y-103696640D01*
X113929635Y-103696641D01*
X113929636Y-103696643D01*
X113929638Y-103696645D01*
X114083365Y-103876635D01*
X114263355Y-104030362D01*
X114263357Y-104030363D01*
X114263358Y-104030364D01*
X114263359Y-104030365D01*
X114465177Y-104154039D01*
X114683863Y-104244621D01*
X114914026Y-104299878D01*
X115150000Y-104318450D01*
X115385974Y-104299878D01*
X115616137Y-104244621D01*
X115834822Y-104154039D01*
X116036645Y-104030362D01*
X116216635Y-103876635D01*
X116370362Y-103696645D01*
X116494039Y-103494822D01*
X116584621Y-103276137D01*
X116639878Y-103045974D01*
X116658450Y-102810000D01*
X116639878Y-102574026D01*
X116584621Y-102343863D01*
X116494039Y-102125178D01*
X116494039Y-102125177D01*
X116370365Y-101923359D01*
X116370364Y-101923358D01*
X116370363Y-101923357D01*
X116370362Y-101923355D01*
X116216635Y-101743365D01*
X116036645Y-101589638D01*
X116036643Y-101589636D01*
X116036641Y-101589635D01*
X116036640Y-101589634D01*
X115834822Y-101465960D01*
X115616136Y-101375378D01*
X115385977Y-101320122D01*
X115150000Y-101301550D01*
X114914022Y-101320122D01*
X114683863Y-101375378D01*
X114465177Y-101465960D01*
X114263359Y-101589634D01*
X114263358Y-101589635D01*
X114083365Y-101743365D01*
X113929635Y-101923358D01*
X113929634Y-101923359D01*
X113805960Y-102125177D01*
X113715378Y-102343863D01*
X113660122Y-102574022D01*
X113641550Y-102810000D01*
X61416173Y-102810000D01*
X61344909Y-102754533D01*
X61344900Y-102754527D01*
X61144432Y-102646040D01*
X61144429Y-102646039D01*
X61144426Y-102646037D01*
X61144420Y-102646035D01*
X61144418Y-102646034D01*
X60928826Y-102572020D01*
X60760188Y-102543880D01*
X60703977Y-102534500D01*
X60476023Y-102534500D01*
X60431053Y-102542004D01*
X60251173Y-102572020D01*
X60035581Y-102646034D01*
X60035567Y-102646040D01*
X59835099Y-102754527D01*
X59835090Y-102754533D01*
X59655212Y-102894538D01*
X59655208Y-102894541D01*
X59500814Y-103062257D01*
X59376137Y-103253091D01*
X59284569Y-103461844D01*
X59228610Y-103682820D01*
X59228608Y-103682831D01*
X59209786Y-103909993D01*
X59209786Y-103910006D01*
X56470214Y-103910006D01*
X56470214Y-103909993D01*
X56451391Y-103682831D01*
X56451389Y-103682820D01*
X56395430Y-103461844D01*
X56303862Y-103253091D01*
X56179185Y-103062257D01*
X56024791Y-102894541D01*
X56024787Y-102894538D01*
X55844909Y-102754533D01*
X55844900Y-102754527D01*
X55644432Y-102646040D01*
X55644429Y-102646039D01*
X55644426Y-102646037D01*
X55644420Y-102646035D01*
X55644418Y-102646034D01*
X55428826Y-102572020D01*
X55260188Y-102543880D01*
X55203977Y-102534500D01*
X54976023Y-102534500D01*
X54931053Y-102542004D01*
X54751173Y-102572020D01*
X54535581Y-102646034D01*
X54535567Y-102646040D01*
X54335099Y-102754527D01*
X54335090Y-102754533D01*
X54155212Y-102894538D01*
X54155208Y-102894541D01*
X54000814Y-103062257D01*
X53876137Y-103253091D01*
X53784569Y-103461844D01*
X53728610Y-103682820D01*
X53728608Y-103682831D01*
X53709786Y-103909993D01*
X53709786Y-103910006D01*
X40750000Y-103910006D01*
X40750000Y-99710006D01*
X53709786Y-99710006D01*
X53728608Y-99937168D01*
X53728610Y-99937179D01*
X53784569Y-100158155D01*
X53876137Y-100366908D01*
X54000814Y-100557742D01*
X54155208Y-100725458D01*
X54155212Y-100725461D01*
X54335090Y-100865466D01*
X54335094Y-100865469D01*
X54335096Y-100865470D01*
X54335099Y-100865472D01*
X54451646Y-100928543D01*
X54535574Y-100973963D01*
X54647529Y-101012397D01*
X54751173Y-101047979D01*
X54751175Y-101047979D01*
X54751177Y-101047980D01*
X54976023Y-101085500D01*
X54976024Y-101085500D01*
X55203976Y-101085500D01*
X55203977Y-101085500D01*
X55428823Y-101047980D01*
X55644426Y-100973963D01*
X55844906Y-100865469D01*
X56024794Y-100725456D01*
X56110025Y-100632870D01*
X59214500Y-100632870D01*
X59214501Y-100632876D01*
X59220908Y-100692483D01*
X59271202Y-100827328D01*
X59271206Y-100827335D01*
X59357452Y-100942544D01*
X59357455Y-100942547D01*
X59472664Y-101028793D01*
X59472671Y-101028797D01*
X59607517Y-101079091D01*
X59607516Y-101079091D01*
X59614444Y-101079835D01*
X59667127Y-101085500D01*
X61512872Y-101085499D01*
X61572483Y-101079091D01*
X61707331Y-101028796D01*
X61822546Y-100942546D01*
X61908796Y-100827331D01*
X61959091Y-100692483D01*
X61965500Y-100632873D01*
X61965499Y-98787128D01*
X61959091Y-98727517D01*
X61908796Y-98592669D01*
X61908795Y-98592668D01*
X61908793Y-98592664D01*
X61822547Y-98477455D01*
X61822544Y-98477452D01*
X61707335Y-98391206D01*
X61707328Y-98391202D01*
X61572482Y-98340908D01*
X61572483Y-98340908D01*
X61512883Y-98334501D01*
X61512881Y-98334500D01*
X61512873Y-98334500D01*
X61512864Y-98334500D01*
X59667129Y-98334500D01*
X59667123Y-98334501D01*
X59607516Y-98340908D01*
X59472671Y-98391202D01*
X59472664Y-98391206D01*
X59357455Y-98477452D01*
X59357452Y-98477455D01*
X59271206Y-98592664D01*
X59271202Y-98592671D01*
X59220908Y-98727517D01*
X59214501Y-98787116D01*
X59214501Y-98787123D01*
X59214500Y-98787135D01*
X59214500Y-100632870D01*
X56110025Y-100632870D01*
X56179183Y-100557745D01*
X56303862Y-100366909D01*
X56395430Y-100158155D01*
X56451390Y-99937176D01*
X56470214Y-99710000D01*
X56470214Y-99709993D01*
X56451391Y-99482831D01*
X56451389Y-99482820D01*
X56395430Y-99261844D01*
X56303862Y-99053091D01*
X56179185Y-98862257D01*
X56024791Y-98694541D01*
X56024787Y-98694538D01*
X55844909Y-98554533D01*
X55844900Y-98554527D01*
X55644432Y-98446040D01*
X55644429Y-98446039D01*
X55644426Y-98446037D01*
X55644420Y-98446035D01*
X55644418Y-98446034D01*
X55428826Y-98372020D01*
X55242378Y-98340908D01*
X55203977Y-98334500D01*
X54976023Y-98334500D01*
X54937622Y-98340908D01*
X54751173Y-98372020D01*
X54535581Y-98446034D01*
X54535567Y-98446040D01*
X54335099Y-98554527D01*
X54335090Y-98554533D01*
X54155212Y-98694538D01*
X54155208Y-98694541D01*
X54000814Y-98862257D01*
X53876137Y-99053091D01*
X53784569Y-99261844D01*
X53728610Y-99482820D01*
X53728608Y-99482831D01*
X53709786Y-99709993D01*
X53709786Y-99710006D01*
X40750000Y-99710006D01*
X40750000Y-98130006D01*
X77044700Y-98130006D01*
X77063864Y-98361297D01*
X77063866Y-98361308D01*
X77120842Y-98586300D01*
X77214075Y-98798848D01*
X77341016Y-98993147D01*
X77341019Y-98993151D01*
X77341021Y-98993153D01*
X77498216Y-99163913D01*
X77498219Y-99163915D01*
X77498222Y-99163918D01*
X77681365Y-99306464D01*
X77681371Y-99306468D01*
X77681374Y-99306470D01*
X77885497Y-99416936D01*
X77999487Y-99456068D01*
X78105015Y-99492297D01*
X78105017Y-99492297D01*
X78105019Y-99492298D01*
X78333951Y-99530500D01*
X78333952Y-99530500D01*
X78566048Y-99530500D01*
X78566049Y-99530500D01*
X78794981Y-99492298D01*
X79014503Y-99416936D01*
X79218626Y-99306470D01*
X79401784Y-99163913D01*
X79558979Y-98993153D01*
X79685924Y-98798849D01*
X79779157Y-98586300D01*
X79836134Y-98361305D01*
X79855300Y-98130000D01*
X79855300Y-98129993D01*
X79836135Y-97898702D01*
X79836133Y-97898691D01*
X79779157Y-97673699D01*
X79685924Y-97461151D01*
X79558983Y-97266852D01*
X79558980Y-97266849D01*
X79558979Y-97266847D01*
X79401784Y-97096087D01*
X79401779Y-97096083D01*
X79401777Y-97096081D01*
X79218634Y-96953535D01*
X79218628Y-96953531D01*
X79014504Y-96843064D01*
X79014495Y-96843061D01*
X78794984Y-96767702D01*
X78623282Y-96739050D01*
X78566049Y-96729500D01*
X78333951Y-96729500D01*
X78288164Y-96737140D01*
X78105015Y-96767702D01*
X77885504Y-96843061D01*
X77885495Y-96843064D01*
X77681371Y-96953531D01*
X77681365Y-96953535D01*
X77498222Y-97096081D01*
X77498219Y-97096084D01*
X77341016Y-97266852D01*
X77214075Y-97461151D01*
X77120842Y-97673699D01*
X77063866Y-97898691D01*
X77063864Y-97898702D01*
X77044700Y-98129993D01*
X77044700Y-98130006D01*
X40750000Y-98130006D01*
X40750000Y-87970006D01*
X77044700Y-87970006D01*
X77063864Y-88201297D01*
X77063866Y-88201308D01*
X77120842Y-88426300D01*
X77214075Y-88638848D01*
X77341016Y-88833147D01*
X77341019Y-88833151D01*
X77341021Y-88833153D01*
X77498216Y-89003913D01*
X77498219Y-89003915D01*
X77498222Y-89003918D01*
X77681365Y-89146464D01*
X77681371Y-89146468D01*
X77681374Y-89146470D01*
X77885497Y-89256936D01*
X77999487Y-89296068D01*
X78105015Y-89332297D01*
X78105017Y-89332297D01*
X78105019Y-89332298D01*
X78333951Y-89370500D01*
X78333952Y-89370500D01*
X78566048Y-89370500D01*
X78566049Y-89370500D01*
X78794981Y-89332298D01*
X79014503Y-89256936D01*
X79218626Y-89146470D01*
X79401784Y-89003913D01*
X79558979Y-88833153D01*
X79685924Y-88638849D01*
X79779157Y-88426300D01*
X79836134Y-88201305D01*
X79855300Y-87970000D01*
X79855300Y-87969993D01*
X79836135Y-87738702D01*
X79836133Y-87738691D01*
X79779157Y-87513699D01*
X79685924Y-87301151D01*
X79558983Y-87106852D01*
X79558980Y-87106849D01*
X79558979Y-87106847D01*
X79401784Y-86936087D01*
X79401779Y-86936083D01*
X79401777Y-86936081D01*
X79218634Y-86793535D01*
X79218628Y-86793531D01*
X79014504Y-86683064D01*
X79014495Y-86683061D01*
X78794984Y-86607702D01*
X78623282Y-86579050D01*
X78566049Y-86569500D01*
X78333951Y-86569500D01*
X78288164Y-86577140D01*
X78105015Y-86607702D01*
X77885504Y-86683061D01*
X77885495Y-86683064D01*
X77681371Y-86793531D01*
X77681365Y-86793535D01*
X77498222Y-86936081D01*
X77498219Y-86936084D01*
X77341016Y-87106852D01*
X77214075Y-87301151D01*
X77120842Y-87513699D01*
X77063866Y-87738691D01*
X77063864Y-87738702D01*
X77044700Y-87969993D01*
X77044700Y-87970006D01*
X40750000Y-87970006D01*
X40750000Y-83500006D01*
X59119786Y-83500006D01*
X59138608Y-83727168D01*
X59138610Y-83727179D01*
X59194569Y-83948155D01*
X59286137Y-84156908D01*
X59410814Y-84347742D01*
X59565208Y-84515458D01*
X59565212Y-84515461D01*
X59745094Y-84655469D01*
X59745096Y-84655470D01*
X59745099Y-84655472D01*
X59861646Y-84718543D01*
X59945574Y-84763963D01*
X60057529Y-84802397D01*
X60161173Y-84837979D01*
X60161175Y-84837979D01*
X60161177Y-84837980D01*
X60386023Y-84875500D01*
X60386024Y-84875500D01*
X60613976Y-84875500D01*
X60613977Y-84875500D01*
X60838823Y-84837980D01*
X61054426Y-84763963D01*
X61254906Y-84655469D01*
X61434794Y-84515456D01*
X61589183Y-84347745D01*
X61713862Y-84156909D01*
X61805430Y-83948155D01*
X61861390Y-83727176D01*
X61880214Y-83500000D01*
X61880214Y-83499993D01*
X61861391Y-83272831D01*
X61861389Y-83272820D01*
X61805430Y-83051844D01*
X61713862Y-82843091D01*
X61589185Y-82652257D01*
X61434791Y-82484541D01*
X61434787Y-82484538D01*
X61254909Y-82344533D01*
X61254900Y-82344527D01*
X61054432Y-82236040D01*
X61054429Y-82236039D01*
X61054426Y-82236037D01*
X61054420Y-82236035D01*
X61054418Y-82236034D01*
X60838826Y-82162020D01*
X60670188Y-82133880D01*
X60613977Y-82124500D01*
X60386023Y-82124500D01*
X60341053Y-82132004D01*
X60161173Y-82162020D01*
X59945581Y-82236034D01*
X59945567Y-82236040D01*
X59745099Y-82344527D01*
X59745090Y-82344533D01*
X59565212Y-82484538D01*
X59565208Y-82484541D01*
X59410814Y-82652257D01*
X59286137Y-82843091D01*
X59194569Y-83051844D01*
X59138610Y-83272820D01*
X59138608Y-83272831D01*
X59119786Y-83499993D01*
X59119786Y-83500006D01*
X40750000Y-83500006D01*
X40750000Y-80222870D01*
X59124500Y-80222870D01*
X59124501Y-80222876D01*
X59130908Y-80282483D01*
X59181202Y-80417328D01*
X59181206Y-80417335D01*
X59267452Y-80532544D01*
X59267455Y-80532547D01*
X59382664Y-80618793D01*
X59382671Y-80618797D01*
X59517517Y-80669091D01*
X59517516Y-80669091D01*
X59524444Y-80669835D01*
X59577127Y-80675500D01*
X61422872Y-80675499D01*
X61482483Y-80669091D01*
X61617331Y-80618796D01*
X61732546Y-80532546D01*
X61818796Y-80417331D01*
X61869091Y-80282483D01*
X61875500Y-80222873D01*
X61875499Y-78720000D01*
X113441550Y-78720000D01*
X113460122Y-78955977D01*
X113515378Y-79186136D01*
X113605960Y-79404822D01*
X113729634Y-79606640D01*
X113729635Y-79606641D01*
X113729636Y-79606643D01*
X113729638Y-79606645D01*
X113883365Y-79786635D01*
X114063355Y-79940362D01*
X114063357Y-79940363D01*
X114063358Y-79940364D01*
X114063359Y-79940365D01*
X114265177Y-80064039D01*
X114483863Y-80154621D01*
X114714026Y-80209878D01*
X114950000Y-80228450D01*
X115185974Y-80209878D01*
X115416137Y-80154621D01*
X115634822Y-80064039D01*
X115836645Y-79940362D01*
X116016635Y-79786635D01*
X116170362Y-79606645D01*
X116294039Y-79404822D01*
X116384621Y-79186137D01*
X116439878Y-78955974D01*
X116458450Y-78720000D01*
X116439878Y-78484026D01*
X116384621Y-78253863D01*
X116294039Y-78035177D01*
X116170365Y-77833359D01*
X116170364Y-77833358D01*
X116170363Y-77833357D01*
X116170362Y-77833355D01*
X116016635Y-77653365D01*
X115836645Y-77499638D01*
X115836643Y-77499636D01*
X115836641Y-77499635D01*
X115836640Y-77499634D01*
X115634822Y-77375960D01*
X115416136Y-77285378D01*
X115185977Y-77230122D01*
X114950000Y-77211550D01*
X114714022Y-77230122D01*
X114483863Y-77285378D01*
X114265177Y-77375960D01*
X114063359Y-77499634D01*
X114063358Y-77499635D01*
X113883365Y-77653365D01*
X113729635Y-77833358D01*
X113729634Y-77833359D01*
X113605960Y-78035177D01*
X113515378Y-78253863D01*
X113460122Y-78484022D01*
X113441550Y-78720000D01*
X61875499Y-78720000D01*
X61875499Y-78377128D01*
X61869091Y-78317517D01*
X61818796Y-78182669D01*
X61818795Y-78182668D01*
X61818793Y-78182664D01*
X61732547Y-78067455D01*
X61732544Y-78067452D01*
X61617335Y-77981206D01*
X61617328Y-77981202D01*
X61482482Y-77930908D01*
X61482483Y-77930908D01*
X61422883Y-77924501D01*
X61422881Y-77924500D01*
X61422873Y-77924500D01*
X61422864Y-77924500D01*
X59577129Y-77924500D01*
X59577123Y-77924501D01*
X59517516Y-77930908D01*
X59382671Y-77981202D01*
X59382664Y-77981206D01*
X59267455Y-78067452D01*
X59267452Y-78067455D01*
X59181206Y-78182664D01*
X59181202Y-78182671D01*
X59130908Y-78317517D01*
X59124501Y-78377116D01*
X59124501Y-78377123D01*
X59124500Y-78377135D01*
X59124500Y-80222870D01*
X40750000Y-80222870D01*
X40750000Y-62200006D01*
X58919786Y-62200006D01*
X58938608Y-62427168D01*
X58938610Y-62427179D01*
X58994569Y-62648155D01*
X59086137Y-62856908D01*
X59210814Y-63047742D01*
X59365208Y-63215458D01*
X59365212Y-63215461D01*
X59545094Y-63355469D01*
X59545096Y-63355470D01*
X59545099Y-63355472D01*
X59661646Y-63418543D01*
X59745574Y-63463963D01*
X59857529Y-63502397D01*
X59961173Y-63537979D01*
X59961175Y-63537979D01*
X59961177Y-63537980D01*
X60186023Y-63575500D01*
X60186024Y-63575500D01*
X60413976Y-63575500D01*
X60413977Y-63575500D01*
X60638823Y-63537980D01*
X60854426Y-63463963D01*
X61054906Y-63355469D01*
X61234794Y-63215456D01*
X61389183Y-63047745D01*
X61513862Y-62856909D01*
X61605430Y-62648155D01*
X61661390Y-62427176D01*
X61680214Y-62200000D01*
X61680214Y-62199993D01*
X61661391Y-61972831D01*
X61661389Y-61972820D01*
X61605430Y-61751844D01*
X61513862Y-61543091D01*
X61389185Y-61352257D01*
X61234791Y-61184541D01*
X61234787Y-61184538D01*
X61054909Y-61044533D01*
X61054900Y-61044527D01*
X60854432Y-60936040D01*
X60854429Y-60936039D01*
X60854426Y-60936037D01*
X60854420Y-60936035D01*
X60854418Y-60936034D01*
X60638826Y-60862020D01*
X60470188Y-60833880D01*
X60413977Y-60824500D01*
X60186023Y-60824500D01*
X60141053Y-60832004D01*
X59961173Y-60862020D01*
X59745581Y-60936034D01*
X59745567Y-60936040D01*
X59545099Y-61044527D01*
X59545090Y-61044533D01*
X59365212Y-61184538D01*
X59365208Y-61184541D01*
X59210814Y-61352257D01*
X59086137Y-61543091D01*
X58994569Y-61751844D01*
X58938610Y-61972820D01*
X58938608Y-61972831D01*
X58919786Y-62199993D01*
X58919786Y-62200006D01*
X40750000Y-62200006D01*
X40750000Y-58922870D01*
X58924500Y-58922870D01*
X58924501Y-58922876D01*
X58930908Y-58982483D01*
X58981202Y-59117328D01*
X58981206Y-59117335D01*
X59067452Y-59232544D01*
X59067455Y-59232547D01*
X59182664Y-59318793D01*
X59182671Y-59318797D01*
X59317517Y-59369091D01*
X59317516Y-59369091D01*
X59324444Y-59369835D01*
X59377127Y-59375500D01*
X61222872Y-59375499D01*
X61282483Y-59369091D01*
X61306857Y-59360000D01*
X113541550Y-59360000D01*
X113560122Y-59595977D01*
X113615378Y-59826136D01*
X113705960Y-60044822D01*
X113829634Y-60246640D01*
X113829635Y-60246641D01*
X113829636Y-60246643D01*
X113829638Y-60246645D01*
X113983365Y-60426635D01*
X114163355Y-60580362D01*
X114163357Y-60580363D01*
X114163358Y-60580364D01*
X114163359Y-60580365D01*
X114365177Y-60704039D01*
X114583863Y-60794621D01*
X114814026Y-60849878D01*
X115050000Y-60868450D01*
X115285974Y-60849878D01*
X115516137Y-60794621D01*
X115734822Y-60704039D01*
X115936645Y-60580362D01*
X116116635Y-60426635D01*
X116270362Y-60246645D01*
X116394039Y-60044822D01*
X116484621Y-59826137D01*
X116539878Y-59595974D01*
X116558450Y-59360000D01*
X116539878Y-59124026D01*
X116484621Y-58893863D01*
X116407073Y-58706645D01*
X116394039Y-58675177D01*
X116270365Y-58473359D01*
X116270364Y-58473358D01*
X116270363Y-58473357D01*
X116270362Y-58473355D01*
X116116635Y-58293365D01*
X115936645Y-58139638D01*
X115936643Y-58139636D01*
X115936641Y-58139635D01*
X115936640Y-58139634D01*
X115734822Y-58015960D01*
X115516136Y-57925378D01*
X115285977Y-57870122D01*
X115050000Y-57851550D01*
X114814022Y-57870122D01*
X114583863Y-57925378D01*
X114365177Y-58015960D01*
X114163359Y-58139634D01*
X114163358Y-58139635D01*
X113983365Y-58293365D01*
X113829635Y-58473358D01*
X113829634Y-58473359D01*
X113705960Y-58675177D01*
X113615378Y-58893863D01*
X113560122Y-59124022D01*
X113541550Y-59360000D01*
X61306857Y-59360000D01*
X61417331Y-59318796D01*
X61532546Y-59232546D01*
X61618796Y-59117331D01*
X61669091Y-58982483D01*
X61675500Y-58922873D01*
X61675499Y-57820000D01*
X77491550Y-57820000D01*
X77510122Y-58055977D01*
X77565378Y-58286136D01*
X77655960Y-58504822D01*
X77779634Y-58706640D01*
X77779635Y-58706641D01*
X77779636Y-58706643D01*
X77779638Y-58706645D01*
X77933365Y-58886635D01*
X78113355Y-59040362D01*
X78113357Y-59040363D01*
X78113358Y-59040364D01*
X78113359Y-59040365D01*
X78315177Y-59164039D01*
X78480564Y-59232544D01*
X78533863Y-59254621D01*
X78764026Y-59309878D01*
X79000000Y-59328450D01*
X79235974Y-59309878D01*
X79466137Y-59254621D01*
X79684822Y-59164039D01*
X79886645Y-59040362D01*
X80066635Y-58886635D01*
X80220362Y-58706645D01*
X80344039Y-58504822D01*
X80434621Y-58286137D01*
X80489878Y-58055974D01*
X80508450Y-57820000D01*
X80489878Y-57584026D01*
X80434621Y-57353863D01*
X80344039Y-57135178D01*
X80344039Y-57135177D01*
X80220365Y-56933359D01*
X80220364Y-56933358D01*
X80220363Y-56933357D01*
X80220362Y-56933355D01*
X80066635Y-56753365D01*
X79886645Y-56599638D01*
X79886643Y-56599636D01*
X79886641Y-56599635D01*
X79886640Y-56599634D01*
X79684822Y-56475960D01*
X79466136Y-56385378D01*
X79235977Y-56330122D01*
X79000000Y-56311550D01*
X78764022Y-56330122D01*
X78533863Y-56385378D01*
X78315177Y-56475960D01*
X78113359Y-56599634D01*
X78113358Y-56599635D01*
X77933365Y-56753365D01*
X77779635Y-56933358D01*
X77779634Y-56933359D01*
X77655960Y-57135177D01*
X77565378Y-57353863D01*
X77510122Y-57584022D01*
X77491550Y-57820000D01*
X61675499Y-57820000D01*
X61675499Y-57077128D01*
X61669091Y-57017517D01*
X61618796Y-56882669D01*
X61618795Y-56882668D01*
X61618793Y-56882664D01*
X61532547Y-56767455D01*
X61532544Y-56767452D01*
X61417335Y-56681206D01*
X61417328Y-56681202D01*
X61282482Y-56630908D01*
X61282483Y-56630908D01*
X61222883Y-56624501D01*
X61222881Y-56624500D01*
X61222873Y-56624500D01*
X61222864Y-56624500D01*
X59377129Y-56624500D01*
X59377123Y-56624501D01*
X59317516Y-56630908D01*
X59182671Y-56681202D01*
X59182664Y-56681206D01*
X59067455Y-56767452D01*
X59067452Y-56767455D01*
X58981206Y-56882664D01*
X58981202Y-56882671D01*
X58930908Y-57017517D01*
X58924501Y-57077116D01*
X58924501Y-57077123D01*
X58924500Y-57077135D01*
X58924500Y-58922870D01*
X40750000Y-58922870D01*
X40750000Y-30000000D01*
X41494696Y-30000000D01*
X41513898Y-30366405D01*
X41571294Y-30728788D01*
X41571294Y-30728790D01*
X41666260Y-31083206D01*
X41797746Y-31425739D01*
X41964320Y-31752656D01*
X42164147Y-32060364D01*
X42164149Y-32060366D01*
X42395051Y-32345506D01*
X42654494Y-32604949D01*
X42654498Y-32604952D01*
X42939635Y-32835852D01*
X43247343Y-33035679D01*
X43247348Y-33035682D01*
X43574264Y-33202255D01*
X43916801Y-33333742D01*
X44271206Y-33428705D01*
X44633596Y-33486102D01*
X44979734Y-33504241D01*
X44999999Y-33505304D01*
X45000000Y-33505304D01*
X45000001Y-33505304D01*
X45019203Y-33504297D01*
X45366404Y-33486102D01*
X45728794Y-33428705D01*
X46083199Y-33333742D01*
X46425736Y-33202255D01*
X46752652Y-33035682D01*
X47060366Y-32835851D01*
X47345506Y-32604949D01*
X47604949Y-32345506D01*
X47835851Y-32060366D01*
X48035682Y-31752652D01*
X48202255Y-31425736D01*
X48333742Y-31083199D01*
X48428705Y-30728794D01*
X48486102Y-30366404D01*
X48505304Y-30000000D01*
X123994696Y-30000000D01*
X124013898Y-30366405D01*
X124071294Y-30728788D01*
X124071294Y-30728790D01*
X124166260Y-31083206D01*
X124297746Y-31425739D01*
X124464320Y-31752656D01*
X124664147Y-32060364D01*
X124664149Y-32060366D01*
X124895051Y-32345506D01*
X125154494Y-32604949D01*
X125154498Y-32604952D01*
X125439635Y-32835852D01*
X125747343Y-33035679D01*
X125747348Y-33035682D01*
X126074264Y-33202255D01*
X126416801Y-33333742D01*
X126771206Y-33428705D01*
X127133596Y-33486102D01*
X127479734Y-33504241D01*
X127499999Y-33505304D01*
X127500000Y-33505304D01*
X127500001Y-33505304D01*
X127519203Y-33504297D01*
X127866404Y-33486102D01*
X128228794Y-33428705D01*
X128583199Y-33333742D01*
X128925736Y-33202255D01*
X129252652Y-33035682D01*
X129560366Y-32835851D01*
X129845506Y-32604949D01*
X130104949Y-32345506D01*
X130335851Y-32060366D01*
X130535682Y-31752652D01*
X130702255Y-31425736D01*
X130833742Y-31083199D01*
X130928705Y-30728794D01*
X130986102Y-30366404D01*
X131005304Y-30000000D01*
X130986102Y-29633596D01*
X130928705Y-29271206D01*
X130833742Y-28916801D01*
X130702255Y-28574264D01*
X130535682Y-28247348D01*
X130335851Y-27939634D01*
X130104949Y-27654494D01*
X129845506Y-27395051D01*
X129560366Y-27164149D01*
X129560364Y-27164147D01*
X129252656Y-26964320D01*
X128925739Y-26797746D01*
X128583206Y-26666260D01*
X128583199Y-26666258D01*
X128228794Y-26571295D01*
X128228790Y-26571294D01*
X128228789Y-26571294D01*
X127866405Y-26513898D01*
X127500001Y-26494696D01*
X127499999Y-26494696D01*
X127133594Y-26513898D01*
X126771211Y-26571294D01*
X126771209Y-26571294D01*
X126416793Y-26666260D01*
X126074260Y-26797746D01*
X125747343Y-26964320D01*
X125439635Y-27164147D01*
X125154498Y-27395047D01*
X125154490Y-27395054D01*
X124895054Y-27654490D01*
X124895047Y-27654498D01*
X124664147Y-27939635D01*
X124464320Y-28247343D01*
X124297746Y-28574260D01*
X124166260Y-28916793D01*
X124071294Y-29271209D01*
X124071294Y-29271211D01*
X124013898Y-29633594D01*
X123994696Y-29999999D01*
X123994696Y-30000000D01*
X48505304Y-30000000D01*
X48486102Y-29633596D01*
X48428705Y-29271206D01*
X48333742Y-28916801D01*
X48202255Y-28574264D01*
X48035682Y-28247348D01*
X47835851Y-27939634D01*
X47604949Y-27654494D01*
X47345506Y-27395051D01*
X47060366Y-27164149D01*
X47060364Y-27164147D01*
X46752656Y-26964320D01*
X46425739Y-26797746D01*
X46083206Y-26666260D01*
X46083199Y-26666258D01*
X45728794Y-26571295D01*
X45728790Y-26571294D01*
X45728789Y-26571294D01*
X45366405Y-26513898D01*
X45000001Y-26494696D01*
X44999999Y-26494696D01*
X44633594Y-26513898D01*
X44271211Y-26571294D01*
X44271209Y-26571294D01*
X43916793Y-26666260D01*
X43574260Y-26797746D01*
X43247343Y-26964320D01*
X42939635Y-27164147D01*
X42654498Y-27395047D01*
X42654490Y-27395054D01*
X42395054Y-27654490D01*
X42395047Y-27654498D01*
X42164147Y-27939635D01*
X41964320Y-28247343D01*
X41797746Y-28574260D01*
X41666260Y-28916793D01*
X41571294Y-29271209D01*
X41571294Y-29271211D01*
X41513898Y-29633594D01*
X41494696Y-29999999D01*
X41494696Y-30000000D01*
X40750000Y-30000000D01*
X40750000Y-25374000D01*
X40769685Y-25306961D01*
X40822489Y-25261206D01*
X40874000Y-25250000D01*
X132626000Y-25250000D01*
X132693039Y-25269685D01*
G37*
%TD.AperFunction*%
%TD*%
%TA.AperFunction,Conductor*%
%TO.N,24 V*%
G36*
X105743039Y-130519685D02*
G01*
X105788794Y-130572489D01*
X105800000Y-130624000D01*
X105800000Y-139620161D01*
X105780315Y-139687200D01*
X105727511Y-139732955D01*
X105675664Y-139744161D01*
X101888668Y-139733898D01*
X101821682Y-139714031D01*
X101776070Y-139661104D01*
X101766314Y-139591918D01*
X101781810Y-139549163D01*
X101781377Y-139548943D01*
X101783157Y-139545447D01*
X101783287Y-139545091D01*
X101783592Y-139544593D01*
X101874146Y-139325977D01*
X101929384Y-139095892D01*
X101947948Y-138860000D01*
X101929384Y-138624108D01*
X101874144Y-138394017D01*
X101797681Y-138209422D01*
X101192801Y-138814302D01*
X101162708Y-138643635D01*
X101093330Y-138482800D01*
X100988731Y-138342299D01*
X100854550Y-138229707D01*
X100698020Y-138151095D01*
X100527581Y-138110700D01*
X100482194Y-138110700D01*
X101090576Y-137502317D01*
X100905977Y-137425853D01*
X100675891Y-137370615D01*
X100675892Y-137370615D01*
X100440000Y-137352051D01*
X100204107Y-137370615D01*
X99974022Y-137425853D01*
X99789422Y-137502317D01*
X100397807Y-138110700D01*
X100396358Y-138110700D01*
X100266023Y-138125934D01*
X100101425Y-138185843D01*
X99955080Y-138282095D01*
X99834877Y-138409503D01*
X99747297Y-138561197D01*
X99697060Y-138729000D01*
X99691822Y-138818928D01*
X99082317Y-138209422D01*
X99005853Y-138394022D01*
X98950615Y-138624107D01*
X98932051Y-138860000D01*
X98950615Y-139095892D01*
X99005853Y-139325977D01*
X99096409Y-139544600D01*
X99096986Y-139545731D01*
X99097075Y-139546207D01*
X99098272Y-139549096D01*
X99097665Y-139549347D01*
X99109886Y-139614399D01*
X99083612Y-139679141D01*
X99026507Y-139719400D01*
X98986168Y-139726030D01*
X89795297Y-139701125D01*
X89767899Y-139702537D01*
X89767900Y-139702537D01*
X89742214Y-139705264D01*
X89727587Y-139706818D01*
X89727581Y-139706819D01*
X89727580Y-139706819D01*
X89673501Y-139715546D01*
X89673494Y-139715548D01*
X89538696Y-139765827D01*
X89538678Y-139765835D01*
X89477368Y-139799314D01*
X89422666Y-139840266D01*
X89357202Y-139864684D01*
X89348354Y-139865000D01*
X88129000Y-139865000D01*
X88061961Y-139845315D01*
X88016206Y-139792511D01*
X88005000Y-139741000D01*
X88005000Y-138395000D01*
X88975000Y-138395000D01*
X88975000Y-138895000D01*
X89725000Y-138895000D01*
X89725000Y-138847172D01*
X89724999Y-138847155D01*
X89718598Y-138787627D01*
X89718596Y-138787620D01*
X89668354Y-138652913D01*
X89668350Y-138652906D01*
X89582190Y-138537812D01*
X89582187Y-138537809D01*
X89467093Y-138451649D01*
X89467086Y-138451645D01*
X89332379Y-138401403D01*
X89332372Y-138401401D01*
X89272844Y-138395000D01*
X88975000Y-138395000D01*
X88005000Y-138395000D01*
X87979500Y-138395000D01*
X87912461Y-138375315D01*
X87866706Y-138322511D01*
X87855500Y-138271000D01*
X87855500Y-138060000D01*
X90390000Y-138060000D01*
X90390000Y-138757844D01*
X90396401Y-138817372D01*
X90396403Y-138817379D01*
X90446645Y-138952086D01*
X90446649Y-138952093D01*
X90532809Y-139067187D01*
X90532812Y-139067190D01*
X90647906Y-139153350D01*
X90647913Y-139153354D01*
X90782620Y-139203596D01*
X90782627Y-139203598D01*
X90842155Y-139209999D01*
X90842172Y-139210000D01*
X91640000Y-139210000D01*
X91640000Y-138060000D01*
X92640000Y-138060000D01*
X92640000Y-139210000D01*
X93437828Y-139210000D01*
X93437844Y-139209999D01*
X93497372Y-139203598D01*
X93497379Y-139203596D01*
X93632086Y-139153354D01*
X93632093Y-139153350D01*
X93747187Y-139067190D01*
X93747190Y-139067187D01*
X93833350Y-138952093D01*
X93833354Y-138952086D01*
X93883596Y-138817379D01*
X93883598Y-138817372D01*
X93889999Y-138757844D01*
X93890000Y-138757827D01*
X93890000Y-138060000D01*
X92640000Y-138060000D01*
X91640000Y-138060000D01*
X90390000Y-138060000D01*
X87855500Y-138060000D01*
X87855500Y-137060000D01*
X90390000Y-137060000D01*
X91640000Y-137060000D01*
X91640000Y-135910000D01*
X92640000Y-135910000D01*
X92640000Y-137060000D01*
X93890000Y-137060000D01*
X93890000Y-136362172D01*
X93889999Y-136362155D01*
X93883598Y-136302627D01*
X93883596Y-136302620D01*
X93833354Y-136167913D01*
X93833350Y-136167906D01*
X93747190Y-136052812D01*
X93747187Y-136052809D01*
X93632093Y-135966649D01*
X93632086Y-135966645D01*
X93497379Y-135916403D01*
X93497372Y-135916401D01*
X93437844Y-135910000D01*
X92640000Y-135910000D01*
X91640000Y-135910000D01*
X90842155Y-135910000D01*
X90782627Y-135916401D01*
X90782620Y-135916403D01*
X90647913Y-135966645D01*
X90647906Y-135966649D01*
X90532812Y-136052809D01*
X90532809Y-136052812D01*
X90446649Y-136167906D01*
X90446645Y-136167913D01*
X90396403Y-136302620D01*
X90396401Y-136302627D01*
X90390000Y-136362155D01*
X90390000Y-137060000D01*
X87855500Y-137060000D01*
X87855500Y-136762985D01*
X87875185Y-136695946D01*
X87927989Y-136650191D01*
X87997147Y-136640247D01*
X88060703Y-136669272D01*
X88063039Y-136671349D01*
X88074260Y-136681578D01*
X88247584Y-136788897D01*
X88437678Y-136862539D01*
X88638072Y-136900000D01*
X88841928Y-136900000D01*
X89042318Y-136862540D01*
X89080601Y-136847708D01*
X88120574Y-135887681D01*
X88088697Y-135829302D01*
X88386372Y-135829302D01*
X88415047Y-135942538D01*
X88478936Y-136040327D01*
X88571115Y-136112072D01*
X88681595Y-136150000D01*
X88769005Y-136150000D01*
X88855216Y-136135614D01*
X88957947Y-136080019D01*
X89037060Y-135994079D01*
X89083982Y-135887108D01*
X89091200Y-135800001D01*
X89447107Y-135800001D01*
X89786960Y-136139854D01*
X89786961Y-136139854D01*
X89825902Y-136002990D01*
X89844713Y-135800000D01*
X89844713Y-135799999D01*
X89825902Y-135597009D01*
X89786960Y-135460144D01*
X89447107Y-135799999D01*
X89447107Y-135800001D01*
X89091200Y-135800001D01*
X89093628Y-135770698D01*
X89064953Y-135657462D01*
X89001064Y-135559673D01*
X88908885Y-135487928D01*
X88798405Y-135450000D01*
X88710995Y-135450000D01*
X88624784Y-135464386D01*
X88522053Y-135519981D01*
X88442940Y-135605921D01*
X88396018Y-135712892D01*
X88386372Y-135829302D01*
X88088697Y-135829302D01*
X88087089Y-135826358D01*
X88092073Y-135756666D01*
X88120574Y-135712319D01*
X88740000Y-135092893D01*
X89080602Y-134752290D01*
X89042321Y-134737460D01*
X89042316Y-134737459D01*
X88841928Y-134700000D01*
X88638072Y-134700000D01*
X88437678Y-134737460D01*
X88247584Y-134811102D01*
X88074260Y-134918421D01*
X88063036Y-134928653D01*
X88000231Y-134959269D01*
X87930844Y-134951069D01*
X87876905Y-134906658D01*
X87855539Y-134840136D01*
X87855500Y-134837014D01*
X87855500Y-130624000D01*
X87875185Y-130556961D01*
X87927989Y-130511206D01*
X87979500Y-130500000D01*
X105676000Y-130500000D01*
X105743039Y-130519685D01*
G37*
%TD.AperFunction*%
%TD*%
M02*
