%TF.GenerationSoftware,KiCad,Pcbnew,7.0.8-7.0.8~ubuntu22.04.1*%
%TF.CreationDate,2025-01-17T11:03:05+01:00*%
%TF.ProjectId,supply_interface,73757070-6c79-45f6-996e-746572666163,rev?*%
%TF.SameCoordinates,Original*%
%TF.FileFunction,Legend,Top*%
%TF.FilePolarity,Positive*%
%FSLAX46Y46*%
G04 Gerber Fmt 4.6, Leading zero omitted, Abs format (unit mm)*
G04 Created by KiCad (PCBNEW 7.0.8-7.0.8~ubuntu22.04.1) date 2025-01-17 11:03:05*
%MOMM*%
%LPD*%
G01*
G04 APERTURE LIST*
%ADD10C,0.200000*%
%ADD11C,0.150000*%
%ADD12C,0.127000*%
%ADD13C,0.152400*%
%ADD14C,0.508000*%
%ADD15C,0.100000*%
G04 APERTURE END LIST*
D10*
X66860149Y-171867219D02*
X66955387Y-171867219D01*
X66955387Y-171867219D02*
X67050625Y-171914838D01*
X67050625Y-171914838D02*
X67098244Y-171962457D01*
X67098244Y-171962457D02*
X67145863Y-172057695D01*
X67145863Y-172057695D02*
X67193482Y-172248171D01*
X67193482Y-172248171D02*
X67193482Y-172486266D01*
X67193482Y-172486266D02*
X67145863Y-172676742D01*
X67145863Y-172676742D02*
X67098244Y-172771980D01*
X67098244Y-172771980D02*
X67050625Y-172819600D01*
X67050625Y-172819600D02*
X66955387Y-172867219D01*
X66955387Y-172867219D02*
X66860149Y-172867219D01*
X66860149Y-172867219D02*
X66764911Y-172819600D01*
X66764911Y-172819600D02*
X66717292Y-172771980D01*
X66717292Y-172771980D02*
X66669673Y-172676742D01*
X66669673Y-172676742D02*
X66622054Y-172486266D01*
X66622054Y-172486266D02*
X66622054Y-172248171D01*
X66622054Y-172248171D02*
X66669673Y-172057695D01*
X66669673Y-172057695D02*
X66717292Y-171962457D01*
X66717292Y-171962457D02*
X66764911Y-171914838D01*
X66764911Y-171914838D02*
X66860149Y-171867219D01*
X67479197Y-171867219D02*
X67812530Y-172867219D01*
X67812530Y-172867219D02*
X68145863Y-171867219D01*
X105517219Y-144439850D02*
X105517219Y-144344612D01*
X105517219Y-144344612D02*
X105564838Y-144249374D01*
X105564838Y-144249374D02*
X105612457Y-144201755D01*
X105612457Y-144201755D02*
X105707695Y-144154136D01*
X105707695Y-144154136D02*
X105898171Y-144106517D01*
X105898171Y-144106517D02*
X106136266Y-144106517D01*
X106136266Y-144106517D02*
X106326742Y-144154136D01*
X106326742Y-144154136D02*
X106421980Y-144201755D01*
X106421980Y-144201755D02*
X106469600Y-144249374D01*
X106469600Y-144249374D02*
X106517219Y-144344612D01*
X106517219Y-144344612D02*
X106517219Y-144439850D01*
X106517219Y-144439850D02*
X106469600Y-144535088D01*
X106469600Y-144535088D02*
X106421980Y-144582707D01*
X106421980Y-144582707D02*
X106326742Y-144630326D01*
X106326742Y-144630326D02*
X106136266Y-144677945D01*
X106136266Y-144677945D02*
X105898171Y-144677945D01*
X105898171Y-144677945D02*
X105707695Y-144630326D01*
X105707695Y-144630326D02*
X105612457Y-144582707D01*
X105612457Y-144582707D02*
X105564838Y-144535088D01*
X105564838Y-144535088D02*
X105517219Y-144439850D01*
X105517219Y-143820802D02*
X106517219Y-143487469D01*
X106517219Y-143487469D02*
X105517219Y-143154136D01*
X120067219Y-108039850D02*
X120067219Y-107944612D01*
X120067219Y-107944612D02*
X120114838Y-107849374D01*
X120114838Y-107849374D02*
X120162457Y-107801755D01*
X120162457Y-107801755D02*
X120257695Y-107754136D01*
X120257695Y-107754136D02*
X120448171Y-107706517D01*
X120448171Y-107706517D02*
X120686266Y-107706517D01*
X120686266Y-107706517D02*
X120876742Y-107754136D01*
X120876742Y-107754136D02*
X120971980Y-107801755D01*
X120971980Y-107801755D02*
X121019600Y-107849374D01*
X121019600Y-107849374D02*
X121067219Y-107944612D01*
X121067219Y-107944612D02*
X121067219Y-108039850D01*
X121067219Y-108039850D02*
X121019600Y-108135088D01*
X121019600Y-108135088D02*
X120971980Y-108182707D01*
X120971980Y-108182707D02*
X120876742Y-108230326D01*
X120876742Y-108230326D02*
X120686266Y-108277945D01*
X120686266Y-108277945D02*
X120448171Y-108277945D01*
X120448171Y-108277945D02*
X120257695Y-108230326D01*
X120257695Y-108230326D02*
X120162457Y-108182707D01*
X120162457Y-108182707D02*
X120114838Y-108135088D01*
X120114838Y-108135088D02*
X120067219Y-108039850D01*
X120067219Y-107420802D02*
X121067219Y-107087469D01*
X121067219Y-107087469D02*
X120067219Y-106754136D01*
X105912457Y-139977945D02*
X105864838Y-139930326D01*
X105864838Y-139930326D02*
X105817219Y-139835088D01*
X105817219Y-139835088D02*
X105817219Y-139596993D01*
X105817219Y-139596993D02*
X105864838Y-139501755D01*
X105864838Y-139501755D02*
X105912457Y-139454136D01*
X105912457Y-139454136D02*
X106007695Y-139406517D01*
X106007695Y-139406517D02*
X106102933Y-139406517D01*
X106102933Y-139406517D02*
X106245790Y-139454136D01*
X106245790Y-139454136D02*
X106817219Y-140025564D01*
X106817219Y-140025564D02*
X106817219Y-139406517D01*
X106150552Y-138549374D02*
X106817219Y-138549374D01*
X105769600Y-138787469D02*
X106483885Y-139025564D01*
X106483885Y-139025564D02*
X106483885Y-138406517D01*
X105817219Y-138168421D02*
X106817219Y-137835088D01*
X106817219Y-137835088D02*
X105817219Y-137501755D01*
X84067219Y-62589850D02*
X84067219Y-62494612D01*
X84067219Y-62494612D02*
X84114838Y-62399374D01*
X84114838Y-62399374D02*
X84162457Y-62351755D01*
X84162457Y-62351755D02*
X84257695Y-62304136D01*
X84257695Y-62304136D02*
X84448171Y-62256517D01*
X84448171Y-62256517D02*
X84686266Y-62256517D01*
X84686266Y-62256517D02*
X84876742Y-62304136D01*
X84876742Y-62304136D02*
X84971980Y-62351755D01*
X84971980Y-62351755D02*
X85019600Y-62399374D01*
X85019600Y-62399374D02*
X85067219Y-62494612D01*
X85067219Y-62494612D02*
X85067219Y-62589850D01*
X85067219Y-62589850D02*
X85019600Y-62685088D01*
X85019600Y-62685088D02*
X84971980Y-62732707D01*
X84971980Y-62732707D02*
X84876742Y-62780326D01*
X84876742Y-62780326D02*
X84686266Y-62827945D01*
X84686266Y-62827945D02*
X84448171Y-62827945D01*
X84448171Y-62827945D02*
X84257695Y-62780326D01*
X84257695Y-62780326D02*
X84162457Y-62732707D01*
X84162457Y-62732707D02*
X84114838Y-62685088D01*
X84114838Y-62685088D02*
X84067219Y-62589850D01*
X84067219Y-61970802D02*
X85067219Y-61637469D01*
X85067219Y-61637469D02*
X84067219Y-61304136D01*
X119717219Y-84689850D02*
X119717219Y-84594612D01*
X119717219Y-84594612D02*
X119764838Y-84499374D01*
X119764838Y-84499374D02*
X119812457Y-84451755D01*
X119812457Y-84451755D02*
X119907695Y-84404136D01*
X119907695Y-84404136D02*
X120098171Y-84356517D01*
X120098171Y-84356517D02*
X120336266Y-84356517D01*
X120336266Y-84356517D02*
X120526742Y-84404136D01*
X120526742Y-84404136D02*
X120621980Y-84451755D01*
X120621980Y-84451755D02*
X120669600Y-84499374D01*
X120669600Y-84499374D02*
X120717219Y-84594612D01*
X120717219Y-84594612D02*
X120717219Y-84689850D01*
X120717219Y-84689850D02*
X120669600Y-84785088D01*
X120669600Y-84785088D02*
X120621980Y-84832707D01*
X120621980Y-84832707D02*
X120526742Y-84880326D01*
X120526742Y-84880326D02*
X120336266Y-84927945D01*
X120336266Y-84927945D02*
X120098171Y-84927945D01*
X120098171Y-84927945D02*
X119907695Y-84880326D01*
X119907695Y-84880326D02*
X119812457Y-84832707D01*
X119812457Y-84832707D02*
X119764838Y-84785088D01*
X119764838Y-84785088D02*
X119717219Y-84689850D01*
X119717219Y-84070802D02*
X120717219Y-83737469D01*
X120717219Y-83737469D02*
X119717219Y-83404136D01*
X120917219Y-126406517D02*
X120917219Y-126977945D01*
X120917219Y-126692231D02*
X119917219Y-126692231D01*
X119917219Y-126692231D02*
X120060076Y-126787469D01*
X120060076Y-126787469D02*
X120155314Y-126882707D01*
X120155314Y-126882707D02*
X120202933Y-126977945D01*
X120012457Y-126025564D02*
X119964838Y-125977945D01*
X119964838Y-125977945D02*
X119917219Y-125882707D01*
X119917219Y-125882707D02*
X119917219Y-125644612D01*
X119917219Y-125644612D02*
X119964838Y-125549374D01*
X119964838Y-125549374D02*
X120012457Y-125501755D01*
X120012457Y-125501755D02*
X120107695Y-125454136D01*
X120107695Y-125454136D02*
X120202933Y-125454136D01*
X120202933Y-125454136D02*
X120345790Y-125501755D01*
X120345790Y-125501755D02*
X120917219Y-126073183D01*
X120917219Y-126073183D02*
X120917219Y-125454136D01*
X119917219Y-125168421D02*
X120917219Y-124835088D01*
X120917219Y-124835088D02*
X119917219Y-124501755D01*
X120267219Y-64739850D02*
X120267219Y-64644612D01*
X120267219Y-64644612D02*
X120314838Y-64549374D01*
X120314838Y-64549374D02*
X120362457Y-64501755D01*
X120362457Y-64501755D02*
X120457695Y-64454136D01*
X120457695Y-64454136D02*
X120648171Y-64406517D01*
X120648171Y-64406517D02*
X120886266Y-64406517D01*
X120886266Y-64406517D02*
X121076742Y-64454136D01*
X121076742Y-64454136D02*
X121171980Y-64501755D01*
X121171980Y-64501755D02*
X121219600Y-64549374D01*
X121219600Y-64549374D02*
X121267219Y-64644612D01*
X121267219Y-64644612D02*
X121267219Y-64739850D01*
X121267219Y-64739850D02*
X121219600Y-64835088D01*
X121219600Y-64835088D02*
X121171980Y-64882707D01*
X121171980Y-64882707D02*
X121076742Y-64930326D01*
X121076742Y-64930326D02*
X120886266Y-64977945D01*
X120886266Y-64977945D02*
X120648171Y-64977945D01*
X120648171Y-64977945D02*
X120457695Y-64930326D01*
X120457695Y-64930326D02*
X120362457Y-64882707D01*
X120362457Y-64882707D02*
X120314838Y-64835088D01*
X120314838Y-64835088D02*
X120267219Y-64739850D01*
X120267219Y-64120802D02*
X121267219Y-63787469D01*
X121267219Y-63787469D02*
X120267219Y-63454136D01*
X83567219Y-118754136D02*
X83567219Y-119230326D01*
X83567219Y-119230326D02*
X84043409Y-119277945D01*
X84043409Y-119277945D02*
X83995790Y-119230326D01*
X83995790Y-119230326D02*
X83948171Y-119135088D01*
X83948171Y-119135088D02*
X83948171Y-118896993D01*
X83948171Y-118896993D02*
X83995790Y-118801755D01*
X83995790Y-118801755D02*
X84043409Y-118754136D01*
X84043409Y-118754136D02*
X84138647Y-118706517D01*
X84138647Y-118706517D02*
X84376742Y-118706517D01*
X84376742Y-118706517D02*
X84471980Y-118754136D01*
X84471980Y-118754136D02*
X84519600Y-118801755D01*
X84519600Y-118801755D02*
X84567219Y-118896993D01*
X84567219Y-118896993D02*
X84567219Y-119135088D01*
X84567219Y-119135088D02*
X84519600Y-119230326D01*
X84519600Y-119230326D02*
X84471980Y-119277945D01*
X83567219Y-118420802D02*
X84567219Y-118087469D01*
X84567219Y-118087469D02*
X83567219Y-117754136D01*
X84567219Y-94289850D02*
X84567219Y-94194612D01*
X84567219Y-94194612D02*
X84614838Y-94099374D01*
X84614838Y-94099374D02*
X84662457Y-94051755D01*
X84662457Y-94051755D02*
X84757695Y-94004136D01*
X84757695Y-94004136D02*
X84948171Y-93956517D01*
X84948171Y-93956517D02*
X85186266Y-93956517D01*
X85186266Y-93956517D02*
X85376742Y-94004136D01*
X85376742Y-94004136D02*
X85471980Y-94051755D01*
X85471980Y-94051755D02*
X85519600Y-94099374D01*
X85519600Y-94099374D02*
X85567219Y-94194612D01*
X85567219Y-94194612D02*
X85567219Y-94289850D01*
X85567219Y-94289850D02*
X85519600Y-94385088D01*
X85519600Y-94385088D02*
X85471980Y-94432707D01*
X85471980Y-94432707D02*
X85376742Y-94480326D01*
X85376742Y-94480326D02*
X85186266Y-94527945D01*
X85186266Y-94527945D02*
X84948171Y-94527945D01*
X84948171Y-94527945D02*
X84757695Y-94480326D01*
X84757695Y-94480326D02*
X84662457Y-94432707D01*
X84662457Y-94432707D02*
X84614838Y-94385088D01*
X84614838Y-94385088D02*
X84567219Y-94289850D01*
X84567219Y-93670802D02*
X85567219Y-93337469D01*
X85567219Y-93337469D02*
X84567219Y-93004136D01*
X100460149Y-172067219D02*
X100555387Y-172067219D01*
X100555387Y-172067219D02*
X100650625Y-172114838D01*
X100650625Y-172114838D02*
X100698244Y-172162457D01*
X100698244Y-172162457D02*
X100745863Y-172257695D01*
X100745863Y-172257695D02*
X100793482Y-172448171D01*
X100793482Y-172448171D02*
X100793482Y-172686266D01*
X100793482Y-172686266D02*
X100745863Y-172876742D01*
X100745863Y-172876742D02*
X100698244Y-172971980D01*
X100698244Y-172971980D02*
X100650625Y-173019600D01*
X100650625Y-173019600D02*
X100555387Y-173067219D01*
X100555387Y-173067219D02*
X100460149Y-173067219D01*
X100460149Y-173067219D02*
X100364911Y-173019600D01*
X100364911Y-173019600D02*
X100317292Y-172971980D01*
X100317292Y-172971980D02*
X100269673Y-172876742D01*
X100269673Y-172876742D02*
X100222054Y-172686266D01*
X100222054Y-172686266D02*
X100222054Y-172448171D01*
X100222054Y-172448171D02*
X100269673Y-172257695D01*
X100269673Y-172257695D02*
X100317292Y-172162457D01*
X100317292Y-172162457D02*
X100364911Y-172114838D01*
X100364911Y-172114838D02*
X100460149Y-172067219D01*
X101079197Y-172067219D02*
X101412530Y-173067219D01*
X101412530Y-173067219D02*
X101745863Y-172067219D01*
X85286266Y-100130326D02*
X85286266Y-99368422D01*
X85667219Y-98368422D02*
X85667219Y-98939850D01*
X85667219Y-98654136D02*
X84667219Y-98654136D01*
X84667219Y-98654136D02*
X84810076Y-98749374D01*
X84810076Y-98749374D02*
X84905314Y-98844612D01*
X84905314Y-98844612D02*
X84952933Y-98939850D01*
X84762457Y-97987469D02*
X84714838Y-97939850D01*
X84714838Y-97939850D02*
X84667219Y-97844612D01*
X84667219Y-97844612D02*
X84667219Y-97606517D01*
X84667219Y-97606517D02*
X84714838Y-97511279D01*
X84714838Y-97511279D02*
X84762457Y-97463660D01*
X84762457Y-97463660D02*
X84857695Y-97416041D01*
X84857695Y-97416041D02*
X84952933Y-97416041D01*
X84952933Y-97416041D02*
X85095790Y-97463660D01*
X85095790Y-97463660D02*
X85667219Y-98035088D01*
X85667219Y-98035088D02*
X85667219Y-97416041D01*
X84667219Y-97130326D02*
X85667219Y-96796993D01*
X85667219Y-96796993D02*
X84667219Y-96463660D01*
X105693482Y-172967219D02*
X105122054Y-172967219D01*
X105407768Y-172967219D02*
X105407768Y-171967219D01*
X105407768Y-171967219D02*
X105312530Y-172110076D01*
X105312530Y-172110076D02*
X105217292Y-172205314D01*
X105217292Y-172205314D02*
X105122054Y-172252933D01*
X106074435Y-172062457D02*
X106122054Y-172014838D01*
X106122054Y-172014838D02*
X106217292Y-171967219D01*
X106217292Y-171967219D02*
X106455387Y-171967219D01*
X106455387Y-171967219D02*
X106550625Y-172014838D01*
X106550625Y-172014838D02*
X106598244Y-172062457D01*
X106598244Y-172062457D02*
X106645863Y-172157695D01*
X106645863Y-172157695D02*
X106645863Y-172252933D01*
X106645863Y-172252933D02*
X106598244Y-172395790D01*
X106598244Y-172395790D02*
X106026816Y-172967219D01*
X106026816Y-172967219D02*
X106645863Y-172967219D01*
X106931578Y-171967219D02*
X107264911Y-172967219D01*
X107264911Y-172967219D02*
X107598244Y-171967219D01*
X121067219Y-103406517D02*
X121067219Y-103977945D01*
X121067219Y-103692231D02*
X120067219Y-103692231D01*
X120067219Y-103692231D02*
X120210076Y-103787469D01*
X120210076Y-103787469D02*
X120305314Y-103882707D01*
X120305314Y-103882707D02*
X120352933Y-103977945D01*
X120162457Y-103025564D02*
X120114838Y-102977945D01*
X120114838Y-102977945D02*
X120067219Y-102882707D01*
X120067219Y-102882707D02*
X120067219Y-102644612D01*
X120067219Y-102644612D02*
X120114838Y-102549374D01*
X120114838Y-102549374D02*
X120162457Y-102501755D01*
X120162457Y-102501755D02*
X120257695Y-102454136D01*
X120257695Y-102454136D02*
X120352933Y-102454136D01*
X120352933Y-102454136D02*
X120495790Y-102501755D01*
X120495790Y-102501755D02*
X121067219Y-103073183D01*
X121067219Y-103073183D02*
X121067219Y-102454136D01*
X120067219Y-102168421D02*
X121067219Y-101835088D01*
X121067219Y-101835088D02*
X120067219Y-101501755D01*
X119917219Y-131189850D02*
X119917219Y-131094612D01*
X119917219Y-131094612D02*
X119964838Y-130999374D01*
X119964838Y-130999374D02*
X120012457Y-130951755D01*
X120012457Y-130951755D02*
X120107695Y-130904136D01*
X120107695Y-130904136D02*
X120298171Y-130856517D01*
X120298171Y-130856517D02*
X120536266Y-130856517D01*
X120536266Y-130856517D02*
X120726742Y-130904136D01*
X120726742Y-130904136D02*
X120821980Y-130951755D01*
X120821980Y-130951755D02*
X120869600Y-130999374D01*
X120869600Y-130999374D02*
X120917219Y-131094612D01*
X120917219Y-131094612D02*
X120917219Y-131189850D01*
X120917219Y-131189850D02*
X120869600Y-131285088D01*
X120869600Y-131285088D02*
X120821980Y-131332707D01*
X120821980Y-131332707D02*
X120726742Y-131380326D01*
X120726742Y-131380326D02*
X120536266Y-131427945D01*
X120536266Y-131427945D02*
X120298171Y-131427945D01*
X120298171Y-131427945D02*
X120107695Y-131380326D01*
X120107695Y-131380326D02*
X120012457Y-131332707D01*
X120012457Y-131332707D02*
X119964838Y-131285088D01*
X119964838Y-131285088D02*
X119917219Y-131189850D01*
X119917219Y-130570802D02*
X120917219Y-130237469D01*
X120917219Y-130237469D02*
X119917219Y-129904136D01*
X71943482Y-172917219D02*
X71372054Y-172917219D01*
X71657768Y-172917219D02*
X71657768Y-171917219D01*
X71657768Y-171917219D02*
X71562530Y-172060076D01*
X71562530Y-172060076D02*
X71467292Y-172155314D01*
X71467292Y-172155314D02*
X71372054Y-172202933D01*
X72324435Y-172012457D02*
X72372054Y-171964838D01*
X72372054Y-171964838D02*
X72467292Y-171917219D01*
X72467292Y-171917219D02*
X72705387Y-171917219D01*
X72705387Y-171917219D02*
X72800625Y-171964838D01*
X72800625Y-171964838D02*
X72848244Y-172012457D01*
X72848244Y-172012457D02*
X72895863Y-172107695D01*
X72895863Y-172107695D02*
X72895863Y-172202933D01*
X72895863Y-172202933D02*
X72848244Y-172345790D01*
X72848244Y-172345790D02*
X72276816Y-172917219D01*
X72276816Y-172917219D02*
X72895863Y-172917219D01*
X73181578Y-171917219D02*
X73514911Y-172917219D01*
X73514911Y-172917219D02*
X73848244Y-171917219D01*
X121217219Y-59856517D02*
X121217219Y-60427945D01*
X121217219Y-60142231D02*
X120217219Y-60142231D01*
X120217219Y-60142231D02*
X120360076Y-60237469D01*
X120360076Y-60237469D02*
X120455314Y-60332707D01*
X120455314Y-60332707D02*
X120502933Y-60427945D01*
X120312457Y-59475564D02*
X120264838Y-59427945D01*
X120264838Y-59427945D02*
X120217219Y-59332707D01*
X120217219Y-59332707D02*
X120217219Y-59094612D01*
X120217219Y-59094612D02*
X120264838Y-58999374D01*
X120264838Y-58999374D02*
X120312457Y-58951755D01*
X120312457Y-58951755D02*
X120407695Y-58904136D01*
X120407695Y-58904136D02*
X120502933Y-58904136D01*
X120502933Y-58904136D02*
X120645790Y-58951755D01*
X120645790Y-58951755D02*
X121217219Y-59523183D01*
X121217219Y-59523183D02*
X121217219Y-58904136D01*
X120217219Y-58618421D02*
X121217219Y-58285088D01*
X121217219Y-58285088D02*
X120217219Y-57951755D01*
X83767219Y-123289850D02*
X83767219Y-123194612D01*
X83767219Y-123194612D02*
X83814838Y-123099374D01*
X83814838Y-123099374D02*
X83862457Y-123051755D01*
X83862457Y-123051755D02*
X83957695Y-123004136D01*
X83957695Y-123004136D02*
X84148171Y-122956517D01*
X84148171Y-122956517D02*
X84386266Y-122956517D01*
X84386266Y-122956517D02*
X84576742Y-123004136D01*
X84576742Y-123004136D02*
X84671980Y-123051755D01*
X84671980Y-123051755D02*
X84719600Y-123099374D01*
X84719600Y-123099374D02*
X84767219Y-123194612D01*
X84767219Y-123194612D02*
X84767219Y-123289850D01*
X84767219Y-123289850D02*
X84719600Y-123385088D01*
X84719600Y-123385088D02*
X84671980Y-123432707D01*
X84671980Y-123432707D02*
X84576742Y-123480326D01*
X84576742Y-123480326D02*
X84386266Y-123527945D01*
X84386266Y-123527945D02*
X84148171Y-123527945D01*
X84148171Y-123527945D02*
X83957695Y-123480326D01*
X83957695Y-123480326D02*
X83862457Y-123432707D01*
X83862457Y-123432707D02*
X83814838Y-123385088D01*
X83814838Y-123385088D02*
X83767219Y-123289850D01*
X83767219Y-122670802D02*
X84767219Y-122337469D01*
X84767219Y-122337469D02*
X83767219Y-122004136D01*
X84967219Y-59756517D02*
X84967219Y-60327945D01*
X84967219Y-60042231D02*
X83967219Y-60042231D01*
X83967219Y-60042231D02*
X84110076Y-60137469D01*
X84110076Y-60137469D02*
X84205314Y-60232707D01*
X84205314Y-60232707D02*
X84252933Y-60327945D01*
X84062457Y-59375564D02*
X84014838Y-59327945D01*
X84014838Y-59327945D02*
X83967219Y-59232707D01*
X83967219Y-59232707D02*
X83967219Y-58994612D01*
X83967219Y-58994612D02*
X84014838Y-58899374D01*
X84014838Y-58899374D02*
X84062457Y-58851755D01*
X84062457Y-58851755D02*
X84157695Y-58804136D01*
X84157695Y-58804136D02*
X84252933Y-58804136D01*
X84252933Y-58804136D02*
X84395790Y-58851755D01*
X84395790Y-58851755D02*
X84967219Y-59423183D01*
X84967219Y-59423183D02*
X84967219Y-58804136D01*
X83967219Y-58518421D02*
X84967219Y-58185088D01*
X84967219Y-58185088D02*
X83967219Y-57851755D01*
X120867219Y-79506517D02*
X120867219Y-80077945D01*
X120867219Y-79792231D02*
X119867219Y-79792231D01*
X119867219Y-79792231D02*
X120010076Y-79887469D01*
X120010076Y-79887469D02*
X120105314Y-79982707D01*
X120105314Y-79982707D02*
X120152933Y-80077945D01*
X119962457Y-79125564D02*
X119914838Y-79077945D01*
X119914838Y-79077945D02*
X119867219Y-78982707D01*
X119867219Y-78982707D02*
X119867219Y-78744612D01*
X119867219Y-78744612D02*
X119914838Y-78649374D01*
X119914838Y-78649374D02*
X119962457Y-78601755D01*
X119962457Y-78601755D02*
X120057695Y-78554136D01*
X120057695Y-78554136D02*
X120152933Y-78554136D01*
X120152933Y-78554136D02*
X120295790Y-78601755D01*
X120295790Y-78601755D02*
X120867219Y-79173183D01*
X120867219Y-79173183D02*
X120867219Y-78554136D01*
X119867219Y-78268421D02*
X120867219Y-77935088D01*
X120867219Y-77935088D02*
X119867219Y-77601755D01*
X85367219Y-89706517D02*
X85367219Y-90277945D01*
X85367219Y-89992231D02*
X84367219Y-89992231D01*
X84367219Y-89992231D02*
X84510076Y-90087469D01*
X84510076Y-90087469D02*
X84605314Y-90182707D01*
X84605314Y-90182707D02*
X84652933Y-90277945D01*
X84462457Y-89325564D02*
X84414838Y-89277945D01*
X84414838Y-89277945D02*
X84367219Y-89182707D01*
X84367219Y-89182707D02*
X84367219Y-88944612D01*
X84367219Y-88944612D02*
X84414838Y-88849374D01*
X84414838Y-88849374D02*
X84462457Y-88801755D01*
X84462457Y-88801755D02*
X84557695Y-88754136D01*
X84557695Y-88754136D02*
X84652933Y-88754136D01*
X84652933Y-88754136D02*
X84795790Y-88801755D01*
X84795790Y-88801755D02*
X85367219Y-89373183D01*
X85367219Y-89373183D02*
X85367219Y-88754136D01*
X84367219Y-88468421D02*
X85367219Y-88135088D01*
X85367219Y-88135088D02*
X84367219Y-87801755D01*
D11*
X126738095Y-163954819D02*
X126738095Y-162954819D01*
X126738095Y-163431009D02*
X127309523Y-163431009D01*
X127309523Y-163954819D02*
X127309523Y-162954819D01*
X128214285Y-163288152D02*
X128214285Y-163954819D01*
X127976190Y-162907200D02*
X127738095Y-163621485D01*
X127738095Y-163621485D02*
X128357142Y-163621485D01*
X126738095Y-26454819D02*
X126738095Y-25454819D01*
X126738095Y-25931009D02*
X127309523Y-25931009D01*
X127309523Y-26454819D02*
X127309523Y-25454819D01*
X127738095Y-25550057D02*
X127785714Y-25502438D01*
X127785714Y-25502438D02*
X127880952Y-25454819D01*
X127880952Y-25454819D02*
X128119047Y-25454819D01*
X128119047Y-25454819D02*
X128214285Y-25502438D01*
X128214285Y-25502438D02*
X128261904Y-25550057D01*
X128261904Y-25550057D02*
X128309523Y-25645295D01*
X128309523Y-25645295D02*
X128309523Y-25740533D01*
X128309523Y-25740533D02*
X128261904Y-25883390D01*
X128261904Y-25883390D02*
X127690476Y-26454819D01*
X127690476Y-26454819D02*
X128309523Y-26454819D01*
X42688095Y-171554819D02*
X42688095Y-170554819D01*
X42688095Y-171031009D02*
X43259523Y-171031009D01*
X43259523Y-171554819D02*
X43259523Y-170554819D01*
X43640476Y-170554819D02*
X44259523Y-170554819D01*
X44259523Y-170554819D02*
X43926190Y-170935771D01*
X43926190Y-170935771D02*
X44069047Y-170935771D01*
X44069047Y-170935771D02*
X44164285Y-170983390D01*
X44164285Y-170983390D02*
X44211904Y-171031009D01*
X44211904Y-171031009D02*
X44259523Y-171126247D01*
X44259523Y-171126247D02*
X44259523Y-171364342D01*
X44259523Y-171364342D02*
X44211904Y-171459580D01*
X44211904Y-171459580D02*
X44164285Y-171507200D01*
X44164285Y-171507200D02*
X44069047Y-171554819D01*
X44069047Y-171554819D02*
X43783333Y-171554819D01*
X43783333Y-171554819D02*
X43688095Y-171507200D01*
X43688095Y-171507200D02*
X43640476Y-171459580D01*
X44238095Y-26454819D02*
X44238095Y-25454819D01*
X44238095Y-25931009D02*
X44809523Y-25931009D01*
X44809523Y-26454819D02*
X44809523Y-25454819D01*
X45809523Y-26454819D02*
X45238095Y-26454819D01*
X45523809Y-26454819D02*
X45523809Y-25454819D01*
X45523809Y-25454819D02*
X45428571Y-25597676D01*
X45428571Y-25597676D02*
X45333333Y-25692914D01*
X45333333Y-25692914D02*
X45238095Y-25740533D01*
D12*
%TO.C,J2*%
X61000000Y-75200000D02*
X60500000Y-76200000D01*
X60000000Y-75200000D02*
X61000000Y-75200000D01*
X60500000Y-76200000D02*
X60000000Y-75200000D01*
X62750000Y-76600000D02*
X62750000Y-86200000D01*
X53150000Y-76600000D02*
X62750000Y-76600000D01*
X62750000Y-86200000D02*
X53150000Y-86200000D01*
X53150000Y-86200000D02*
X53150000Y-76600000D01*
D13*
%TO.C,J9*%
X82924300Y-55153000D02*
X75075700Y-55153000D01*
X75075700Y-55153000D02*
X75075700Y-65567000D01*
X82924300Y-65567000D02*
X82924300Y-55153000D01*
X75075700Y-65567000D02*
X82924300Y-65567000D01*
D14*
X79381000Y-53375000D02*
G75*
G03*
X79381000Y-53375000I-381000J0D01*
G01*
D10*
%TO.C,PS1*%
X91760000Y-134000000D02*
X67960000Y-134000000D01*
X67960000Y-134000000D02*
X67960000Y-147700000D01*
D15*
X67460000Y-145960000D02*
X67460000Y-145960000D01*
X67360000Y-145960000D02*
X67360000Y-145960000D01*
D10*
X91760000Y-147700000D02*
X91760000Y-134000000D01*
X67960000Y-147700000D02*
X91760000Y-147700000D01*
D15*
X67360000Y-145960000D02*
G75*
G03*
X67460000Y-145960000I50000J0D01*
G01*
X67460000Y-145960000D02*
G75*
G03*
X67360000Y-145960000I-50000J0D01*
G01*
D13*
%TO.C,J6*%
X119224300Y-123093000D02*
X111375700Y-123093000D01*
X111375700Y-123093000D02*
X111375700Y-133507000D01*
X119224300Y-133507000D02*
X119224300Y-123093000D01*
X111375700Y-133507000D02*
X119224300Y-133507000D01*
D14*
X115681000Y-121315000D02*
G75*
G03*
X115681000Y-121315000I-381000J0D01*
G01*
D13*
%TO.C,J11*%
X118974300Y-56693000D02*
X111125700Y-56693000D01*
X111125700Y-56693000D02*
X111125700Y-67107000D01*
X118974300Y-67107000D02*
X118974300Y-56693000D01*
X111125700Y-67107000D02*
X118974300Y-67107000D01*
D14*
X115431000Y-54915000D02*
G75*
G03*
X115431000Y-54915000I-381000J0D01*
G01*
D12*
%TO.C,J1*%
X61090000Y-95610000D02*
X60590000Y-96610000D01*
X60090000Y-95610000D02*
X61090000Y-95610000D01*
X60590000Y-96610000D02*
X60090000Y-95610000D01*
X62840000Y-97010000D02*
X62840000Y-148610000D01*
X53240000Y-97010000D02*
X62840000Y-97010000D01*
X62840000Y-148610000D02*
X53240000Y-148610000D01*
X53240000Y-148610000D02*
X53240000Y-97010000D01*
%TO.C,J7*%
X60800000Y-53900000D02*
X60300000Y-54900000D01*
X59800000Y-53900000D02*
X60800000Y-53900000D01*
X60300000Y-54900000D02*
X59800000Y-53900000D01*
X62550000Y-55300000D02*
X62550000Y-64900000D01*
X52950000Y-55300000D02*
X62550000Y-55300000D01*
X62550000Y-64900000D02*
X52950000Y-64900000D01*
X52950000Y-64900000D02*
X52950000Y-55300000D01*
D15*
%TO.C,J5*%
X74350000Y-101270000D02*
X74350000Y-85430000D01*
X82550000Y-101270000D02*
X74350000Y-101270000D01*
X74350000Y-85430000D02*
X82550000Y-85430000D01*
X82550000Y-85430000D02*
X82550000Y-101270000D01*
D13*
%TO.C,J4*%
X74997000Y-171024300D02*
X74997000Y-163175700D01*
X74997000Y-163175700D02*
X64583000Y-163175700D01*
X64583000Y-171024300D02*
X74997000Y-171024300D01*
X64583000Y-163175700D02*
X64583000Y-171024300D01*
D14*
X77156000Y-167100000D02*
G75*
G03*
X77156000Y-167100000I-381000J0D01*
G01*
D13*
%TO.C,J3*%
X108647000Y-171234300D02*
X108647000Y-163385700D01*
X108647000Y-163385700D02*
X98233000Y-163385700D01*
X98233000Y-171234300D02*
X108647000Y-171234300D01*
X98233000Y-163385700D02*
X98233000Y-171234300D01*
D14*
X110806000Y-167310000D02*
G75*
G03*
X110806000Y-167310000I-381000J0D01*
G01*
D13*
%TO.C,J12*%
X82074300Y-114997900D02*
X74225700Y-114997900D01*
X74225700Y-114997900D02*
X74225700Y-125411900D01*
X82074300Y-125411900D02*
X82074300Y-114997900D01*
X74225700Y-125411900D02*
X82074300Y-125411900D01*
D14*
X78531000Y-113219900D02*
G75*
G03*
X78531000Y-113219900I-381000J0D01*
G01*
D13*
%TO.C,J10*%
X104364300Y-136193000D02*
X96515700Y-136193000D01*
X96515700Y-136193000D02*
X96515700Y-146607000D01*
X104364300Y-146607000D02*
X104364300Y-136193000D01*
X96515700Y-146607000D02*
X104364300Y-146607000D01*
D14*
X100821000Y-134415000D02*
G75*
G03*
X100821000Y-134415000I-381000J0D01*
G01*
D13*
%TO.C,J8*%
X119074300Y-100143000D02*
X111225700Y-100143000D01*
X111225700Y-100143000D02*
X111225700Y-110557000D01*
X119074300Y-110557000D02*
X119074300Y-100143000D01*
X111225700Y-110557000D02*
X119074300Y-110557000D01*
D14*
X115531000Y-98365000D02*
G75*
G03*
X115531000Y-98365000I-381000J0D01*
G01*
D13*
%TO.C,J13*%
X118874300Y-76053000D02*
X111025700Y-76053000D01*
X111025700Y-76053000D02*
X111025700Y-86467000D01*
X118874300Y-86467000D02*
X118874300Y-76053000D01*
X111025700Y-86467000D02*
X118874300Y-86467000D01*
D14*
X115331000Y-74275000D02*
G75*
G03*
X115331000Y-74275000I-381000J0D01*
G01*
%TD*%
M02*
