%TF.GenerationSoftware,KiCad,Pcbnew,7.0.8-7.0.8~ubuntu22.04.1*%
%TF.CreationDate,2024-12-17T15:10:34+01:00*%
%TF.ProjectId,Bread70,42726561-6437-4302-9e6b-696361645f70,rev?*%
%TF.SameCoordinates,Original*%
%TF.FileFunction,Paste,Top*%
%TF.FilePolarity,Positive*%
%FSLAX46Y46*%
G04 Gerber Fmt 4.6, Leading zero omitted, Abs format (unit mm)*
G04 Created by KiCad (PCBNEW 7.0.8-7.0.8~ubuntu22.04.1) date 2024-12-17 15:10:34*
%MOMM*%
%LPD*%
G01*
G04 APERTURE LIST*
G04 Aperture macros list*
%AMRoundRect*
0 Rectangle with rounded corners*
0 $1 Rounding radius*
0 $2 $3 $4 $5 $6 $7 $8 $9 X,Y pos of 4 corners*
0 Add a 4 corners polygon primitive as box body*
4,1,4,$2,$3,$4,$5,$6,$7,$8,$9,$2,$3,0*
0 Add four circle primitives for the rounded corners*
1,1,$1+$1,$2,$3*
1,1,$1+$1,$4,$5*
1,1,$1+$1,$6,$7*
1,1,$1+$1,$8,$9*
0 Add four rect primitives between the rounded corners*
20,1,$1+$1,$2,$3,$4,$5,0*
20,1,$1+$1,$4,$5,$6,$7,0*
20,1,$1+$1,$6,$7,$8,$9,0*
20,1,$1+$1,$8,$9,$2,$3,0*%
%AMRotRect*
0 Rectangle, with rotation*
0 The origin of the aperture is its center*
0 $1 length*
0 $2 width*
0 $3 Rotation angle, in degrees counterclockwise*
0 Add horizontal line*
21,1,$1,$2,0,0,$3*%
%AMOutline5P*
0 Free polygon, 5 corners , with rotation*
0 The origin of the aperture is its center*
0 number of corners: always 5*
0 $1 to $10 corner X, Y*
0 $11 Rotation angle, in degrees counterclockwise*
0 create outline with 5 corners*
4,1,5,$1,$2,$3,$4,$5,$6,$7,$8,$9,$10,$1,$2,$11*%
%AMOutline6P*
0 Free polygon, 6 corners , with rotation*
0 The origin of the aperture is its center*
0 number of corners: always 6*
0 $1 to $12 corner X, Y*
0 $13 Rotation angle, in degrees counterclockwise*
0 create outline with 6 corners*
4,1,6,$1,$2,$3,$4,$5,$6,$7,$8,$9,$10,$11,$12,$1,$2,$13*%
%AMOutline7P*
0 Free polygon, 7 corners , with rotation*
0 The origin of the aperture is its center*
0 number of corners: always 7*
0 $1 to $14 corner X, Y*
0 $15 Rotation angle, in degrees counterclockwise*
0 create outline with 7 corners*
4,1,7,$1,$2,$3,$4,$5,$6,$7,$8,$9,$10,$11,$12,$13,$14,$1,$2,$15*%
%AMOutline8P*
0 Free polygon, 8 corners , with rotation*
0 The origin of the aperture is its center*
0 number of corners: always 8*
0 $1 to $16 corner X, Y*
0 $17 Rotation angle, in degrees counterclockwise*
0 create outline with 8 corners*
4,1,8,$1,$2,$3,$4,$5,$6,$7,$8,$9,$10,$11,$12,$13,$14,$15,$16,$1,$2,$17*%
%AMFreePoly0*
4,1,48,0.180784,0.266839,0.197812,0.266839,0.211588,0.256830,0.227783,0.251568,0.237791,0.237791,0.251568,0.227783,0.256830,0.211588,0.266839,0.197812,0.266839,0.180783,0.272101,0.164589,0.272101,-0.075523,0.269420,-0.083774,0.270777,-0.092342,0.259348,-0.114772,0.251568,-0.138717,0.244549,-0.143816,0.240611,-0.151546,0.151545,-0.240611,0.143816,-0.244548,0.138717,-0.251568,
0.114771,-0.259348,0.092342,-0.270777,0.083774,-0.269420,0.075523,-0.272101,-0.164589,-0.272101,-0.180784,-0.266839,-0.197812,-0.266839,-0.211588,-0.256830,-0.227783,-0.251568,-0.237791,-0.237791,-0.251568,-0.227783,-0.256830,-0.211588,-0.266839,-0.197812,-0.266839,-0.180783,-0.272101,-0.164589,-0.272101,0.164589,-0.266839,0.180783,-0.266839,0.197812,-0.256830,0.211588,-0.251568,0.227783,
-0.237791,0.237791,-0.227783,0.251568,-0.211588,0.256830,-0.197812,0.266839,-0.180784,0.266839,-0.164589,0.272101,0.164589,0.272101,0.180784,0.266839,0.180784,0.266839,$1*%
%AMFreePoly1*
4,1,51,0.121446,0.402192,0.123663,0.402787,0.127059,0.401203,0.145390,0.397971,0.159646,0.386008,0.176512,0.378144,0.247132,0.307525,0.250167,0.303189,0.252157,0.302041,0.253439,0.298517,0.264114,0.283273,0.265735,0.264733,0.272101,0.247246,0.272101,-0.247246,0.271181,-0.252459,0.271776,-0.254677,0.270191,-0.258074,0.266960,-0.276402,0.254996,-0.290658,0.247132,-0.307525,
0.176512,-0.378144,0.172177,-0.381179,0.171029,-0.383168,0.167504,-0.384450,0.152260,-0.395125,0.133722,-0.396746,0.116234,-0.403112,-0.186855,-0.403112,-0.197928,-0.401159,-0.201658,-0.401817,-0.204937,-0.399923,-0.216011,-0.397971,-0.232977,-0.383734,-0.252157,-0.372661,-0.254787,-0.365433,-0.260680,-0.360489,-0.264525,-0.338677,-0.272101,-0.317866,-0.272101,0.317866,-0.270148,0.328939,
-0.270806,0.332669,-0.268912,0.335948,-0.266960,0.347022,-0.252723,0.363988,-0.241650,0.383168,-0.234422,0.385798,-0.229478,0.391691,-0.207666,0.395536,-0.186855,0.403112,0.116234,0.403112,0.121446,0.402192,0.121446,0.402192,$1*%
%AMFreePoly2*
4,1,48,0.083774,0.269420,0.092342,0.270777,0.114771,0.259348,0.138717,0.251568,0.143816,0.244548,0.151545,0.240611,0.240611,0.151546,0.244549,0.143816,0.251568,0.138717,0.259348,0.114772,0.270777,0.092342,0.269420,0.083774,0.272101,0.075523,0.272101,-0.164589,0.266839,-0.180783,0.266839,-0.197812,0.256830,-0.211588,0.251568,-0.227783,0.237791,-0.237791,0.227783,-0.251568,
0.211588,-0.256830,0.197812,-0.266839,0.180784,-0.266839,0.164589,-0.272101,-0.164589,-0.272101,-0.180784,-0.266839,-0.197812,-0.266839,-0.211588,-0.256830,-0.227783,-0.251568,-0.237791,-0.237791,-0.251568,-0.227783,-0.256830,-0.211588,-0.266839,-0.197812,-0.266839,-0.180783,-0.272101,-0.164589,-0.272101,0.164589,-0.266839,0.180783,-0.266839,0.197812,-0.256830,0.211588,-0.251568,0.227783,
-0.237791,0.237791,-0.227783,0.251568,-0.211588,0.256830,-0.197812,0.266839,-0.180784,0.266839,-0.164589,0.272101,0.075523,0.272101,0.083774,0.269420,0.083774,0.269420,$1*%
%AMFreePoly3*
4,1,51,0.328939,0.270148,0.332669,0.270806,0.335948,0.268912,0.347022,0.266960,0.363988,0.252723,0.383168,0.241650,0.385798,0.234422,0.391691,0.229478,0.395536,0.207666,0.403112,0.186855,0.403112,-0.116234,0.402192,-0.121446,0.402787,-0.123663,0.401203,-0.127059,0.397971,-0.145390,0.386008,-0.159646,0.378144,-0.176512,0.307524,-0.247133,0.303189,-0.250168,0.302041,-0.252157,
0.298517,-0.253439,0.283273,-0.264114,0.264733,-0.265735,0.247246,-0.272101,-0.247246,-0.272101,-0.252459,-0.271181,-0.254677,-0.271776,-0.258074,-0.270191,-0.276402,-0.266960,-0.290658,-0.254996,-0.307525,-0.247132,-0.378144,-0.176512,-0.381179,-0.172177,-0.383168,-0.171029,-0.384450,-0.167504,-0.395125,-0.152260,-0.396746,-0.133722,-0.403112,-0.116234,-0.403112,0.186855,-0.401159,0.197928,
-0.401817,0.201658,-0.399923,0.204937,-0.397971,0.216011,-0.383734,0.232977,-0.372661,0.252157,-0.365433,0.254787,-0.360489,0.260680,-0.338677,0.264525,-0.317866,0.272101,0.317866,0.272101,0.328939,0.270148,0.328939,0.270148,$1*%
%AMFreePoly4*
4,1,51,0.252458,0.271181,0.254676,0.271776,0.258073,0.270191,0.276402,0.266960,0.290658,0.254997,0.307524,0.247133,0.378144,0.176512,0.381179,0.172177,0.383168,0.171029,0.384450,0.167504,0.395125,0.152260,0.396746,0.133721,0.403112,0.116234,0.403112,-0.186855,0.401159,-0.197928,0.401817,-0.201658,0.399923,-0.204937,0.397971,-0.216011,0.383734,-0.232977,0.372661,-0.252157,
0.365433,-0.254787,0.360489,-0.260680,0.338677,-0.264525,0.317866,-0.272101,-0.317866,-0.272101,-0.328939,-0.270148,-0.332669,-0.270806,-0.335948,-0.268912,-0.347022,-0.266960,-0.363988,-0.252723,-0.383168,-0.241650,-0.385798,-0.234422,-0.391691,-0.229478,-0.395536,-0.207666,-0.403112,-0.186855,-0.403112,0.116234,-0.402192,0.121446,-0.402787,0.123663,-0.401203,0.127059,-0.397971,0.145390,
-0.386008,0.159646,-0.378144,0.176512,-0.307525,0.247132,-0.303189,0.250167,-0.302041,0.252157,-0.298517,0.253439,-0.283273,0.264114,-0.264733,0.265735,-0.247246,0.272101,0.247246,0.272101,0.252458,0.271181,0.252458,0.271181,$1*%
%AMFreePoly5*
4,1,48,0.180784,0.266839,0.197812,0.266839,0.211588,0.256830,0.227783,0.251568,0.237791,0.237791,0.251568,0.227783,0.256830,0.211588,0.266839,0.197812,0.266839,0.180783,0.272101,0.164589,0.272101,-0.164589,0.266839,-0.180783,0.266839,-0.197812,0.256830,-0.211588,0.251568,-0.227783,0.237791,-0.237791,0.227783,-0.251568,0.211588,-0.256830,0.197812,-0.266839,0.180784,-0.266839,
0.164589,-0.272101,-0.075523,-0.272101,-0.083774,-0.269420,-0.092342,-0.270777,-0.114772,-0.259348,-0.138717,-0.251568,-0.143816,-0.244549,-0.151546,-0.240611,-0.240611,-0.151545,-0.244548,-0.143816,-0.251568,-0.138717,-0.259348,-0.114771,-0.270777,-0.092342,-0.269420,-0.083774,-0.272101,-0.075523,-0.272101,0.164589,-0.266839,0.180783,-0.266839,0.197812,-0.256830,0.211588,-0.251568,0.227783,
-0.237791,0.237791,-0.227783,0.251568,-0.211588,0.256830,-0.197812,0.266839,-0.180784,0.266839,-0.164589,0.272101,0.164589,0.272101,0.180784,0.266839,0.180784,0.266839,$1*%
%AMFreePoly6*
4,1,51,0.197928,0.401159,0.201658,0.401817,0.204937,0.399923,0.216011,0.397971,0.232977,0.383734,0.252157,0.372661,0.254787,0.365433,0.260680,0.360489,0.264525,0.338677,0.272101,0.317866,0.272101,-0.317866,0.270148,-0.328939,0.270806,-0.332669,0.268912,-0.335948,0.266960,-0.347022,0.252723,-0.363988,0.241650,-0.383168,0.234422,-0.385798,0.229478,-0.391691,0.207666,-0.395536,
0.186855,-0.403112,-0.116234,-0.403112,-0.121446,-0.402192,-0.123663,-0.402787,-0.127059,-0.401203,-0.145390,-0.397971,-0.159646,-0.386008,-0.176512,-0.378144,-0.247133,-0.307524,-0.250168,-0.303189,-0.252157,-0.302041,-0.253439,-0.298517,-0.264114,-0.283273,-0.265735,-0.264733,-0.272101,-0.247246,-0.272101,0.247246,-0.271181,0.252458,-0.271776,0.254676,-0.270191,0.258073,-0.266960,0.276402,
-0.254997,0.290658,-0.247133,0.307524,-0.176512,0.378144,-0.172177,0.381179,-0.171029,0.383168,-0.167504,0.384450,-0.152260,0.395125,-0.133721,0.396746,-0.116234,0.403112,0.186855,0.403112,0.197928,0.401159,0.197928,0.401159,$1*%
%AMFreePoly7*
4,1,48,0.180784,0.266839,0.197812,0.266839,0.211588,0.256830,0.227783,0.251568,0.237791,0.237791,0.251568,0.227783,0.256830,0.211588,0.266839,0.197812,0.266839,0.180783,0.272101,0.164589,0.272101,-0.164589,0.266839,-0.180783,0.266839,-0.197812,0.256830,-0.211588,0.251568,-0.227783,0.237791,-0.237791,0.227783,-0.251568,0.211588,-0.256830,0.197812,-0.266839,0.180784,-0.266839,
0.164589,-0.272101,-0.164589,-0.272101,-0.180784,-0.266839,-0.197812,-0.266839,-0.211588,-0.256830,-0.227783,-0.251568,-0.237791,-0.237791,-0.251568,-0.227783,-0.256830,-0.211588,-0.266839,-0.197812,-0.266839,-0.180783,-0.272101,-0.164589,-0.272101,0.075523,-0.269420,0.083774,-0.270777,0.092342,-0.259348,0.114771,-0.251568,0.138717,-0.244548,0.143816,-0.240611,0.151545,-0.151546,0.240611,
-0.143816,0.244549,-0.138717,0.251568,-0.114772,0.259348,-0.092342,0.270777,-0.083774,0.269420,-0.075523,0.272101,0.164589,0.272101,0.180784,0.266839,0.180784,0.266839,$1*%
G04 Aperture macros list end*
%ADD10RoundRect,0.250000X0.325000X1.100000X-0.325000X1.100000X-0.325000X-1.100000X0.325000X-1.100000X0*%
%ADD11RoundRect,0.135000X0.135000X0.185000X-0.135000X0.185000X-0.135000X-0.185000X0.135000X-0.185000X0*%
%ADD12RoundRect,0.200000X0.200000X0.275000X-0.200000X0.275000X-0.200000X-0.275000X0.200000X-0.275000X0*%
%ADD13RoundRect,0.250000X1.950000X1.000000X-1.950000X1.000000X-1.950000X-1.000000X1.950000X-1.000000X0*%
%ADD14RoundRect,0.200000X-0.200000X-0.275000X0.200000X-0.275000X0.200000X0.275000X-0.200000X0.275000X0*%
%ADD15RoundRect,0.140000X-0.170000X0.140000X-0.170000X-0.140000X0.170000X-0.140000X0.170000X0.140000X0*%
%ADD16RoundRect,0.218750X0.256250X-0.218750X0.256250X0.218750X-0.256250X0.218750X-0.256250X-0.218750X0*%
%ADD17RoundRect,0.200000X0.275000X-0.200000X0.275000X0.200000X-0.275000X0.200000X-0.275000X-0.200000X0*%
%ADD18RoundRect,0.250000X0.650000X-0.325000X0.650000X0.325000X-0.650000X0.325000X-0.650000X-0.325000X0*%
%ADD19R,0.250000X0.750000*%
%ADD20RoundRect,0.060000X0.290000X0.090000X-0.290000X0.090000X-0.290000X-0.090000X0.290000X-0.090000X0*%
%ADD21RoundRect,0.050000X0.450000X0.750000X-0.450000X0.750000X-0.450000X-0.750000X0.450000X-0.750000X0*%
%ADD22RoundRect,0.225000X-0.225000X-0.250000X0.225000X-0.250000X0.225000X0.250000X-0.225000X0.250000X0*%
%ADD23RoundRect,0.225000X0.250000X-0.225000X0.250000X0.225000X-0.250000X0.225000X-0.250000X-0.225000X0*%
%ADD24RoundRect,0.225000X0.225000X0.250000X-0.225000X0.250000X-0.225000X-0.250000X0.225000X-0.250000X0*%
%ADD25RoundRect,0.062500X-0.062500X0.337500X-0.062500X-0.337500X0.062500X-0.337500X0.062500X0.337500X0*%
%ADD26RoundRect,0.062500X-0.337500X-0.062500X0.337500X-0.062500X0.337500X0.062500X-0.337500X0.062500X0*%
%ADD27RoundRect,0.062500X0.062500X-0.337500X0.062500X0.337500X-0.062500X0.337500X-0.062500X-0.337500X0*%
%ADD28RoundRect,0.062500X0.337500X0.062500X-0.337500X0.062500X-0.337500X-0.062500X0.337500X-0.062500X0*%
%ADD29R,6.600000X6.600000*%
%ADD30RoundRect,0.075000X-0.662500X-0.075000X0.662500X-0.075000X0.662500X0.075000X-0.662500X0.075000X0*%
%ADD31RoundRect,0.075000X-0.075000X-0.662500X0.075000X-0.662500X0.075000X0.662500X-0.075000X0.662500X0*%
%ADD32R,1.450000X0.300000*%
%ADD33R,0.640000X2.540000*%
%ADD34R,0.640000X4.700000*%
%ADD35RoundRect,0.250000X-0.325000X-0.650000X0.325000X-0.650000X0.325000X0.650000X-0.325000X0.650000X0*%
%ADD36R,1.020000X0.890000*%
%ADD37RoundRect,0.250000X-1.100000X0.325000X-1.100000X-0.325000X1.100000X-0.325000X1.100000X0.325000X0*%
%ADD38RoundRect,0.172500X-0.332500X0.172500X-0.332500X-0.172500X0.332500X-0.172500X0.332500X0.172500X0*%
%ADD39RoundRect,0.062500X-0.062500X0.375000X-0.062500X-0.375000X0.062500X-0.375000X0.062500X0.375000X0*%
%ADD40RoundRect,0.250000X-0.650000X0.325000X-0.650000X-0.325000X0.650000X-0.325000X0.650000X0.325000X0*%
%ADD41RoundRect,0.225000X-0.250000X0.225000X-0.250000X-0.225000X0.250000X-0.225000X0.250000X0.225000X0*%
%ADD42RoundRect,0.250000X0.425000X-0.450000X0.425000X0.450000X-0.425000X0.450000X-0.425000X-0.450000X0*%
%ADD43R,0.750000X0.600000*%
%ADD44R,0.600000X0.700000*%
%ADD45RoundRect,0.250000X-0.475000X0.250000X-0.475000X-0.250000X0.475000X-0.250000X0.475000X0.250000X0*%
%ADD46RoundRect,0.250000X0.250000X0.475000X-0.250000X0.475000X-0.250000X-0.475000X0.250000X-0.475000X0*%
%ADD47RoundRect,0.150000X-0.825000X-0.150000X0.825000X-0.150000X0.825000X0.150000X-0.825000X0.150000X0*%
%ADD48R,0.600000X0.620000*%
%ADD49RoundRect,0.150000X-0.512500X-0.150000X0.512500X-0.150000X0.512500X0.150000X-0.512500X0.150000X0*%
%ADD50R,0.620000X0.600000*%
%ADD51R,0.400000X0.650000*%
%ADD52RoundRect,0.140000X0.140000X0.170000X-0.140000X0.170000X-0.140000X-0.170000X0.140000X-0.170000X0*%
%ADD53RoundRect,0.135000X-0.185000X0.135000X-0.185000X-0.135000X0.185000X-0.135000X0.185000X0.135000X0*%
%ADD54RoundRect,0.250000X-0.250000X-0.475000X0.250000X-0.475000X0.250000X0.475000X-0.250000X0.475000X0*%
%ADD55RoundRect,0.135000X0.185000X-0.135000X0.185000X0.135000X-0.185000X0.135000X-0.185000X-0.135000X0*%
%ADD56RoundRect,0.200000X-0.275000X0.200000X-0.275000X-0.200000X0.275000X-0.200000X0.275000X0.200000X0*%
%ADD57RoundRect,0.250000X0.450000X0.425000X-0.450000X0.425000X-0.450000X-0.425000X0.450000X-0.425000X0*%
%ADD58R,1.400000X0.760000*%
%ADD59R,0.457000X1.448000*%
%ADD60R,1.550000X1.300000*%
%ADD61R,2.540000X1.650000*%
%ADD62RoundRect,0.135000X-0.135000X-0.185000X0.135000X-0.185000X0.135000X0.185000X-0.135000X0.185000X0*%
%ADD63R,1.500000X5.080000*%
%ADD64R,1.850000X1.100000*%
%ADD65R,0.250000X0.700000*%
%ADD66R,0.700000X0.250000*%
%ADD67Outline5P,-1.800000X2.260000X-1.260000X2.800000X1.800000X2.800000X1.800000X-2.800000X-1.800000X-2.800000X90.000000*%
%ADD68R,2.180000X1.620000*%
%ADD69R,0.900000X0.900000*%
%ADD70RoundRect,0.087500X0.087500X-0.465000X0.087500X0.465000X-0.087500X0.465000X-0.087500X-0.465000X0*%
%ADD71RoundRect,0.087500X0.465000X-0.087500X0.465000X0.087500X-0.465000X0.087500X-0.465000X-0.087500X0*%
%ADD72RoundRect,0.140000X0.170000X-0.140000X0.170000X0.140000X-0.170000X0.140000X-0.170000X-0.140000X0*%
%ADD73RoundRect,0.250000X-0.425000X0.450000X-0.425000X-0.450000X0.425000X-0.450000X0.425000X0.450000X0*%
%ADD74R,1.200000X0.600000*%
%ADD75RoundRect,0.218750X0.218750X0.256250X-0.218750X0.256250X-0.218750X-0.256250X0.218750X-0.256250X0*%
%ADD76RoundRect,0.135000X0.226274X0.035355X0.035355X0.226274X-0.226274X-0.035355X-0.035355X-0.226274X0*%
%ADD77RoundRect,0.250000X-0.450000X-0.425000X0.450000X-0.425000X0.450000X0.425000X-0.450000X0.425000X0*%
%ADD78R,0.800000X0.250000*%
%ADD79R,0.250000X0.800000*%
%ADD80R,3.900000X3.900000*%
%ADD81RotRect,1.400000X1.200000X45.000000*%
%ADD82RoundRect,0.250000X1.100000X-0.325000X1.100000X0.325000X-1.100000X0.325000X-1.100000X-0.325000X0*%
%ADD83RoundRect,0.250000X-0.325000X-1.100000X0.325000X-1.100000X0.325000X1.100000X-0.325000X1.100000X0*%
%ADD84RoundRect,0.140000X-0.140000X-0.170000X0.140000X-0.170000X0.140000X0.170000X-0.140000X0.170000X0*%
%ADD85R,0.300000X0.800000*%
%ADD86R,2.600000X1.800000*%
%ADD87R,1.310000X0.650000*%
%ADD88R,1.310000X0.600000*%
%ADD89R,4.700000X1.180000*%
%ADD90RoundRect,0.250000X0.412500X0.925000X-0.412500X0.925000X-0.412500X-0.925000X0.412500X-0.925000X0*%
%ADD91RoundRect,0.250000X0.875000X1.025000X-0.875000X1.025000X-0.875000X-1.025000X0.875000X-1.025000X0*%
%ADD92R,5.080000X1.500000*%
%ADD93RoundRect,0.145000X-0.145000X-0.205000X0.145000X-0.205000X0.145000X0.205000X-0.145000X0.205000X0*%
%ADD94RoundRect,0.062500X-0.287500X-0.062500X0.287500X-0.062500X0.287500X0.062500X-0.287500X0.062500X0*%
%ADD95R,3.500000X1.500000*%
%ADD96RoundRect,0.172500X0.332500X-0.172500X0.332500X0.172500X-0.332500X0.172500X-0.332500X-0.172500X0*%
%ADD97RoundRect,0.062500X0.062500X-0.375000X0.062500X0.375000X-0.062500X0.375000X-0.062500X-0.375000X0*%
%ADD98RoundRect,0.250000X0.475000X-0.250000X0.475000X0.250000X-0.475000X0.250000X-0.475000X-0.250000X0*%
%ADD99RoundRect,0.250000X-0.320000X-0.320000X0.320000X-0.320000X0.320000X0.320000X-0.320000X0.320000X0*%
%ADD100RoundRect,0.062500X-0.062500X-0.337500X0.062500X-0.337500X0.062500X0.337500X-0.062500X0.337500X0*%
%ADD101RoundRect,0.211634X-0.211634X-0.211634X0.211634X-0.211634X0.211634X0.211634X-0.211634X0.211634X0*%
%ADD102RoundRect,0.201557X-0.221711X-0.201556X0.221711X-0.201556X0.221711X0.201556X-0.221711X0.201556X0*%
%ADD103RoundRect,0.201557X-0.201556X-0.221711X0.201556X-0.221711X0.201556X0.221711X-0.201556X0.221711X0*%
%ADD104RoundRect,0.201557X-0.201556X-0.201556X0.201556X-0.201556X0.201556X0.201556X-0.201556X0.201556X0*%
%ADD105RoundRect,0.062500X-0.475000X-0.062500X0.475000X-0.062500X0.475000X0.062500X-0.475000X0.062500X0*%
%ADD106RoundRect,0.062500X-0.062500X-0.475000X0.062500X-0.475000X0.062500X0.475000X-0.062500X0.475000X0*%
%ADD107R,1.470000X0.970000*%
%ADD108FreePoly0,0.000000*%
%ADD109FreePoly1,0.000000*%
%ADD110FreePoly2,0.000000*%
%ADD111FreePoly3,0.000000*%
%ADD112FreePoly4,0.000000*%
%ADD113FreePoly5,0.000000*%
%ADD114FreePoly6,0.000000*%
%ADD115FreePoly7,0.000000*%
%ADD116RoundRect,0.060000X-0.315000X-0.060000X0.315000X-0.060000X0.315000X0.060000X-0.315000X0.060000X0*%
%ADD117RoundRect,0.060000X-0.060000X-0.315000X0.060000X-0.315000X0.060000X0.315000X-0.060000X0.315000X0*%
%ADD118RoundRect,0.172500X-0.172500X-0.332500X0.172500X-0.332500X0.172500X0.332500X-0.172500X0.332500X0*%
%ADD119RoundRect,0.062500X-0.375000X-0.062500X0.375000X-0.062500X0.375000X0.062500X-0.375000X0.062500X0*%
%ADD120RoundRect,0.325000X0.325000X0.325000X-0.325000X0.325000X-0.325000X-0.325000X0.325000X-0.325000X0*%
%ADD121RoundRect,0.062500X0.237500X0.062500X-0.237500X0.062500X-0.237500X-0.062500X0.237500X-0.062500X0*%
%ADD122RoundRect,0.062500X0.062500X0.237500X-0.062500X0.237500X-0.062500X-0.237500X0.062500X-0.237500X0*%
%ADD123RoundRect,0.087500X0.465000X0.087500X-0.465000X0.087500X-0.465000X-0.087500X0.465000X-0.087500X0*%
%ADD124RoundRect,0.087500X0.087500X0.465000X-0.087500X0.465000X-0.087500X-0.465000X0.087500X-0.465000X0*%
%ADD125RoundRect,0.150000X-0.150000X0.512500X-0.150000X-0.512500X0.150000X-0.512500X0.150000X0.512500X0*%
G04 APERTURE END LIST*
D10*
%TO.C,C23*%
X150520000Y-101382500D03*
X147570000Y-101382500D03*
%TD*%
D11*
%TO.C,R15*%
X158220000Y-33308037D03*
X157200000Y-33308037D03*
%TD*%
D12*
%TO.C,R67*%
X208900000Y-110600000D03*
X207250000Y-110600000D03*
%TD*%
D13*
%TO.C,C183*%
X168650000Y-132400000D03*
X160250000Y-132400000D03*
%TD*%
D14*
%TO.C,R84*%
X217400000Y-139950000D03*
X219050000Y-139950000D03*
%TD*%
D15*
%TO.C,C19*%
X133335000Y-26000000D03*
X133335000Y-26960000D03*
%TD*%
D16*
%TO.C,D1*%
X186000000Y-59387500D03*
X186000000Y-57812500D03*
%TD*%
D17*
%TO.C,JP7*%
X223100000Y-141475000D03*
X223100000Y-139825000D03*
%TD*%
D18*
%TO.C,C252*%
X185410000Y-124975000D03*
X185410000Y-122025000D03*
%TD*%
D17*
%TO.C,R88*%
X203699999Y-103060001D03*
X203699999Y-101410001D03*
%TD*%
D19*
%TO.C,U3*%
X162900000Y-35590000D03*
X163400000Y-35590000D03*
X163900000Y-35590000D03*
X164400000Y-35590000D03*
X164400000Y-32490000D03*
X163900000Y-32490000D03*
X163400000Y-32490000D03*
X162900000Y-32490000D03*
%TD*%
D20*
%TO.C,U17*%
X226650000Y-129850000D03*
X226650000Y-129200000D03*
X226650000Y-128550000D03*
X224650000Y-128550000D03*
X224650000Y-129200000D03*
X224650000Y-129850000D03*
D21*
X225650000Y-129200000D03*
%TD*%
D14*
%TO.C,R36*%
X177791001Y-70469503D03*
X179441001Y-70469503D03*
%TD*%
D22*
%TO.C,C244*%
X228530001Y-93400000D03*
X230080001Y-93400000D03*
%TD*%
D23*
%TO.C,C263*%
X185100000Y-104600001D03*
X185100000Y-103050001D03*
%TD*%
D24*
%TO.C,C36*%
X161793500Y-111056500D03*
X160243500Y-111056500D03*
%TD*%
D25*
%TO.C,U7*%
X196980001Y-66370003D03*
X196480001Y-66370003D03*
X195980001Y-66370003D03*
X195480001Y-66370003D03*
X194980001Y-66370003D03*
X194480001Y-66370003D03*
X193980001Y-66370003D03*
X193480001Y-66370003D03*
X192980001Y-66370003D03*
X192480001Y-66370003D03*
X191980001Y-66370003D03*
X191480001Y-66370003D03*
X190980001Y-66370003D03*
X190480001Y-66370003D03*
D26*
X189730001Y-67120003D03*
X189730001Y-67620003D03*
X189730001Y-68120003D03*
X189730001Y-68620003D03*
X189730001Y-69120003D03*
X189730001Y-69620003D03*
X189730001Y-70120003D03*
X189730001Y-70620003D03*
X189730001Y-71120003D03*
X189730001Y-71620003D03*
X189730001Y-72120003D03*
X189730001Y-72620003D03*
X189730001Y-73120003D03*
X189730001Y-73620003D03*
D27*
X190480001Y-74370003D03*
X190980001Y-74370003D03*
X191480001Y-74370003D03*
X191980001Y-74370003D03*
X192480001Y-74370003D03*
X192980001Y-74370003D03*
X193480001Y-74370003D03*
X193980001Y-74370003D03*
X194480001Y-74370003D03*
X194980001Y-74370003D03*
X195480001Y-74370003D03*
X195980001Y-74370003D03*
X196480001Y-74370003D03*
X196980001Y-74370003D03*
D28*
X197730001Y-73620003D03*
X197730001Y-73120003D03*
X197730001Y-72620003D03*
X197730001Y-72120003D03*
X197730001Y-71620003D03*
X197730001Y-71120003D03*
X197730001Y-70620003D03*
X197730001Y-70120003D03*
X197730001Y-69620003D03*
X197730001Y-69120003D03*
X197730001Y-68620003D03*
X197730001Y-68120003D03*
X197730001Y-67620003D03*
X197730001Y-67120003D03*
D29*
X193730001Y-70370003D03*
%TD*%
D23*
%TO.C,C41*%
X192425000Y-57525000D03*
X192425000Y-55975000D03*
%TD*%
D30*
%TO.C,U5*%
X147489365Y-89458135D03*
X147489365Y-89958135D03*
X147489365Y-90458135D03*
X147489365Y-90958135D03*
X147489365Y-91458135D03*
X147489365Y-91958135D03*
X147489365Y-92458135D03*
X147489365Y-92958135D03*
X147489365Y-93458135D03*
X147489365Y-93958135D03*
X147489365Y-94458135D03*
X147489365Y-94958135D03*
D31*
X148901865Y-96370635D03*
X149401865Y-96370635D03*
X149901865Y-96370635D03*
X150401865Y-96370635D03*
X150901865Y-96370635D03*
X151401865Y-96370635D03*
X151901865Y-96370635D03*
X152401865Y-96370635D03*
X152901865Y-96370635D03*
X153401865Y-96370635D03*
X153901865Y-96370635D03*
X154401865Y-96370635D03*
D30*
X155814365Y-94958135D03*
X155814365Y-94458135D03*
X155814365Y-93958135D03*
X155814365Y-93458135D03*
X155814365Y-92958135D03*
X155814365Y-92458135D03*
X155814365Y-91958135D03*
X155814365Y-91458135D03*
X155814365Y-90958135D03*
X155814365Y-90458135D03*
X155814365Y-89958135D03*
X155814365Y-89458135D03*
D31*
X154401865Y-88045635D03*
X153901865Y-88045635D03*
X153401865Y-88045635D03*
X152901865Y-88045635D03*
X152401865Y-88045635D03*
X151901865Y-88045635D03*
X151401865Y-88045635D03*
X150901865Y-88045635D03*
X150401865Y-88045635D03*
X149901865Y-88045635D03*
X149401865Y-88045635D03*
X148901865Y-88045635D03*
%TD*%
D14*
%TO.C,R46*%
X68675000Y-147900000D03*
X70325000Y-147900000D03*
%TD*%
D22*
%TO.C,C46*%
X181566001Y-65969503D03*
X183116001Y-65969503D03*
%TD*%
D23*
%TO.C,C247*%
X222050000Y-135840000D03*
X222050000Y-134290000D03*
%TD*%
D12*
%TO.C,R97*%
X190425000Y-137350001D03*
X188775000Y-137350001D03*
%TD*%
D22*
%TO.C,C284*%
X181114500Y-142064998D03*
X182664500Y-142064998D03*
%TD*%
D32*
%TO.C,J7*%
X125559999Y-58960001D03*
X119379999Y-58960001D03*
X125559999Y-59460001D03*
X119379999Y-59460001D03*
X125559999Y-60460001D03*
X119379999Y-60460001D03*
X125559999Y-60960001D03*
X119379999Y-60960001D03*
X125559999Y-61960001D03*
X119379999Y-61960001D03*
X125559999Y-62460001D03*
X119379999Y-62460001D03*
X125559999Y-63460001D03*
X119379999Y-63460001D03*
X125559999Y-63960001D03*
X119379999Y-63960001D03*
X125559999Y-64960001D03*
X119379999Y-64960001D03*
X125559999Y-65460001D03*
X119379999Y-65460001D03*
X125559999Y-66460001D03*
X119379999Y-66460001D03*
X125559999Y-66960001D03*
X119379999Y-66960001D03*
X125559999Y-67960001D03*
X119379999Y-67960001D03*
X125559999Y-68460001D03*
X119379999Y-68460001D03*
X125559999Y-69460001D03*
X119379999Y-69460001D03*
X125559999Y-69960001D03*
X119379999Y-69960001D03*
X125559999Y-70960001D03*
X119379999Y-70960001D03*
X125559999Y-71460001D03*
X119379999Y-71460001D03*
X125559999Y-72460001D03*
X119379999Y-72460001D03*
X125559999Y-72960001D03*
X119379999Y-72960001D03*
X125559999Y-78960001D03*
X119379999Y-78960001D03*
X125559999Y-79460001D03*
X119379999Y-79460001D03*
X125559999Y-80460001D03*
X119379999Y-80460001D03*
X125559999Y-80960001D03*
X119379999Y-80960001D03*
X125559999Y-81960001D03*
X119379999Y-81960001D03*
X125559999Y-82460001D03*
X119379999Y-82460001D03*
X125559999Y-83460001D03*
X119379999Y-83460001D03*
X125559999Y-83960001D03*
X119379999Y-83960001D03*
X125559999Y-84960001D03*
X119379999Y-84960001D03*
X125559999Y-85460001D03*
X119379999Y-85460001D03*
X125559999Y-86460001D03*
X119379999Y-86460001D03*
X125559999Y-86960001D03*
X119379999Y-86960001D03*
X125559999Y-87960001D03*
X119379999Y-87960001D03*
X125559999Y-88460001D03*
X119379999Y-88460001D03*
X125559999Y-89460001D03*
X119379999Y-89460001D03*
X125559999Y-89960001D03*
X119379999Y-89960001D03*
X125559999Y-90960001D03*
X119379999Y-90960001D03*
X125559999Y-91460001D03*
X119379999Y-91460001D03*
X125559999Y-92460001D03*
X119379999Y-92460001D03*
X125559999Y-92960001D03*
X119379999Y-92960001D03*
D33*
X122469999Y-57760001D03*
D34*
X122469999Y-63030001D03*
X122469999Y-69380001D03*
D33*
X122469999Y-74650001D03*
X122469999Y-77770001D03*
D34*
X122469999Y-83040001D03*
X122469999Y-89390001D03*
D33*
X122469999Y-94660001D03*
%TD*%
D14*
%TO.C,R48*%
X82650000Y-147750000D03*
X84300000Y-147750000D03*
%TD*%
D35*
%TO.C,C269*%
X177725000Y-118400000D03*
X180675000Y-118400000D03*
%TD*%
D14*
%TO.C,R91*%
X231455000Y-98649999D03*
X233105000Y-98649999D03*
%TD*%
D24*
%TO.C,C42*%
X188730000Y-62770003D03*
X187180000Y-62770003D03*
%TD*%
D14*
%TO.C,R51*%
X82770000Y-142046250D03*
X84420000Y-142046250D03*
%TD*%
D36*
%TO.C,C222*%
X124650000Y-145830000D03*
X124650000Y-147170000D03*
%TD*%
D11*
%TO.C,R6*%
X158450000Y-42300000D03*
X157430000Y-42300000D03*
%TD*%
D15*
%TO.C,C270*%
X107900000Y-38970000D03*
X107900000Y-39930000D03*
%TD*%
D22*
%TO.C,C50*%
X181566001Y-76469503D03*
X183116001Y-76469503D03*
%TD*%
D24*
%TO.C,C33*%
X163395000Y-101120000D03*
X161845000Y-101120000D03*
%TD*%
D37*
%TO.C,C211*%
X225799999Y-109175004D03*
X225799999Y-112125004D03*
%TD*%
D38*
%TO.C,U21*%
X188185000Y-102762501D03*
X187065000Y-102762501D03*
X188235000Y-103562501D03*
X187065000Y-103562501D03*
D39*
X188400000Y-101725001D03*
X187900000Y-101725001D03*
X187400000Y-101725001D03*
X186900000Y-101725001D03*
X186900000Y-104600001D03*
X187400000Y-104600001D03*
X187900000Y-104600001D03*
X188400000Y-104600001D03*
%TD*%
D40*
%TO.C,C267*%
X171700000Y-122025000D03*
X171700000Y-124975000D03*
%TD*%
D15*
%TO.C,C13*%
X138335000Y-26000000D03*
X138335000Y-26960000D03*
%TD*%
D41*
%TO.C,C153*%
X182099999Y-31449998D03*
X182099999Y-32999998D03*
%TD*%
D42*
%TO.C,C233*%
X225479999Y-135550000D03*
X225479999Y-132850000D03*
%TD*%
D43*
%TO.C,R65*%
X111050000Y-40950000D03*
X112150000Y-40950000D03*
%TD*%
D15*
%TO.C,C15*%
X134335000Y-26000000D03*
X134335000Y-26960000D03*
%TD*%
D44*
%TO.C,R24*%
X129550000Y-141540000D03*
X129550000Y-140440000D03*
%TD*%
D23*
%TO.C,C191*%
X210375001Y-110600000D03*
X210375001Y-109050000D03*
%TD*%
D17*
%TO.C,JP6*%
X224700000Y-139825000D03*
X224700000Y-138175000D03*
%TD*%
D45*
%TO.C,C136*%
X77720001Y-141626250D03*
X77720001Y-143526250D03*
%TD*%
D46*
%TO.C,C266*%
X188100000Y-98500002D03*
X186200000Y-98500002D03*
%TD*%
D47*
%TO.C,U23*%
X186619999Y-142179999D03*
X186619999Y-143449999D03*
X186619999Y-144719999D03*
X186619999Y-145989999D03*
X191569999Y-145989999D03*
X191569999Y-144719999D03*
X191569999Y-143449999D03*
X191569999Y-142179999D03*
%TD*%
D23*
%TO.C,C250*%
X198500000Y-102985002D03*
X198500000Y-101435002D03*
%TD*%
D14*
%TO.C,R70*%
X200050001Y-123710001D03*
X201700001Y-123710001D03*
%TD*%
D15*
%TO.C,C14*%
X142335000Y-26000000D03*
X142335000Y-26960000D03*
%TD*%
D48*
%TO.C,C198*%
X129420000Y-148950000D03*
X128500000Y-148950000D03*
%TD*%
D49*
%TO.C,U4*%
X155912707Y-30058035D03*
X155912707Y-31008035D03*
X155912707Y-31958035D03*
X158187707Y-31958035D03*
X158187707Y-31008035D03*
X158187707Y-30058035D03*
%TD*%
D50*
%TO.C,C200*%
X131550000Y-145300000D03*
X131550000Y-144380000D03*
%TD*%
D51*
%TO.C,Q1*%
X157280001Y-39199998D03*
X156630001Y-39199998D03*
X155980001Y-39199998D03*
X155980001Y-41099998D03*
X156630001Y-41099998D03*
X157280001Y-41099998D03*
%TD*%
D11*
%TO.C,R76*%
X202309999Y-108310000D03*
X201289999Y-108310000D03*
%TD*%
D14*
%TO.C,R22*%
X161700000Y-84500000D03*
X163350000Y-84500000D03*
%TD*%
D24*
%TO.C,C166*%
X204377001Y-44538997D03*
X202827001Y-44538997D03*
%TD*%
D52*
%TO.C,C5*%
X163149998Y-36739998D03*
X162189998Y-36739998D03*
%TD*%
%TO.C,C8*%
X158637706Y-28708037D03*
X157677706Y-28708037D03*
%TD*%
D53*
%TO.C,R44*%
X100992499Y-134309999D03*
X100992499Y-135329999D03*
%TD*%
D23*
%TO.C,C40*%
X194075000Y-57525000D03*
X194075000Y-55975000D03*
%TD*%
D24*
%TO.C,C43*%
X188730001Y-64270003D03*
X187180001Y-64270003D03*
%TD*%
D54*
%TO.C,C276*%
X188400001Y-131400000D03*
X190300001Y-131400000D03*
%TD*%
D50*
%TO.C,C219*%
X127300000Y-143660000D03*
X127300000Y-142740000D03*
%TD*%
D55*
%TO.C,R12*%
X166199999Y-31265000D03*
X166199999Y-30245000D03*
%TD*%
D50*
%TO.C,C189*%
X134850000Y-139680000D03*
X134850000Y-140600000D03*
%TD*%
D24*
%TO.C,C146*%
X74320002Y-132646251D03*
X72770002Y-132646251D03*
%TD*%
D15*
%TO.C,C272*%
X108825000Y-38970000D03*
X108825000Y-39930000D03*
%TD*%
D12*
%TO.C,R1*%
X158600000Y-57200000D03*
X156950000Y-57200000D03*
%TD*%
D14*
%TO.C,R61*%
X198486001Y-36626000D03*
X200136001Y-36626000D03*
%TD*%
D17*
%TO.C,R19*%
X152201865Y-101525000D03*
X152201865Y-99875000D03*
%TD*%
D56*
%TO.C,R94*%
X54950000Y-34450000D03*
X54950000Y-36100000D03*
%TD*%
D14*
%TO.C,R80*%
X202375000Y-109510000D03*
X204025000Y-109510000D03*
%TD*%
D57*
%TO.C,C226*%
X222650002Y-143549999D03*
X219950002Y-143549999D03*
%TD*%
D56*
%TO.C,R63*%
X197177002Y-38463999D03*
X197177002Y-40113999D03*
%TD*%
D58*
%TO.C,T1*%
X223965000Y-62510000D03*
X223965000Y-59970000D03*
X220535000Y-59970000D03*
X220535000Y-61240000D03*
X220535000Y-62510000D03*
%TD*%
D59*
%TO.C,J5*%
X82369999Y-44124001D03*
X82369999Y-50296001D03*
X83169999Y-44124001D03*
X83169999Y-50296001D03*
X83969999Y-44124001D03*
X83969999Y-50296001D03*
X84769999Y-44124001D03*
X84769999Y-50296001D03*
X85569999Y-44124001D03*
X85569999Y-50296001D03*
X86369999Y-44124001D03*
X86369999Y-50296001D03*
X87169999Y-44124001D03*
X87169999Y-50296001D03*
X87969999Y-44124001D03*
X87969999Y-50296001D03*
X88769999Y-44124001D03*
X88769999Y-50296001D03*
X89569999Y-44124001D03*
X89569999Y-50296001D03*
X90369999Y-44124001D03*
X90369999Y-50296001D03*
X91169999Y-44124001D03*
X91169999Y-50296001D03*
X91969999Y-44124001D03*
X91969999Y-50296001D03*
X92769999Y-44124001D03*
X92769999Y-50296001D03*
X93569999Y-44124001D03*
X93569999Y-50296001D03*
X94369999Y-44124001D03*
X94369999Y-50296001D03*
X95169999Y-44124001D03*
X95169999Y-50296001D03*
X95969999Y-44124001D03*
X95969999Y-50296001D03*
X96769999Y-44124001D03*
X96769999Y-50296001D03*
X97569999Y-44124001D03*
X97569999Y-50296001D03*
X98369999Y-44124001D03*
X98369999Y-50296001D03*
X99169999Y-44124001D03*
X99169999Y-50296001D03*
X99969999Y-44124001D03*
X99969999Y-50296001D03*
X100769999Y-44124001D03*
X100769999Y-50296001D03*
X101569999Y-44124001D03*
X101569999Y-50296001D03*
X102369999Y-44124001D03*
X102369999Y-50296001D03*
X103169999Y-44124001D03*
X103169999Y-50296001D03*
X103969999Y-44124001D03*
X103969999Y-50296001D03*
X104769999Y-44124001D03*
X104769999Y-50296001D03*
X105569999Y-44124001D03*
X105569999Y-50296001D03*
X106369999Y-44124001D03*
X106369999Y-50296001D03*
X107169999Y-44124001D03*
X107169999Y-50296001D03*
X107969999Y-44124001D03*
X107969999Y-50296001D03*
X108769999Y-44124001D03*
X108769999Y-50296001D03*
X109569999Y-44124001D03*
X109569999Y-50296001D03*
X110369999Y-44124001D03*
X110369999Y-50296001D03*
X111169999Y-44124001D03*
X111169999Y-50296001D03*
X111969999Y-44124001D03*
X111969999Y-50296001D03*
X112769999Y-44124001D03*
X112769999Y-50296001D03*
X113569999Y-44124001D03*
X113569999Y-50296001D03*
%TD*%
D23*
%TO.C,C240*%
X223580000Y-135840000D03*
X223580000Y-134290000D03*
%TD*%
D41*
%TO.C,C229*%
X221500000Y-139850000D03*
X221500000Y-141400000D03*
%TD*%
D60*
%TO.C,SW1*%
X218850000Y-45400000D03*
X226800000Y-45400000D03*
X218850000Y-49900000D03*
X226800000Y-49900000D03*
%TD*%
D24*
%TO.C,C171*%
X206169001Y-33839000D03*
X204619001Y-33839000D03*
%TD*%
D37*
%TO.C,C213*%
X222500000Y-109175002D03*
X222500000Y-112125002D03*
%TD*%
D14*
%TO.C,R72*%
X201965001Y-131010000D03*
X203615001Y-131010000D03*
%TD*%
D40*
%TO.C,C157*%
X184000000Y-31550000D03*
X184000000Y-34500000D03*
%TD*%
D61*
%TO.C,TR2*%
X232697502Y-81890000D03*
X232697502Y-79350000D03*
X232697502Y-76810000D03*
X227617502Y-76810000D03*
X227617502Y-79350000D03*
X227617502Y-81890000D03*
%TD*%
D17*
%TO.C,R40*%
X204080001Y-74780004D03*
X204080001Y-73130004D03*
%TD*%
%TO.C,R89*%
X203700001Y-100060001D03*
X203700001Y-98410001D03*
%TD*%
D15*
%TO.C,C7*%
X161799998Y-32280001D03*
X161799998Y-33240001D03*
%TD*%
D22*
%TO.C,C257*%
X210749998Y-141699999D03*
X212299998Y-141699999D03*
%TD*%
D51*
%TO.C,U1*%
X170949998Y-35499999D03*
X171599998Y-35499999D03*
X172249998Y-35499999D03*
X172249998Y-33599999D03*
X171599998Y-33599999D03*
X170949998Y-33599999D03*
%TD*%
D41*
%TO.C,C262*%
X212500000Y-137349999D03*
X212500000Y-138899999D03*
%TD*%
D62*
%TO.C,R10*%
X167189999Y-37655000D03*
X168209999Y-37655000D03*
%TD*%
D23*
%TO.C,C230*%
X202199999Y-103010001D03*
X202199999Y-101460001D03*
%TD*%
D22*
%TO.C,C26*%
X153726865Y-98158135D03*
X155276865Y-98158135D03*
%TD*%
D15*
%TO.C,C9*%
X154437708Y-29748038D03*
X154437708Y-30708038D03*
%TD*%
D22*
%TO.C,C47*%
X181566001Y-67449453D03*
X183116001Y-67449453D03*
%TD*%
D37*
%TO.C,C212*%
X222400000Y-121425000D03*
X222400000Y-124375000D03*
%TD*%
D22*
%TO.C,C167*%
X202827001Y-43038999D03*
X204377001Y-43038999D03*
%TD*%
D40*
%TO.C,C209*%
X187960000Y-122000001D03*
X187960000Y-124950001D03*
%TD*%
D58*
%TO.C,T2*%
X224062502Y-80550000D03*
X224062502Y-78010000D03*
X220632502Y-78010000D03*
X220632502Y-79280000D03*
X220632502Y-80550000D03*
%TD*%
D63*
%TO.C,J16*%
X70450000Y-152422500D03*
X74700000Y-152422500D03*
X66200000Y-152422500D03*
%TD*%
D56*
%TO.C,R64*%
X171200000Y-146525001D03*
X171200000Y-148175001D03*
%TD*%
%TO.C,R37*%
X204080001Y-66951603D03*
X204080001Y-68601603D03*
%TD*%
D16*
%TO.C,D4*%
X171200000Y-151150000D03*
X171200000Y-149575000D03*
%TD*%
D22*
%TO.C,C220*%
X217450000Y-141500000D03*
X219000000Y-141500000D03*
%TD*%
D15*
%TO.C,C1*%
X140100000Y-129720000D03*
X140100000Y-130680000D03*
%TD*%
D64*
%TO.C,L2*%
X130400000Y-151050000D03*
X127600000Y-151050000D03*
%TD*%
D65*
%TO.C,U11*%
X205427001Y-41688999D03*
X205927001Y-41688999D03*
X206427001Y-41688999D03*
X206927001Y-41688999D03*
X207427001Y-41688999D03*
X207927001Y-41688999D03*
X208427001Y-41688999D03*
X208927001Y-41688999D03*
X209427001Y-41688999D03*
X209927001Y-41688999D03*
X210427001Y-41688999D03*
X210927001Y-41688999D03*
D66*
X211577001Y-41038999D03*
X211577001Y-40538999D03*
X211577001Y-40038999D03*
X211577001Y-39538999D03*
X211577001Y-39038999D03*
X211577001Y-38538999D03*
X211577001Y-38038999D03*
X211577001Y-37538999D03*
D65*
X210927001Y-36888999D03*
X210427001Y-36888999D03*
X209927001Y-36888999D03*
X209427001Y-36888999D03*
X208927001Y-36888999D03*
X208427001Y-36888999D03*
X207927001Y-36888999D03*
X207427001Y-36888999D03*
X206927001Y-36888999D03*
X206427001Y-36888999D03*
X205927001Y-36888999D03*
X205427001Y-36888999D03*
D66*
X204777001Y-37538999D03*
X204777001Y-38038999D03*
X204777001Y-38538999D03*
X204777001Y-39038999D03*
X204777001Y-39538999D03*
X204777001Y-40038999D03*
X204777001Y-40538999D03*
X204777001Y-41038999D03*
D67*
X208177001Y-39288999D03*
%TD*%
D23*
%TO.C,C29*%
X156751865Y-97708135D03*
X156751865Y-96158135D03*
%TD*%
%TO.C,C242*%
X229350001Y-138190000D03*
X229350001Y-136640000D03*
%TD*%
D24*
%TO.C,C22*%
X150645000Y-98982500D03*
X149095000Y-98982500D03*
%TD*%
D43*
%TO.C,R26*%
X125850000Y-148350000D03*
X124750000Y-148350000D03*
%TD*%
D35*
%TO.C,C258*%
X180435000Y-122300000D03*
X183385000Y-122300000D03*
%TD*%
D22*
%TO.C,C156*%
X187650000Y-41275000D03*
X189200000Y-41275000D03*
%TD*%
D42*
%TO.C,C237*%
X200350000Y-102760002D03*
X200350000Y-100060002D03*
%TD*%
D53*
%TO.C,R43*%
X101972500Y-134310000D03*
X101972500Y-135330000D03*
%TD*%
D23*
%TO.C,C215*%
X233500000Y-105025000D03*
X233500000Y-103475000D03*
%TD*%
D53*
%TO.C,R45*%
X100012501Y-134310000D03*
X100012501Y-135330000D03*
%TD*%
D22*
%TO.C,C44*%
X203845000Y-57580003D03*
X205395000Y-57580003D03*
%TD*%
D14*
%TO.C,R92*%
X214825000Y-98950000D03*
X216475000Y-98950000D03*
%TD*%
D12*
%TO.C,R47*%
X57875000Y-147900000D03*
X56225000Y-147900000D03*
%TD*%
D14*
%TO.C,R35*%
X203770000Y-60580003D03*
X205420000Y-60580003D03*
%TD*%
D15*
%TO.C,C18*%
X141335000Y-26000000D03*
X141335000Y-26960000D03*
%TD*%
D56*
%TO.C,R28*%
X158718500Y-110976500D03*
X158718500Y-112626500D03*
%TD*%
D68*
%TO.C,D7*%
X171200000Y-143250000D03*
X171200000Y-139030000D03*
%TD*%
D53*
%TO.C,R14*%
X159700000Y-31000000D03*
X159700000Y-32020000D03*
%TD*%
D23*
%TO.C,C216*%
X220000000Y-106050000D03*
X220000000Y-104500000D03*
%TD*%
D69*
%TO.C,U16*%
X214850000Y-103077500D03*
X215900000Y-103077500D03*
X214850000Y-102027500D03*
X215900000Y-102027500D03*
D70*
X214400000Y-104355000D03*
X215050000Y-104355000D03*
X215700000Y-104355000D03*
X216350000Y-104355000D03*
D71*
X217177500Y-103527500D03*
X217177500Y-102877500D03*
X217177500Y-102227500D03*
X217177500Y-101577500D03*
D70*
X216350000Y-100750000D03*
X215700000Y-100750000D03*
X215050000Y-100750000D03*
X214400000Y-100750000D03*
D71*
X213572500Y-101577500D03*
X213572500Y-102227500D03*
X213572500Y-102877500D03*
X213572500Y-103527500D03*
%TD*%
D23*
%TO.C,C201*%
X209300000Y-116975000D03*
X209300000Y-115425000D03*
%TD*%
D50*
%TO.C,C199*%
X130600000Y-145300000D03*
X130600000Y-144380000D03*
%TD*%
D12*
%TO.C,R78*%
X205050001Y-111010001D03*
X203400001Y-111010001D03*
%TD*%
D72*
%TO.C,C11*%
X151835000Y-29160000D03*
X151835000Y-28200000D03*
%TD*%
D73*
%TO.C,C224*%
X235500000Y-100650000D03*
X235500000Y-103350000D03*
%TD*%
D63*
%TO.C,J10*%
X84450000Y-152450000D03*
X88700000Y-152450000D03*
X80200000Y-152450000D03*
%TD*%
%TO.C,J17*%
X56200000Y-152400000D03*
X60450000Y-152400000D03*
X51950000Y-152400000D03*
%TD*%
D55*
%TO.C,R86*%
X210250000Y-101220000D03*
X210250000Y-100200000D03*
%TD*%
D62*
%TO.C,R75*%
X203840000Y-112250000D03*
X204860000Y-112250000D03*
%TD*%
D12*
%TO.C,R2*%
X158600000Y-55650000D03*
X156950000Y-55650000D03*
%TD*%
D74*
%TO.C,IC1*%
X131000000Y-139640000D03*
X131000000Y-140590000D03*
X131000000Y-141540000D03*
X133500000Y-141540000D03*
X133500000Y-140590000D03*
X133500000Y-139640000D03*
%TD*%
D22*
%TO.C,C180*%
X198677002Y-40050999D03*
X200227002Y-40050999D03*
%TD*%
D75*
%TO.C,D2*%
X198795000Y-78230003D03*
X197220000Y-78230003D03*
%TD*%
D10*
%TO.C,C144*%
X83275000Y-128673750D03*
X80325000Y-128673750D03*
%TD*%
D40*
%TO.C,C162*%
X211973000Y-27748999D03*
X211973000Y-30698999D03*
%TD*%
D14*
%TO.C,R90*%
X228455001Y-98649999D03*
X230105001Y-98649999D03*
%TD*%
D62*
%TO.C,R5*%
X156790001Y-38000000D03*
X157810001Y-38000000D03*
%TD*%
D76*
%TO.C,R9*%
X170060624Y-37860624D03*
X169339376Y-37139376D03*
%TD*%
D23*
%TO.C,C249*%
X227790001Y-138190000D03*
X227790001Y-136640000D03*
%TD*%
D42*
%TO.C,C236*%
X231700000Y-129200000D03*
X231700000Y-126500000D03*
%TD*%
D12*
%TO.C,R32*%
X197500000Y-59000000D03*
X195850000Y-59000000D03*
%TD*%
D45*
%TO.C,C141*%
X79750000Y-141626250D03*
X79750000Y-143526250D03*
%TD*%
D24*
%TO.C,C132*%
X103315000Y-144880000D03*
X101765000Y-144880000D03*
%TD*%
D54*
%TO.C,C268*%
X209700000Y-145500000D03*
X211600000Y-145500000D03*
%TD*%
D37*
%TO.C,C210*%
X219099997Y-121424999D03*
X219099997Y-124374999D03*
%TD*%
D77*
%TO.C,C238*%
X228780000Y-95250000D03*
X231480000Y-95250000D03*
%TD*%
%TO.C,C239*%
X215100000Y-95600002D03*
X217800000Y-95600002D03*
%TD*%
D78*
%TO.C,U9*%
X80200000Y-139326250D03*
X80200000Y-138826250D03*
X80200000Y-138326250D03*
X80200000Y-137826250D03*
X80200000Y-137326250D03*
X80200000Y-136826250D03*
X80200000Y-136326250D03*
X80200000Y-135826250D03*
X80200000Y-135326250D03*
X80200000Y-134826250D03*
D79*
X79450000Y-134076250D03*
X78950000Y-134076250D03*
X78450000Y-134076250D03*
X77950000Y-134076250D03*
X77450000Y-134076250D03*
X76950000Y-134076250D03*
X76450000Y-134076250D03*
X75950000Y-134076250D03*
X75450000Y-134076250D03*
X74950000Y-134076250D03*
D78*
X74200000Y-134826250D03*
X74200000Y-135326250D03*
X74200000Y-135826250D03*
X74200000Y-136326250D03*
X74200000Y-136826250D03*
X74200000Y-137326250D03*
X74200000Y-137826250D03*
X74200000Y-138326250D03*
X74200000Y-138826250D03*
X74200000Y-139326250D03*
D79*
X74950000Y-140076250D03*
X75450000Y-140076250D03*
X75950000Y-140076250D03*
X76450000Y-140076250D03*
X76950000Y-140076250D03*
X77450000Y-140076250D03*
X77950000Y-140076250D03*
X78450000Y-140076250D03*
X78950000Y-140076250D03*
X79450000Y-140076250D03*
D80*
X77200000Y-137076250D03*
%TD*%
D81*
%TO.C,Y1*%
X156464946Y-108414216D03*
X158020581Y-106858581D03*
X156818500Y-105656500D03*
X155262865Y-107212135D03*
%TD*%
D15*
%TO.C,C6*%
X166200000Y-32234999D03*
X166200000Y-33194999D03*
%TD*%
D12*
%TO.C,JP8*%
X175250000Y-123500000D03*
X173600000Y-123500000D03*
%TD*%
D14*
%TO.C,R52*%
X82720000Y-139046250D03*
X84370000Y-139046250D03*
%TD*%
D55*
%TO.C,R87*%
X232250000Y-104260000D03*
X232250000Y-103240000D03*
%TD*%
D54*
%TO.C,C264*%
X209700000Y-143449998D03*
X211600000Y-143449998D03*
%TD*%
D82*
%TO.C,C205*%
X190200001Y-114985002D03*
X190200001Y-112035002D03*
%TD*%
D24*
%TO.C,C285*%
X182664500Y-143564998D03*
X181114500Y-143564998D03*
%TD*%
%TO.C,C28*%
X156675000Y-86270000D03*
X155125000Y-86270000D03*
%TD*%
D23*
%TO.C,C245*%
X228250000Y-129449999D03*
X228250000Y-127899999D03*
%TD*%
D83*
%TO.C,C27*%
X153826865Y-100558135D03*
X156776865Y-100558135D03*
%TD*%
D23*
%TO.C,C39*%
X195850000Y-57525000D03*
X195850000Y-55975000D03*
%TD*%
D24*
%TO.C,C218*%
X222900000Y-147000000D03*
X221350000Y-147000000D03*
%TD*%
D84*
%TO.C,C3*%
X170639997Y-32399998D03*
X171599997Y-32399998D03*
%TD*%
D12*
%TO.C,JP12*%
X109750000Y-150800000D03*
X108100000Y-150800000D03*
%TD*%
D22*
%TO.C,C246*%
X214864999Y-92220001D03*
X216414999Y-92220001D03*
%TD*%
%TO.C,C289*%
X177625000Y-116400000D03*
X179175000Y-116400000D03*
%TD*%
D53*
%TO.C,R42*%
X102952500Y-134310000D03*
X102952500Y-135330000D03*
%TD*%
D19*
%TO.C,U2*%
X167349999Y-35544999D03*
X167849999Y-35544999D03*
X168349999Y-35544999D03*
X168849999Y-35544999D03*
X168849999Y-32444999D03*
X168349999Y-32444999D03*
X167849999Y-32444999D03*
X167349999Y-32444999D03*
%TD*%
D12*
%TO.C,R17*%
X146925000Y-35100000D03*
X145275000Y-35100000D03*
%TD*%
D24*
%TO.C,C192*%
X208275000Y-127500000D03*
X206725000Y-127500000D03*
%TD*%
D84*
%TO.C,C2*%
X170639999Y-36700000D03*
X171599999Y-36700000D03*
%TD*%
D85*
%TO.C,IC2*%
X129550000Y-144800000D03*
X129050000Y-144800000D03*
X128550000Y-144800000D03*
X128050000Y-144800000D03*
X127550000Y-144800000D03*
X127050000Y-144800000D03*
X127050000Y-147800000D03*
X127550000Y-147800000D03*
X128050000Y-147800000D03*
X128550000Y-147800000D03*
X129050000Y-147800000D03*
X129550000Y-147800000D03*
D86*
X128300000Y-146300000D03*
%TD*%
D87*
%TO.C,Q3*%
X218090000Y-119310000D03*
X218090000Y-118040000D03*
X218090000Y-116770000D03*
D88*
X218090000Y-115500000D03*
D87*
X212400000Y-115500000D03*
X212400000Y-116770000D03*
X212400000Y-118040000D03*
X212400000Y-119310000D03*
%TD*%
D12*
%TO.C,JP11*%
X114450000Y-147900000D03*
X112800000Y-147900000D03*
%TD*%
D17*
%TO.C,R68*%
X205200000Y-125560002D03*
X205200000Y-123910002D03*
%TD*%
D89*
%TO.C,L7*%
X194900000Y-121645000D03*
X194900000Y-124955000D03*
%TD*%
D45*
%TO.C,C259*%
X190400000Y-100600001D03*
X190400000Y-102500001D03*
%TD*%
D14*
%TO.C,R83*%
X203675001Y-127510001D03*
X205325001Y-127510001D03*
%TD*%
D59*
%TO.C,J4*%
X82369999Y-102124001D03*
X82369999Y-108296001D03*
X83169999Y-102124001D03*
X83169999Y-108296001D03*
X83969999Y-102124001D03*
X83969999Y-108296001D03*
X84769999Y-102124001D03*
X84769999Y-108296001D03*
X85569999Y-102124001D03*
X85569999Y-108296001D03*
X86369999Y-102124001D03*
X86369999Y-108296001D03*
X87169999Y-102124001D03*
X87169999Y-108296001D03*
X87969999Y-102124001D03*
X87969999Y-108296001D03*
X88769999Y-102124001D03*
X88769999Y-108296001D03*
X89569999Y-102124001D03*
X89569999Y-108296001D03*
X90369999Y-102124001D03*
X90369999Y-108296001D03*
X91169999Y-102124001D03*
X91169999Y-108296001D03*
X91969999Y-102124001D03*
X91969999Y-108296001D03*
X92769999Y-102124001D03*
X92769999Y-108296001D03*
X93569999Y-102124001D03*
X93569999Y-108296001D03*
X94369999Y-102124001D03*
X94369999Y-108296001D03*
X95169999Y-102124001D03*
X95169999Y-108296001D03*
X95969999Y-102124001D03*
X95969999Y-108296001D03*
X96769999Y-102124001D03*
X96769999Y-108296001D03*
X97569999Y-102124001D03*
X97569999Y-108296001D03*
X98369999Y-102124001D03*
X98369999Y-108296001D03*
X99169999Y-102124001D03*
X99169999Y-108296001D03*
X99969999Y-102124001D03*
X99969999Y-108296001D03*
X100769999Y-102124001D03*
X100769999Y-108296001D03*
X101569999Y-102124001D03*
X101569999Y-108296001D03*
X102369999Y-102124001D03*
X102369999Y-108296001D03*
X103169999Y-102124001D03*
X103169999Y-108296001D03*
X103969999Y-102124001D03*
X103969999Y-108296001D03*
X104769999Y-102124001D03*
X104769999Y-108296001D03*
X105569999Y-102124001D03*
X105569999Y-108296001D03*
X106369999Y-102124001D03*
X106369999Y-108296001D03*
X107169999Y-102124001D03*
X107169999Y-108296001D03*
X107969999Y-102124001D03*
X107969999Y-108296001D03*
X108769999Y-102124001D03*
X108769999Y-108296001D03*
X109569999Y-102124001D03*
X109569999Y-108296001D03*
X110369999Y-102124001D03*
X110369999Y-108296001D03*
X111169999Y-102124001D03*
X111169999Y-108296001D03*
X111969999Y-102124001D03*
X111969999Y-108296001D03*
X112769999Y-102124001D03*
X112769999Y-108296001D03*
X113569999Y-102124001D03*
X113569999Y-108296001D03*
%TD*%
D15*
%TO.C,C16*%
X146335000Y-26000000D03*
X146335000Y-26960000D03*
%TD*%
D14*
%TO.C,R53*%
X207827003Y-32338999D03*
X209477003Y-32338999D03*
%TD*%
D56*
%TO.C,R4*%
X172200000Y-39425000D03*
X172200000Y-41075000D03*
%TD*%
D24*
%TO.C,C255*%
X186550001Y-100250001D03*
X185000001Y-100250001D03*
%TD*%
D90*
%TO.C,C84*%
X210627500Y-87229999D03*
X207552500Y-87229999D03*
%TD*%
D24*
%TO.C,C172*%
X206169000Y-35338999D03*
X204619000Y-35338999D03*
%TD*%
D14*
%TO.C,R93*%
X217850000Y-98950000D03*
X219500000Y-98950000D03*
%TD*%
D64*
%TO.C,L1*%
X134100000Y-136190000D03*
X131300000Y-136190000D03*
%TD*%
D22*
%TO.C,C282*%
X179595000Y-146044999D03*
X181145000Y-146044999D03*
%TD*%
D24*
%TO.C,C49*%
X176366001Y-70469503D03*
X174816001Y-70469503D03*
%TD*%
D56*
%TO.C,R55*%
X186627001Y-31513998D03*
X186627001Y-33163998D03*
%TD*%
D82*
%TO.C,C208*%
X186900000Y-114985000D03*
X186900000Y-112035000D03*
%TD*%
D17*
%TO.C,R16*%
X130900000Y-28550000D03*
X130900000Y-26900000D03*
%TD*%
D91*
%TO.C,C125*%
X105189999Y-148130000D03*
X98789999Y-148130000D03*
%TD*%
D43*
%TO.C,R62*%
X107825000Y-40925000D03*
X108925000Y-40925000D03*
%TD*%
D14*
%TO.C,R49*%
X82770001Y-140546251D03*
X84420001Y-140546251D03*
%TD*%
D17*
%TO.C,R96*%
X186900000Y-135900001D03*
X186900000Y-134250001D03*
%TD*%
D12*
%TO.C,R23*%
X163445000Y-94320000D03*
X161795000Y-94320000D03*
%TD*%
D47*
%TO.C,U24*%
X168170000Y-91240000D03*
X168170000Y-92510000D03*
X168170000Y-93780000D03*
X168170000Y-95050000D03*
X168170000Y-96320000D03*
X168170000Y-97590000D03*
X168170000Y-98860000D03*
X168170000Y-100130000D03*
X173120000Y-100130000D03*
X173120000Y-98860000D03*
X173120000Y-97590000D03*
X173120000Y-96320000D03*
X173120000Y-95050000D03*
X173120000Y-93780000D03*
X173120000Y-92510000D03*
X173120000Y-91240000D03*
%TD*%
D53*
%TO.C,R8*%
X154700000Y-38990000D03*
X154700000Y-40010000D03*
%TD*%
D41*
%TO.C,C80*%
X201600000Y-64450000D03*
X201600000Y-66000000D03*
%TD*%
D17*
%TO.C,R29*%
X187500000Y-59412500D03*
X187500000Y-57762500D03*
%TD*%
D22*
%TO.C,C251*%
X228530001Y-91900000D03*
X230080001Y-91900000D03*
%TD*%
D10*
%TO.C,C148*%
X74220002Y-130246250D03*
X71270002Y-130246250D03*
%TD*%
D89*
%TO.C,L8*%
X214245001Y-122010002D03*
X214245001Y-125320002D03*
%TD*%
D24*
%TO.C,C194*%
X201650001Y-125210001D03*
X200100001Y-125210001D03*
%TD*%
D55*
%TO.C,R11*%
X164099999Y-37740000D03*
X164099999Y-36720000D03*
%TD*%
D92*
%TO.C,J14*%
X237427500Y-58509999D03*
X237427500Y-54259999D03*
X237427500Y-62759999D03*
%TD*%
D22*
%TO.C,C287*%
X218975000Y-134850000D03*
X220525000Y-134850000D03*
%TD*%
D93*
%TO.C,U25*%
X218535000Y-136950000D03*
X218535000Y-137820000D03*
X219265000Y-136950000D03*
X219265000Y-137820000D03*
D94*
X217400000Y-136635000D03*
X217400000Y-137135000D03*
X217400000Y-137635000D03*
X217400000Y-138135000D03*
X220400000Y-138135000D03*
X220400000Y-137635000D03*
X220400000Y-137135000D03*
X220400000Y-136635000D03*
%TD*%
D24*
%TO.C,C145*%
X81775000Y-131073750D03*
X80225000Y-131073750D03*
%TD*%
D48*
%TO.C,C184*%
X132760000Y-138290000D03*
X131840000Y-138290000D03*
%TD*%
D14*
%TO.C,R34*%
X203794999Y-59080003D03*
X205444999Y-59080003D03*
%TD*%
D24*
%TO.C,C74*%
X202475000Y-70000000D03*
X200925000Y-70000000D03*
%TD*%
%TO.C,C283*%
X181145000Y-147584998D03*
X179595000Y-147584998D03*
%TD*%
D41*
%TO.C,C158*%
X209351000Y-29277999D03*
X209351000Y-30827999D03*
%TD*%
D15*
%TO.C,C274*%
X99894998Y-39969999D03*
X99894998Y-40929999D03*
%TD*%
D56*
%TO.C,R98*%
X184244999Y-141989999D03*
X184244999Y-143639999D03*
%TD*%
D45*
%TO.C,C137*%
X74280002Y-141676251D03*
X74280002Y-143576251D03*
%TD*%
D46*
%TO.C,C286*%
X192045001Y-140370000D03*
X190145001Y-140370000D03*
%TD*%
D40*
%TO.C,C206*%
X190359999Y-121999998D03*
X190359999Y-124949998D03*
%TD*%
D72*
%TO.C,C10*%
X150835000Y-29160000D03*
X150835000Y-28200000D03*
%TD*%
D11*
%TO.C,R77*%
X202510001Y-128810000D03*
X201490001Y-128810000D03*
%TD*%
D22*
%TO.C,C48*%
X181566001Y-68969503D03*
X183116001Y-68969503D03*
%TD*%
D40*
%TO.C,C265*%
X177200000Y-123625000D03*
X177200000Y-126575000D03*
%TD*%
D23*
%TO.C,C228*%
X229800000Y-129450000D03*
X229800000Y-127900000D03*
%TD*%
D53*
%TO.C,R85*%
X218750000Y-104250000D03*
X218750000Y-105270000D03*
%TD*%
D18*
%TO.C,C260*%
X206900000Y-140075000D03*
X206900000Y-137125000D03*
%TD*%
D56*
%TO.C,R38*%
X204080001Y-76180004D03*
X204080001Y-77830004D03*
%TD*%
D23*
%TO.C,C203*%
X198800000Y-121975000D03*
X198800000Y-120425000D03*
%TD*%
D50*
%TO.C,C227*%
X128250000Y-142740000D03*
X128250000Y-143660000D03*
%TD*%
D23*
%TO.C,C179*%
X203121001Y-36639000D03*
X203121001Y-35089000D03*
%TD*%
D95*
%TO.C,L5*%
X214796001Y-113260001D03*
X214796001Y-108960001D03*
%TD*%
D15*
%TO.C,C273*%
X112100000Y-38970000D03*
X112100000Y-39930000D03*
%TD*%
D35*
%TO.C,C186*%
X207225000Y-123100000D03*
X210175000Y-123100000D03*
%TD*%
D36*
%TO.C,C197*%
X129450000Y-137870000D03*
X129450000Y-139210000D03*
%TD*%
D77*
%TO.C,C223*%
X205500001Y-98660002D03*
X208200001Y-98660002D03*
%TD*%
D22*
%TO.C,C51*%
X181566001Y-74948995D03*
X183116001Y-74948995D03*
%TD*%
D45*
%TO.C,C142*%
X72250001Y-141676251D03*
X72250001Y-143576251D03*
%TD*%
D24*
%TO.C,C193*%
X200675000Y-110299999D03*
X199125000Y-110299999D03*
%TD*%
%TO.C,C221*%
X222900003Y-145450000D03*
X221350003Y-145450000D03*
%TD*%
D12*
%TO.C,R3*%
X158600000Y-54100000D03*
X156950000Y-54100000D03*
%TD*%
D96*
%TO.C,U20*%
X209415000Y-139187498D03*
X210535000Y-139187498D03*
X209365000Y-138387498D03*
X210535000Y-138387498D03*
D97*
X209200000Y-140224998D03*
X209700000Y-140224998D03*
X210200000Y-140224998D03*
X210700000Y-140224998D03*
X210700000Y-137349998D03*
X210200000Y-137349998D03*
X209700000Y-137349998D03*
X209200000Y-137349998D03*
%TD*%
D62*
%TO.C,R82*%
X203480001Y-128810002D03*
X204500001Y-128810002D03*
%TD*%
D68*
%TO.C,D3*%
X139700000Y-141030000D03*
X139700000Y-145250000D03*
%TD*%
D23*
%TO.C,C38*%
X197500000Y-57525000D03*
X197500000Y-55975000D03*
%TD*%
%TO.C,C177*%
X201621003Y-36639000D03*
X201621003Y-35089000D03*
%TD*%
D22*
%TO.C,C45*%
X181566001Y-64469503D03*
X183116001Y-64469503D03*
%TD*%
D12*
%TO.C,R60*%
X198552004Y-30139001D03*
X196902004Y-30139001D03*
%TD*%
%TO.C,R58*%
X189250000Y-39425000D03*
X187600000Y-39425000D03*
%TD*%
D55*
%TO.C,R79*%
X205200001Y-109829999D03*
X205200001Y-108809999D03*
%TD*%
D12*
%TO.C,R33*%
X194075000Y-59000000D03*
X192425000Y-59000000D03*
%TD*%
D98*
%TO.C,C138*%
X70265001Y-140126250D03*
X70265001Y-138226250D03*
%TD*%
D41*
%TO.C,C256*%
X179210000Y-126125000D03*
X179210000Y-127675000D03*
%TD*%
D12*
%TO.C,R81*%
X202349999Y-127510002D03*
X200699999Y-127510002D03*
%TD*%
D56*
%TO.C,R20*%
X158430000Y-88883135D03*
X158430000Y-90533135D03*
%TD*%
D98*
%TO.C,C277*%
X192150001Y-137300002D03*
X192150001Y-135400002D03*
%TD*%
D99*
%TO.C,U13*%
X202980001Y-116390002D03*
X202980001Y-117760002D03*
X202980001Y-119130002D03*
X204350001Y-116390002D03*
X204350001Y-117760002D03*
X204350001Y-119130002D03*
X205720001Y-116390002D03*
X205720001Y-117760002D03*
X205720001Y-119130002D03*
D26*
X200900001Y-115010002D03*
X200900001Y-115510002D03*
X200900001Y-116010002D03*
X200900001Y-116510002D03*
X200900001Y-117010002D03*
X200900001Y-117510002D03*
X200900001Y-118010002D03*
X200900001Y-118510002D03*
X200900001Y-119010002D03*
X200900001Y-119510002D03*
X200900001Y-120010002D03*
X200900001Y-120510002D03*
D100*
X201600001Y-121210002D03*
X202100001Y-121210002D03*
X202600001Y-121210002D03*
X203100001Y-121210002D03*
X203600001Y-121210002D03*
X204100001Y-121210002D03*
X204600001Y-121210002D03*
X205100001Y-121210002D03*
X205600001Y-121210002D03*
X206100001Y-121210002D03*
X206600001Y-121210002D03*
X207100001Y-121210002D03*
D26*
X207800001Y-120510002D03*
X207800001Y-120010002D03*
X207800001Y-119510002D03*
X207800001Y-119010002D03*
X207800001Y-118510002D03*
X207800001Y-118010002D03*
X207800001Y-117510002D03*
X207800001Y-117010002D03*
X207800001Y-116510002D03*
X207800001Y-116010002D03*
X207800001Y-115510002D03*
X207800001Y-115010002D03*
D100*
X207100001Y-114310002D03*
X206600001Y-114310002D03*
X206100001Y-114310002D03*
X205600001Y-114310002D03*
X205100001Y-114310002D03*
X204600001Y-114310002D03*
X204100001Y-114310002D03*
X203600001Y-114310002D03*
X203100001Y-114310002D03*
X202600001Y-114310002D03*
X202100001Y-114310002D03*
X201600001Y-114310002D03*
%TD*%
D89*
%TO.C,L6*%
X195000000Y-115455000D03*
X195000000Y-112145000D03*
%TD*%
D37*
%TO.C,C207*%
X219200000Y-109150000D03*
X219200000Y-112100000D03*
%TD*%
D22*
%TO.C,C181*%
X198677002Y-38527000D03*
X200227002Y-38527000D03*
%TD*%
D35*
%TO.C,C253*%
X209025000Y-135399999D03*
X211975000Y-135399999D03*
%TD*%
D15*
%TO.C,C271*%
X111150000Y-38970000D03*
X111150000Y-39930000D03*
%TD*%
D42*
%TO.C,C235*%
X231200000Y-137900000D03*
X231200000Y-135200000D03*
%TD*%
D101*
%TO.C,U6*%
X161656000Y-104131500D03*
D102*
X161656000Y-105156500D03*
X161656000Y-106156500D03*
D101*
X161656000Y-107181500D03*
D103*
X162681000Y-104131500D03*
D104*
X162681000Y-105156500D03*
X162681000Y-106156500D03*
D103*
X162681000Y-107181500D03*
X163681000Y-104131500D03*
D104*
X163681000Y-105156500D03*
X163681000Y-106156500D03*
D103*
X163681000Y-107181500D03*
D101*
X164706000Y-104131500D03*
D102*
X164706000Y-105156500D03*
X164706000Y-106156500D03*
D101*
X164706000Y-107181500D03*
D105*
X160343500Y-103656500D03*
X160343500Y-104156500D03*
X160343500Y-104656500D03*
X160343500Y-105156500D03*
X160343500Y-105656500D03*
X160343500Y-106156500D03*
X160343500Y-106656500D03*
X160343500Y-107156500D03*
X160343500Y-107656500D03*
D106*
X161181000Y-108494000D03*
X161681000Y-108494000D03*
X162181000Y-108494000D03*
X162681000Y-108494000D03*
X163181000Y-108494000D03*
X163681000Y-108494000D03*
X164181000Y-108494000D03*
X164681000Y-108494000D03*
X165181000Y-108494000D03*
D105*
X166018500Y-107656500D03*
X166018500Y-107156500D03*
X166018500Y-106656500D03*
X166018500Y-106156500D03*
X166018500Y-105656500D03*
X166018500Y-105156500D03*
X166018500Y-104656500D03*
X166018500Y-104156500D03*
X166018500Y-103656500D03*
D106*
X165181000Y-102819000D03*
X164681000Y-102819000D03*
X164181000Y-102819000D03*
X163681000Y-102819000D03*
X163181000Y-102819000D03*
X162681000Y-102819000D03*
X162181000Y-102819000D03*
X161681000Y-102819000D03*
X161181000Y-102819000D03*
%TD*%
D22*
%TO.C,C56*%
X188845000Y-79005002D03*
X190395000Y-79005002D03*
%TD*%
D14*
%TO.C,R71*%
X204965001Y-131010000D03*
X206615001Y-131010000D03*
%TD*%
D92*
%TO.C,J13*%
X237400000Y-81850000D03*
X237400000Y-77600000D03*
X237400000Y-86100000D03*
%TD*%
D22*
%TO.C,C217*%
X225000000Y-127250000D03*
X226550000Y-127250000D03*
%TD*%
D69*
%TO.C,U15*%
X228550000Y-102772500D03*
X229600000Y-102772500D03*
X228550000Y-101722500D03*
X229600000Y-101722500D03*
D70*
X228100000Y-104050000D03*
X228750000Y-104050000D03*
X229400000Y-104050000D03*
X230050000Y-104050000D03*
D71*
X230877500Y-103222500D03*
X230877500Y-102572500D03*
X230877500Y-101922500D03*
X230877500Y-101272500D03*
D70*
X230050000Y-100445000D03*
X229400000Y-100445000D03*
X228750000Y-100445000D03*
X228100000Y-100445000D03*
D71*
X227272500Y-101272500D03*
X227272500Y-101922500D03*
X227272500Y-102572500D03*
X227272500Y-103222500D03*
%TD*%
D24*
%TO.C,C37*%
X161793500Y-112546500D03*
X160243500Y-112546500D03*
%TD*%
D55*
%TO.C,R7*%
X153700000Y-40020000D03*
X153700000Y-39000000D03*
%TD*%
D44*
%TO.C,R27*%
X125900000Y-147150000D03*
X125900000Y-146050000D03*
%TD*%
D15*
%TO.C,C275*%
X100844998Y-39970000D03*
X100844998Y-40930000D03*
%TD*%
D41*
%TO.C,C182*%
X171150000Y-135200000D03*
X171150000Y-136750000D03*
%TD*%
D55*
%TO.C,R13*%
X161800000Y-31360000D03*
X161800000Y-30340000D03*
%TD*%
D41*
%TO.C,C139*%
X81720000Y-132546250D03*
X81720000Y-134096250D03*
%TD*%
D107*
%TO.C,C190*%
X127850000Y-137510000D03*
X127850000Y-139170000D03*
%TD*%
D61*
%TO.C,TR1*%
X232600000Y-63700000D03*
X232600000Y-61160000D03*
X232600000Y-58620000D03*
X227520000Y-58620000D03*
X227520000Y-61160000D03*
X227520000Y-63700000D03*
%TD*%
D12*
%TO.C,R95*%
X55000000Y-37575000D03*
X53350000Y-37575000D03*
%TD*%
D22*
%TO.C,C232*%
X214870000Y-97440001D03*
X216420000Y-97440001D03*
%TD*%
D98*
%TO.C,C143*%
X72275001Y-140126250D03*
X72275001Y-138226250D03*
%TD*%
D14*
%TO.C,R50*%
X82720000Y-137546250D03*
X84370000Y-137546250D03*
%TD*%
D52*
%TO.C,C4*%
X167549998Y-36694998D03*
X166589998Y-36694998D03*
%TD*%
D108*
%TO.C,U10*%
X189189503Y-32576500D03*
D109*
X189189503Y-33314000D03*
X189189503Y-34314000D03*
D110*
X189189503Y-35051500D03*
D111*
X189927003Y-32576500D03*
D104*
X189927003Y-33314000D03*
X189927003Y-34314000D03*
D112*
X189927003Y-35051500D03*
D111*
X190927003Y-32576500D03*
D104*
X190927003Y-33314000D03*
X190927003Y-34314000D03*
D112*
X190927003Y-35051500D03*
D113*
X191664503Y-32576500D03*
D114*
X191664503Y-33314000D03*
X191664503Y-34314000D03*
D115*
X191664503Y-35051500D03*
D116*
X188102003Y-32314000D03*
X188102003Y-32814000D03*
X188102003Y-33314000D03*
X188102003Y-33814000D03*
X188102003Y-34314000D03*
X188102003Y-34814000D03*
X188102003Y-35314000D03*
D117*
X188927003Y-36139000D03*
X189427003Y-36139000D03*
X189927003Y-36139000D03*
X190427003Y-36139000D03*
X190927003Y-36139000D03*
X191427003Y-36139000D03*
X191927003Y-36139000D03*
D116*
X192752003Y-35314000D03*
X192752003Y-34814000D03*
X192752003Y-34314000D03*
X192752003Y-33814000D03*
X192752003Y-33314000D03*
X192752003Y-32814000D03*
X192752003Y-32314000D03*
D117*
X191927003Y-31489000D03*
X191427003Y-31489000D03*
X190927003Y-31489000D03*
X190427003Y-31489000D03*
X189927003Y-31489000D03*
X189427003Y-31489000D03*
X188927003Y-31489000D03*
%TD*%
D12*
%TO.C,R54*%
X212462000Y-32338999D03*
X210812000Y-32338999D03*
%TD*%
D56*
%TO.C,R99*%
X182745000Y-145989999D03*
X182745000Y-147639999D03*
%TD*%
D118*
%TO.C,U19*%
X181722500Y-124665000D03*
X181722500Y-125835000D03*
X182522500Y-124665000D03*
X182522500Y-125835000D03*
D119*
X180685000Y-124500000D03*
X180685000Y-125000000D03*
X180685000Y-125500000D03*
X180685000Y-126000000D03*
X183560000Y-126000000D03*
X183560000Y-125500000D03*
X183560000Y-125000000D03*
X183560000Y-124500000D03*
%TD*%
D17*
%TO.C,R31*%
X216900000Y-51525000D03*
X216900000Y-49875000D03*
%TD*%
%TO.C,JP9*%
X177575000Y-122050000D03*
X177575000Y-120400000D03*
%TD*%
D23*
%TO.C,C243*%
X197000000Y-102985002D03*
X197000000Y-101435002D03*
%TD*%
%TO.C,C214*%
X211500000Y-101525000D03*
X211500000Y-99975000D03*
%TD*%
D14*
%TO.C,R30*%
X185925000Y-56312499D03*
X187575000Y-56312499D03*
%TD*%
D12*
%TO.C,R41*%
X198860001Y-79760002D03*
X197210001Y-79760002D03*
%TD*%
D24*
%TO.C,C261*%
X183560001Y-127800000D03*
X182010001Y-127800000D03*
%TD*%
D56*
%TO.C,R21*%
X158450000Y-93383135D03*
X158450000Y-95033135D03*
%TD*%
D23*
%TO.C,C225*%
X218900000Y-102900000D03*
X218900000Y-101350000D03*
%TD*%
D41*
%TO.C,C202*%
X199000000Y-114125000D03*
X199000000Y-115675000D03*
%TD*%
%TO.C,C204*%
X209300001Y-119560001D03*
X209300001Y-121110001D03*
%TD*%
D120*
%TO.C,U8*%
X104477500Y-140840000D03*
X104477500Y-139690000D03*
X104477500Y-138540000D03*
X103327500Y-140840000D03*
X103327500Y-139690000D03*
X103327500Y-138540000D03*
X102177500Y-140840000D03*
X102177500Y-139690000D03*
X102177500Y-138540000D03*
D121*
X106265000Y-141940000D03*
X106265000Y-141440000D03*
X106265000Y-140940000D03*
X106265000Y-140440000D03*
X106265000Y-139940000D03*
X106265000Y-139440000D03*
X106265000Y-138940000D03*
X106265000Y-138440000D03*
X106265000Y-137940000D03*
X106265000Y-137440000D03*
D122*
X105577500Y-136752500D03*
X105077500Y-136752500D03*
X104577500Y-136752500D03*
X104077500Y-136752500D03*
X103577500Y-136752500D03*
X103077500Y-136752500D03*
X102577500Y-136752500D03*
X102077500Y-136752500D03*
X101577500Y-136752500D03*
X101077500Y-136752500D03*
D121*
X100390000Y-137440000D03*
X100390000Y-137940000D03*
X100390000Y-138440000D03*
X100390000Y-138940000D03*
X100390000Y-139440000D03*
X100390000Y-139940000D03*
X100390000Y-140440000D03*
X100390000Y-140940000D03*
X100390000Y-141440000D03*
X100390000Y-141940000D03*
D122*
X101077500Y-142627500D03*
X101577500Y-142627500D03*
X102077500Y-142627500D03*
X102577500Y-142627500D03*
X103077500Y-142627500D03*
X103577500Y-142627500D03*
X104077500Y-142627500D03*
X104577500Y-142627500D03*
X105077500Y-142627500D03*
X105577500Y-142627500D03*
%TD*%
D41*
%TO.C,C152*%
X207827002Y-29277998D03*
X207827002Y-30827998D03*
%TD*%
D22*
%TO.C,C52*%
X181566001Y-73469502D03*
X183116001Y-73469502D03*
%TD*%
D56*
%TO.C,R59*%
X206169001Y-30714001D03*
X206169001Y-32364001D03*
%TD*%
D37*
%TO.C,C134*%
X84250002Y-132626250D03*
X84250002Y-135576250D03*
%TD*%
D41*
%TO.C,C288*%
X169690002Y-121974999D03*
X169690002Y-123524999D03*
%TD*%
D43*
%TO.C,R25*%
X127250000Y-141540000D03*
X128350000Y-141540000D03*
%TD*%
D22*
%TO.C,C278*%
X214849999Y-93750002D03*
X216399999Y-93750002D03*
%TD*%
D69*
%TO.C,U14*%
X207627500Y-102950000D03*
X207627500Y-101900000D03*
X206577500Y-102950000D03*
X206577500Y-101900000D03*
D123*
X208905000Y-103400000D03*
X208905000Y-102750000D03*
X208905000Y-102100000D03*
X208905000Y-101450000D03*
D124*
X208077500Y-100622500D03*
X207427500Y-100622500D03*
X206777500Y-100622500D03*
X206127500Y-100622500D03*
D123*
X205300000Y-101450000D03*
X205300000Y-102100000D03*
X205300000Y-102750000D03*
X205300000Y-103400000D03*
D124*
X206127500Y-104227500D03*
X206777500Y-104227500D03*
X207427500Y-104227500D03*
X208077500Y-104227500D03*
%TD*%
D22*
%TO.C,C53*%
X181566001Y-71969503D03*
X183116001Y-71969503D03*
%TD*%
D14*
%TO.C,JP5*%
X226175000Y-139750000D03*
X227825000Y-139750000D03*
%TD*%
D15*
%TO.C,C17*%
X137335000Y-26000000D03*
X137335000Y-26960000D03*
%TD*%
D17*
%TO.C,R39*%
X204080001Y-65576603D03*
X204080001Y-63926603D03*
%TD*%
D12*
%TO.C,R18*%
X149976865Y-85158135D03*
X148326865Y-85158135D03*
%TD*%
D14*
%TO.C,R69*%
X199075000Y-111800000D03*
X200725000Y-111800000D03*
%TD*%
D15*
%TO.C,C12*%
X147335000Y-26000000D03*
X147335000Y-26960000D03*
%TD*%
D98*
%TO.C,C254*%
X190400000Y-105950000D03*
X190400000Y-104050000D03*
%TD*%
D125*
%TO.C,U22*%
X190350001Y-133374999D03*
X189400001Y-133374999D03*
X188450001Y-133374999D03*
X188450001Y-135649999D03*
X190350001Y-135649999D03*
%TD*%
D22*
%TO.C,C231*%
X228530001Y-97099999D03*
X230080001Y-97099999D03*
%TD*%
M02*
