M48
INCH
T1C0.0118
T2C0.0118
T3C0.0157
T4C0.0197
T5C0.0354
T6C0.0394
T7C0.0591
T8C0.0669
T9C0.0709
T10C0.1378
T11C0.0400
T12C0.0402
T13C0.1181
%
G90
G05
T1
X2.6772Y-1.8524
X2.6772Y-1.8888
X2.6772Y-1.9222
X2.6772Y-1.9587
X2.8012Y-1.8051
X2.8012Y-1.872
X2.8268Y-1.8219
X2.8268Y-1.8553
X2.8307Y-2.1634
X2.8307Y-2.1998
X2.8307Y-2.2333
X2.8307Y-2.2677
X2.8661Y-4.5374
X2.8681Y-4.4075
X3.1299Y-2.252
X3.1299Y-2.3386
X3.1535Y-2.2785
X3.1535Y-2.312
X3.2126Y-1.9803
X3.2894Y-2.0591
X3.3049Y-2.0334
X3.3071Y-3.9724
X3.3071Y-4.2087
X3.3384Y-2.0334
X3.3386Y-3.9724
X3.3386Y-4.2087
X3.3524Y-2.1516
X3.3543Y-2.0591
X3.3679Y-2.126
X3.4014Y-2.126
X3.4154Y-2.0571
X3.4173Y-2.1516
X3.4309Y-2.0278
X3.4644Y-2.0278
X3.4646Y-4.0846
X3.4783Y-2.1516
X3.4803Y-2.0571
X3.4939Y-2.126
X3.4939Y-4.0674
X3.5197Y-4.1437
X3.5274Y-2.126
X3.5274Y-4.0674
X3.5413Y-4.0965
X3.5433Y-2.1516
X3.5512Y-4.1417
X3.5669Y-4.1949
X3.5748Y-4.1654
X3.5827Y-1.8031
X3.5965Y-1.622
X3.6063Y-4.1024
X3.6199Y-1.6457
X3.6199Y-4.0741
X3.64Y-5.07
X3.6533Y-1.6457
X3.6533Y-4.0741
X3.6673Y-4.1909
X3.6693Y-4.1024
X3.6752Y-1.622
X3.6829Y-4.1634
X3.7163Y-4.1634
X3.7323Y-4.1909
X3.7343Y-1.6614
X3.7441Y-3.9724
X3.7459Y-1.6888
X3.7638Y-4.3661
X3.7793Y-1.6888
X3.7795Y-3.9724
X3.7913Y-1.6614
X3.7953Y-1.8169
X3.8071Y-4.0669
X3.8089Y-1.786
X3.8423Y-1.786
X3.8425Y-3.9764
X3.8583Y-1.815
X3.8602Y-1.6614
X3.8719Y-1.689
X3.872Y-4.0689
X3.9053Y-1.689
X3.9075Y-3.9744
X3.91Y-4.99
X3.91Y-5.14
X3.9173Y-1.6614
X3.9286Y-4.0644
X3.9685Y-3.9764
X3.9965Y-4.0674
X4.0256Y-2.0512
X4.0315Y-3.9744
X4.0595Y-4.0674
X4.0608Y-2.0506
X4.0807Y-3.6083
X4.0917Y-3.9744
X4.0943Y-2.0506
X4.1161Y-3.6693
X4.124Y-4.0689
X4.1299Y-2.0512
X4.1496Y-3.752
X4.1516Y-2.1102
X4.1575Y-1.7795
X4.1673Y-3.7244
X4.1732Y-1.6575
X4.1868Y-1.6864
X4.1868Y-2.1102
X4.2028Y-3.7244
X4.2126Y-5.3583
X4.2136Y-1.9272
X4.2165Y-3.7874
X4.2203Y-1.6864
X4.2203Y-2.1102
X4.2205Y-3.752
X4.2343Y-1.6575
X4.2372Y-3.8091
X4.2498Y-1.9338
X4.2559Y-2.1102
X4.2657Y-4.8425
X4.2707Y-3.8091
X4.2776Y-2.0374
X4.2795Y-4.311
X4.2833Y-1.9338
X4.2894Y-3.748
X4.2913Y-3.9606
X4.2933Y-3.7854
X4.2972Y-1.6614
X4.3128Y-1.6876
X4.3128Y-2.0368
X4.314Y-3.7224
X4.3179Y-1.9272
X4.3463Y-1.6876
X4.3463Y-2.0368
X4.3474Y-3.7224
X4.3602Y-1.6614
X4.3681Y-3.7894
X4.3701Y-3.75
X4.374Y-3.9724
X4.378Y-4.9882
X4.3819Y-2.0374
X4.3967Y-3.8091
X4.4213Y-2.5157
X4.4213Y-2.5506
X4.4213Y-2.5841
X4.4213Y-2.6201
X4.4301Y-3.8091
X4.439Y-5.0138
X4.4469Y-3.7224
X4.4587Y-3.7894
X4.4764Y-1.937
X4.4823Y-5.0138
X4.4833Y-3.7224
X4.5167Y-3.7224
X4.5276Y-5.0138
X4.5354Y-2.3661
X4.5354Y-2.4134
X4.5354Y-2.4882
X4.5354Y-2.5354
X4.5374Y-2.6004
X4.5374Y-2.6476
X4.5374Y-2.7224
X4.5374Y-2.7697
X4.5531Y-3.7224
X4.5669Y-2.3734
X4.5669Y-2.4069
X4.5669Y-2.4915
X4.5669Y-2.525
X4.5669Y-2.6096
X4.5669Y-2.6431
X4.5669Y-2.7278
X4.5669Y-2.7612
X4.6181Y-2.3071
X4.6181Y-2.3543
X4.6181Y-2.4252
X4.6181Y-2.4724
X4.6181Y-2.7776
X4.6181Y-2.8268
X4.6201Y-2.6575
X4.6201Y-2.7087
X4.6417Y-1.8346
X4.6417Y-1.8691
X4.6417Y-1.9026
X4.6417Y-1.937
X4.6477Y-2.7868
X4.6477Y-2.8203
X4.6489Y-2.6687
X4.6489Y-2.7022
X4.6492Y-2.3144
X4.6492Y-2.3478
X4.6496Y-3.6398
X4.6496Y-3.6772
X4.6508Y-2.4325
X4.6508Y-2.4659
X4.748Y-3.7244
X4.7559Y-3.9626
X4.7559Y-3.998
X4.7579Y-3.9272
X4.7598Y-3.8917
X4.7756Y-2.9567
X4.7835Y-3.4646
X4.7874Y-2.563
X4.7913Y-2.2756
X4.8228Y-2.2008
X4.8543Y-3.0984
X4.8543Y-3.3543
X4.8543Y-3.5394
X4.8583Y-2.5669
X4.8583Y-3.7205
X4.8622Y-2.2835
X4.8622Y-3.7992
X4.874Y-2.8346
X5.0039Y-3.8642
X5.0266Y-3.8386
X5.0472Y-2.2677
X5.06Y-3.8386
X5.0699Y-2.2874
X5.0827Y-3.8642
X5.1033Y-2.2874
X5.126Y-2.2677
X5.1299Y-2.2244
X5.1604Y-2.2244
X5.1732Y-0.8934
X5.1732Y-0.9252
X5.1939Y-2.2244
X5.2205Y-0.9882
X5.2205Y-2.2598
X5.2244Y-2.2244
X5.2283Y-1.1929
X5.2283Y-1.2234
X5.2283Y-1.2569
X5.2283Y-1.2874
X5.2431Y-2.2835
X5.2524Y-0.9894
X5.2766Y-2.2835
X5.2858Y-0.9894
X5.2913Y-2.752
X5.2992Y-2.2598
X5.3091Y-0.8927
X5.311Y-0.9252
X5.3189Y-0.9882
X5.3219Y-2.752
X5.3268Y-1.7982
X5.3268Y-1.8317
X5.3386Y-2.2008
X5.3543Y-1.5787
X5.3553Y-2.752
X5.3583Y-1.7913
X5.3583Y-1.8386
X5.3719Y-2.2065
X5.374Y-1.5512
X5.378Y-1.6024
X5.3799Y-0.9882
X5.3819Y-0.9252
X5.3858Y-2.752
X5.3898Y-0.8957
X5.3898Y-1.1929
X5.3898Y-1.2234
X5.3898Y-1.2569
X5.3898Y-1.2874
X5.3898Y-2.2638
X5.3898Y-2.6181
X5.3913Y-2.2309
X5.4055Y-1.5866
X5.4098Y-0.9882
X5.4134Y-2.4961
X5.4203Y-2.6181
X5.4252Y-2.2835
X5.4252Y-2.3144
X5.4252Y-2.3478
X5.4252Y-2.378
X5.437Y-2.4725
X5.4409Y-3.2913
X5.4433Y-0.9882
X5.4508Y-1.6831
X5.4537Y-2.6181
X5.4607Y-2.4488
X5.4645Y-0.8929
X5.4646Y-0.9252
X5.4685Y-4.1693
X5.4685Y-4.2835
X5.4705Y-4.2067
X5.4705Y-4.2461
X5.4744Y-0.9882
X5.4754Y-3.2913
X5.4803Y-1.6969
X5.4823Y-1.6496
X5.4843Y-1.8189
X5.4843Y-2.4252
X5.4843Y-2.6181
X5.504Y-1.6732
X5.5089Y-3.2913
X5.5138Y-1.8347
X5.5157Y-1.7854
X5.5374Y-0.9921
X5.5374Y-1.811
X5.5394Y-3.5256
X5.5433Y-0.9252
X5.5433Y-3.2913
X5.5456Y-0.8928
X5.5472Y-1.1929
X5.5472Y-1.2234
X5.5472Y-1.2569
X5.5472Y-1.2874
X5.5551Y-3.622
X5.5669Y-3.504
X5.5673Y-0.9907
X5.5787Y-3.6496
X5.5866Y-3.5453
X5.5866Y-3.7264
X5.5906Y-3.4803
X5.6008Y-0.9907
X5.6024Y-3.6732
X5.6063Y-3.5748
X5.6102Y-3.7519
X5.6161Y-3.4547
X5.622Y-0.8929
X5.622Y-0.9252
X5.626Y-3.6988
X5.6299Y-3.5984
X5.6319Y-0.9921
X5.6339Y-3.7756
X5.6575Y-3.6181
X5.6575Y-3.8012
X5.7008Y-0.9252
X5.7032Y-0.8922
X5.7343Y-0.9921
X5.7402Y-1.1929
X5.7402Y-1.2234
X5.7402Y-1.2569
X5.7402Y-1.2874
X5.7642Y-0.9909
X5.7976Y-0.9909
X5.8189Y-0.9252
X5.8189Y-1.378
X5.8209Y-0.8927
X5.8228Y-3.1575
X5.8268Y-2.2047
X5.8268Y-2.2913
X5.8287Y-0.9921
X5.8504Y-2.2313
X5.8504Y-2.2648
X5.8554Y-3.1575
X5.8661Y-1.9528
X5.8889Y-3.1575
X5.8897Y-1.9311
X5.8937Y-1.5906
X5.8957Y-1.065
X5.8976Y-1.8268
X5.9134Y-1.6142
X5.9134Y-1.9075
X5.9212Y-1.0473
X5.9213Y-3.1575
X5.9301Y-1.8189
X5.937Y-1.8858
X5.937Y-1.6378
X5.9449Y-1.0236
X5.9567Y-0.8937
X5.9567Y-0.9252
X5.9587Y-1.6594
X5.9636Y-1.8189
X5.9665Y-1.002
X5.9764Y-4.3504
X5.9764Y-4.3849
X5.9764Y-4.4184
X5.9764Y-4.4528
X5.9795Y-3.3014
X5.9961Y-1.8268
X6.0039Y-3.2638
X6.0433Y-3.2874
X6.063Y-4.7736
X6.0669Y-1.8996
X6.0709Y-3.311
X6.1033Y-1.8976
X6.128Y-4.6621
X6.1368Y-1.8976
X6.1542Y-4.7006
X6.1693Y-3.3346
X6.1732Y-1.8976
X6.1786Y-4.7393
X6.21Y-4.6206
X6.2323Y-0.8934
X6.2598Y-4.6949
X6.26Y-4.6406
X6.2677Y-3.4488
X6.2874Y-4.874
X6.3002Y-3.4646
X6.3071Y-4.5315
X6.3219Y-4.874
X6.3337Y-3.4646
X6.3504Y-0.8937
X6.3524Y-3.1398
X6.3524Y-3.7539
X6.3553Y-4.874
X6.3661Y-3.4488
X6.3819Y-3.1535
X6.3856Y-3.7615
X6.3898Y-4.874
X6.4154Y-3.1535
X6.4191Y-3.7615
X6.4449Y-3.1398
X6.4528Y-3.7539
X6.4764Y-4.8858
X6.4941Y-3.9331
X6.5039Y-4.8632
X6.5138Y-3.9626
X6.5276Y-4.8395
X6.5315Y-3.628
X6.5315Y-3.7067
X6.5374Y-3.9862
X6.5541Y-4.815
X6.5548Y-3.6504
X6.5548Y-3.6839
X6.561Y-4.0118
X6.8406Y-2.7736
X7.0783Y-3.0827
X7.0783Y-3.1339
X7.0945Y-3.0425
X7.1019Y-3.1693
X7.1374Y-3.185
X7.1457Y-3.0512
X7.1689Y-3.1693
X7.1811Y-3.0858
X7.2126Y-3.1811
X7.2126Y-3.2156
X7.2126Y-3.249
X7.2126Y-3.2835
X7.2756Y-2.9252
X7.3583Y-2.6808
X7.3591Y-2.8614
X7.3622Y-3.0315
X7.3721Y-2.745
X7.3721Y-2.7987
X7.3858Y-3.4213
X7.4016Y-3.063
X7.4457Y-3.4994
X7.4481Y-2.3645
X7.4555Y-3.5487
X7.4567Y-3.0394
X7.4685Y-3.5906
X7.4873Y-3.4686
X7.4921Y-2.5039
X7.51Y-3.5866
X7.5126Y-3.4424
X7.5433Y-3.4685
X7.5512Y-2.5197
X7.5512Y-3.5945
X7.5709Y-3.5591
X7.6189Y-3.0327
X7.6732Y-4.6142
X7.6732Y-4.6535
X7.6732Y-4.6929
X7.6949Y-2.5098
X7.7047Y-4.6142
X7.7047Y-4.6535
X7.7047Y-4.6929
X7.7441Y-4.6142
X7.7441Y-4.6535
X7.7441Y-4.6929
X7.759Y-3.7544
X7.79Y-3.73
X7.8Y-3.64
X7.8031Y-1.3047
X7.8031Y-1.3381
X7.82Y-3.7056
X7.871Y-4.5512
X7.872Y-4.7343
X7.91Y-4.4435
X7.9685Y-4.3976
X7.9705Y-4.3543
X8.0391Y-4.4547
X8.128Y-4.4469
X8.1339Y-4.8976
X8.1339Y-4.9331
X8.1654Y-4.8976
X8.1654Y-4.9331
X8.1969Y-4.8976
X8.1969Y-4.9291
X8.2087Y-1.7402
X8.2441Y-2.0512
X8.2441Y-4.6693
X8.2677Y-4.4921
X8.2785Y-2.0512
X8.2795Y-4.6299
X8.3031Y-1.748
X8.312Y-2.0512
X8.3465Y-2.0512
X8.3976Y-1.6969
X8.4213Y-1.7402
X8.4213Y-1.7746
X8.4213Y-1.8081
X8.4213Y-1.8425
X8.4803Y-1.5374
X8.4803Y-1.5694
X8.4803Y-1.6029
X8.4803Y-1.6358
X8.5669Y-1.5205
X8.6081Y-1.5008
X8.626Y-4.5472
X8.6339Y-4.6496
X8.6514Y-1.4811
X8.6929Y-1.4606
X8.8701Y-2.4083
X8.8759Y-3.1264
T2
X2.9843Y-5.3396
X2.9843Y-5.3987
X2.9843Y-5.4538
X3.0354Y-5.3396
X3.0354Y-5.3987
X3.0354Y-5.4538
X3.0945Y-5.3396
X3.0945Y-5.3987
X3.0945Y-5.4538
X4.0001Y-5.4317
X4.0001Y-5.477
X4.0001Y-5.5222
X4.0001Y-5.5675
X4.0454Y-5.4317
X4.0454Y-5.477
X4.0454Y-5.5222
X4.0454Y-5.5675
X4.0906Y-5.4317
X4.0906Y-5.477
X4.0906Y-5.5222
X4.0906Y-5.5675
X4.1359Y-5.4317
X4.1359Y-5.477
X4.1359Y-5.5222
X4.1359Y-5.5675
X6.3851Y-4.1203
X6.3851Y-4.1597
X6.3851Y-4.1991
X6.4244Y-4.1203
X6.4244Y-4.1597
X6.4244Y-4.1991
X6.4638Y-4.1203
X6.4638Y-4.1597
X6.4638Y-4.1991
X7.1505Y-4.8969
X7.1505Y-4.9311
X7.1505Y-4.9654
X7.1899Y-4.8969
X7.1899Y-4.9311
X7.1899Y-4.9654
X7.3489Y-4.0418
X7.3489Y-4.0812
X7.3878Y-4.0418
X7.3878Y-4.0812
X7.422Y-4.0418
X7.422Y-4.0812
X7.4578Y-1.2919
X7.4578Y-1.3313
X7.4578Y-1.3706
X7.4971Y-1.2919
X7.4971Y-1.3313
X7.4971Y-1.3706
X7.5228Y-2.6661
X7.5228Y-2.7183
X7.5228Y-2.7705
X7.5228Y-2.8226
X7.5228Y-2.8748
X7.5365Y-1.2919
X7.5365Y-1.3313
X7.5365Y-1.3706
X7.575Y-2.6661
X7.575Y-2.7183
X7.575Y-2.7705
X7.575Y-2.8226
X7.575Y-2.8748
X7.6272Y-2.6661
X7.6272Y-2.7183
X7.6272Y-2.7705
X7.6272Y-2.8226
X7.6272Y-2.8748
X7.6793Y-2.6661
X7.6793Y-2.7183
X7.6793Y-2.7705
X7.6793Y-2.8226
X7.6793Y-2.8748
X7.7315Y-2.6661
X7.7315Y-2.7183
X7.7315Y-2.7705
X7.7315Y-2.8226
X7.7315Y-2.8748
X7.9744Y-4.5654
X7.9744Y-4.6126
X7.9744Y-4.6598
X7.9744Y-4.7071
X8.0217Y-4.5654
X8.0217Y-4.6126
X8.0217Y-4.6598
X8.0217Y-4.7071
X8.0689Y-4.5654
X8.0689Y-4.6126
X8.0689Y-4.6598
X8.0689Y-4.7071
X8.1161Y-4.5654
X8.1161Y-4.6126
X8.1161Y-4.6598
X8.1161Y-4.7071
X8.1172Y-1.4976
X8.1172Y-1.5271
X8.1172Y-1.5665
X8.1172Y-1.596
X8.1251Y-4.0039
X8.1251Y-4.0315
X8.1251Y-4.06
X8.1536Y-4.0049
X8.1536Y-4.0325
X8.1536Y-4.061
X8.1566Y-1.4976
X8.1566Y-1.5271
X8.1566Y-1.5665
X8.1566Y-1.596
X8.1822Y-4.0049
X8.1822Y-4.0325
X8.1822Y-4.061
X8.1959Y-1.4976
X8.1959Y-1.5271
X8.1959Y-1.5665
X8.1959Y-1.596
X8.2315Y-5.4444
X8.2315Y-5.4838
X8.2353Y-1.4976
X8.2353Y-1.5271
X8.2353Y-1.5665
X8.2353Y-1.596
X8.2657Y-5.4444
X8.2657Y-5.4838
X8.2747Y-1.4976
X8.2747Y-1.5271
X8.2747Y-1.5665
X8.2747Y-1.596
X8.3046Y-5.4444
X8.3046Y-5.4838
X8.4508Y-4.0375
X8.4508Y-4.066
X8.4518Y-4.009
X8.4793Y-4.0375
X8.4793Y-4.066
X8.4803Y-4.009
X8.5069Y-4.0375
X8.5069Y-4.066
X8.5079Y-4.009
X8.6024Y-5.3882
X8.6024Y-5.4295
X8.6181Y-5.4089
X8.6339Y-5.3882
X8.6339Y-5.4295
X8.9902Y-4.0255
X8.9902Y-4.054
X8.9911Y-3.9969
X9.0187Y-4.0255
X9.0187Y-4.054
X9.0197Y-3.9969
X9.0463Y-4.0255
X9.0463Y-4.054
X9.0472Y-3.9969
T3
X2.1024Y-1.5217
X2.7579Y-5.128
X2.7657Y-5.3976
X2.8307Y-5.3071
X2.8445Y-5.6969
X2.8504Y-5.3976
X2.9331Y-5.0394
X2.9814Y-5.6215
X3.0157Y-5.626
X3.1398Y-5.6909
X3.1732Y-3.8976
X3.1732Y-3.9567
X3.1732Y-4.1614
X3.1732Y-4.2087
X3.19Y-4.25
X3.1969Y-4.0079
X3.2165Y-1.7362
X3.2205Y-3.8976
X3.2205Y-3.9567
X3.2205Y-4.16
X3.2205Y-4.21
X3.237Y-5.3247
X3.2677Y-3.8976
X3.2677Y-3.9567
X3.27Y-4.16
X3.27Y-4.21
X3.2756Y-1.7874
X3.3189Y-3.9094
X3.3268Y-5.063
X3.3504Y-3.9409
X3.3583Y-4.1693
X3.3642Y-5.4134
X3.3681Y-5.5335
X3.5236Y-5.315
X3.6417Y-5.7559
X3.685Y-1.6929
X3.685Y-2.0315
X3.9016Y-5.2894
X3.9346Y-5.6646
X3.9646Y-5.7343
X4.0264Y-5.663
X4.0728Y-5.878
X4.1044Y-5.6654
X4.1457Y-4.1181
X4.1575Y-2.0276
X4.1693Y-4.5079
X4.1776Y-5.6656
X4.2047Y-4.1614
X4.2047Y-5.937
X4.2319Y-5.5799
X4.313Y-5.4134
X4.3583Y-5.3307
X4.3858Y-5.8189
X4.4409Y-2.0315
X4.4488Y-1.689
X4.4744Y-5.936
X4.687Y-5.8219
X4.9232Y-5.6663
X4.9469Y-5.5069
X5.0364Y-5.5266
X5.189Y-1.122
X5.3712Y-5.5364
X5.4213Y-5.7598
X5.4252Y-5.7047
X5.4331Y-5.5
X5.4331Y-5.5512
X5.4646Y-5.7874
X5.5039Y-5.5
X5.5236Y-5.7874
X5.5512Y-5.1457
X5.5709Y-5.5039
X5.5709Y-5.7047
X5.5709Y-5.7638
X5.5748Y-5.5551
X5.8091Y-3.9193
X5.8701Y-3.7244
X5.9016Y-3.5276
X5.9055Y-3.3937
X5.9429Y-3.3859
X5.9685Y-4.0433
X5.9921Y-3.878
X6.0276Y-3.7402
X6.0492Y-1.6102
X6.0591Y-4.0354
X6.0784Y-0.9571
X6.0869Y-1.2606
X6.0925Y-4.2677
X6.136Y-3.3645
X6.1732Y-1.4606
X6.1772Y-1.1417
X6.187Y-3.565
X6.1943Y-0.9266
X6.1969Y-5.1378
X6.1969Y-5.2047
X6.2087Y-3.3976
X6.2244Y-5.3504
X6.2283Y-1.5433
X6.2402Y-1.5118
X6.2402Y-3.7992
X6.2402Y-5.1378
X6.2539Y-1.6299
X6.2598Y-4.1339
X6.2717Y-0.8976
X6.2835Y-5.1378
X6.2874Y-1.2874
X6.2874Y-5.2992
X6.2874Y-5.3504
X6.311Y-0.8976
X6.3287Y-3.9764
X6.3346Y-1.8031
X6.3504Y-5.2992
X6.3583Y-5.3504
X6.3701Y-1.3406
X6.374Y-4.315
X6.378Y-1.4134
X6.3976Y-0.9055
X6.4134Y-5.3543
X6.4173Y-5.1614
X6.4173Y-5.2165
X6.4173Y-5.2795
X6.4291Y-1.241
X6.4331Y-0.9055
X6.4606Y-1.5241
X6.4724Y-3.8976
X6.4921Y-1.4449
X6.4961Y-1.626
X6.5039Y-5.1457
X6.5039Y-5.1969
X6.5039Y-5.2441
X6.5039Y-5.2992
X6.5362Y-3.8787
X6.5394Y-1.4685
X6.5433Y-1.3407
X6.5512Y-5.1457
X6.5591Y-1.5241
X6.5591Y-5.3031
X6.5669Y-3.9449
X6.5677Y-3.7382
X6.5866Y-1.6339
X6.6063Y-5.4724
X6.6142Y-5.1417
X6.6142Y-5.3071
X6.622Y-1.2126
X6.6299Y-4.7559
X6.6535Y-5.6417
X6.6614Y-5.378
X6.6614Y-5.4213
X6.6654Y-1.2441
X6.6654Y-5.4724
X6.6654Y-5.5315
X6.6693Y-5.1457
X6.6732Y-5.311
X6.6811Y-5.7677
X6.6938Y-1.5241
X6.7126Y-5.7008
X6.7362Y-5.1457
X6.7362Y-5.2874
X6.7362Y-5.5276
X6.7362Y-5.9882
X6.752Y-1.4803
X6.754Y-3.6937
X6.7598Y-1.2402
X6.7677Y-5.1811
X6.7677Y-5.2362
X6.7677Y-5.7008
X6.7903Y-1.2795
X6.7953Y-5.7677
X6.8228Y-4.9213
X6.8228Y-5.6378
X6.8228Y-5.7008
X6.8858Y-2.4921
X6.8898Y-2.2795
X6.8957Y-3.6071
X7.0157Y-2.2087
X7.0276Y-2.248
X7.0433Y-2.1732
X7.0748Y-2.4843
X7.0945Y-5.0276
X7.122Y-4.5276
X7.1299Y-2.1654
X7.1457Y-1.2008
X7.1654Y-3.7402
X7.1654Y-4.6614
X7.1732Y-2.4488
X7.1969Y-2.2756
X7.2008Y-2.189
X7.2126Y-2.2323
X7.2165Y-2.4291
X7.2244Y-4.7343
X7.2441Y-1.4035
X7.2638Y-2.6142
X7.2756Y-2.4291
X7.2836Y-2.6479
X7.2933Y-4.5965
X7.2933Y-4.6654
X7.2933Y-4.7343
X7.3031Y-1.3386
X7.3091Y-1.3819
X7.314Y-1.4921
X7.3247Y-1.5506
X7.3445Y-2.4252
X7.3475Y-1.1969
X7.3583Y-1.437
X7.3583Y-5.248
X7.3799Y-5.1752
X7.4016Y-4.5965
X7.4016Y-4.6654
X7.4016Y-4.7343
X7.4213Y-2.2756
X7.437Y-2.4282
X7.4409Y-1.2008
X7.4409Y-5.5315
X7.4646Y-3.1496
X7.4843Y-1.5118
X7.4902Y-4.5965
X7.4902Y-4.6654
X7.4902Y-4.7343
X7.5Y-3.2795
X7.5276Y-5.252
X7.5354Y-5.1732
X7.565Y-5.2854
X7.5669Y-3.2441
X7.6063Y-5.748
X7.633Y-1.3541
X7.6417Y-3.063
X7.7147Y-1.1379
X7.752Y-1.1377
X7.7539Y-4.1089
X7.7539Y-3.9528
X7.7638Y-3.1969
X7.7677Y-3.3228
X7.7795Y-1.4429
X7.7874Y-3.5591
X7.7913Y-3.0394
X7.8031Y-2.5669
X7.8122Y-2.4969
X7.813Y-3.9528
X7.815Y-4.1102
X7.8169Y-1.1378
X7.8307Y-2.1772
X7.8346Y-2.2165
X7.8465Y-2.6102
X7.8504Y-5.0197
X7.8543Y-1.1378
X7.8661Y-2.1535
X7.8701Y-3.0394
X7.8701Y-3.1772
X7.878Y-2.9173
X7.8833Y-2.79
X7.8858Y-4.1102
X7.8898Y-4.811
X7.8945Y-2.8361
X7.9016Y-4.3031
X7.9173Y-5.1575
X7.9252Y-2.3386
X7.9331Y-4.8111
X7.9449Y-3.9409
X7.9508Y-1.7539
X7.9528Y-2.1417
X7.9567Y-4.1102
X7.9665Y-1.5059
X7.9665Y-4.9606
X7.9724Y-2.7953
X7.9764Y-2.5354
X7.9764Y-2.5945
X7.9803Y-2.2441
X7.9803Y-3.872
X8.0157Y-5.1969
X8.0168Y-1.4858
X8.0175Y-2.1791
X8.0197Y-4.1102
X8.0276Y-1.815
X8.0276Y-4.815
X8.0315Y-4.2717
X8.0354Y-3.1024
X8.0394Y-2.8465
X8.0472Y-2.2087
X8.0591Y-4.9882
X8.0669Y-5.2047
X8.0709Y-2.5157
X8.0787Y-1.2106
X8.0787Y-2.7008
X8.0787Y-3.2874
X8.0866Y-2.4252
X8.1063Y-4.8228
X8.1102Y-3.1693
X8.1102Y-3.2559
X8.1102Y-3.3268
X8.1299Y-1.8189
X8.1339Y-5.1969
X8.1378Y-1.1339
X8.1436Y-1.7559
X8.1496Y-2.9331
X8.1594Y-5.6201
X8.1594Y-5.6693
X8.1594Y-5.7185
X8.1614Y-1.3504
X8.1693Y-2.5984
X8.1693Y-4.4094
X8.1822Y-1.3126
X8.189Y-2.3819
X8.2047Y-1.3524
X8.2047Y-3.2441
X8.2087Y-4.4094
X8.2087Y-5.6201
X8.2087Y-5.6693
X8.2087Y-5.7185
X8.2283Y-3.0118
X8.2362Y-4.813
X8.2362Y-5.0197
X8.2402Y-3.3386
X8.2461Y-3.8819
X8.248Y-2.5197
X8.248Y-3.2677
X8.248Y-4.4094
X8.2677Y-4.4567
X8.2756Y-3.3071
X8.2756Y-4.9134
X8.2756Y-4.9567
X8.2845Y-1.3637
X8.2874Y-4.4094
X8.3071Y-2.3425
X8.3189Y-4.3543
X8.3268Y-2.4803
X8.3268Y-3.8976
X8.3287Y-1.3524
X8.3425Y-3.4398
X8.3465Y-3.0315
X8.3465Y-3.2283
X8.376Y-5.6516
X8.3858Y-5.3346
X8.3957Y-3.6319
X8.3957Y-3.6909
X8.3957Y-3.7697
X8.3957Y-3.8386
X8.3957Y-5.5787
X8.3976Y-1.0925
X8.4291Y-1.6732
X8.439Y-1.5472
X8.4449Y-2.3425
X8.4449Y-2.4803
X8.4646Y-3.0315
X8.4843Y-3.2087
X8.4961Y-1.9646
X8.5079Y-2.0669
X8.561Y-3.6909
X8.561Y-3.8346
X8.563Y-3.628
X8.6102Y-5.6496
X8.6398Y-3.935
X8.6417Y-4.4783
X8.6417Y-4.7244
X8.6614Y-4.0728
X8.6732Y-4.5984
X8.6772Y-5.7244
X8.6811Y-4.6969
X8.7402Y-4.4783
X8.7402Y-4.5965
X8.7402Y-4.7244
X8.7441Y-5.248
X8.7756Y-5.8307
X8.7795Y-5.3937
X8.8189Y-2.2835
X8.8228Y-5.3937
X8.8583Y-3.2874
X8.878Y-5.1417
X8.878Y-5.3937
X8.8878Y-4.4783
X8.8878Y-4.5965
X8.8878Y-4.7244
X8.9272Y-4.9606
X8.9291Y-3.6142
X8.9291Y-3.6811
X8.9291Y-3.7559
X8.9291Y-3.8228
X8.9291Y-3.8858
X8.9685Y-5.3425
X8.9803Y-1.7874
X8.9862Y-5.1476
X8.9882Y-4.9961
X9.0315Y-5.3425
X9.0354Y-5.4823
X9.0453Y-4.9705
X9.0453Y-5.1476
X9.0827Y-5.4843
X9.0925Y-3.8248
X9.0965Y-3.6201
X9.0965Y-3.6811
X9.1024Y-5.2717
X9.124Y-5.1476
X9.1339Y-2.1457
X9.1339Y-3.3858
X9.1339Y-5.4823
X9.1614Y-3.75
X9.1634Y-5.4232
X9.1732Y-2.6378
X9.1732Y-2.8937
X9.1752Y-3.9232
X9.185Y-5.0945
X9.1929Y-4.0394
X9.1929Y-4.9803
X9.2126Y-3.5236
X9.2323Y-2.0079
X9.3504Y-2.5984
X9.3504Y-2.9528
X9.3504Y-3.5236
X9.3701Y-2.0276
T4
X1.6683Y-1.1811
X1.6683Y-5.9055
X1.6986Y-1.108
X1.6986Y-1.2542
X1.6986Y-5.8324
X1.6986Y-5.9786
X1.7717Y-1.0778
X1.7717Y-1.2844
X1.7717Y-5.8022
X1.7717Y-6.0089
X1.8258Y-1.7799
X1.8258Y-4.2209
X1.8447Y-1.108
X1.8447Y-1.2542
X1.8447Y-5.8324
X1.8447Y-5.9786
X1.8561Y-1.7068
X1.8561Y-1.853
X1.8561Y-4.1478
X1.8561Y-4.2939
X1.875Y-1.1811
X1.875Y-5.9055
X1.9291Y-1.6766
X1.9291Y-1.8833
X1.9291Y-4.1175
X1.9291Y-4.3242
X2.0022Y-1.7068
X2.0022Y-1.853
X2.0022Y-4.1478
X2.0022Y-4.2939
X2.0325Y-1.7799
X2.0325Y-4.2209
X4.7785Y-1.7799
X4.7982Y-4.2209
X4.8088Y-1.7068
X4.8088Y-1.853
X4.8285Y-4.1478
X4.8285Y-4.2939
X4.8819Y-1.6766
X4.8819Y-1.8833
X4.9016Y-4.1175
X4.9016Y-4.3242
X4.955Y-1.7068
X4.955Y-1.853
X4.9747Y-4.1478
X4.9747Y-4.2939
X4.9852Y-1.7799
X5.0049Y-4.2209
X9.1486Y-1.1811
X9.1486Y-5.9055
X9.1789Y-1.108
X9.1789Y-1.2542
X9.1789Y-5.8324
X9.1789Y-5.9786
X9.252Y-1.0778
X9.252Y-1.2844
X9.252Y-5.8022
X9.252Y-6.0089
X9.325Y-1.108
X9.325Y-1.2542
X9.325Y-5.8324
X9.325Y-5.9786
X9.3553Y-1.1811
X9.3553Y-5.9055
T5
X5.6358Y-5.1457
X5.6358Y-5.2244
X5.7146Y-5.1457
X5.7146Y-5.2244
X5.7933Y-5.1457
X5.7933Y-5.2244
X5.872Y-5.1457
X5.872Y-5.2244
X5.9508Y-5.1457
X5.9508Y-5.2244
X6.0295Y-5.1457
X6.0295Y-5.2244
X6.1083Y-5.1457
X6.1083Y-5.2244
T6
X1.6654Y-4.6512
X1.6654Y-4.7512
X1.6654Y-4.8512
X1.6654Y-4.9512
X1.6654Y-5.0512
X1.6654Y-5.1512
X1.6654Y-5.2512
X1.6654Y-5.3512
X1.6654Y-5.4512
X1.6654Y-5.5512
X1.7654Y-4.6512
X1.7654Y-4.7512
X1.7654Y-4.8512
X1.7654Y-4.9512
X1.7654Y-5.0512
X1.7654Y-5.1512
X1.7654Y-5.2512
X1.7654Y-5.3512
X1.7654Y-5.4512
X1.7654Y-5.5512
X2.2674Y-1.2753
X2.2674Y-1.3753
X2.2921Y-4.6614
X2.2921Y-4.7614
X2.3674Y-1.2753
X2.3674Y-1.3753
X2.3921Y-4.6614
X2.3921Y-4.7614
X2.4674Y-1.2753
X2.4674Y-1.3753
X2.4921Y-4.6614
X2.4921Y-4.7614
X2.5674Y-1.2753
X2.5674Y-1.3753
X2.5921Y-4.6614
X2.5921Y-4.7614
X2.6674Y-1.2753
X2.6674Y-1.3753
X2.6921Y-4.6614
X2.6921Y-4.7614
X2.7674Y-1.2753
X2.7674Y-1.3753
X2.7921Y-4.6614
X2.7921Y-4.7614
X2.8674Y-1.2753
X2.8674Y-1.3753
X2.8921Y-4.6614
X2.8921Y-4.7614
X2.9674Y-1.2753
X2.9674Y-1.3753
X2.9921Y-4.6614
X2.9921Y-4.7614
X3.0674Y-1.2753
X3.0674Y-1.3753
X3.0921Y-4.6614
X3.0921Y-4.7614
X3.1674Y-1.2753
X3.1674Y-1.3753
X3.1921Y-4.6614
X3.1921Y-4.7614
X3.2674Y-1.2753
X3.2674Y-1.3753
X3.2921Y-4.6614
X3.2921Y-4.7614
X3.3674Y-1.2753
X3.3674Y-1.3753
X3.3921Y-4.6614
X3.3921Y-4.7614
X3.4674Y-1.2753
X3.4674Y-1.3753
X3.4921Y-4.6614
X3.4921Y-4.7614
X3.5674Y-1.2753
X3.5674Y-1.3753
X3.5921Y-4.6614
X3.5921Y-4.7614
X3.6614Y-5.348
X3.6614Y-5.448
X3.6614Y-5.548
X3.6614Y-5.648
X3.6674Y-1.2753
X3.6674Y-1.3753
X3.6921Y-4.6614
X3.6921Y-4.7614
X3.7614Y-5.348
X3.7614Y-5.448
X3.7614Y-5.548
X3.7614Y-5.648
X3.7674Y-1.2753
X3.7674Y-1.3753
X3.7921Y-4.6614
X3.7921Y-4.7614
X3.8674Y-1.2753
X3.8674Y-1.3753
X3.8921Y-4.6614
X3.8921Y-4.7614
X3.9674Y-1.2753
X3.9674Y-1.3753
X3.9921Y-4.6614
X3.9921Y-4.7614
X4.0674Y-1.2753
X4.0674Y-1.3753
X4.0921Y-4.6614
X4.0921Y-4.7614
X4.1674Y-1.2753
X4.1674Y-1.3753
X4.1921Y-4.6614
X4.1921Y-4.7614
X4.4862Y-5.3449
X4.4862Y-5.4449
X4.4862Y-5.5449
X4.4862Y-5.6449
X4.5016Y-4.7189
X4.5016Y-4.8189
X4.5862Y-5.3449
X4.5862Y-5.4449
X4.5862Y-5.5449
X4.5862Y-5.6449
X4.6016Y-4.7189
X4.6016Y-4.8189
X4.7016Y-4.7189
X4.7016Y-4.8189
X4.8016Y-4.7189
X4.8016Y-4.8189
X4.9016Y-4.7189
X4.9016Y-4.8189
X5.0016Y-4.7189
X5.0016Y-4.8189
X5.1016Y-4.7189
X5.1016Y-4.8189
X5.2016Y-4.7189
X5.2016Y-4.8189
X5.3016Y-4.7189
X5.3016Y-4.8189
X5.4016Y-4.7189
X5.4016Y-4.8189
X5.5016Y-4.7189
X5.5016Y-4.8189
X5.6016Y-4.7189
X5.6016Y-4.8189
X7.3685Y-5.0374
X7.4685Y-5.0374
X7.525Y-4.2874
X7.625Y-4.2874
X8.437Y-5.0787
X8.437Y-5.1787
X9.0311Y-4.3193
X9.1311Y-4.3193
T7
X2.3976Y-5.2303
X6.7984Y-3.3693
X6.8559Y-4.163
X7.0866Y-1.6299
X7.848Y-5.4866
X7.848Y-5.8563
T8
X2.2976Y-5.1303
X2.2976Y-5.3303
X2.4976Y-5.1303
X2.4976Y-5.3303
X6.6984Y-3.2693
X6.6984Y-3.4693
X6.7559Y-4.063
X6.7559Y-4.263
X6.8984Y-3.2693
X6.8984Y-3.4693
X6.9559Y-4.063
X6.9559Y-4.263
X6.9866Y-1.5299
X6.9866Y-1.7299
X7.1866Y-1.5299
X7.1866Y-1.7299
X7.748Y-5.3866
X7.748Y-5.5866
X7.748Y-5.7563
X7.748Y-5.9563
X7.948Y-5.3866
X7.948Y-5.5866
X7.948Y-5.7563
X7.948Y-5.9563
T9
X6.1929Y-5.5236
X6.1929Y-5.689
X6.3583Y-5.5236
X6.3583Y-5.689
X6.5236Y-5.5236
X6.5236Y-5.689
T10
X1.7717Y-1.1811
X1.7717Y-5.9055
X1.9291Y-1.7799
X1.9291Y-4.2209
X4.8819Y-1.7799
X4.9016Y-4.2209
X9.252Y-1.1811
X9.252Y-5.9055
T11
X3.1784Y-1.7787
X3.1784Y-4.0621
X4.5358Y-1.7787
X4.5358Y-4.0621
T12
X4.9016Y-2.2429
X4.9016Y-3.7579
T13
X6.1929Y-5.9764
X6.5236Y-5.9764
T6
G00X5.7736Y-5.5551
M15
G01X5.7972Y-5.5551
M16
G05
G00X5.7736Y-5.7913
M15
G01X5.7972Y-5.7913
M16
G05
G00X5.9705Y-5.6614
M15
G01X5.9705Y-5.685
M16
G05
T0
M30
