%TF.GenerationSoftware,KiCad,Pcbnew,7.0.8-7.0.8~ubuntu22.04.1*%
%TF.CreationDate,2024-12-17T15:10:34+01:00*%
%TF.ProjectId,Bread70,42726561-6437-4302-9e6b-696361645f70,rev?*%
%TF.SameCoordinates,Original*%
%TF.FileFunction,Profile,NP*%
%FSLAX46Y46*%
G04 Gerber Fmt 4.6, Leading zero omitted, Abs format (unit mm)*
G04 Created by KiCad (PCBNEW 7.0.8-7.0.8~ubuntu22.04.1) date 2024-12-17 15:10:34*
%MOMM*%
%LPD*%
G01*
G04 APERTURE LIST*
%TA.AperFunction,Profile*%
%ADD10C,0.100000*%
%TD*%
G04 APERTURE END LIST*
D10*
X40000000Y-25000000D02*
X55000000Y-25000000D01*
X65250000Y-21800000D02*
X65250000Y-24400000D01*
X55000000Y-28750000D02*
X55000000Y-25000000D01*
X80700000Y-25000000D02*
X130685000Y-25000000D01*
X167985000Y-25000000D02*
X240000000Y-25000000D01*
X164985000Y-25000000D02*
G75*
G03*
X167985000Y-25000000I1500000J0D01*
G01*
X78000000Y-25000000D02*
X78000000Y-19900000D01*
X78000000Y-19900000D02*
X77500000Y-19400000D01*
X240000000Y-155000000D02*
X240000000Y-25000000D01*
X69250000Y-28750000D02*
G75*
G03*
X69250000Y-24400000I0J2175000D01*
G01*
X40000000Y-155000000D02*
X240000000Y-155000000D01*
X40000000Y-25000000D02*
X40000000Y-155000000D01*
X65250000Y-24400000D02*
X69250000Y-24400000D01*
X78000000Y-25000000D02*
G75*
G03*
X80700000Y-25000000I1350000J0D01*
G01*
X66700000Y-19400000D02*
X77500000Y-19400000D01*
X66700000Y-19400000D02*
X65250000Y-21800000D01*
X55000000Y-28750000D02*
X69250000Y-28750000D01*
%TO.C,J8*%
X164985000Y-25000000D02*
X164985000Y-17100000D01*
X164985000Y-17100000D02*
X164485000Y-16600000D01*
X164485000Y-16600000D02*
X154285000Y-16600000D01*
X153785000Y-24050000D02*
X153785000Y-17100000D01*
X153785000Y-17100000D02*
X154285000Y-16600000D01*
X151885000Y-24050000D02*
X151885000Y-17100000D01*
X151885000Y-17100000D02*
X151385000Y-16600000D01*
X151385000Y-16600000D02*
X131185000Y-16600000D01*
X130685000Y-25000000D02*
X130685000Y-17100000D01*
X130685000Y-17100000D02*
X131185000Y-16600000D01*
X151885000Y-24050000D02*
G75*
G03*
X153785000Y-24050000I950000J0D01*
G01*
%TD*%
M02*
