%TF.GenerationSoftware,KiCad,Pcbnew,7.0.8-7.0.8~ubuntu22.04.1*%
%TF.CreationDate,2024-12-17T15:10:34+01:00*%
%TF.ProjectId,Bread70,42726561-6437-4302-9e6b-696361645f70,rev?*%
%TF.SameCoordinates,Original*%
%TF.FileFunction,Soldermask,Bot*%
%TF.FilePolarity,Negative*%
%FSLAX46Y46*%
G04 Gerber Fmt 4.6, Leading zero omitted, Abs format (unit mm)*
G04 Created by KiCad (PCBNEW 7.0.8-7.0.8~ubuntu22.04.1) date 2024-12-17 15:10:34*
%MOMM*%
%LPD*%
G01*
G04 APERTURE LIST*
G04 Aperture macros list*
%AMRoundRect*
0 Rectangle with rounded corners*
0 $1 Rounding radius*
0 $2 $3 $4 $5 $6 $7 $8 $9 X,Y pos of 4 corners*
0 Add a 4 corners polygon primitive as box body*
4,1,4,$2,$3,$4,$5,$6,$7,$8,$9,$2,$3,0*
0 Add four circle primitives for the rounded corners*
1,1,$1+$1,$2,$3*
1,1,$1+$1,$4,$5*
1,1,$1+$1,$6,$7*
1,1,$1+$1,$8,$9*
0 Add four rect primitives between the rounded corners*
20,1,$1+$1,$2,$3,$4,$5,0*
20,1,$1+$1,$4,$5,$6,$7,0*
20,1,$1+$1,$6,$7,$8,$9,0*
20,1,$1+$1,$8,$9,$2,$3,0*%
G04 Aperture macros list end*
%ADD10O,2.600000X1.500000*%
%ADD11O,1.500000X2.600000*%
%ADD12C,2.050000*%
%ADD13C,2.250000*%
%ADD14C,0.600000*%
%ADD15C,1.020000*%
%ADD16C,0.800000*%
%ADD17C,7.000000*%
%ADD18R,1.700000X1.700000*%
%ADD19O,1.700000X1.700000*%
%ADD20C,0.001000*%
%ADD21R,1.500000X5.080000*%
%ADD22R,5.080000X1.500000*%
%ADD23C,3.000000*%
%ADD24R,1.350000X1.350000*%
%ADD25O,1.350000X1.350000*%
%ADD26R,0.700000X3.200000*%
%ADD27R,0.700000X4.300000*%
%ADD28RoundRect,0.225000X-0.225000X-0.250000X0.225000X-0.250000X0.225000X0.250000X-0.225000X0.250000X0*%
%ADD29RoundRect,0.250000X0.425000X-0.450000X0.425000X0.450000X-0.425000X0.450000X-0.425000X-0.450000X0*%
%ADD30RoundRect,0.200000X0.200000X0.275000X-0.200000X0.275000X-0.200000X-0.275000X0.200000X-0.275000X0*%
%ADD31RoundRect,0.225000X0.250000X-0.225000X0.250000X0.225000X-0.250000X0.225000X-0.250000X-0.225000X0*%
%ADD32RoundRect,0.250000X0.475000X-0.250000X0.475000X0.250000X-0.475000X0.250000X-0.475000X-0.250000X0*%
%ADD33RoundRect,0.225000X0.225000X0.250000X-0.225000X0.250000X-0.225000X-0.250000X0.225000X-0.250000X0*%
%ADD34RoundRect,0.250000X0.875000X1.025000X-0.875000X1.025000X-0.875000X-1.025000X0.875000X-1.025000X0*%
%ADD35R,0.640000X0.280000*%
%ADD36R,0.280000X0.640000*%
%ADD37RoundRect,0.225000X-0.250000X0.225000X-0.250000X-0.225000X0.250000X-0.225000X0.250000X0.225000X0*%
%ADD38RoundRect,0.250000X1.100000X-0.325000X1.100000X0.325000X-1.100000X0.325000X-1.100000X-0.325000X0*%
%ADD39RoundRect,0.250000X-0.450000X-0.425000X0.450000X-0.425000X0.450000X0.425000X-0.450000X0.425000X0*%
%ADD40RoundRect,0.250000X-0.325000X-0.650000X0.325000X-0.650000X0.325000X0.650000X-0.325000X0.650000X0*%
%ADD41RoundRect,0.250000X-0.875000X-1.025000X0.875000X-1.025000X0.875000X1.025000X-0.875000X1.025000X0*%
%ADD42RoundRect,0.250000X0.250000X0.475000X-0.250000X0.475000X-0.250000X-0.475000X0.250000X-0.475000X0*%
%ADD43RoundRect,0.250000X-0.650000X0.325000X-0.650000X-0.325000X0.650000X-0.325000X0.650000X0.325000X0*%
%ADD44RoundRect,0.250000X-0.425000X0.450000X-0.425000X-0.450000X0.425000X-0.450000X0.425000X0.450000X0*%
%ADD45RoundRect,0.250000X0.450000X0.425000X-0.450000X0.425000X-0.450000X-0.425000X0.450000X-0.425000X0*%
%ADD46RoundRect,0.250000X-0.475000X0.250000X-0.475000X-0.250000X0.475000X-0.250000X0.475000X0.250000X0*%
G04 APERTURE END LIST*
D10*
%TO.C,J21*%
X146950000Y-141100000D03*
X146950000Y-147100000D03*
D11*
X151650000Y-144100000D03*
%TD*%
D12*
%TO.C,J11*%
X172680000Y-85580000D03*
D13*
X170140000Y-83040000D03*
X170140000Y-88120000D03*
X175220000Y-83040000D03*
X175220000Y-88120000D03*
%TD*%
D14*
%TO.C,U7*%
X196380001Y-67720003D03*
X195055001Y-67720003D03*
X193730001Y-67720003D03*
X192405001Y-67720003D03*
X191080001Y-67720003D03*
X196380001Y-69045003D03*
X195055001Y-69045003D03*
X193730001Y-69045003D03*
X192405001Y-69045003D03*
X191080001Y-69045003D03*
X196380001Y-70370003D03*
X195055001Y-70370003D03*
X193730001Y-70370003D03*
X192405001Y-70370003D03*
X191080001Y-70370003D03*
X196380001Y-71695003D03*
X195055001Y-71695003D03*
X193730001Y-71695003D03*
X192405001Y-71695003D03*
X191080001Y-71695003D03*
X196380001Y-73020003D03*
X195055001Y-73020003D03*
X193730001Y-73020003D03*
X192405001Y-73020003D03*
X191080001Y-73020003D03*
%TD*%
D12*
%TO.C,J19*%
X180000000Y-41400000D03*
D13*
X182540000Y-38860000D03*
X177460000Y-38860000D03*
X182540000Y-43940000D03*
X177460000Y-43940000D03*
%TD*%
D15*
%TO.C,J7*%
X124499999Y-56970001D03*
X124499999Y-95450001D03*
%TD*%
D16*
%TO.C,H7*%
X232375000Y-30000000D03*
X233143845Y-28143845D03*
X233143845Y-31856155D03*
X235000000Y-27375000D03*
D17*
X235000000Y-30000000D03*
D16*
X235000000Y-32625000D03*
X236856155Y-28143845D03*
X236856155Y-31856155D03*
X237625000Y-30000000D03*
%TD*%
%TO.C,H1*%
X46374999Y-45210001D03*
X47143844Y-43353846D03*
X47143844Y-47066156D03*
X48999999Y-42585001D03*
D17*
X48999999Y-45210001D03*
D16*
X48999999Y-47835001D03*
X50856154Y-43353846D03*
X50856154Y-47066156D03*
X51624999Y-45210001D03*
%TD*%
D18*
%TO.C,JP1*%
X189700000Y-127950000D03*
D19*
X187160000Y-127950000D03*
%TD*%
D20*
%TO.C,J5*%
X80730999Y-45178001D03*
X115208999Y-45178001D03*
%TD*%
D16*
%TO.C,H4*%
X121874999Y-107210001D03*
X122643844Y-105353846D03*
X122643844Y-109066156D03*
X124499999Y-104585001D03*
D17*
X124499999Y-107210001D03*
D16*
X124499999Y-109835001D03*
X126356154Y-105353846D03*
X126356154Y-109066156D03*
X127124999Y-107210001D03*
%TD*%
%TO.C,H2*%
X121374999Y-45210001D03*
X122143844Y-43353846D03*
X122143844Y-47066156D03*
X123999999Y-42585001D03*
D17*
X123999999Y-45210001D03*
D16*
X123999999Y-47835001D03*
X125856154Y-43353846D03*
X125856154Y-47066156D03*
X126624999Y-45210001D03*
%TD*%
%TO.C,H6*%
X42375000Y-150000000D03*
X43143845Y-148143845D03*
X43143845Y-151856155D03*
X45000000Y-147375000D03*
D17*
X45000000Y-150000000D03*
D16*
X45000000Y-152625000D03*
X46856155Y-148143845D03*
X46856155Y-151856155D03*
X47625000Y-150000000D03*
%TD*%
D18*
%TO.C,J9*%
X113950000Y-135760001D03*
D19*
X116490000Y-135760001D03*
X113950000Y-138300001D03*
X116490000Y-138300001D03*
X113950000Y-140840001D03*
X116490000Y-140840001D03*
X113950000Y-143380001D03*
X116490000Y-143380001D03*
%TD*%
D18*
%TO.C,J23*%
X114340000Y-122400000D03*
D19*
X114340000Y-119860000D03*
X116880000Y-122400000D03*
X116880000Y-119860000D03*
X119420000Y-122400000D03*
X119420000Y-119860000D03*
X121960000Y-122400000D03*
X121960000Y-119860000D03*
X124500000Y-122400000D03*
X124500000Y-119860000D03*
X127040000Y-122400000D03*
X127040000Y-119860000D03*
X129580000Y-122400000D03*
X129580000Y-119860000D03*
X132120000Y-122400000D03*
X132120000Y-119860000D03*
X134660000Y-122400000D03*
X134660000Y-119860000D03*
X137200000Y-122400000D03*
X137200000Y-119860000D03*
X139740000Y-122400000D03*
X139740000Y-119860000D03*
X142280000Y-122400000D03*
X142280000Y-119860000D03*
%TD*%
D21*
%TO.C,J16*%
X74700000Y-152422500D03*
X66200000Y-152422500D03*
%TD*%
D18*
%TO.C,JP2*%
X193675000Y-108900000D03*
D19*
X191135000Y-108900000D03*
%TD*%
D14*
%TO.C,U11*%
X206177001Y-40538999D03*
X207177001Y-40538999D03*
X208177001Y-40538999D03*
X209177001Y-40538999D03*
X210177001Y-40538999D03*
X206177001Y-39788999D03*
X207177001Y-39788999D03*
X208177001Y-39788999D03*
X209177001Y-39788999D03*
X210177001Y-39788999D03*
X206177001Y-38788999D03*
X207177001Y-38788999D03*
X208177001Y-38788999D03*
X209177001Y-38788999D03*
X210177001Y-38788999D03*
X206177001Y-38038999D03*
X207177001Y-38038999D03*
X208177001Y-38038999D03*
X209177001Y-38038999D03*
X210177001Y-38038999D03*
%TD*%
D18*
%TO.C,JP3*%
X214300000Y-129000000D03*
D19*
X214300000Y-131540000D03*
%TD*%
D18*
%TO.C,J1*%
X58220000Y-120940000D03*
D19*
X58220000Y-118400000D03*
X60760000Y-120940000D03*
X60760000Y-118400000D03*
X63300000Y-120940000D03*
X63300000Y-118400000D03*
X65840000Y-120940000D03*
X65840000Y-118400000D03*
X68380000Y-120940000D03*
X68380000Y-118400000D03*
X70920000Y-120940000D03*
X70920000Y-118400000D03*
X73460000Y-120940000D03*
X73460000Y-118400000D03*
X76000000Y-120940000D03*
X76000000Y-118400000D03*
X78540000Y-120940000D03*
X78540000Y-118400000D03*
X81080000Y-120940000D03*
X81080000Y-118400000D03*
X83620000Y-120940000D03*
X83620000Y-118400000D03*
X86160000Y-120940000D03*
X86160000Y-118400000D03*
X88700000Y-120940000D03*
X88700000Y-118400000D03*
X91240000Y-120940000D03*
X91240000Y-118400000D03*
X93780000Y-120940000D03*
X93780000Y-118400000D03*
X96320000Y-120940000D03*
X96320000Y-118400000D03*
X98860000Y-120940000D03*
X98860000Y-118400000D03*
X101400000Y-120940000D03*
X101400000Y-118400000D03*
X103940000Y-120940000D03*
X103940000Y-118400000D03*
X106480000Y-120940000D03*
X106480000Y-118400000D03*
%TD*%
D12*
%TO.C,J18*%
X199340000Y-148749999D03*
D13*
X201880000Y-151289999D03*
X201880000Y-146209999D03*
X196800000Y-151289999D03*
X196800000Y-146209999D03*
%TD*%
D21*
%TO.C,J10*%
X88700000Y-152450000D03*
X80200000Y-152450000D03*
%TD*%
%TO.C,J17*%
X60450000Y-152400000D03*
X51950000Y-152400000D03*
%TD*%
D14*
%TO.C,U9*%
X78600000Y-138526250D03*
X78600000Y-137126250D03*
X78600000Y-135626250D03*
X77100000Y-138526250D03*
X77100000Y-137126250D03*
X77100000Y-135626250D03*
X75800000Y-138526250D03*
X75800000Y-137126250D03*
X75800000Y-135626250D03*
%TD*%
D18*
%TO.C,J25*%
X42300000Y-118140000D03*
D19*
X44840000Y-118140000D03*
X42300000Y-120680000D03*
X44840000Y-120680000D03*
X42300000Y-123220000D03*
X44840000Y-123220000D03*
X42300000Y-125760000D03*
X44840000Y-125760000D03*
X42300000Y-128300000D03*
X44840000Y-128300000D03*
X42300000Y-130840000D03*
X44840000Y-130840000D03*
X42300000Y-133380000D03*
X44840000Y-133380000D03*
X42300000Y-135920000D03*
X44840000Y-135920000D03*
X42300000Y-138460000D03*
X44840000Y-138460000D03*
X42300000Y-141000000D03*
X44840000Y-141000000D03*
%TD*%
D16*
%TO.C,H8*%
X232375000Y-150000000D03*
X233143845Y-148143845D03*
X233143845Y-151856155D03*
X235000000Y-147375000D03*
D17*
X235000000Y-150000000D03*
D16*
X235000000Y-152625000D03*
X236856155Y-148143845D03*
X236856155Y-151856155D03*
X237625000Y-150000000D03*
%TD*%
D12*
%TO.C,J22*%
X199340000Y-139360000D03*
D13*
X201880000Y-141900000D03*
X201880000Y-136820000D03*
X196800000Y-141900000D03*
X196800000Y-136820000D03*
%TD*%
D20*
%TO.C,J4*%
X80730999Y-103178001D03*
X115208999Y-103178001D03*
%TD*%
D12*
%TO.C,J12*%
X174140000Y-105740000D03*
D13*
X171600000Y-103200000D03*
X171600000Y-108280000D03*
X176680000Y-103200000D03*
X176680000Y-108280000D03*
%TD*%
D18*
%TO.C,J2*%
X57591000Y-34931445D03*
D19*
X57591000Y-32391445D03*
X60131000Y-34931445D03*
X60131000Y-32391445D03*
X62671000Y-34931445D03*
X62671000Y-32391445D03*
X65211000Y-34931445D03*
X65211000Y-32391445D03*
X67751000Y-34931445D03*
X67751000Y-32391445D03*
X70291000Y-34931445D03*
X70291000Y-32391445D03*
X72831000Y-34931445D03*
X72831000Y-32391445D03*
X75371000Y-34931445D03*
X75371000Y-32391445D03*
X77911000Y-34931445D03*
X77911000Y-32391445D03*
X80451000Y-34931445D03*
X80451000Y-32391445D03*
X82991000Y-34931445D03*
X82991000Y-32391445D03*
X85531000Y-34931445D03*
X85531000Y-32391445D03*
X88071000Y-34931445D03*
X88071000Y-32391445D03*
X90611000Y-34931445D03*
X90611000Y-32391445D03*
X93151000Y-34931445D03*
X93151000Y-32391445D03*
X95691000Y-34931445D03*
X95691000Y-32391445D03*
X98231000Y-34931445D03*
X98231000Y-32391445D03*
X100771000Y-34931445D03*
X100771000Y-32391445D03*
X103311000Y-34931445D03*
X103311000Y-32391445D03*
X105851000Y-34931445D03*
X105851000Y-32391445D03*
%TD*%
D22*
%TO.C,J14*%
X237427500Y-54259999D03*
X237427500Y-62759999D03*
%TD*%
D14*
%TO.C,U25*%
X218500000Y-136860000D03*
X218500000Y-137910000D03*
X218900000Y-137385000D03*
X219300000Y-136860000D03*
X219300000Y-137910000D03*
%TD*%
D23*
%TO.C,J20*%
X165700000Y-151800000D03*
X157300000Y-151800000D03*
%TD*%
D24*
%TO.C,J3*%
X143150000Y-132700000D03*
D25*
X143150000Y-130700000D03*
X145150000Y-132700000D03*
X145150000Y-130700000D03*
X147150000Y-132700000D03*
X147150000Y-130700000D03*
X149150000Y-132700000D03*
X149150000Y-130700000D03*
X151150000Y-132700000D03*
X151150000Y-130700000D03*
X153150000Y-132700000D03*
X153150000Y-130700000D03*
X155150000Y-132700000D03*
X155150000Y-130700000D03*
%TD*%
D16*
%TO.C,H3*%
X46374999Y-107210001D03*
X47143844Y-105353846D03*
X47143844Y-109066156D03*
X48999999Y-104585001D03*
D17*
X48999999Y-107210001D03*
D16*
X48999999Y-109835001D03*
X50856154Y-105353846D03*
X50856154Y-109066156D03*
X51624999Y-107210001D03*
%TD*%
D18*
%TO.C,J15*%
X95540000Y-143460000D03*
D19*
X93000000Y-143460000D03*
X95540000Y-140920000D03*
X93000000Y-140920000D03*
X95540000Y-138380000D03*
X93000000Y-138380000D03*
X95540000Y-135840000D03*
X93000000Y-135840000D03*
%TD*%
D12*
%TO.C,J6*%
X60900000Y-132850000D03*
D13*
X58360000Y-130310000D03*
X58360000Y-135390000D03*
X63440000Y-130310000D03*
X63440000Y-135390000D03*
%TD*%
D22*
%TO.C,J13*%
X237400000Y-77600000D03*
X237400000Y-86100000D03*
%TD*%
D26*
%TO.C,J8*%
X164335000Y-20600000D03*
D27*
X163335000Y-20050000D03*
X162335000Y-20050000D03*
X161335000Y-20050000D03*
X160335000Y-20050000D03*
X159335000Y-20050000D03*
X158335000Y-20050000D03*
X157335000Y-20050000D03*
X156335000Y-20050000D03*
X155335000Y-20050000D03*
X154335000Y-20050000D03*
X151335000Y-20050000D03*
X150335000Y-20050000D03*
X149335000Y-20050000D03*
X148335000Y-20050000D03*
X147335000Y-20050000D03*
X146335000Y-20050000D03*
X145335000Y-20050000D03*
X144335000Y-20050000D03*
X143335000Y-20050000D03*
X142335000Y-20050000D03*
X141335000Y-20050000D03*
X140335000Y-20050000D03*
X139335000Y-20050000D03*
X138335000Y-20050000D03*
X137335000Y-20050000D03*
X136335000Y-20050000D03*
X135335000Y-20050000D03*
X134335000Y-20050000D03*
X133335000Y-20050000D03*
X132335000Y-20050000D03*
X131335000Y-20050000D03*
%TD*%
D18*
%TO.C,JP4*%
X229390001Y-109710000D03*
D19*
X231930001Y-109710000D03*
%TD*%
D16*
%TO.C,H5*%
X42375000Y-30000000D03*
X43143845Y-28143845D03*
X43143845Y-31856155D03*
X45000000Y-27375000D03*
D17*
X45000000Y-30000000D03*
D16*
X45000000Y-32625000D03*
X46856155Y-28143845D03*
X46856155Y-31856155D03*
X47625000Y-30000000D03*
%TD*%
D28*
%TO.C,C140*%
X79970001Y-134496251D03*
X81520001Y-134496251D03*
%TD*%
D29*
%TO.C,C66*%
X188520000Y-81630003D03*
X188520000Y-78930003D03*
%TD*%
D30*
%TO.C,R56*%
X188102002Y-33388998D03*
X186452002Y-33388998D03*
%TD*%
D28*
%TO.C,C151*%
X212052001Y-41588999D03*
X213602001Y-41588999D03*
%TD*%
D31*
%TO.C,C93*%
X195430000Y-66370003D03*
X195430000Y-64820003D03*
%TD*%
D32*
%TO.C,C133*%
X99031818Y-144741666D03*
X99031818Y-142841666D03*
%TD*%
D29*
%TO.C,C123*%
X174940999Y-61810003D03*
X174940999Y-59110003D03*
%TD*%
D28*
%TO.C,C100*%
X179655001Y-58970002D03*
X181205001Y-58970002D03*
%TD*%
D33*
%TO.C,C110*%
X189480000Y-68170003D03*
X187930000Y-68170003D03*
%TD*%
D28*
%TO.C,C115*%
X183770001Y-68230003D03*
X185320001Y-68230003D03*
%TD*%
D34*
%TO.C,C126*%
X113190000Y-147880000D03*
X106790000Y-147880000D03*
%TD*%
D28*
%TO.C,C76*%
X183770000Y-69730003D03*
X185320000Y-69730003D03*
%TD*%
D32*
%TO.C,C279*%
X101040000Y-144729999D03*
X101040000Y-142829999D03*
%TD*%
D28*
%TO.C,C165*%
X192327001Y-36189000D03*
X193877001Y-36189000D03*
%TD*%
%TO.C,C135*%
X79970001Y-135996250D03*
X81520001Y-135996250D03*
%TD*%
D35*
%TO.C,C58*%
X207100000Y-84500000D03*
X207100000Y-84000000D03*
X207100000Y-83500000D03*
X207100000Y-83000000D03*
X208370000Y-83000000D03*
X208370000Y-83500000D03*
X208370000Y-84000000D03*
X208370000Y-84500000D03*
%TD*%
D31*
%TO.C,C30*%
X162800000Y-110075000D03*
X162800000Y-108525000D03*
%TD*%
D34*
%TO.C,C34*%
X173320000Y-96820000D03*
X166920000Y-96820000D03*
%TD*%
D28*
%TO.C,C67*%
X197780000Y-73370003D03*
X199330000Y-73370003D03*
%TD*%
D36*
%TO.C,C88*%
X189795000Y-88866000D03*
X190295000Y-88866000D03*
X190795000Y-88866000D03*
X191295000Y-88866000D03*
X191295000Y-90136000D03*
X190795000Y-90136000D03*
X190295000Y-90136000D03*
X189795000Y-90136000D03*
%TD*%
D31*
%TO.C,C173*%
X209977003Y-37013999D03*
X209977003Y-35463999D03*
%TD*%
D28*
%TO.C,C65*%
X183330001Y-59020003D03*
X184880001Y-59020003D03*
%TD*%
D36*
%TO.C,C59*%
X180308999Y-78325004D03*
X180808999Y-78325004D03*
X181308999Y-78325004D03*
X181808999Y-78325004D03*
X181808999Y-79595004D03*
X181308999Y-79595004D03*
X180808999Y-79595004D03*
X180308999Y-79595004D03*
%TD*%
D37*
%TO.C,C113*%
X198429999Y-60720003D03*
X198429999Y-62270003D03*
%TD*%
D31*
%TO.C,C159*%
X207477004Y-43414000D03*
X207477004Y-41864000D03*
%TD*%
%TO.C,C24*%
X153301865Y-97583135D03*
X153301865Y-96033135D03*
%TD*%
D33*
%TO.C,C147*%
X74470002Y-134146251D03*
X72920002Y-134146251D03*
%TD*%
D37*
%TO.C,C85*%
X191830001Y-74520003D03*
X191830001Y-76070003D03*
%TD*%
D31*
%TO.C,C81*%
X185420000Y-77355003D03*
X185420000Y-75805003D03*
%TD*%
D38*
%TO.C,C25*%
X150901865Y-97483135D03*
X150901865Y-94533135D03*
%TD*%
D31*
%TO.C,C61*%
X198399999Y-79620004D03*
X198399999Y-78070004D03*
%TD*%
D33*
%TO.C,C168*%
X189352002Y-36489002D03*
X187802002Y-36489002D03*
%TD*%
%TO.C,C119*%
X189480000Y-66670003D03*
X187930000Y-66670003D03*
%TD*%
D31*
%TO.C,C176*%
X206977000Y-37013999D03*
X206977000Y-35463999D03*
%TD*%
D39*
%TO.C,C124*%
X193558001Y-90441000D03*
X196258001Y-90441000D03*
%TD*%
D33*
%TO.C,C75*%
X189630000Y-72680002D03*
X188080000Y-72680002D03*
%TD*%
D40*
%TO.C,C187*%
X197800001Y-116510001D03*
X200750001Y-116510001D03*
%TD*%
D31*
%TO.C,C163*%
X204477002Y-43388998D03*
X204477002Y-41838998D03*
%TD*%
%TO.C,C98*%
X196930001Y-65670003D03*
X196930001Y-64120003D03*
%TD*%
D28*
%TO.C,C69*%
X183330001Y-60570003D03*
X184880001Y-60570003D03*
%TD*%
D35*
%TO.C,C89*%
X202000001Y-55070003D03*
X202000001Y-55570003D03*
X202000001Y-56070003D03*
X202000001Y-56570003D03*
X200730001Y-56570003D03*
X200730001Y-56070003D03*
X200730001Y-55570003D03*
X200730001Y-55070003D03*
%TD*%
D34*
%TO.C,C281*%
X98690000Y-148080000D03*
X92290000Y-148080000D03*
%TD*%
D31*
%TO.C,C57*%
X199930001Y-79620003D03*
X199930001Y-78070003D03*
%TD*%
D33*
%TO.C,C149*%
X74470001Y-135656251D03*
X72920001Y-135656251D03*
%TD*%
%TO.C,C99*%
X201430000Y-63770002D03*
X199880000Y-63770002D03*
%TD*%
D30*
%TO.C,R57*%
X188117000Y-34988997D03*
X186467000Y-34988997D03*
%TD*%
D37*
%TO.C,C103*%
X199930001Y-60720003D03*
X199930001Y-62270003D03*
%TD*%
D28*
%TO.C,C114*%
X197780001Y-68870003D03*
X199330001Y-68870003D03*
%TD*%
D41*
%TO.C,C130*%
X104240000Y-133330000D03*
X110640000Y-133330000D03*
%TD*%
D31*
%TO.C,C63*%
X196880002Y-79620003D03*
X196880002Y-78070003D03*
%TD*%
%TO.C,C196*%
X202100000Y-114050000D03*
X202100000Y-112500000D03*
%TD*%
D33*
%TO.C,C150*%
X213602001Y-40039000D03*
X212052001Y-40039000D03*
%TD*%
%TO.C,C64*%
X189605001Y-71170003D03*
X188055001Y-71170003D03*
%TD*%
D28*
%TO.C,C109*%
X197780001Y-70370003D03*
X199330001Y-70370003D03*
%TD*%
D31*
%TO.C,C21*%
X149870000Y-88670000D03*
X149870000Y-87120000D03*
%TD*%
D37*
%TO.C,C111*%
X194830000Y-74530003D03*
X194830000Y-76080003D03*
%TD*%
D31*
%TO.C,C195*%
X203600000Y-114050000D03*
X203600000Y-112500000D03*
%TD*%
D37*
%TO.C,C155*%
X212077003Y-43088999D03*
X212077003Y-44638999D03*
%TD*%
D32*
%TO.C,C280*%
X107040000Y-144679999D03*
X107040000Y-142779999D03*
%TD*%
D42*
%TO.C,C127*%
X108340000Y-137690000D03*
X106440000Y-137690000D03*
%TD*%
D35*
%TO.C,C87*%
X179860000Y-57170003D03*
X179860000Y-56670003D03*
X179860000Y-56170003D03*
X179860000Y-55670003D03*
X181130000Y-55670003D03*
X181130000Y-56170003D03*
X181130000Y-56670003D03*
X181130000Y-57170003D03*
%TD*%
D37*
%TO.C,C108*%
X196930001Y-60720003D03*
X196930001Y-62270003D03*
%TD*%
%TO.C,C170*%
X190827003Y-36189001D03*
X190827003Y-37739001D03*
%TD*%
D31*
%TO.C,C178*%
X211477002Y-37014000D03*
X211477002Y-35464000D03*
%TD*%
D33*
%TO.C,C91*%
X194818000Y-88291000D03*
X193268000Y-88291000D03*
%TD*%
D42*
%TO.C,C129*%
X108390000Y-140980000D03*
X106490000Y-140980000D03*
%TD*%
D31*
%TO.C,C55*%
X225297502Y-82160000D03*
X225297502Y-80610000D03*
%TD*%
%TO.C,C161*%
X188027003Y-31919001D03*
X188027003Y-30369001D03*
%TD*%
D28*
%TO.C,C94*%
X197780001Y-67370003D03*
X199330001Y-67370003D03*
%TD*%
D33*
%TO.C,C112*%
X194780001Y-82370004D03*
X193230001Y-82370004D03*
%TD*%
%TO.C,C68*%
X189629999Y-74170003D03*
X188079999Y-74170003D03*
%TD*%
D40*
%TO.C,C188*%
X197825000Y-118910002D03*
X200775000Y-118910002D03*
%TD*%
D31*
%TO.C,C97*%
X189030001Y-85720003D03*
X189030001Y-84170003D03*
%TD*%
%TO.C,C102*%
X187530000Y-85720004D03*
X187530000Y-84170004D03*
%TD*%
D28*
%TO.C,C62*%
X197780001Y-74870003D03*
X199330001Y-74870003D03*
%TD*%
D39*
%TO.C,C121*%
X193480000Y-84320003D03*
X196180000Y-84320003D03*
%TD*%
D37*
%TO.C,C106*%
X193330001Y-74530003D03*
X193330001Y-76080003D03*
%TD*%
D33*
%TO.C,C35*%
X173995000Y-93070001D03*
X172445000Y-93070001D03*
%TD*%
%TO.C,C117*%
X194780001Y-79370003D03*
X193230001Y-79370003D03*
%TD*%
D37*
%TO.C,C95*%
X176841001Y-60510003D03*
X176841001Y-62060003D03*
%TD*%
%TO.C,C60*%
X186620000Y-80305003D03*
X186620000Y-81855003D03*
%TD*%
D31*
%TO.C,C154*%
X210477001Y-43413999D03*
X210477001Y-41863999D03*
%TD*%
D43*
%TO.C,C185*%
X208400000Y-113635000D03*
X208400000Y-116585000D03*
%TD*%
D31*
%TO.C,C82*%
X190930000Y-66370002D03*
X190930000Y-64820002D03*
%TD*%
D37*
%TO.C,C83*%
X190330000Y-75695004D03*
X190330000Y-77245004D03*
%TD*%
%TO.C,C164*%
X205977001Y-41838999D03*
X205977001Y-43388999D03*
%TD*%
D31*
%TO.C,C175*%
X208477001Y-37013999D03*
X208477001Y-35463999D03*
%TD*%
D33*
%TO.C,C96*%
X194833001Y-86791000D03*
X193283001Y-86791000D03*
%TD*%
D28*
%TO.C,C105*%
X179620000Y-62060003D03*
X181170000Y-62060003D03*
%TD*%
D33*
%TO.C,C169*%
X213252001Y-38489000D03*
X211702001Y-38489000D03*
%TD*%
D37*
%TO.C,C160*%
X208977003Y-41863999D03*
X208977003Y-43413999D03*
%TD*%
D33*
%TO.C,C104*%
X201430001Y-65270003D03*
X199880001Y-65270003D03*
%TD*%
D37*
%TO.C,C101*%
X196330001Y-74520003D03*
X196330001Y-76070003D03*
%TD*%
%TO.C,C54*%
X225250000Y-58545000D03*
X225250000Y-60095000D03*
%TD*%
D28*
%TO.C,C90*%
X179630000Y-60520003D03*
X181180000Y-60520003D03*
%TD*%
D31*
%TO.C,C120*%
X192430001Y-66370002D03*
X192430001Y-64820002D03*
%TD*%
D44*
%TO.C,C70*%
X201920000Y-78330003D03*
X201920000Y-81030003D03*
%TD*%
D28*
%TO.C,C71*%
X197780001Y-71870002D03*
X199330001Y-71870002D03*
%TD*%
D31*
%TO.C,C79*%
X189430001Y-65170003D03*
X189430001Y-63620003D03*
%TD*%
D32*
%TO.C,C128*%
X105040000Y-144690000D03*
X105040000Y-142790000D03*
%TD*%
D31*
%TO.C,C116*%
X193930001Y-66370002D03*
X193930001Y-64820002D03*
%TD*%
D33*
%TO.C,C32*%
X173995000Y-91520000D03*
X172445000Y-91520000D03*
%TD*%
%TO.C,C72*%
X189605001Y-69680003D03*
X188055001Y-69680003D03*
%TD*%
D37*
%TO.C,C118*%
X195430001Y-60720003D03*
X195430001Y-62270003D03*
%TD*%
D33*
%TO.C,C174*%
X204671002Y-38896998D03*
X203121002Y-38896998D03*
%TD*%
D45*
%TO.C,C86*%
X210380000Y-86309999D03*
X207680000Y-86309999D03*
%TD*%
D31*
%TO.C,C20*%
X151401865Y-88683135D03*
X151401865Y-87133135D03*
%TD*%
D45*
%TO.C,C122*%
X201380001Y-58070003D03*
X198680001Y-58070003D03*
%TD*%
D46*
%TO.C,C131*%
X103040000Y-142790000D03*
X103040000Y-144690000D03*
%TD*%
D33*
%TO.C,C107*%
X194780001Y-80870002D03*
X193230001Y-80870002D03*
%TD*%
D31*
%TO.C,C92*%
X190530000Y-85720003D03*
X190530000Y-84170003D03*
%TD*%
D28*
%TO.C,C77*%
X209040000Y-88229999D03*
X210590000Y-88229999D03*
%TD*%
D31*
%TO.C,C78*%
X183870000Y-77355003D03*
X183870000Y-75805003D03*
%TD*%
D28*
%TO.C,C73*%
X183770000Y-71230003D03*
X185320000Y-71230003D03*
%TD*%
M02*
