%TF.GenerationSoftware,KiCad,Pcbnew,7.0.8-7.0.8~ubuntu22.04.1*%
%TF.CreationDate,2024-12-17T15:10:34+01:00*%
%TF.ProjectId,Bread70,42726561-6437-4302-9e6b-696361645f70,rev?*%
%TF.SameCoordinates,Original*%
%TF.FileFunction,Other,Comment*%
%FSLAX46Y46*%
G04 Gerber Fmt 4.6, Leading zero omitted, Abs format (unit mm)*
G04 Created by KiCad (PCBNEW 7.0.8-7.0.8~ubuntu22.04.1) date 2024-12-17 15:10:34*
%MOMM*%
%LPD*%
G01*
G04 APERTURE LIST*
%ADD10C,0.020000*%
%ADD11C,0.030000*%
%ADD12C,0.150000*%
%ADD13C,0.050000*%
%ADD14C,0.000000*%
%ADD15C,0.100000*%
G04 APERTURE END LIST*
D10*
X175500000Y-18250000D02*
X175500000Y-20750000D01*
D11*
X177050000Y-17130792D02*
X176971000Y-17181000D01*
D10*
X177050000Y-18250000D02*
X176578000Y-16950000D01*
D12*
X131200000Y-16750000D02*
X164450000Y-16750000D01*
X164450000Y-17800000D01*
X131200000Y-17800000D01*
X131200000Y-16750000D01*
G36*
X131200000Y-16750000D02*
G01*
X164450000Y-16750000D01*
X164450000Y-17800000D01*
X131200000Y-17800000D01*
X131200000Y-16750000D01*
G37*
D11*
X176668000Y-17198001D02*
X176766000Y-17212000D01*
D10*
X177050000Y-18250000D02*
X177050000Y-20750000D01*
D12*
X164450000Y-16750000D02*
X174500000Y-12700000D01*
X164450000Y-17800000D02*
X173050000Y-22250000D01*
D11*
X176668000Y-17198001D02*
X176746000Y-17122000D01*
X177050000Y-17130793D02*
G75*
G03*
X176668000Y-17198002I0J-1119207D01*
G01*
X177050000Y-17130792D02*
X176963000Y-17094000D01*
D12*
X181896590Y-17900000D02*
G75*
G03*
X181896590Y-17900000I-5496590J0D01*
G01*
D10*
X175972000Y-16950000D02*
X176578000Y-16950000D01*
X177050000Y-18250000D02*
X177050000Y-15900000D01*
X175500000Y-18250000D02*
X175972000Y-16950000D01*
D13*
X174351941Y-14274304D02*
X174518608Y-14274304D01*
X174590036Y-14536209D02*
X174351941Y-14536209D01*
X174351941Y-14536209D02*
X174351941Y-14036209D01*
X174351941Y-14036209D02*
X174590036Y-14036209D01*
X174804322Y-14536209D02*
X174804322Y-14036209D01*
X174804322Y-14036209D02*
X174923370Y-14036209D01*
X174923370Y-14036209D02*
X174994798Y-14060019D01*
X174994798Y-14060019D02*
X175042417Y-14107638D01*
X175042417Y-14107638D02*
X175066227Y-14155257D01*
X175066227Y-14155257D02*
X175090036Y-14250495D01*
X175090036Y-14250495D02*
X175090036Y-14321923D01*
X175090036Y-14321923D02*
X175066227Y-14417161D01*
X175066227Y-14417161D02*
X175042417Y-14464780D01*
X175042417Y-14464780D02*
X174994798Y-14512400D01*
X174994798Y-14512400D02*
X174923370Y-14536209D01*
X174923370Y-14536209D02*
X174804322Y-14536209D01*
X175566227Y-14060019D02*
X175518608Y-14036209D01*
X175518608Y-14036209D02*
X175447179Y-14036209D01*
X175447179Y-14036209D02*
X175375751Y-14060019D01*
X175375751Y-14060019D02*
X175328132Y-14107638D01*
X175328132Y-14107638D02*
X175304322Y-14155257D01*
X175304322Y-14155257D02*
X175280513Y-14250495D01*
X175280513Y-14250495D02*
X175280513Y-14321923D01*
X175280513Y-14321923D02*
X175304322Y-14417161D01*
X175304322Y-14417161D02*
X175328132Y-14464780D01*
X175328132Y-14464780D02*
X175375751Y-14512400D01*
X175375751Y-14512400D02*
X175447179Y-14536209D01*
X175447179Y-14536209D02*
X175494798Y-14536209D01*
X175494798Y-14536209D02*
X175566227Y-14512400D01*
X175566227Y-14512400D02*
X175590036Y-14488590D01*
X175590036Y-14488590D02*
X175590036Y-14321923D01*
X175590036Y-14321923D02*
X175494798Y-14321923D01*
X175804322Y-14274304D02*
X175970989Y-14274304D01*
X176042417Y-14536209D02*
X175804322Y-14536209D01*
X175804322Y-14536209D02*
X175804322Y-14036209D01*
X175804322Y-14036209D02*
X176042417Y-14036209D01*
X176804322Y-14274304D02*
X176875750Y-14298114D01*
X176875750Y-14298114D02*
X176899560Y-14321923D01*
X176899560Y-14321923D02*
X176923369Y-14369542D01*
X176923369Y-14369542D02*
X176923369Y-14440971D01*
X176923369Y-14440971D02*
X176899560Y-14488590D01*
X176899560Y-14488590D02*
X176875750Y-14512400D01*
X176875750Y-14512400D02*
X176828131Y-14536209D01*
X176828131Y-14536209D02*
X176637655Y-14536209D01*
X176637655Y-14536209D02*
X176637655Y-14036209D01*
X176637655Y-14036209D02*
X176804322Y-14036209D01*
X176804322Y-14036209D02*
X176851941Y-14060019D01*
X176851941Y-14060019D02*
X176875750Y-14083828D01*
X176875750Y-14083828D02*
X176899560Y-14131447D01*
X176899560Y-14131447D02*
X176899560Y-14179066D01*
X176899560Y-14179066D02*
X176875750Y-14226685D01*
X176875750Y-14226685D02*
X176851941Y-14250495D01*
X176851941Y-14250495D02*
X176804322Y-14274304D01*
X176804322Y-14274304D02*
X176637655Y-14274304D01*
X177137655Y-14274304D02*
X177304322Y-14274304D01*
X177375750Y-14536209D02*
X177137655Y-14536209D01*
X177137655Y-14536209D02*
X177137655Y-14036209D01*
X177137655Y-14036209D02*
X177375750Y-14036209D01*
X177518608Y-14036209D02*
X177685274Y-14536209D01*
X177685274Y-14536209D02*
X177851941Y-14036209D01*
X178018607Y-14274304D02*
X178185274Y-14274304D01*
X178256702Y-14536209D02*
X178018607Y-14536209D01*
X178018607Y-14536209D02*
X178018607Y-14036209D01*
X178018607Y-14036209D02*
X178256702Y-14036209D01*
X178709083Y-14536209D02*
X178470988Y-14536209D01*
X178470988Y-14536209D02*
X178470988Y-14036209D01*
X176491036Y-16527257D02*
X176505322Y-16512971D01*
X176505322Y-16512971D02*
X176533894Y-16498685D01*
X176533894Y-16498685D02*
X176605322Y-16498685D01*
X176605322Y-16498685D02*
X176633894Y-16512971D01*
X176633894Y-16512971D02*
X176648179Y-16527257D01*
X176648179Y-16527257D02*
X176662465Y-16555828D01*
X176662465Y-16555828D02*
X176662465Y-16584400D01*
X176662465Y-16584400D02*
X176648179Y-16627257D01*
X176648179Y-16627257D02*
X176476751Y-16798685D01*
X176476751Y-16798685D02*
X176662465Y-16798685D01*
X176848179Y-16498685D02*
X176876750Y-16498685D01*
X176876750Y-16498685D02*
X176905322Y-16512971D01*
X176905322Y-16512971D02*
X176919608Y-16527257D01*
X176919608Y-16527257D02*
X176933893Y-16555828D01*
X176933893Y-16555828D02*
X176948179Y-16612971D01*
X176948179Y-16612971D02*
X176948179Y-16684400D01*
X176948179Y-16684400D02*
X176933893Y-16741542D01*
X176933893Y-16741542D02*
X176919608Y-16770114D01*
X176919608Y-16770114D02*
X176905322Y-16784400D01*
X176905322Y-16784400D02*
X176876750Y-16798685D01*
X176876750Y-16798685D02*
X176848179Y-16798685D01*
X176848179Y-16798685D02*
X176819608Y-16784400D01*
X176819608Y-16784400D02*
X176805322Y-16770114D01*
X176805322Y-16770114D02*
X176791036Y-16741542D01*
X176791036Y-16741542D02*
X176776750Y-16684400D01*
X176776750Y-16684400D02*
X176776750Y-16612971D01*
X176776750Y-16612971D02*
X176791036Y-16555828D01*
X176791036Y-16555828D02*
X176805322Y-16527257D01*
X176805322Y-16527257D02*
X176819608Y-16512971D01*
X176819608Y-16512971D02*
X176848179Y-16498685D01*
X177119607Y-16498685D02*
X177091036Y-16512971D01*
X177091036Y-16512971D02*
X177076750Y-16541542D01*
X177076750Y-16541542D02*
X177091036Y-16570114D01*
X177091036Y-16570114D02*
X177119607Y-16584400D01*
X177119607Y-16584400D02*
X177148179Y-16570114D01*
X177148179Y-16570114D02*
X177162464Y-16541542D01*
X177162464Y-16541542D02*
X177148179Y-16512971D01*
X177148179Y-16512971D02*
X177119607Y-16498685D01*
X174378709Y-19385712D02*
X174378709Y-19671426D01*
X174378709Y-19528569D02*
X173878709Y-19528569D01*
X173878709Y-19528569D02*
X173950138Y-19576188D01*
X173950138Y-19576188D02*
X173997757Y-19623807D01*
X173997757Y-19623807D02*
X174021566Y-19671426D01*
X174354900Y-19147617D02*
X174378709Y-19147617D01*
X174378709Y-19147617D02*
X174426328Y-19171427D01*
X174426328Y-19171427D02*
X174450138Y-19195236D01*
X173878709Y-18980951D02*
X173878709Y-18671427D01*
X173878709Y-18671427D02*
X174069185Y-18838094D01*
X174069185Y-18838094D02*
X174069185Y-18766665D01*
X174069185Y-18766665D02*
X174092995Y-18719046D01*
X174092995Y-18719046D02*
X174116804Y-18695237D01*
X174116804Y-18695237D02*
X174164423Y-18671427D01*
X174164423Y-18671427D02*
X174283471Y-18671427D01*
X174283471Y-18671427D02*
X174331090Y-18695237D01*
X174331090Y-18695237D02*
X174354900Y-18719046D01*
X174354900Y-18719046D02*
X174378709Y-18766665D01*
X174378709Y-18766665D02*
X174378709Y-18909522D01*
X174378709Y-18909522D02*
X174354900Y-18957141D01*
X174354900Y-18957141D02*
X174331090Y-18980951D01*
X173878709Y-18361904D02*
X173878709Y-18314285D01*
X173878709Y-18314285D02*
X173902519Y-18266666D01*
X173902519Y-18266666D02*
X173926328Y-18242856D01*
X173926328Y-18242856D02*
X173973947Y-18219047D01*
X173973947Y-18219047D02*
X174069185Y-18195237D01*
X174069185Y-18195237D02*
X174188233Y-18195237D01*
X174188233Y-18195237D02*
X174283471Y-18219047D01*
X174283471Y-18219047D02*
X174331090Y-18242856D01*
X174331090Y-18242856D02*
X174354900Y-18266666D01*
X174354900Y-18266666D02*
X174378709Y-18314285D01*
X174378709Y-18314285D02*
X174378709Y-18361904D01*
X174378709Y-18361904D02*
X174354900Y-18409523D01*
X174354900Y-18409523D02*
X174331090Y-18433332D01*
X174331090Y-18433332D02*
X174283471Y-18457142D01*
X174283471Y-18457142D02*
X174188233Y-18480951D01*
X174188233Y-18480951D02*
X174069185Y-18480951D01*
X174069185Y-18480951D02*
X173973947Y-18457142D01*
X173973947Y-18457142D02*
X173926328Y-18433332D01*
X173926328Y-18433332D02*
X173902519Y-18409523D01*
X173902519Y-18409523D02*
X173878709Y-18361904D01*
X173878709Y-17885714D02*
X173878709Y-17838095D01*
X173878709Y-17838095D02*
X173902519Y-17790476D01*
X173902519Y-17790476D02*
X173926328Y-17766666D01*
X173926328Y-17766666D02*
X173973947Y-17742857D01*
X173973947Y-17742857D02*
X174069185Y-17719047D01*
X174069185Y-17719047D02*
X174188233Y-17719047D01*
X174188233Y-17719047D02*
X174283471Y-17742857D01*
X174283471Y-17742857D02*
X174331090Y-17766666D01*
X174331090Y-17766666D02*
X174354900Y-17790476D01*
X174354900Y-17790476D02*
X174378709Y-17838095D01*
X174378709Y-17838095D02*
X174378709Y-17885714D01*
X174378709Y-17885714D02*
X174354900Y-17933333D01*
X174354900Y-17933333D02*
X174331090Y-17957142D01*
X174331090Y-17957142D02*
X174283471Y-17980952D01*
X174283471Y-17980952D02*
X174188233Y-18004761D01*
X174188233Y-18004761D02*
X174069185Y-18004761D01*
X174069185Y-18004761D02*
X173973947Y-17980952D01*
X173973947Y-17980952D02*
X173926328Y-17957142D01*
X173926328Y-17957142D02*
X173902519Y-17933333D01*
X173902519Y-17933333D02*
X173878709Y-17885714D01*
X173878709Y-17409524D02*
X173878709Y-17361905D01*
X173878709Y-17361905D02*
X173902519Y-17314286D01*
X173902519Y-17314286D02*
X173926328Y-17290476D01*
X173926328Y-17290476D02*
X173973947Y-17266667D01*
X173973947Y-17266667D02*
X174069185Y-17242857D01*
X174069185Y-17242857D02*
X174188233Y-17242857D01*
X174188233Y-17242857D02*
X174283471Y-17266667D01*
X174283471Y-17266667D02*
X174331090Y-17290476D01*
X174331090Y-17290476D02*
X174354900Y-17314286D01*
X174354900Y-17314286D02*
X174378709Y-17361905D01*
X174378709Y-17361905D02*
X174378709Y-17409524D01*
X174378709Y-17409524D02*
X174354900Y-17457143D01*
X174354900Y-17457143D02*
X174331090Y-17480952D01*
X174331090Y-17480952D02*
X174283471Y-17504762D01*
X174283471Y-17504762D02*
X174188233Y-17528571D01*
X174188233Y-17528571D02*
X174069185Y-17528571D01*
X174069185Y-17528571D02*
X173973947Y-17504762D01*
X173973947Y-17504762D02*
X173926328Y-17480952D01*
X173926328Y-17480952D02*
X173902519Y-17457143D01*
X173902519Y-17457143D02*
X173878709Y-17409524D01*
X174378709Y-16647620D02*
X174045376Y-16647620D01*
X174092995Y-16647620D02*
X174069185Y-16623810D01*
X174069185Y-16623810D02*
X174045376Y-16576191D01*
X174045376Y-16576191D02*
X174045376Y-16504763D01*
X174045376Y-16504763D02*
X174069185Y-16457144D01*
X174069185Y-16457144D02*
X174116804Y-16433334D01*
X174116804Y-16433334D02*
X174378709Y-16433334D01*
X174116804Y-16433334D02*
X174069185Y-16409525D01*
X174069185Y-16409525D02*
X174045376Y-16361906D01*
X174045376Y-16361906D02*
X174045376Y-16290477D01*
X174045376Y-16290477D02*
X174069185Y-16242858D01*
X174069185Y-16242858D02*
X174116804Y-16219048D01*
X174116804Y-16219048D02*
X174378709Y-16219048D01*
X174378709Y-15980953D02*
X174045376Y-15980953D01*
X174092995Y-15980953D02*
X174069185Y-15957143D01*
X174069185Y-15957143D02*
X174045376Y-15909524D01*
X174045376Y-15909524D02*
X174045376Y-15838096D01*
X174045376Y-15838096D02*
X174069185Y-15790477D01*
X174069185Y-15790477D02*
X174116804Y-15766667D01*
X174116804Y-15766667D02*
X174378709Y-15766667D01*
X174116804Y-15766667D02*
X174069185Y-15742858D01*
X174069185Y-15742858D02*
X174045376Y-15695239D01*
X174045376Y-15695239D02*
X174045376Y-15623810D01*
X174045376Y-15623810D02*
X174069185Y-15576191D01*
X174069185Y-15576191D02*
X174116804Y-15552381D01*
X174116804Y-15552381D02*
X174378709Y-15552381D01*
X175300000Y-16950000D02*
X174113580Y-16950000D01*
X175300000Y-18250000D02*
X174113580Y-18250000D01*
X174700000Y-16950000D02*
X174700000Y-18250000D01*
X174700000Y-16950000D02*
X174700000Y-18250000D01*
X174700000Y-16950000D02*
X174930874Y-17393505D01*
X174700000Y-16950000D02*
X174469126Y-17393505D01*
X174700000Y-18250000D02*
X174469126Y-17806495D01*
X174700000Y-18250000D02*
X174930874Y-17806495D01*
X174489286Y-21378709D02*
X174203572Y-21378709D01*
X174346429Y-21378709D02*
X174346429Y-20878709D01*
X174346429Y-20878709D02*
X174298810Y-20950138D01*
X174298810Y-20950138D02*
X174251191Y-20997757D01*
X174251191Y-20997757D02*
X174203572Y-21021566D01*
X174727381Y-21354900D02*
X174727381Y-21378709D01*
X174727381Y-21378709D02*
X174703571Y-21426328D01*
X174703571Y-21426328D02*
X174679762Y-21450138D01*
X175179761Y-20878709D02*
X174941666Y-20878709D01*
X174941666Y-20878709D02*
X174917857Y-21116804D01*
X174917857Y-21116804D02*
X174941666Y-21092995D01*
X174941666Y-21092995D02*
X174989285Y-21069185D01*
X174989285Y-21069185D02*
X175108333Y-21069185D01*
X175108333Y-21069185D02*
X175155952Y-21092995D01*
X175155952Y-21092995D02*
X175179761Y-21116804D01*
X175179761Y-21116804D02*
X175203571Y-21164423D01*
X175203571Y-21164423D02*
X175203571Y-21283471D01*
X175203571Y-21283471D02*
X175179761Y-21331090D01*
X175179761Y-21331090D02*
X175155952Y-21354900D01*
X175155952Y-21354900D02*
X175108333Y-21378709D01*
X175108333Y-21378709D02*
X174989285Y-21378709D01*
X174989285Y-21378709D02*
X174941666Y-21354900D01*
X174941666Y-21354900D02*
X174917857Y-21331090D01*
X175655951Y-20878709D02*
X175417856Y-20878709D01*
X175417856Y-20878709D02*
X175394047Y-21116804D01*
X175394047Y-21116804D02*
X175417856Y-21092995D01*
X175417856Y-21092995D02*
X175465475Y-21069185D01*
X175465475Y-21069185D02*
X175584523Y-21069185D01*
X175584523Y-21069185D02*
X175632142Y-21092995D01*
X175632142Y-21092995D02*
X175655951Y-21116804D01*
X175655951Y-21116804D02*
X175679761Y-21164423D01*
X175679761Y-21164423D02*
X175679761Y-21283471D01*
X175679761Y-21283471D02*
X175655951Y-21331090D01*
X175655951Y-21331090D02*
X175632142Y-21354900D01*
X175632142Y-21354900D02*
X175584523Y-21378709D01*
X175584523Y-21378709D02*
X175465475Y-21378709D01*
X175465475Y-21378709D02*
X175417856Y-21354900D01*
X175417856Y-21354900D02*
X175394047Y-21331090D01*
X175989284Y-20878709D02*
X176036903Y-20878709D01*
X176036903Y-20878709D02*
X176084522Y-20902519D01*
X176084522Y-20902519D02*
X176108332Y-20926328D01*
X176108332Y-20926328D02*
X176132141Y-20973947D01*
X176132141Y-20973947D02*
X176155951Y-21069185D01*
X176155951Y-21069185D02*
X176155951Y-21188233D01*
X176155951Y-21188233D02*
X176132141Y-21283471D01*
X176132141Y-21283471D02*
X176108332Y-21331090D01*
X176108332Y-21331090D02*
X176084522Y-21354900D01*
X176084522Y-21354900D02*
X176036903Y-21378709D01*
X176036903Y-21378709D02*
X175989284Y-21378709D01*
X175989284Y-21378709D02*
X175941665Y-21354900D01*
X175941665Y-21354900D02*
X175917856Y-21331090D01*
X175917856Y-21331090D02*
X175894046Y-21283471D01*
X175894046Y-21283471D02*
X175870237Y-21188233D01*
X175870237Y-21188233D02*
X175870237Y-21069185D01*
X175870237Y-21069185D02*
X175894046Y-20973947D01*
X175894046Y-20973947D02*
X175917856Y-20926328D01*
X175917856Y-20926328D02*
X175941665Y-20902519D01*
X175941665Y-20902519D02*
X175989284Y-20878709D01*
X176465474Y-20878709D02*
X176513093Y-20878709D01*
X176513093Y-20878709D02*
X176560712Y-20902519D01*
X176560712Y-20902519D02*
X176584522Y-20926328D01*
X176584522Y-20926328D02*
X176608331Y-20973947D01*
X176608331Y-20973947D02*
X176632141Y-21069185D01*
X176632141Y-21069185D02*
X176632141Y-21188233D01*
X176632141Y-21188233D02*
X176608331Y-21283471D01*
X176608331Y-21283471D02*
X176584522Y-21331090D01*
X176584522Y-21331090D02*
X176560712Y-21354900D01*
X176560712Y-21354900D02*
X176513093Y-21378709D01*
X176513093Y-21378709D02*
X176465474Y-21378709D01*
X176465474Y-21378709D02*
X176417855Y-21354900D01*
X176417855Y-21354900D02*
X176394046Y-21331090D01*
X176394046Y-21331090D02*
X176370236Y-21283471D01*
X176370236Y-21283471D02*
X176346427Y-21188233D01*
X176346427Y-21188233D02*
X176346427Y-21069185D01*
X176346427Y-21069185D02*
X176370236Y-20973947D01*
X176370236Y-20973947D02*
X176394046Y-20926328D01*
X176394046Y-20926328D02*
X176417855Y-20902519D01*
X176417855Y-20902519D02*
X176465474Y-20878709D01*
X177227378Y-21378709D02*
X177227378Y-21045376D01*
X177227378Y-21092995D02*
X177251188Y-21069185D01*
X177251188Y-21069185D02*
X177298807Y-21045376D01*
X177298807Y-21045376D02*
X177370235Y-21045376D01*
X177370235Y-21045376D02*
X177417854Y-21069185D01*
X177417854Y-21069185D02*
X177441664Y-21116804D01*
X177441664Y-21116804D02*
X177441664Y-21378709D01*
X177441664Y-21116804D02*
X177465473Y-21069185D01*
X177465473Y-21069185D02*
X177513092Y-21045376D01*
X177513092Y-21045376D02*
X177584521Y-21045376D01*
X177584521Y-21045376D02*
X177632140Y-21069185D01*
X177632140Y-21069185D02*
X177655950Y-21116804D01*
X177655950Y-21116804D02*
X177655950Y-21378709D01*
X177894045Y-21378709D02*
X177894045Y-21045376D01*
X177894045Y-21092995D02*
X177917855Y-21069185D01*
X177917855Y-21069185D02*
X177965474Y-21045376D01*
X177965474Y-21045376D02*
X178036902Y-21045376D01*
X178036902Y-21045376D02*
X178084521Y-21069185D01*
X178084521Y-21069185D02*
X178108331Y-21116804D01*
X178108331Y-21116804D02*
X178108331Y-21378709D01*
X178108331Y-21116804D02*
X178132140Y-21069185D01*
X178132140Y-21069185D02*
X178179759Y-21045376D01*
X178179759Y-21045376D02*
X178251188Y-21045376D01*
X178251188Y-21045376D02*
X178298807Y-21069185D01*
X178298807Y-21069185D02*
X178322617Y-21116804D01*
X178322617Y-21116804D02*
X178322617Y-21378709D01*
D14*
X177050000Y-22200000D02*
X177050000Y-21113580D01*
X175499999Y-22200000D02*
X175499999Y-21113580D01*
X177050000Y-21700000D02*
X175499999Y-21700000D01*
X177050000Y-21700000D02*
X175499999Y-21700000D01*
X177050000Y-21700000D02*
X176606495Y-21930874D01*
X177050000Y-21700000D02*
X176606495Y-21469126D01*
X175499999Y-21700000D02*
X175943504Y-21469126D01*
X175499999Y-21700000D02*
X175943504Y-21930874D01*
D15*
X154835001Y-17476109D02*
X154835001Y-16976109D01*
X154835001Y-16976109D02*
X155025477Y-16976109D01*
X155025477Y-16976109D02*
X155073096Y-16999919D01*
X155073096Y-16999919D02*
X155096906Y-17023728D01*
X155096906Y-17023728D02*
X155120715Y-17071347D01*
X155120715Y-17071347D02*
X155120715Y-17142776D01*
X155120715Y-17142776D02*
X155096906Y-17190395D01*
X155096906Y-17190395D02*
X155073096Y-17214204D01*
X155073096Y-17214204D02*
X155025477Y-17238014D01*
X155025477Y-17238014D02*
X154835001Y-17238014D01*
X155620715Y-17428490D02*
X155596906Y-17452300D01*
X155596906Y-17452300D02*
X155525477Y-17476109D01*
X155525477Y-17476109D02*
X155477858Y-17476109D01*
X155477858Y-17476109D02*
X155406430Y-17452300D01*
X155406430Y-17452300D02*
X155358811Y-17404680D01*
X155358811Y-17404680D02*
X155335001Y-17357061D01*
X155335001Y-17357061D02*
X155311192Y-17261823D01*
X155311192Y-17261823D02*
X155311192Y-17190395D01*
X155311192Y-17190395D02*
X155335001Y-17095157D01*
X155335001Y-17095157D02*
X155358811Y-17047538D01*
X155358811Y-17047538D02*
X155406430Y-16999919D01*
X155406430Y-16999919D02*
X155477858Y-16976109D01*
X155477858Y-16976109D02*
X155525477Y-16976109D01*
X155525477Y-16976109D02*
X155596906Y-16999919D01*
X155596906Y-16999919D02*
X155620715Y-17023728D01*
X156001668Y-17214204D02*
X156073096Y-17238014D01*
X156073096Y-17238014D02*
X156096906Y-17261823D01*
X156096906Y-17261823D02*
X156120715Y-17309442D01*
X156120715Y-17309442D02*
X156120715Y-17380871D01*
X156120715Y-17380871D02*
X156096906Y-17428490D01*
X156096906Y-17428490D02*
X156073096Y-17452300D01*
X156073096Y-17452300D02*
X156025477Y-17476109D01*
X156025477Y-17476109D02*
X155835001Y-17476109D01*
X155835001Y-17476109D02*
X155835001Y-16976109D01*
X155835001Y-16976109D02*
X156001668Y-16976109D01*
X156001668Y-16976109D02*
X156049287Y-16999919D01*
X156049287Y-16999919D02*
X156073096Y-17023728D01*
X156073096Y-17023728D02*
X156096906Y-17071347D01*
X156096906Y-17071347D02*
X156096906Y-17118966D01*
X156096906Y-17118966D02*
X156073096Y-17166585D01*
X156073096Y-17166585D02*
X156049287Y-17190395D01*
X156049287Y-17190395D02*
X156001668Y-17214204D01*
X156001668Y-17214204D02*
X155835001Y-17214204D01*
X156644525Y-16976109D02*
X156930239Y-16976109D01*
X156787382Y-17476109D02*
X156787382Y-16976109D01*
X157096905Y-17476109D02*
X157096905Y-16976109D01*
X157311191Y-17476109D02*
X157311191Y-17214204D01*
X157311191Y-17214204D02*
X157287381Y-17166585D01*
X157287381Y-17166585D02*
X157239762Y-17142776D01*
X157239762Y-17142776D02*
X157168334Y-17142776D01*
X157168334Y-17142776D02*
X157120715Y-17166585D01*
X157120715Y-17166585D02*
X157096905Y-17190395D01*
X157549286Y-17476109D02*
X157549286Y-17142776D01*
X157549286Y-16976109D02*
X157525477Y-16999919D01*
X157525477Y-16999919D02*
X157549286Y-17023728D01*
X157549286Y-17023728D02*
X157573096Y-16999919D01*
X157573096Y-16999919D02*
X157549286Y-16976109D01*
X157549286Y-16976109D02*
X157549286Y-17023728D01*
X158001667Y-17452300D02*
X157954048Y-17476109D01*
X157954048Y-17476109D02*
X157858810Y-17476109D01*
X157858810Y-17476109D02*
X157811191Y-17452300D01*
X157811191Y-17452300D02*
X157787381Y-17428490D01*
X157787381Y-17428490D02*
X157763572Y-17380871D01*
X157763572Y-17380871D02*
X157763572Y-17238014D01*
X157763572Y-17238014D02*
X157787381Y-17190395D01*
X157787381Y-17190395D02*
X157811191Y-17166585D01*
X157811191Y-17166585D02*
X157858810Y-17142776D01*
X157858810Y-17142776D02*
X157954048Y-17142776D01*
X157954048Y-17142776D02*
X158001667Y-17166585D01*
X158215952Y-17476109D02*
X158215952Y-16976109D01*
X158263571Y-17285633D02*
X158406428Y-17476109D01*
X158406428Y-17142776D02*
X158215952Y-17333252D01*
X158620714Y-17142776D02*
X158620714Y-17476109D01*
X158620714Y-17190395D02*
X158644524Y-17166585D01*
X158644524Y-17166585D02*
X158692143Y-17142776D01*
X158692143Y-17142776D02*
X158763571Y-17142776D01*
X158763571Y-17142776D02*
X158811190Y-17166585D01*
X158811190Y-17166585D02*
X158835000Y-17214204D01*
X158835000Y-17214204D02*
X158835000Y-17476109D01*
X159263571Y-17452300D02*
X159215952Y-17476109D01*
X159215952Y-17476109D02*
X159120714Y-17476109D01*
X159120714Y-17476109D02*
X159073095Y-17452300D01*
X159073095Y-17452300D02*
X159049286Y-17404680D01*
X159049286Y-17404680D02*
X159049286Y-17214204D01*
X159049286Y-17214204D02*
X159073095Y-17166585D01*
X159073095Y-17166585D02*
X159120714Y-17142776D01*
X159120714Y-17142776D02*
X159215952Y-17142776D01*
X159215952Y-17142776D02*
X159263571Y-17166585D01*
X159263571Y-17166585D02*
X159287381Y-17214204D01*
X159287381Y-17214204D02*
X159287381Y-17261823D01*
X159287381Y-17261823D02*
X159049286Y-17309442D01*
X159477857Y-17452300D02*
X159525476Y-17476109D01*
X159525476Y-17476109D02*
X159620714Y-17476109D01*
X159620714Y-17476109D02*
X159668333Y-17452300D01*
X159668333Y-17452300D02*
X159692142Y-17404680D01*
X159692142Y-17404680D02*
X159692142Y-17380871D01*
X159692142Y-17380871D02*
X159668333Y-17333252D01*
X159668333Y-17333252D02*
X159620714Y-17309442D01*
X159620714Y-17309442D02*
X159549285Y-17309442D01*
X159549285Y-17309442D02*
X159501666Y-17285633D01*
X159501666Y-17285633D02*
X159477857Y-17238014D01*
X159477857Y-17238014D02*
X159477857Y-17214204D01*
X159477857Y-17214204D02*
X159501666Y-17166585D01*
X159501666Y-17166585D02*
X159549285Y-17142776D01*
X159549285Y-17142776D02*
X159620714Y-17142776D01*
X159620714Y-17142776D02*
X159668333Y-17166585D01*
X159882619Y-17452300D02*
X159930238Y-17476109D01*
X159930238Y-17476109D02*
X160025476Y-17476109D01*
X160025476Y-17476109D02*
X160073095Y-17452300D01*
X160073095Y-17452300D02*
X160096904Y-17404680D01*
X160096904Y-17404680D02*
X160096904Y-17380871D01*
X160096904Y-17380871D02*
X160073095Y-17333252D01*
X160073095Y-17333252D02*
X160025476Y-17309442D01*
X160025476Y-17309442D02*
X159954047Y-17309442D01*
X159954047Y-17309442D02*
X159906428Y-17285633D01*
X159906428Y-17285633D02*
X159882619Y-17238014D01*
X159882619Y-17238014D02*
X159882619Y-17214204D01*
X159882619Y-17214204D02*
X159906428Y-17166585D01*
X159906428Y-17166585D02*
X159954047Y-17142776D01*
X159954047Y-17142776D02*
X160025476Y-17142776D01*
X160025476Y-17142776D02*
X160073095Y-17166585D01*
X160954047Y-17476109D02*
X160668333Y-17476109D01*
X160811190Y-17476109D02*
X160811190Y-16976109D01*
X160811190Y-16976109D02*
X160763571Y-17047538D01*
X160763571Y-17047538D02*
X160715952Y-17095157D01*
X160715952Y-17095157D02*
X160668333Y-17118966D01*
X161168332Y-17428490D02*
X161192142Y-17452300D01*
X161192142Y-17452300D02*
X161168332Y-17476109D01*
X161168332Y-17476109D02*
X161144523Y-17452300D01*
X161144523Y-17452300D02*
X161168332Y-17428490D01*
X161168332Y-17428490D02*
X161168332Y-17476109D01*
X161644522Y-16976109D02*
X161406427Y-16976109D01*
X161406427Y-16976109D02*
X161382618Y-17214204D01*
X161382618Y-17214204D02*
X161406427Y-17190395D01*
X161406427Y-17190395D02*
X161454046Y-17166585D01*
X161454046Y-17166585D02*
X161573094Y-17166585D01*
X161573094Y-17166585D02*
X161620713Y-17190395D01*
X161620713Y-17190395D02*
X161644522Y-17214204D01*
X161644522Y-17214204D02*
X161668332Y-17261823D01*
X161668332Y-17261823D02*
X161668332Y-17380871D01*
X161668332Y-17380871D02*
X161644522Y-17428490D01*
X161644522Y-17428490D02*
X161620713Y-17452300D01*
X161620713Y-17452300D02*
X161573094Y-17476109D01*
X161573094Y-17476109D02*
X161454046Y-17476109D01*
X161454046Y-17476109D02*
X161406427Y-17452300D01*
X161406427Y-17452300D02*
X161382618Y-17428490D01*
X161834998Y-16976109D02*
X162168331Y-16976109D01*
X162168331Y-16976109D02*
X161954046Y-17476109D01*
X162739759Y-17476109D02*
X162739759Y-17142776D01*
X162739759Y-17190395D02*
X162763569Y-17166585D01*
X162763569Y-17166585D02*
X162811188Y-17142776D01*
X162811188Y-17142776D02*
X162882616Y-17142776D01*
X162882616Y-17142776D02*
X162930235Y-17166585D01*
X162930235Y-17166585D02*
X162954045Y-17214204D01*
X162954045Y-17214204D02*
X162954045Y-17476109D01*
X162954045Y-17214204D02*
X162977854Y-17166585D01*
X162977854Y-17166585D02*
X163025473Y-17142776D01*
X163025473Y-17142776D02*
X163096902Y-17142776D01*
X163096902Y-17142776D02*
X163144521Y-17166585D01*
X163144521Y-17166585D02*
X163168331Y-17214204D01*
X163168331Y-17214204D02*
X163168331Y-17476109D01*
X163406426Y-17476109D02*
X163406426Y-17142776D01*
X163406426Y-17190395D02*
X163430236Y-17166585D01*
X163430236Y-17166585D02*
X163477855Y-17142776D01*
X163477855Y-17142776D02*
X163549283Y-17142776D01*
X163549283Y-17142776D02*
X163596902Y-17166585D01*
X163596902Y-17166585D02*
X163620712Y-17214204D01*
X163620712Y-17214204D02*
X163620712Y-17476109D01*
X163620712Y-17214204D02*
X163644521Y-17166585D01*
X163644521Y-17166585D02*
X163692140Y-17142776D01*
X163692140Y-17142776D02*
X163763569Y-17142776D01*
X163763569Y-17142776D02*
X163811188Y-17166585D01*
X163811188Y-17166585D02*
X163834998Y-17214204D01*
X163834998Y-17214204D02*
X163834998Y-17476109D01*
D12*
%TO.C,H7*%
X238500000Y-30000000D02*
G75*
G03*
X238500000Y-30000000I-3500000J0D01*
G01*
%TO.C,H1*%
X52499999Y-45210001D02*
G75*
G03*
X52499999Y-45210001I-3500000J0D01*
G01*
%TO.C,H4*%
X127999999Y-107210001D02*
G75*
G03*
X127999999Y-107210001I-3500000J0D01*
G01*
%TO.C,H2*%
X127499999Y-45210001D02*
G75*
G03*
X127499999Y-45210001I-3500000J0D01*
G01*
%TO.C,H6*%
X48500000Y-150000000D02*
G75*
G03*
X48500000Y-150000000I-3500000J0D01*
G01*
%TO.C,H8*%
X238500000Y-150000000D02*
G75*
G03*
X238500000Y-150000000I-3500000J0D01*
G01*
%TO.C,H3*%
X52499999Y-107210001D02*
G75*
G03*
X52499999Y-107210001I-3500000J0D01*
G01*
%TO.C,H5*%
X48500000Y-30000000D02*
G75*
G03*
X48500000Y-30000000I-3500000J0D01*
G01*
%TD*%
M02*
